<svg id="svg" version="1.1" xmlns="http://www.w3.org/2000/svg" xmlns:xlink="http://www.w3.org/1999/xlink" width="400" height="400" viewBox="0, 0, 400,400"><g id="svgg"><path id="path0" d="M158.691 43.823 C 157.070 45.583,158.057 47.110,159.995 45.840 C 161.814 44.648,208.699 46.365,217.578 47.949 C 219.466 48.286,198.059 49.474,183.752 49.826 L 171.996 50.116 172.033 49.274 L 172.070 48.433 148.047 48.276 C 134.834 48.190,116.201 47.884,106.641 47.596 C 97.080 47.308,85.479 47.072,80.859 47.071 L 72.461 47.070 72.339 48.126 C 72.270 48.726,71.913 49.278,71.512 49.405 C 71.124 49.529,70.501 49.966,70.128 50.379 C 69.593 50.970,69.305 51.037,68.761 50.698 C 67.573 49.956,66.797 50.592,66.797 52.309 C 66.797 53.856,66.791 53.862,65.137 53.981 C 63.679 54.087,63.462 54.225,63.359 55.112 C 63.198 56.497,64.125 57.243,65.186 56.580 C 66.794 55.576,66.561 57.900,64.390 64.511 C 62.922 68.984,62.884 71.904,64.276 73.296 C 65.115 74.135,65.240 74.547,65.073 75.915 C 64.964 76.808,64.759 85.361,64.616 94.922 C 64.474 104.482,64.224 116.699,64.060 122.070 C 62.997 156.840,64.420 177.001,67.744 174.243 C 68.158 173.900,68.358 173.900,68.570 174.243 C 68.744 174.524,69.379 174.610,70.251 174.468 C 71.325 174.294,71.845 174.422,72.479 175.017 C 73.945 176.394,83.926 176.159,85.620 174.707 C 85.982 174.396,86.473 174.262,86.711 174.409 C 87.307 174.778,88.281 173.893,88.281 172.983 C 88.281 172.570,88.633 171.856,89.062 171.394 C 90.059 170.324,90.058 169.514,89.058 169.253 C 88.626 169.140,88.187 168.673,88.081 168.215 C 87.488 165.637,86.880 129.275,86.936 99.706 L 86.959 87.888 88.144 86.620 C 89.963 84.674,90.892 83.159,91.380 81.346 C 91.874 79.515,92.950 78.289,94.727 77.537 C 96.405 76.826,99.219 76.413,99.219 76.877 C 99.219 77.862,100.583 77.701,101.740 76.580 L 102.958 75.399 116.811 75.210 C 124.430 75.107,137.496 74.826,145.845 74.587 C 159.501 74.197,161.570 74.220,166.435 74.822 C 174.780 75.854,187.083 75.465,197.852 73.828 C 205.744 72.629,206.387 72.590,214.844 72.789 C 233.245 73.222,248.047 73.959,248.047 74.441 C 248.047 75.478,249.000 75.724,251.001 75.205 C 252.332 74.859,257.742 74.592,267.601 74.383 C 285.951 73.996,285.794 73.994,287.808 74.636 C 289.136 75.059,289.640 75.071,290.244 74.694 C 291.399 73.973,292.578 74.097,292.578 74.939 C 292.578 76.228,294.007 77.194,294.824 76.458 C 295.631 75.731,313.258 72.615,313.477 73.161 C 314.966 76.875,316.205 97.134,315.669 108.984 C 314.763 128.983,314.652 141.152,315.371 141.748 C 316.890 143.009,317.184 141.820,317.231 134.230 C 317.271 127.798,317.753 118.203,317.906 120.801 C 317.940 121.392,318.139 121.875,318.346 121.875 C 319.063 121.875,318.408 161.690,317.667 163.157 C 316.980 164.515,317.363 170.939,318.544 177.883 C 319.468 183.318,319.686 187.067,319.138 188.092 C 318.374 189.519,318.891 190.127,321.292 190.626 C 323.405 191.064,323.525 191.156,324.265 192.905 C 325.660 196.204,327.817 196.685,330.469 194.289 L 332.035 192.875 334.865 193.296 C 337.094 193.628,337.802 193.611,338.198 193.217 C 339.098 192.322,338.326 191.459,336.391 191.197 C 332.896 190.723,331.886 189.896,334.668 189.786 C 338.007 189.654,337.620 189.927,339.014 186.719 C 339.626 185.311,339.784 185.150,339.811 185.912 C 339.829 186.435,339.469 187.636,339.012 188.581 C 337.964 190.745,338.726 192.185,340.208 190.844 C 342.441 188.823,342.432 188.999,341.535 163.979 C 341.346 158.712,341.404 156.919,341.775 156.471 C 342.098 156.083,342.185 155.247,342.032 154.015 C 341.905 152.989,341.709 150.501,341.597 148.488 C 341.485 146.474,341.295 144.668,341.176 144.474 C 340.749 143.785,341.003 106.003,341.455 102.868 C 342.078 98.550,341.988 92.492,341.252 89.135 C 340.847 87.290,340.625 84.392,340.625 80.961 L 340.625 75.645 341.504 76.449 C 346.085 80.638,347.870 77.624,343.376 73.286 L 340.659 70.662 340.396 62.577 C 340.106 53.632,339.724 51.805,338.192 52.023 C 337.460 52.126,337.327 52.353,337.430 53.320 C 337.959 58.255,337.930 60.448,337.333 60.677 C 336.892 60.847,336.711 60.669,336.691 60.046 C 336.426 51.769,335.180 49.259,331.181 48.947 C 328.070 48.704,327.455 48.515,327.252 47.738 C 326.914 46.445,293.578 45.533,258.984 45.871 C 228.944 46.164,222.621 45.997,200.150 44.316 C 191.722 43.685,181.948 43.243,173.242 43.097 L 159.570 42.869 158.691 43.823 M282.224 49.146 C 283.255 49.775,278.901 49.920,268.750 49.595 C 252.367 49.070,252.388 49.072,259.375 48.830 C 266.654 48.578,281.634 48.785,282.224 49.146 M308.736 48.779 L 311.418 49.023 310.583 49.776 C 309.757 50.520,309.719 50.519,307.315 49.674 C 304.417 48.657,303.672 48.619,303.199 49.463 C 302.875 50.042,302.640 50.026,300.543 49.284 L 298.242 48.470 302.148 48.502 C 304.297 48.520,307.261 48.645,308.736 48.779 M242.283 50.586 C 242.159 51.236,242.275 51.570,242.630 51.586 C 242.924 51.599,247.822 51.609,253.516 51.609 C 266.860 51.610,265.080 52.194,250.879 52.475 C 241.905 52.653,240.234 52.600,240.234 52.138 C 240.234 50.755,234.250 50.348,225.781 51.155 C 223.740 51.349,216.182 51.599,208.984 51.710 L 195.898 51.911 205.273 51.341 C 225.947 50.084,233.217 49.707,237.739 49.659 L 242.470 49.609 242.283 50.586 M293.272 50.284 C 292.472 50.368,291.066 50.369,290.147 50.287 C 289.228 50.204,289.883 50.135,291.602 50.134 C 293.320 50.132,294.072 50.200,293.272 50.284 M135.742 51.658 C 144.121 51.817,157.568 52.303,165.625 52.738 C 173.682 53.172,184.186 53.641,188.968 53.779 C 193.750 53.918,197.617 54.071,197.561 54.121 C 197.506 54.171,195.270 54.420,192.592 54.675 C 189.915 54.931,187.447 55.288,187.109 55.469 C 186.770 55.650,183.555 55.925,179.965 56.080 L 173.436 56.362 172.518 55.372 C 171.410 54.177,165.351 53.618,158.680 54.095 C 154.926 54.364,154.760 54.342,153.936 53.456 C 152.851 52.291,149.482 52.247,136.749 53.230 C 127.876 53.915,114.431 54.145,113.906 53.620 C 113.749 53.463,110.424 53.311,106.517 53.284 C 100.264 53.241,98.947 53.115,95.508 52.231 L 91.602 51.228 106.055 51.297 C 114.004 51.336,127.363 51.498,135.742 51.658 M89.063 53.075 L 93.555 54.178 88.007 54.476 C 84.956 54.639,80.836 54.645,78.851 54.488 L 75.243 54.202 76.586 53.078 C 77.485 52.325,78.213 52.018,78.785 52.150 C 79.255 52.258,79.763 52.148,79.913 51.905 C 80.287 51.299,83.495 51.709,89.063 53.075 M71.980 52.767 C 71.760 53.607,70.854 54.188,70.428 53.762 C 70.165 53.499,71.422 51.953,71.899 51.953 C 72.060 51.953,72.097 52.320,71.980 52.767 M229.592 56.348 C 229.400 56.929,225.795 57.305,219.759 57.373 C 212.334 57.458,216.722 56.765,229.036 55.909 C 229.449 55.880,229.684 56.066,229.592 56.348 M166.516 56.535 C 165.609 56.617,164.027 56.618,163.000 56.538 C 161.973 56.457,162.715 56.390,164.648 56.389 C 166.582 56.387,167.422 56.454,166.516 56.535 M73.298 58.473 C 72.753 59.018,72.398 58.310,72.772 57.422 L 73.182 56.445 73.341 57.358 C 73.429 57.860,73.410 58.361,73.298 58.473 M77.457 57.422 C 77.345 57.852,76.942 58.203,76.563 58.203 C 76.183 58.203,75.780 57.852,75.668 57.422 C 75.500 56.777,75.656 56.641,76.563 56.641 C 77.469 56.641,77.625 56.777,77.457 57.422 M86.857 57.440 C 86.086 58.211,80.859 58.415,80.859 57.674 C 80.859 57.130,81.350 57.031,84.063 57.031 C 86.290 57.031,87.141 57.156,86.857 57.440 M151.758 59.509 C 149.852 59.824,144.055 59.902,132.617 59.767 C 117.683 59.590,116.999 59.555,125.000 59.376 C 143.657 58.959,154.754 59.014,151.758 59.509 M287.305 60.790 C 287.866 61.019,287.152 61.230,284.766 61.541 C 281.408 61.978,280.240 61.912,270.703 60.747 L 266.211 60.198 276.367 60.335 C 281.953 60.411,286.875 60.615,287.305 60.790 M330.971 60.931 C 331.144 61.593,331.064 61.647,330.419 61.302 C 330.005 61.080,329.769 60.731,329.895 60.527 C 330.270 59.921,330.754 60.103,330.971 60.931 M250.511 61.176 C 252.393 61.339,253.421 61.579,253.196 61.804 C 252.972 62.028,251.964 62.007,250.563 61.748 C 249.315 61.517,247.370 61.328,246.240 61.328 C 245.111 61.328,244.062 61.126,243.909 60.879 C 243.708 60.553,244.155 60.496,245.546 60.672 C 246.599 60.804,248.833 61.031,250.511 61.176 M324.971 62.771 C 325.190 63.565,325.299 64.284,325.214 64.370 C 324.929 64.654,323.792 62.094,324.031 61.707 C 324.411 61.092,324.551 61.250,324.971 62.771 M295.703 62.737 C 295.703 62.822,294.956 62.870,294.043 62.844 C 292.520 62.802,292.479 62.776,293.555 62.527 C 294.643 62.275,295.703 62.379,295.703 62.737 M304.473 62.918 C 305.120 63.552,303.326 63.323,302.516 62.669 C 301.795 62.086,301.816 62.068,302.930 62.306 C 303.574 62.443,304.269 62.719,304.473 62.918 M76.563 64.258 C 76.563 64.795,76.387 65.234,76.172 65.234 C 75.957 65.234,75.781 64.795,75.781 64.258 C 75.781 63.721,75.957 63.281,76.172 63.281 C 76.387 63.281,76.563 63.721,76.563 64.258 M99.544 64.079 C 101.100 64.103,93.146 67.795,90.778 68.148 C 89.727 68.304,88.996 68.302,89.152 68.143 C 89.878 67.407,97.520 63.716,97.981 63.879 C 98.267 63.980,98.970 64.070,99.544 64.079 M87.891 65.995 C 86.559 66.704,85.938 66.712,85.938 66.020 C 85.938 65.678,87.021 65.373,88.477 65.304 C 89.017 65.278,88.836 65.491,87.891 65.995 M81.769 67.430 C 81.157 68.364,81.075 68.390,80.837 67.723 C 80.647 67.189,80.798 66.924,81.401 66.738 C 81.855 66.598,82.275 66.467,82.333 66.445 C 82.392 66.424,82.138 66.867,81.769 67.430 M247.615 67.540 C 248.370 68.245,248.828 69.056,248.828 69.688 C 248.828 70.295,249.047 70.703,249.372 70.703 C 249.672 70.703,250.027 70.992,250.163 71.345 C 250.378 71.907,250.156 71.956,248.349 71.739 C 247.216 71.602,245.013 71.490,243.454 71.488 C 240.628 71.484,240.620 71.481,241.110 70.605 C 241.778 69.410,242.196 69.154,243.483 69.147 C 245.110 69.138,246.094 68.468,246.094 67.369 C 246.094 66.159,246.143 66.164,247.615 67.540 M237.493 67.579 C 236.523 67.743,232.919 67.971,229.485 68.084 L 223.242 68.289 228.320 67.796 C 234.223 67.222,240.467 67.074,237.493 67.579 M259.277 67.457 C 258.901 67.555,258.286 67.555,257.910 67.457 C 257.534 67.359,257.842 67.278,258.594 67.278 C 259.346 67.278,259.653 67.359,259.277 67.457 M173.759 68.607 C 173.664 69.086,172.532 69.468,169.239 70.132 C 166.822 70.619,164.289 71.211,163.609 71.448 C 162.622 71.792,161.484 71.705,157.933 71.013 L 153.492 70.147 158.484 69.439 C 161.230 69.049,163.916 68.583,164.453 68.404 C 166.460 67.733,173.900 67.896,173.759 68.607 M219.889 68.501 C 219.800 68.579,216.650 68.728,212.891 68.833 C 209.131 68.938,206.670 68.897,207.422 68.743 C 208.802 68.460,220.191 68.239,219.889 68.501 M72.003 77.832 C 71.825 82.827,71.703 89.199,71.732 91.992 L 71.785 97.070 71.235 93.945 C 70.515 89.849,71.275 68.750,72.144 68.750 C 72.244 68.750,72.180 72.837,72.003 77.832 M129.395 69.041 C 127.192 69.111,123.589 69.111,121.387 69.041 C 119.185 68.972,120.986 68.915,125.391 68.915 C 129.795 68.915,131.597 68.972,129.395 69.041 M271.875 70.703 C 271.536 71.337,271.036 71.491,269.225 71.519 C 267.997 71.539,264.910 71.670,262.365 71.812 C 259.819 71.954,257.675 71.969,257.598 71.845 C 257.438 71.586,263.280 70.686,267.578 70.309 C 272.705 69.858,272.345 69.825,271.875 70.703 M107.630 70.782 C 107.781 70.932,107.488 71.140,106.980 71.243 C 106.471 71.345,104.561 71.749,102.734 72.141 C 100.908 72.532,98.535 72.788,97.461 72.710 L 95.508 72.569 97.785 71.538 C 100.045 70.515,106.840 69.993,107.630 70.782 M143.555 71.094 C 143.687 71.309,144.796 71.497,146.019 71.513 C 153.026 71.605,150.818 72.130,142.397 72.374 C 136.386 72.549,132.899 72.508,132.651 72.261 C 132.439 72.049,131.744 71.875,131.107 71.875 C 130.469 71.875,130.077 71.746,130.234 71.589 C 130.391 71.432,133.277 71.198,136.647 71.070 C 140.016 70.942,142.895 70.807,143.043 70.770 C 143.192 70.733,143.422 70.879,143.555 71.094 M276.367 71.094 C 275.277 71.562,274.125 71.562,274.414 71.094 C 274.547 70.879,275.216 70.715,275.902 70.731 C 276.953 70.754,277.026 70.811,276.367 71.094 M289.063 71.289 C 289.478 71.790,289.358 71.874,288.231 71.870 C 286.266 71.862,284.968 71.453,285.612 71.046 C 286.457 70.509,288.537 70.656,289.063 71.289 M293.750 71.289 C 294.165 71.789,294.056 71.875,293.017 71.875 C 292.193 71.875,291.797 71.685,291.797 71.289 C 291.797 70.967,292.127 70.703,292.530 70.703 C 292.934 70.703,293.483 70.967,293.750 71.289 M188.477 72.671 C 187.188 72.831,185.430 72.958,184.570 72.953 L 183.008 72.944 184.375 72.656 C 185.127 72.498,186.885 72.371,188.281 72.374 L 190.820 72.380 188.477 72.671 M318.955 73.467 C 319.331 74.652,319.055 74.690,317.758 73.630 L 316.602 72.684 317.649 72.670 C 318.374 72.661,318.777 72.906,318.955 73.467 M318.582 78.312 C 318.465 78.746,318.336 80.244,318.294 81.641 C 318.224 83.980,318.207 84.026,318.077 82.227 C 317.999 81.152,317.700 80.094,317.412 79.874 C 317.125 79.654,316.825 78.670,316.746 77.688 L 316.602 75.902 317.698 76.713 C 318.476 77.288,318.733 77.753,318.582 78.312 M332.647 78.031 C 332.222 78.455,332.101 77.928,332.352 76.758 L 332.604 75.586 332.738 76.696 C 332.811 77.306,332.770 77.907,332.647 78.031 M332.813 81.324 C 332.813 81.838,331.925 81.516,331.730 80.932 C 331.635 80.647,331.813 80.560,332.194 80.706 C 332.534 80.836,332.813 81.115,332.813 81.324 M83.829 88.124 C 84.193 93.819,83.102 108.428,82.347 107.962 C 81.930 107.704,82.018 102.695,82.674 89.331 C 82.947 83.775,83.513 83.183,83.829 88.124 M276.777 93.719 C 276.148 94.736,276.375 102.019,277.051 102.514 C 277.450 102.807,277.734 103.526,277.734 104.242 L 277.734 105.469 269.368 105.469 C 260.202 105.469,259.766 105.531,259.766 106.835 C 259.766 108.211,263.670 109.611,264.683 108.599 C 264.936 108.345,265.931 108.352,267.593 108.620 C 272.132 109.351,271.751 109.062,272.063 112.008 C 272.217 113.460,272.587 115.352,272.885 116.211 C 273.182 117.070,273.429 118.505,273.432 119.398 L 273.438 121.023 265.723 121.162 C 256.744 121.324,254.616 121.875,254.112 124.170 C 253.967 124.831,253.933 125.508,254.036 125.676 C 254.140 125.843,253.669 125.979,252.991 125.978 C 251.207 125.976,251.199 126.769,252.896 135.352 C 253.648 139.149,255.823 138.148,255.866 133.984 C 255.876 133.018,256.142 131.885,256.458 131.468 C 257.283 130.377,257.178 129.790,255.859 128.125 C 254.287 126.139,254.254 126.172,257.813 126.172 C 260.352 126.172,260.938 126.283,260.938 126.767 C 260.938 127.827,262.816 128.125,269.510 128.125 L 276.079 128.125 276.352 131.934 C 276.501 134.028,276.710 136.111,276.816 136.561 C 276.995 137.328,276.802 137.396,273.784 137.629 C 272.011 137.765,270.382 138.056,270.163 138.275 C 269.944 138.493,268.477 138.672,266.902 138.672 C 263.736 138.672,263.151 139.116,264.066 140.826 C 264.722 142.053,265.586 142.344,266.396 141.611 C 267.169 140.912,269.133 140.893,273.801 141.541 C 277.905 142.111,277.654 141.416,278.121 153.516 C 278.745 169.682,279.584 178.057,280.643 178.696 C 281.013 178.919,281.680 179.409,282.124 179.785 C 283.325 180.801,284.760 180.084,284.240 178.728 C 284.118 178.410,284.273 177.660,284.585 177.063 C 285.718 174.891,283.981 150.684,282.177 143.495 L 281.956 142.614 288.635 142.499 C 293.817 142.409,295.313 142.493,295.313 142.876 C 295.313 143.148,295.513 143.691,295.757 144.082 C 296.094 144.622,296.053 146.183,295.589 150.504 C 294.840 157.473,294.976 158.082,298.004 161.314 C 300.307 163.773,300.950 164.020,301.730 162.746 C 302.065 162.198,301.953 161.892,301.162 161.203 C 300.271 160.427,300.225 160.251,300.687 159.372 C 301.479 157.862,300.626 147.183,299.432 143.666 C 298.746 141.645,298.938 140.625,299.955 140.891 C 300.793 141.110,301.659 140.159,301.351 139.357 C 300.976 138.379,297.101 137.831,288.973 137.607 L 281.265 137.393 281.012 136.041 C 280.872 135.297,280.855 133.753,280.973 132.610 C 281.122 131.159,281.024 130.316,280.645 129.817 C 279.716 128.591,279.954 128.516,284.752 128.516 C 289.675 128.516,296.990 127.669,299.464 126.812 C 300.700 126.384,301.141 125.984,301.829 124.668 C 301.868 124.593,302.659 124.660,303.587 124.818 C 305.032 125.063,305.150 125.149,304.415 125.422 C 301.658 126.446,302.416 138.468,305.351 140.282 C 306.953 141.272,308.249 140.626,307.509 139.206 C 307.299 138.803,307.270 138.127,307.443 137.695 C 307.616 137.266,307.770 136.431,307.785 135.840 C 307.800 135.249,307.988 134.766,308.203 134.766 C 308.863 134.766,308.637 132.197,307.808 130.262 C 307.084 128.574,307.076 128.451,307.710 128.711 C 308.889 129.194,309.447 129.125,309.890 128.441 C 310.483 127.526,309.221 126.172,307.775 126.172 C 307.176 126.172,306.574 125.989,306.436 125.766 C 306.275 125.506,306.523 125.444,307.125 125.595 C 308.220 125.870,309.123 125.034,308.758 124.084 C 308.626 123.740,307.876 123.349,307.091 123.216 C 304.222 122.727,302.810 122.244,302.591 121.675 C 302.349 121.044,300.960 120.879,300.613 121.440 C 300.493 121.635,299.161 121.550,297.563 121.245 C 296.003 120.947,293.521 120.704,292.048 120.704 C 289.647 120.703,289.400 120.632,289.660 120.020 C 290.184 118.786,291.406 114.290,291.406 113.596 C 291.406 113.223,290.861 112.296,290.194 111.537 L 288.982 110.156 291.486 110.156 C 293.084 110.156,294.266 109.949,294.750 109.583 C 295.284 109.178,296.559 109.006,299.073 108.997 C 302.781 108.984,303.876 108.535,303.376 107.232 C 303.193 106.754,302.329 106.641,298.863 106.641 C 295.118 106.641,294.388 106.529,293.089 105.762 C 291.569 104.863,285.064 104.569,281.503 105.237 L 280.235 105.475 280.254 100.243 C 280.273 95.129,280.251 94.993,279.297 94.199 C 278.261 93.336,277.145 93.123,276.777 93.719 M335.150 94.434 C 335.133 95.290,334.387 95.858,334.381 95.020 C 334.378 94.536,334.551 94.141,334.766 94.141 C 334.980 94.141,335.154 94.272,335.150 94.434 M213.151 96.354 C 213.008 96.497,212.889 97.244,212.886 98.014 C 212.880 100.147,212.440 102.353,212.068 102.123 C 210.420 101.104,209.604 104.196,211.191 105.445 C 212.268 106.292,212.267 106.288,213.068 114.258 C 213.176 115.332,213.330 118.232,213.410 120.703 L 213.556 125.195 211.954 125.140 C 211.073 125.109,208.945 124.959,207.227 124.807 C 203.762 124.500,201.949 124.933,201.960 126.065 C 201.975 127.646,205.328 129.443,206.480 128.487 C 207.050 128.014,211.328 128.322,211.328 128.837 C 211.328 128.982,211.671 131.205,212.091 133.775 C 212.510 136.346,212.759 138.543,212.643 138.658 C 212.528 138.773,209.155 138.867,205.148 138.867 C 197.554 138.867,196.429 139.163,198.010 140.745 C 198.245 140.980,198.438 141.493,198.438 141.885 C 198.438 142.889,200.292 143.544,201.421 142.940 C 201.980 142.641,203.480 142.540,205.661 142.654 C 208.677 142.813,209.093 142.751,209.569 142.071 C 209.861 141.653,210.795 141.185,211.644 141.029 L 213.187 140.747 213.385 146.253 C 213.552 150.871,213.780 152.435,214.800 155.961 C 215.468 158.273,216.015 160.822,216.013 161.625 L 216.011 163.086 212.595 164.319 C 200.621 168.641,201.358 170.081,215.206 169.419 C 216.859 169.340,216.951 169.393,217.273 170.624 C 217.817 172.704,219.922 172.649,219.922 170.554 C 219.922 170.095,220.273 169.500,220.703 169.231 C 221.916 168.474,221.638 167.400,219.922 166.211 C 218.104 164.951,218.112 164.974,219.174 164.114 C 219.973 163.467,219.976 163.409,219.341 160.956 C 217.441 153.626,216.454 135.158,217.907 134.140 C 218.680 133.599,218.730 133.322,218.502 130.869 L 218.253 128.189 220.091 127.913 C 221.490 127.703,222.831 127.878,225.711 128.644 C 232.564 130.467,238.281 130.424,238.281 128.548 C 238.281 127.562,237.828 127.302,235.179 126.766 C 233.268 126.380,233.023 126.224,233.130 125.466 C 233.313 124.181,232.516 124.079,227.574 124.759 C 223.586 125.307,219.408 125.144,218.440 124.402 C 218.080 124.127,217.408 115.568,217.643 114.258 C 218.093 111.751,217.983 106.667,217.415 103.729 C 217.044 101.812,217.009 100.822,217.296 100.362 C 217.603 99.871,217.511 99.433,216.923 98.586 C 216.494 97.967,216.032 97.153,215.896 96.777 C 215.652 96.099,213.706 95.799,213.151 96.354 M146.484 97.266 C 145.852 97.898,145.703 98.568,145.703 100.781 L 145.703 103.516 144.238 103.530 C 143.433 103.538,141.566 103.778,140.091 104.063 L 137.408 104.582 137.639 102.897 C 137.841 101.424,137.749 101.117,136.904 100.452 C 136.372 100.034,135.938 99.519,135.938 99.308 C 135.938 98.640,134.891 98.023,134.205 98.287 C 133.642 98.503,133.563 99.036,133.667 101.902 L 133.789 105.265 130.078 105.919 C 127.827 106.317,126.221 106.434,125.996 106.217 C 125.462 105.702,123.286 105.777,122.734 106.328 C 122.116 106.947,122.131 108.973,122.754 109.025 C 124.185 109.143,133.108 108.912,133.691 108.741 C 134.190 108.595,134.375 108.765,134.375 109.368 C 134.375 111.392,136.151 113.234,137.576 112.687 C 138.872 112.190,139.798 108.594,138.630 108.594 C 137.127 108.594,138.836 107.822,141.113 107.473 C 142.671 107.233,144.341 106.928,144.824 106.794 C 145.633 106.569,145.703 106.678,145.703 108.158 C 145.703 109.245,145.956 110.019,146.484 110.547 C 147.024 111.087,147.266 111.849,147.266 113.012 L 147.266 114.696 140.918 115.547 C 137.427 116.016,133.016 116.515,131.117 116.658 C 128.760 116.835,127.599 117.086,127.460 117.448 C 127.129 118.311,128.127 119.141,129.494 119.141 C 130.460 119.141,130.820 119.339,130.983 119.961 C 131.227 120.894,132.015 120.875,138.450 119.778 C 140.369 119.450,142.078 119.269,142.249 119.374 C 142.684 119.643,143.750 123.369,143.750 124.621 L 143.750 125.664 134.140 125.880 C 123.779 126.112,124.017 126.059,123.621 128.216 C 123.335 129.771,124.830 131.013,125.926 130.131 C 126.169 129.936,130.376 129.648,135.276 129.492 L 144.185 129.208 144.065 131.303 L 143.945 133.398 136.719 133.984 L 129.492 134.570 129.385 140.907 C 129.259 148.355,130.313 152.073,131.848 149.590 C 132.020 149.311,132.277 149.327,132.656 149.642 C 133.131 150.036,133.112 150.177,132.524 150.614 C 131.017 151.735,132.375 152.514,136.369 152.820 C 138.388 152.974,140.830 153.242,141.797 153.416 L 143.555 153.731 143.639 156.162 C 143.685 157.500,143.597 158.591,143.444 158.587 C 143.290 158.583,141.582 158.320,139.648 158.002 C 134.951 157.231,131.688 157.235,131.389 158.013 C 130.944 159.173,132.019 159.763,134.716 159.836 C 137.063 159.900,137.122 159.920,135.352 160.055 C 132.850 160.245,132.549 160.571,133.339 162.235 C 134.092 163.821,135.404 164.313,136.423 163.391 C 136.922 162.939,138.111 162.698,140.441 162.576 L 143.750 162.402 143.750 165.178 L 143.750 167.955 134.473 168.059 L 125.195 168.164 125.078 169.760 C 124.947 171.558,125.825 172.769,126.657 171.937 C 126.982 171.611,130.902 171.485,140.605 171.486 C 154.608 171.487,163.554 170.832,164.844 169.711 C 165.166 169.431,166.027 169.144,166.757 169.074 C 168.254 168.929,169.204 167.876,168.486 167.158 C 168.158 166.830,167.008 166.831,164.003 167.163 C 161.780 167.409,157.290 167.718,154.026 167.849 L 148.092 168.088 147.868 167.150 C 147.746 166.633,147.495 165.380,147.312 164.365 L 146.979 162.518 153.428 162.412 C 159.137 162.317,159.926 162.224,160.309 161.605 C 161.322 159.967,159.403 159.393,152.885 159.384 L 146.981 159.375 146.733 157.563 C 146.214 153.781,145.784 154.055,151.635 154.445 C 156.745 154.785,156.792 154.781,157.520 153.882 C 157.923 153.384,158.603 152.951,159.029 152.919 C 160.581 152.805,161.092 151.809,160.601 149.857 C 159.970 147.350,160.050 142.295,160.760 139.906 C 161.431 137.645,161.295 137.115,160.036 137.096 L 159.180 137.083 160.089 136.325 C 162.342 134.448,158.437 133.305,149.512 133.229 L 146.484 133.203 146.484 131.055 L 146.484 128.906 148.657 128.906 C 151.924 128.906,162.618 127.316,163.237 126.738 C 164.480 125.578,163.429 124.882,160.872 125.172 C 159.138 125.368,158.394 125.309,158.177 124.958 C 157.942 124.578,157.296 124.568,155.208 124.910 C 146.760 126.295,146.572 126.237,145.573 121.916 C 144.756 118.380,144.342 118.705,150.038 118.411 C 155.075 118.150,156.633 117.490,155.054 116.286 C 154.718 116.030,154.328 115.513,154.187 115.137 C 153.985 114.599,153.470 114.453,151.770 114.453 L 149.609 114.453 149.609 110.375 L 149.609 106.298 151.345 106.038 C 152.889 105.806,155.012 105.905,157.173 106.309 C 158.386 106.536,158.893 105.276,157.991 104.274 C 157.285 103.489,156.952 103.438,153.662 103.608 L 150.098 103.792 149.829 101.408 C 149.681 100.096,149.570 98.623,149.581 98.134 C 149.596 97.528,149.284 97.122,148.604 96.864 C 147.312 96.373,147.392 96.358,146.484 97.266 M76.617 105.078 L 76.283 109.570 76.228 105.208 C 76.197 102.808,76.299 100.523,76.453 100.130 C 76.931 98.914,76.975 100.246,76.617 105.078 M113.837 100.829 C 113.688 101.071,113.478 104.045,113.369 107.439 C 113.191 113.034,113.105 113.627,112.446 113.799 C 111.535 114.037,111.529 114.623,112.329 125.496 C 112.664 130.057,112.927 136.074,112.912 138.867 C 112.793 162.312,113.175 170.819,114.368 171.277 C 115.658 171.772,116.061 170.654,115.642 167.750 C 115.007 163.355,115.107 159.598,115.817 161.230 C 116.407 162.589,117.193 162.849,117.952 161.935 C 118.424 161.365,118.405 160.947,117.582 153.711 C 117.387 151.992,117.130 147.202,117.011 143.066 L 116.795 135.547 121.307 135.547 C 126.253 135.547,128.125 135.005,128.125 133.574 C 128.125 132.528,127.068 132.175,121.528 131.372 L 116.907 130.702 116.659 126.386 C 116.522 124.012,116.409 117.532,116.408 111.986 C 116.407 105.785,116.251 101.611,116.002 101.146 C 115.560 100.320,114.269 100.131,113.837 100.829 M335.035 106.543 C 334.937 106.919,334.856 106.611,334.856 105.859 C 334.856 105.107,334.937 104.800,335.035 105.176 C 335.133 105.552,335.133 106.167,335.035 106.543 M328.010 107.910 C 327.917 108.394,327.841 107.998,327.841 107.031 C 327.841 106.064,327.917 105.669,328.010 106.152 C 328.103 106.636,328.103 107.427,328.010 107.910 M70.799 110.864 C 71.152 111.568,71.136 111.952,70.725 112.611 C 70.182 113.480,69.644 119.209,69.489 125.781 L 69.401 129.492 69.143 124.609 C 69.001 121.924,69.023 117.969,69.191 115.820 C 69.360 113.672,69.524 110.684,69.556 109.180 L 69.615 106.445 69.981 108.203 C 70.182 109.170,70.551 110.367,70.799 110.864 M177.222 110.856 C 175.861 112.360,178.119 116.068,179.587 114.739 C 180.758 113.680,183.825 113.870,187.564 115.234 C 191.174 116.552,192.008 116.657,192.323 115.836 C 192.514 115.338,192.794 115.341,194.542 115.860 C 196.638 116.482,197.656 116.195,197.656 114.982 C 197.656 114.304,196.466 113.841,192.195 112.855 C 190.365 112.432,187.900 111.762,186.719 111.365 C 183.314 110.223,178.051 109.941,177.222 110.856 M286.328 110.333 C 286.328 110.430,286.147 110.914,285.926 111.407 C 285.704 111.901,285.397 114.238,285.242 116.602 L 284.961 120.898 280.312 121.009 L 275.663 121.120 276.601 120.351 C 277.414 119.685,277.474 119.475,277.051 118.781 C 276.302 117.551,276.420 113.305,277.229 112.411 C 277.775 111.808,277.809 111.538,277.421 110.916 C 276.961 110.179,277.089 110.156,281.637 110.156 C 284.217 110.156,286.328 110.236,286.328 110.333 M334.665 118.049 C 334.591 119.616,334.530 118.438,334.529 115.430 C 334.529 112.422,334.589 111.140,334.664 112.581 C 334.739 114.021,334.740 116.482,334.665 118.049 M223.633 113.164 C 221.984 113.550,221.589 115.333,222.969 116.160 C 224.128 116.855,236.230 116.672,236.954 115.948 C 238.270 114.631,237.429 114.257,231.587 113.557 C 225.914 112.877,225.044 112.834,223.633 113.164 M288.567 115.875 C 288.122 117.370,287.938 117.622,287.698 117.061 C 287.290 116.105,288.203 113.047,288.737 113.581 C 289.004 113.847,288.949 114.593,288.567 115.875 M331.533 121.582 C 331.446 122.280,331.375 121.709,331.375 120.313 C 331.375 118.916,331.446 118.345,331.533 119.043 C 331.619 119.741,331.619 120.884,331.533 121.582 M185.359 121.582 C 185.062 122.474,184.377 129.071,184.377 131.055 L 184.376 133.008 181.348 133.008 C 178.379 133.008,178.320 133.027,178.320 133.984 C 178.320 134.921,178.440 134.969,181.250 135.167 C 184.919 135.425,184.076 135.889,179.688 136.028 C 176.434 136.131,176.367 136.153,176.367 137.109 C 176.367 138.076,176.407 138.087,180.118 138.197 L 183.869 138.308 184.112 142.494 C 184.246 144.796,184.708 147.998,185.140 149.609 C 185.572 151.223,185.927 153.790,185.931 155.323 C 185.936 157.315,186.104 158.246,186.523 158.594 C 187.578 159.469,188.281 158.388,188.281 155.890 C 188.281 154.660,188.495 153.459,188.760 153.193 C 189.137 152.816,189.123 152.532,188.692 151.846 C 188.308 151.234,188.093 149.155,187.968 144.824 L 187.789 138.672 190.527 138.672 C 193.385 138.672,194.465 138.127,194.001 136.919 C 193.836 136.488,193.164 136.325,191.516 136.317 L 189.258 136.306 191.123 135.243 C 194.413 133.368,193.328 132.168,189.125 133.033 L 187.820 133.302 187.915 128.272 C 188.017 122.870,187.605 121.094,186.253 121.094 C 185.851 121.094,185.449 121.313,185.359 121.582 M101.759 123.826 C 101.627 124.040,101.550 126.033,101.588 128.255 C 101.629 130.632,101.477 132.632,101.219 133.114 C 100.590 134.290,100.677 135.176,101.564 136.631 C 102.001 137.347,102.344 138.598,102.344 139.475 C 102.344 141.248,103.187 141.902,104.187 140.903 C 104.725 140.364,105.388 135.767,105.521 131.641 C 105.664 127.221,103.036 121.761,101.759 123.826 M286.328 125.590 L 288.867 126.081 283.887 126.126 C 281.147 126.151,278.906 126.098,278.906 126.009 C 278.906 125.919,278.801 125.572,278.673 125.238 C 278.405 124.540,281.673 124.690,286.328 125.590 M276.694 125.611 C 276.476 126.181,275.744 126.208,273.242 125.737 C 273.027 125.697,273.643 125.541,274.609 125.391 C 275.576 125.240,276.494 125.091,276.648 125.059 C 276.802 125.026,276.823 125.275,276.694 125.611 M337.862 138.709 C 338.587 142.091,338.421 145.185,337.500 145.426 C 336.733 145.626,336.720 145.452,336.777 135.608 C 336.834 125.964,336.847 125.796,337.139 131.170 C 337.306 134.241,337.632 137.634,337.862 138.709 M322.162 133.105 C 322.082 134.126,322.016 133.291,322.016 131.250 C 322.016 129.209,322.082 128.374,322.162 129.395 C 322.243 130.415,322.243 132.085,322.162 133.105 M328.010 133.301 C 327.917 133.784,327.841 133.389,327.841 132.422 C 327.841 131.455,327.917 131.060,328.010 131.543 C 328.103 132.026,328.103 132.817,328.010 133.301 M67.575 138.086 C 67.598 139.375,67.438 144.033,67.218 148.438 C 66.998 152.842,66.787 157.852,66.748 159.570 L 66.678 162.695 66.392 160.156 C 65.866 155.475,65.956 135.634,66.504 135.433 C 67.324 135.132,67.531 135.645,67.575 138.086 M132.504 137.159 C 132.712 137.784,135.895 138.231,140.332 138.258 L 144.141 138.281 144.141 139.844 L 144.141 141.406 139.478 141.406 L 134.815 141.406 134.693 140.137 C 134.491 138.046,132.663 138.289,132.493 140.430 C 132.261 143.363,131.641 142.851,131.641 139.727 C 131.641 137.093,132.063 135.837,132.504 137.159 M82.712 146.582 C 82.640 148.354,82.581 146.904,82.581 143.359 C 82.581 139.814,82.640 138.364,82.712 140.137 C 82.785 141.909,82.785 144.810,82.712 146.582 M154.004 138.169 L 156.641 138.845 156.641 140.572 L 156.641 142.300 153.418 142.040 C 151.646 141.897,149.360 141.673,148.340 141.543 L 146.484 141.306 146.484 139.620 L 146.484 137.933 148.340 137.787 C 149.360 137.707,150.459 137.608,150.781 137.567 C 151.104 137.527,152.554 137.798,154.004 138.169 M218.110 140.039 C 217.331 142.068,219.180 142.847,225.317 143.076 C 230.108 143.255,230.554 143.212,230.978 142.534 C 231.276 142.057,231.887 141.797,232.711 141.797 C 233.865 141.797,233.984 141.687,233.984 140.625 L 233.984 139.453 226.160 139.453 C 219.565 139.453,218.300 139.545,218.110 140.039 M261.476 141.195 C 261.355 141.508,261.434 142.343,261.649 143.050 C 261.865 143.757,262.152 146.128,262.287 148.318 C 262.422 150.509,262.802 153.673,263.132 155.350 C 263.461 157.026,263.825 159.071,263.940 159.892 C 264.177 161.581,264.663 161.917,266.084 161.376 C 267.677 160.771,268.078 150.434,266.646 146.909 C 264.681 142.073,262.194 139.324,261.476 141.195 M143.975 146.769 C 143.824 148.430,143.629 149.861,143.540 149.950 C 143.052 150.437,133.814 150.454,134.277 149.967 C 134.569 149.660,134.766 148.392,134.766 146.822 L 134.766 144.190 136.035 144.033 C 136.733 143.946,138.867 143.847,140.777 143.813 L 144.248 143.750 143.975 146.769 M132.422 145.945 C 132.422 146.757,132.263 147.214,132.031 147.070 C 131.816 146.938,131.641 146.214,131.641 145.462 C 131.641 144.650,131.799 144.193,132.031 144.336 C 132.246 144.469,132.422 145.193,132.422 145.945 M156.541 144.697 C 156.594 144.747,156.745 145.573,156.876 146.532 L 157.115 148.275 152.679 148.970 C 150.239 149.352,147.935 149.723,147.559 149.795 C 146.956 149.911,146.875 149.576,146.875 146.984 L 146.875 144.040 151.660 144.323 C 154.292 144.479,156.489 144.647,156.541 144.697 M322.931 151.270 C 322.576 159.373,321.949 160.091,321.909 152.441 C 321.879 146.802,321.947 146.094,322.516 146.094 C 323.090 146.094,323.134 146.638,322.931 151.270 M206.626 149.599 C 202.829 150.907,199.805 152.823,199.805 153.923 C 199.805 155.198,201.319 155.442,202.480 154.355 C 203.514 153.386,207.174 151.654,208.873 151.330 C 210.356 151.047,211.046 150.345,210.707 149.464 C 210.392 148.642,209.302 148.678,206.626 149.599 M156.981 151.211 C 156.686 151.398,155.742 151.536,154.883 151.518 L 153.320 151.486 154.953 151.036 C 155.851 150.788,156.727 150.443,156.898 150.269 C 157.070 150.094,157.279 150.158,157.364 150.411 C 157.448 150.665,157.276 151.024,156.981 151.211 M224.118 151.012 C 222.806 152.325,226.461 155.841,230.374 157.029 C 234.196 158.190,237.305 158.016,237.305 156.642 C 237.305 155.279,225.073 150.057,224.118 151.012 M328.043 159.961 L 328.047 163.086 327.477 160.547 C 327.070 158.729,326.992 157.176,327.205 155.078 L 327.502 152.148 327.771 154.492 C 327.919 155.781,328.042 158.242,328.043 159.961 M189.844 160.203 C 189.236 160.457,187.489 160.510,185.222 160.344 C 181.169 160.049,180.078 160.544,180.078 162.679 C 180.078 163.564,180.238 163.673,181.543 163.684 C 182.349 163.690,185.908 164.033,189.453 164.444 C 194.664 165.050,195.995 165.098,196.401 164.697 C 197.403 163.709,196.523 162.934,194.086 162.658 C 192.000 162.422,191.853 162.349,192.658 161.948 C 195.077 160.741,192.454 159.115,189.844 160.203 M81.862 167.524 C 81.306 168.080,81.250 167.811,81.250 164.602 C 81.250 160.054,81.745 159.558,82.155 163.694 C 82.422 166.389,82.375 167.011,81.862 167.524 M324.757 169.018 C 324.896 172.066,325.240 175.933,325.523 177.612 C 325.807 179.297,325.937 181.714,325.812 183.008 L 325.586 185.352 324.728 183.973 C 323.005 181.203,322.511 176.549,323.823 175.453 C 324.576 174.825,324.582 174.702,324.002 171.484 C 323.598 169.235,323.490 167.233,323.668 165.277 C 324.043 161.145,324.465 162.594,324.757 169.018 M333.488 168.262 C 333.403 169.067,333.334 168.408,333.334 166.797 C 333.334 165.186,333.403 164.526,333.488 165.332 C 333.572 166.138,333.572 167.456,333.488 168.262 M337.692 173.772 C 337.461 175.016,337.416 175.048,336.791 174.392 C 336.173 173.743,336.181 173.495,336.914 170.384 L 337.695 167.067 337.816 169.764 C 337.882 171.247,337.826 173.051,337.692 173.772 M84.905 172.357 C 84.161 173.560,83.300 173.359,83.695 172.074 C 84.065 170.869,84.161 170.796,84.598 171.393 C 84.867 171.761,85.005 172.195,84.905 172.357 M79.070 172.893 C 80.816 173.564,79.011 174.119,76.953 173.545 L 75.977 173.272 77.148 173.010 C 77.793 172.866,78.350 172.728,78.386 172.702 C 78.422 172.677,78.730 172.763,79.070 172.893 M336.492 185.191 C 335.515 186.271,335.406 185.870,336.214 184.165 C 336.823 182.879,336.931 182.801,337.043 183.563 C 337.114 184.045,336.866 184.778,336.492 185.191 M331.445 186.719 C 330.277 187.221,329.302 187.221,330.078 186.719 C 330.400 186.510,331.016 186.350,331.445 186.362 L 332.227 186.383 331.445 186.719 M329.572 191.151 C 328.763 192.865,327.001 193.536,326.534 192.309 C 325.988 190.872,326.205 190.727,329.553 190.293 C 329.890 190.249,329.895 190.468,329.572 191.151 M206.389 202.936 C 206.264 203.261,206.253 203.876,206.365 204.303 C 206.498 204.811,206.374 205.078,206.006 205.078 C 205.229 205.078,205.154 205.410,204.696 210.869 C 204.430 214.032,203.756 217.810,202.732 221.886 C 200.958 228.942,200.936 229.123,201.823 229.463 C 202.840 229.854,203.244 229.158,204.363 225.084 L 205.405 221.289 205.339 225.781 L 205.273 230.273 206.348 230.397 C 207.767 230.560,207.716 231.358,206.250 231.912 C 205.491 232.198,205.078 232.627,205.078 233.127 C 205.078 233.935,206.048 234.546,206.695 234.146 C 206.902 234.018,207.984 234.756,209.102 235.785 C 217.822 243.819,221.453 247.429,221.558 248.172 C 221.716 249.276,222.355 249.260,231.836 247.909 C 243.902 246.190,249.235 244.036,250.832 240.234 C 250.990 239.859,251.179 240.165,251.359 241.086 C 251.674 242.704,252.586 243.285,253.452 242.419 C 254.202 241.669,252.955 237.585,250.996 234.375 C 249.794 232.406,249.284 230.582,249.070 227.485 C 248.708 222.267,234.628 210.831,224.609 207.620 C 223.428 207.241,222.183 206.690,221.844 206.395 C 221.505 206.100,220.651 205.859,219.947 205.859 C 219.047 205.859,218.439 205.570,217.899 204.883 C 216.920 203.638,215.890 203.640,215.072 204.887 C 214.459 205.824,214.379 205.841,213.289 205.277 C 211.140 204.166,209.933 204.725,210.424 206.603 C 210.547 207.073,210.452 207.422,210.202 207.422 C 209.962 207.422,209.766 207.851,209.766 208.375 C 209.766 210.728,209.073 209.440,208.879 206.727 C 208.589 202.656,207.268 200.645,206.389 202.936 M175.781 204.945 C 169.838 205.860,158.940 210.449,148.535 216.417 C 146.344 217.674,145.761 219.226,147.070 220.313 C 147.720 220.852,148.828 220.253,148.828 219.363 C 148.828 219.109,150.278 218.144,152.051 217.220 L 155.273 215.540 153.711 217.065 C 152.852 217.904,150.303 219.974,148.047 221.665 C 137.781 229.362,136.000 231.066,136.402 232.803 C 136.469 233.095,136.088 233.439,135.547 233.575 C 133.512 234.088,134.172 235.193,138.385 238.321 C 145.836 243.854,147.844 245.256,151.599 247.542 C 154.842 249.517,155.289 249.915,154.921 250.498 C 153.114 253.363,157.657 253.177,160.821 250.257 C 161.526 249.605,162.540 249.086,163.147 249.063 C 163.927 249.034,164.282 248.778,164.436 248.134 C 164.799 246.613,173.928 239.650,179.688 236.500 C 180.439 236.089,181.450 235.412,181.934 234.996 L 182.813 234.239 182.813 235.257 C 182.813 237.795,185.407 236.766,186.549 233.776 C 186.917 232.814,187.503 232.019,187.928 231.908 C 189.014 231.624,189.330 230.458,188.487 229.842 C 187.722 229.282,187.704 229.709,188.833 221.680 C 189.166 219.316,189.441 216.629,189.445 215.709 C 189.457 213.248,191.005 207.360,191.901 206.368 C 192.930 205.229,192.532 204.297,191.018 204.297 C 190.071 204.297,189.743 204.519,189.432 205.371 C 188.620 207.593,188.557 207.654,188.315 206.450 C 188.164 205.700,187.802 205.233,187.302 205.143 C 186.874 205.065,186.356 204.844,186.152 204.650 C 185.607 204.131,180.039 204.289,175.781 204.945 M180.132 207.648 C 178.335 208.179,176.519 208.799,176.096 209.025 C 175.493 209.348,175.219 209.290,174.831 208.759 C 174.431 208.212,173.984 208.129,172.519 208.330 C 171.520 208.467,170.703 208.507,170.703 208.419 C 170.703 207.967,178.291 206.762,181.445 206.713 L 183.398 206.682 180.132 207.648 M167.969 209.766 C 167.217 210.177,166.426 210.514,166.211 210.514 C 165.996 210.514,166.436 210.177,167.188 209.766 C 167.939 209.354,168.730 209.017,168.945 209.017 C 169.160 209.017,168.721 209.354,167.969 209.766 M228.015 211.365 C 228.282 211.454,228.080 211.716,227.554 211.962 C 226.726 212.350,226.470 212.246,225.321 211.057 L 224.023 209.714 225.781 210.461 C 226.748 210.871,227.753 211.278,228.015 211.365 M170.875 211.511 C 170.458 211.826,169.766 212.082,169.336 212.079 C 168.740 212.075,168.833 211.947,169.727 211.538 C 171.295 210.819,171.805 210.808,170.875 211.511 M231.285 213.421 C 231.266 213.559,231.166 213.656,231.064 213.638 C 229.867 213.418,229.336 213.084,229.169 212.446 C 228.972 211.692,228.985 211.692,230.145 212.426 C 230.791 212.836,231.304 213.283,231.285 213.421 M221.875 213.672 C 222.556 214.531,223.025 215.234,222.917 215.234 C 222.810 215.234,222.165 214.531,221.484 213.672 C 220.804 212.812,220.335 212.109,220.442 212.109 C 220.550 212.109,221.194 212.812,221.875 213.672 M166.854 213.292 C 166.348 213.714,165.739 213.938,165.501 213.791 C 165.243 213.631,165.537 213.323,166.225 213.029 C 167.811 212.353,167.925 212.400,166.854 213.292 M181.422 216.165 C 181.281 216.727,181.009 217.188,180.817 217.188 C 180.365 217.188,180.377 217.035,180.923 215.837 C 181.484 214.605,181.767 214.791,181.422 216.165 M234.732 216.026 L 235.352 216.970 234.290 216.200 C 233.706 215.776,233.222 215.283,233.215 215.104 C 233.193 214.513,234.102 215.065,234.732 216.026 M177.789 216.895 C 177.054 218.055,176.172 218.588,176.172 217.871 C 176.172 217.710,176.172 217.309,176.172 216.980 C 176.172 216.452,177.323 215.720,178.261 215.650 C 178.443 215.636,178.231 216.196,177.789 216.895 M167.350 219.177 C 166.217 220.429,165.234 220.864,165.234 220.112 C 165.234 219.772,165.806 219.245,166.504 218.942 C 168.180 218.213,168.213 218.223,167.350 219.177 M209.644 220.605 C 209.546 220.981,209.466 220.674,209.466 219.922 C 209.466 219.170,209.546 218.862,209.644 219.238 C 209.743 219.614,209.743 220.229,209.644 220.605 M243.482 222.627 C 245.000 224.307,246.210 226.472,246.648 228.286 C 246.904 229.349,246.806 229.298,245.156 227.505 C 244.185 226.450,243.383 225.253,243.375 224.845 C 243.366 224.438,242.592 223.284,241.655 222.282 C 239.092 219.543,238.477 218.220,240.515 219.835 C 241.374 220.515,242.709 221.772,243.482 222.627 M225.240 224.819 C 223.866 227.445,223.193 227.618,224.163 225.098 C 224.555 224.077,224.998 222.905,225.146 222.493 C 225.357 221.909,225.520 221.848,225.887 222.215 C 226.254 222.582,226.111 223.155,225.240 224.819 M175.000 226.731 C 175.000 226.824,174.429 227.278,173.730 227.740 L 172.461 228.580 173.633 227.573 C 174.835 226.541,175.000 226.439,175.000 226.731 M208.197 227.832 C 208.200 227.993,208.027 228.125,207.813 228.125 C 207.598 228.125,207.425 227.729,207.428 227.246 C 207.434 226.408,208.180 226.976,208.197 227.832 M233.249 230.583 C 233.079 232.966,232.813 232.897,232.813 230.469 C 232.813 229.323,232.937 228.510,233.090 228.662 C 233.242 228.815,233.314 229.679,233.249 230.583 M174.970 230.312 C 174.450 230.871,173.320 231.854,172.461 232.498 C 171.484 233.230,171.776 232.853,173.242 231.492 C 175.730 229.182,176.541 228.629,174.970 230.312 M246.191 232.732 C 245.991 233.252,245.920 233.262,245.774 232.793 C 245.677 232.481,245.420 231.875,245.203 231.445 C 244.817 230.682,244.826 230.680,245.620 231.384 C 246.108 231.817,246.336 232.355,246.191 232.732 M211.250 231.719 C 211.508 231.977,211.719 232.808,211.719 233.565 L 211.719 234.943 210.752 233.975 C 210.070 233.292,209.854 232.750,210.017 232.129 C 210.277 231.137,210.571 231.039,211.250 231.719 M177.159 234.240 C 174.928 236.292,171.685 238.556,169.141 239.838 L 167.383 240.724 169.225 239.091 C 170.908 237.598,178.447 232.422,178.906 232.444 C 179.014 232.449,178.228 233.257,177.159 234.240 M157.794 234.203 C 157.260 234.845,152.847 238.281,152.555 238.281 C 151.433 238.281,153.550 235.890,155.577 234.867 C 158.446 233.419,158.443 233.421,157.794 234.203 M140.308 235.736 L 140.467 237.097 139.577 236.261 C 138.767 235.500,139.006 234.634,140.094 234.387 C 140.124 234.381,140.220 234.987,140.308 235.736 M243.585 237.014 C 243.251 237.348,243.060 237.045,242.785 235.741 L 242.538 234.570 243.174 235.679 C 243.525 236.289,243.709 236.889,243.585 237.014 M191.906 236.621 C 191.765 236.997,191.375 237.510,191.040 237.761 C 190.522 238.150,190.503 238.411,190.915 239.503 C 191.223 240.319,191.264 240.924,191.027 241.161 C 190.790 241.397,190.510 241.154,190.259 240.493 C 189.333 238.058,186.322 239.795,180.513 246.115 C 178.121 248.717,175.243 251.474,174.117 252.239 C 172.991 253.005,170.690 254.597,169.003 255.777 C 166.800 257.318,165.850 257.787,165.635 257.439 C 165.177 256.697,163.882 257.130,163.748 258.070 C 163.682 258.529,163.313 258.987,162.928 259.088 C 161.926 259.350,161.635 260.853,162.431 261.654 C 162.918 262.144,163.115 263.161,163.199 265.629 C 163.324 269.308,162.892 282.553,162.654 282.315 C 162.292 281.954,161.279 271.103,161.023 264.844 L 160.742 258.008 159.766 258.008 C 158.506 258.008,158.337 260.565,158.978 269.922 C 159.747 281.130,160.388 284.378,162.525 287.891 C 163.114 288.857,163.920 290.275,164.317 291.041 C 165.698 293.703,166.858 295.279,167.613 295.519 C 168.030 295.651,169.797 297.461,171.538 299.540 C 178.238 307.539,180.979 309.813,182.314 308.478 C 183.044 307.748,182.582 306.802,181.219 306.237 C 180.079 305.765,175.118 300.534,175.473 300.178 C 175.575 300.076,176.084 300.389,176.605 300.875 C 177.125 301.361,179.218 303.321,181.256 305.232 C 191.723 315.048,198.083 319.182,197.134 315.555 C 197.010 315.079,197.162 314.844,197.595 314.843 C 200.208 314.842,205.511 311.108,212.886 304.077 C 218.193 299.017,219.141 298.552,219.141 301.009 C 219.141 301.773,220.401 302.032,221.034 301.399 C 221.551 300.883,221.544 300.632,220.978 299.191 C 220.412 297.750,220.404 297.440,220.909 296.464 C 221.474 295.371,221.339 294.141,220.654 294.141 C 220.458 294.141,220.415 293.674,220.558 293.103 C 220.743 292.366,220.632 291.929,220.172 291.593 C 219.500 291.102,219.828 274.142,220.658 266.406 C 221.118 262.115,220.746 259.604,219.627 259.445 C 219.100 259.370,218.652 259.566,218.512 259.931 C 218.383 260.267,218.127 260.449,217.943 260.335 C 217.758 260.222,217.801 259.703,218.038 259.183 C 218.905 257.280,216.619 254.384,211.621 251.053 C 210.493 250.302,207.063 247.476,203.999 244.774 C 200.935 242.072,197.476 239.158,196.312 238.298 C 195.149 237.439,194.086 236.556,193.951 236.337 C 193.551 235.690,192.185 235.880,191.906 236.621 M217.824 239.641 C 219.448 241.141,221.045 242.899,221.373 243.547 C 221.776 244.346,220.662 243.468,217.918 240.826 C 215.690 238.681,213.812 236.897,213.743 236.861 C 213.675 236.826,213.902 236.823,214.246 236.855 C 214.591 236.888,216.201 238.141,217.824 239.641 M225.544 238.118 C 225.911 239.073,225.831 239.200,225.195 238.672 C 224.546 238.133,224.418 237.500,224.958 237.500 C 225.150 237.500,225.414 237.778,225.544 238.118 M146.661 240.280 C 148.277 241.318,149.219 242.185,149.219 242.636 C 149.219 243.188,148.428 242.770,145.703 240.778 C 140.881 237.252,141.468 236.947,146.661 240.280 M250.517 238.444 C 250.615 238.704,250.015 238.886,248.964 238.916 C 247.665 238.953,247.346 238.851,247.643 238.493 C 248.130 237.906,250.300 237.869,250.517 238.444 M235.156 242.578 C 235.156 242.793,235.083 242.969,234.993 242.969 C 234.903 242.969,234.549 243.076,234.207 243.208 C 233.752 243.382,233.650 243.278,233.826 242.817 C 234.089 242.134,235.156 241.942,235.156 242.578 M152.734 244.215 C 152.734 244.728,151.847 244.407,151.652 243.823 C 151.557 243.538,151.735 243.450,152.116 243.596 C 152.456 243.727,152.734 244.005,152.734 244.215 M157.451 246.499 C 158.940 247.259,159.204 248.047,157.969 248.047 C 156.785 248.047,154.144 246.430,154.726 246.062 C 155.498 245.573,155.698 245.605,157.451 246.499 M246.191 247.446 C 245.278 247.731,242.817 248.929,240.722 250.107 C 238.628 251.285,235.244 253.116,233.203 254.176 L 229.492 256.102 229.594 257.709 C 229.671 258.942,229.545 259.346,229.052 259.443 C 228.315 259.589,228.201 288.525,228.931 289.890 C 229.132 290.266,229.297 291.036,229.297 291.602 C 229.297 293.687,231.266 295.180,231.886 293.564 C 232.065 293.099,234.087 291.797,234.630 291.797 C 234.705 291.797,234.766 292.357,234.766 293.041 C 234.766 293.787,235.111 294.653,235.628 295.204 L 236.491 296.122 235.055 295.522 C 230.337 293.551,222.675 298.764,227.002 301.002 C 228.573 301.814,229.834 300.951,229.008 299.628 C 228.420 298.686,230.435 297.266,232.357 297.266 C 233.537 297.266,242.522 301.427,243.759 302.547 C 244.899 303.579,247.851 304.628,250.722 305.022 C 254.095 305.484,254.177 305.536,253.360 306.702 C 252.556 307.851,252.563 308.835,253.377 309.147 C 255.109 309.812,257.486 304.813,258.572 298.221 C 259.717 291.277,259.739 291.230,259.552 296.126 C 259.378 300.685,258.402 305.433,256.805 309.491 C 256.062 311.380,256.382 312.360,257.617 311.975 C 261.097 310.891,263.731 284.099,261.554 271.929 C 261.240 270.172,261.161 268.515,261.351 267.671 C 262.976 260.469,261.815 255.078,258.640 255.078 C 257.558 255.078,257.433 254.922,256.846 252.832 C 256.498 251.597,256.138 250.363,256.046 250.090 C 255.938 249.771,255.141 249.597,253.818 249.602 C 249.194 249.621,248.817 249.549,249.718 248.819 C 251.671 247.237,249.529 246.403,246.191 247.446 M202.734 249.579 C 202.734 249.754,202.006 250.378,201.115 250.968 L 199.496 252.039 199.779 251.117 C 199.935 250.610,200.151 249.756,200.259 249.219 C 200.687 247.077,200.785 247.009,201.786 248.166 C 202.308 248.769,202.734 249.405,202.734 249.579 M247.656 250.162 C 247.656 250.543,243.969 252.343,243.213 252.331 C 242.582 252.322,244.831 251.136,247.559 250.039 C 247.612 250.018,247.656 250.073,247.656 250.162 M126.365 251.566 C 125.908 252.305,126.584 253.425,128.137 254.501 C 129.815 255.663,130.009 256.043,129.102 256.391 C 128.779 256.515,128.516 256.936,128.516 257.327 C 128.516 257.843,128.226 258.034,127.464 258.023 C 126.221 258.005,125.882 258.846,125.815 262.109 C 125.791 263.291,125.257 266.313,124.628 268.825 C 122.553 277.120,122.336 283.055,123.952 287.305 C 124.279 288.164,124.656 290.390,124.791 292.252 C 124.925 294.113,125.209 296.222,125.422 296.939 C 125.634 297.656,126.050 299.596,126.346 301.251 C 126.967 304.726,127.639 305.879,129.402 306.496 C 130.165 306.763,130.602 307.149,130.508 307.473 C 129.872 309.656,129.977 310.156,131.123 310.385 C 132.150 310.590,132.243 310.737,132.102 311.942 C 131.828 314.289,133.890 314.110,137.322 311.490 C 138.221 310.804,139.316 310.129,139.755 309.989 C 140.195 309.850,140.753 309.496,140.996 309.204 C 141.286 308.853,141.936 308.739,142.903 308.869 C 144.693 309.109,145.745 308.205,145.023 307.047 C 144.660 306.467,144.788 306.152,145.766 305.223 C 146.416 304.606,148.082 302.402,149.469 300.326 C 150.855 298.249,152.429 296.262,152.966 295.911 C 153.503 295.559,154.131 294.856,154.362 294.348 C 154.594 293.841,155.112 293.339,155.514 293.234 C 157.466 292.724,156.388 290.473,154.297 290.690 C 153.759 290.746,153.090 290.650,152.810 290.476 C 152.529 290.303,151.870 290.269,151.345 290.400 C 150.315 290.659,150.020 288.668,150.633 285.602 C 150.988 283.832,151.563 284.508,151.563 286.694 C 151.563 288.955,152.385 289.970,153.397 288.958 C 153.967 288.388,153.961 287.614,153.326 279.812 C 152.568 270.507,152.500 263.648,153.156 262.590 C 153.769 261.602,152.985 259.766,151.951 259.766 C 151.509 259.766,151.047 260.028,150.923 260.349 C 150.800 260.670,150.569 260.853,150.410 260.754 C 150.251 260.656,148.480 260.210,146.474 259.763 C 143.693 259.144,142.078 258.502,139.675 257.061 C 130.360 251.473,127.223 250.178,126.365 251.566 M212.492 254.980 C 212.504 255.685,212.426 255.636,210.724 253.843 L 209.180 252.218 210.832 253.355 C 211.740 253.980,212.487 254.712,212.492 254.980 M240.625 253.310 C 240.625 253.412,240.098 253.768,239.453 254.102 C 237.984 254.861,237.895 254.531,239.355 253.739 C 240.583 253.073,240.625 253.059,240.625 253.310 M254.724 255.979 C 254.214 256.489,254.143 255.924,254.578 254.817 C 254.850 254.127,254.865 254.127,255.006 254.827 C 255.086 255.225,254.959 255.744,254.724 255.979 M259.361 258.177 C 259.584 258.593,259.750 259.867,259.731 261.009 L 259.696 263.086 259.211 261.328 C 258.265 257.899,258.187 257.422,258.573 257.422 C 258.784 257.422,259.139 257.762,259.361 258.177 M136.719 259.838 C 136.719 260.891,135.584 260.696,135.156 259.570 C 134.952 259.033,134.605 258.594,134.385 258.594 C 134.165 258.594,133.984 258.421,133.984 258.209 C 133.984 257.998,134.600 258.119,135.352 258.477 C 136.172 258.868,136.719 259.412,136.719 259.838 M234.342 258.314 C 234.253 258.374,233.893 258.643,233.542 258.910 C 233.022 259.305,232.861 259.285,232.675 258.799 C 232.506 258.358,232.714 258.203,233.476 258.203 C 234.042 258.203,234.432 258.253,234.342 258.314 M255.901 261.816 C 255.924 263.804,255.916 265.869,255.883 266.406 C 255.851 266.943,255.594 271.298,255.311 276.084 C 255.029 280.870,254.685 284.898,254.548 285.036 C 254.410 285.174,254.297 279.404,254.297 272.214 C 254.297 259.347,254.399 258.203,255.547 258.203 C 255.719 258.203,255.878 259.829,255.901 261.816 M168.970 260.059 C 169.247 260.437,169.376 261.220,169.258 261.810 C 168.981 263.203,169.838 263.547,171.477 262.699 L 172.711 262.061 172.443 263.941 C 172.115 266.238,171.702 266.761,171.102 265.640 C 170.755 264.992,170.356 264.820,169.422 264.915 C 168.306 265.028,168.173 264.920,167.923 263.700 C 167.772 262.964,167.256 262.065,166.776 261.703 C 165.811 260.975,166.003 260.297,167.325 259.763 C 168.468 259.302,168.407 259.291,168.970 260.059 M140.625 260.788 C 140.625 260.870,140.175 260.938,139.625 260.938 C 139.076 260.938,138.724 260.778,138.845 260.584 C 139.045 260.260,140.625 260.441,140.625 260.788 M231.418 260.503 C 231.536 260.693,231.370 261.066,231.050 261.332 C 230.566 261.733,230.469 261.675,230.469 260.985 C 230.469 260.147,231.024 259.865,231.418 260.503 M231.263 266.016 L 230.966 268.555 230.913 265.645 C 230.881 263.913,231.001 262.885,231.210 263.105 C 231.407 263.314,231.430 264.589,231.263 266.016 M143.359 264.648 C 143.359 264.971,143.202 265.234,143.011 265.234 C 142.819 265.234,142.561 264.971,142.437 264.648 C 142.300 264.292,142.436 264.063,142.786 264.063 C 143.101 264.063,143.359 264.326,143.359 264.648 M243.766 269.141 C 243.792 270.107,243.553 271.689,243.235 272.656 L 242.655 274.414 242.621 271.094 C 242.602 269.268,242.706 267.070,242.852 266.211 L 243.117 264.648 243.417 266.016 C 243.582 266.768,243.739 268.174,243.766 269.141 M238.642 268.893 C 238.542 272.952,237.581 273.172,237.556 269.141 C 237.532 265.215,237.555 265.095,238.101 266.353 C 238.415 267.076,238.658 268.219,238.642 268.893 M191.245 269.470 C 190.679 270.035,190.625 270.004,190.625 269.107 C 190.625 267.746,191.552 266.815,191.733 267.994 C 191.805 268.465,191.585 269.129,191.245 269.470 M170.099 267.939 C 170.222 268.138,170.109 268.770,169.847 269.344 C 169.344 270.449,168.845 269.944,168.777 268.262 C 168.749 267.548,169.712 267.313,170.099 267.939 M146.669 269.175 C 146.526 269.624,146.271 270.811,146.102 271.812 C 145.876 273.155,145.784 273.325,145.753 272.461 C 145.690 270.688,146.149 268.359,146.562 268.359 C 146.763 268.359,146.811 268.727,146.669 269.175 M199.589 278.830 C 198.859 284.009,198.650 282.173,199.253 275.880 C 199.748 270.714,199.817 270.400,199.926 272.852 C 199.992 274.355,199.841 277.046,199.589 278.830 M191.226 277.386 C 191.052 280.062,190.512 283.393,189.816 286.077 L 188.688 290.430 188.877 284.961 C 189.174 276.379,189.839 273.187,191.359 273.059 C 191.440 273.052,191.380 274.999,191.226 277.386 M180.671 284.984 C 180.254 291.649,179.654 292.718,179.855 286.435 C 180.009 281.626,180.179 280.469,180.734 280.469 C 180.854 280.469,180.826 282.501,180.671 284.984 M169.026 282.906 C 168.933 283.392,168.853 283.086,168.849 282.227 C 168.844 281.367,168.921 280.970,169.018 281.343 C 169.116 281.717,169.120 282.420,169.026 282.906 M232.316 286.222 C 232.232 287.032,232.161 286.465,232.159 284.961 C 232.158 283.457,232.227 282.794,232.313 283.487 C 232.399 284.181,232.401 285.411,232.316 286.222 M172.493 287.109 L 172.768 289.258 172.021 288.350 C 171.482 287.695,171.316 287.005,171.423 285.875 C 171.620 283.811,172.148 284.421,172.493 287.109 M251.953 290.508 C 251.953 293.083,251.825 294.169,251.555 293.899 C 251.195 293.539,251.443 286.719,251.815 286.719 C 251.891 286.719,251.953 288.424,251.953 290.508 M247.266 294.868 L 247.266 296.448 246.132 295.797 C 245.004 295.150,244.846 294.083,245.546 291.849 C 245.881 290.781,247.266 293.212,247.266 294.868 M212.332 294.220 C 211.595 295.272,211.565 295.079,212.192 293.320 C 212.515 292.414,212.710 292.207,212.805 292.669 C 212.882 293.040,212.669 293.739,212.332 294.220 M216.370 293.208 C 215.798 293.897,215.521 293.695,215.852 292.832 C 215.987 292.480,216.263 292.295,216.466 292.420 C 216.686 292.556,216.647 292.874,216.370 293.208 M210.105 296.936 C 210.419 297.033,209.374 298.063,207.577 299.430 C 202.818 303.047,203.125 302.853,203.125 302.251 C 203.125 301.283,208.534 295.951,209.079 296.382 C 209.349 296.595,209.811 296.845,210.105 296.936 M155.998 306.437 L 152.175 310.531 151.126 309.526 C 149.487 307.956,148.620 308.395,148.694 310.756 L 148.754 312.695 146.459 314.343 C 145.196 315.250,143.661 316.685,143.047 317.533 C 142.225 318.667,141.784 318.981,141.375 318.723 C 139.283 317.399,137.653 318.872,138.532 321.292 C 138.843 322.150,139.155 323.259,139.225 323.757 C 139.295 324.255,139.884 325.134,140.534 325.710 C 142.322 327.294,145.676 332.703,144.238 331.683 C 143.647 331.264,141.887 330.115,140.325 329.130 C 137.774 327.521,137.511 327.241,137.731 326.363 C 138.002 325.285,135.847 323.978,134.592 324.460 C 132.605 325.222,135.748 329.362,140.234 331.890 C 143.366 333.655,149.015 338.433,155.469 344.775 C 163.613 352.778,166.971 354.930,168.770 353.302 C 169.229 352.887,169.128 353.307,168.431 354.717 C 166.897 357.816,168.468 359.510,170.130 356.548 C 170.783 355.384,171.048 355.187,171.439 355.572 C 171.830 355.956,172.080 355.871,172.666 355.155 L 173.402 354.254 175.861 355.010 C 181.347 356.695,183.099 356.490,182.600 354.219 C 182.436 353.474,182.573 352.757,183.005 352.099 C 183.363 351.552,183.570 351.018,183.465 350.913 C 183.015 350.463,186.029 342.560,187.372 340.667 C 187.432 340.583,187.749 340.736,188.076 341.008 C 189.327 342.045,189.969 340.766,189.715 337.743 C 189.514 335.339,189.596 334.857,190.455 333.391 C 191.489 331.625,191.393 330.469,190.212 330.469 C 189.610 330.469,189.473 330.102,189.375 328.223 C 189.254 325.904,187.893 324.692,187.261 326.340 C 186.917 327.236,185.969 327.113,186.207 326.204 C 186.339 325.697,186.106 325.286,185.486 324.934 C 184.983 324.648,184.570 324.089,184.570 323.691 C 184.570 323.185,183.995 322.750,182.650 322.239 C 180.384 321.380,179.247 320.503,172.303 314.270 C 165.320 308.002,164.384 307.216,163.530 306.900 C 162.939 306.682,162.892 306.524,163.281 306.055 C 163.869 305.346,163.522 304.297,162.698 304.297 C 162.364 304.297,161.923 303.857,161.719 303.320 C 161.055 301.574,160.005 302.146,155.998 306.437 M204.246 308.708 C 203.467 309.397,202.060 310.364,201.121 310.858 C 199.403 311.760,199.554 311.625,203.253 308.950 C 205.746 307.147,206.113 307.057,204.246 308.708 M190.908 308.965 C 192.479 309.634,194.014 310.039,194.562 309.931 C 195.498 309.746,195.499 309.748,194.629 310.133 C 194.146 310.347,193.750 310.781,193.750 311.097 C 193.750 312.291,192.867 312.126,190.826 310.551 C 187.013 307.610,187.028 307.314,190.908 308.965 M220.474 309.647 C 220.241 309.820,219.874 310.285,219.658 310.680 C 219.442 311.076,214.798 314.071,209.339 317.336 C 200.660 322.526,199.414 323.392,199.414 324.233 C 199.414 324.802,198.913 325.675,198.189 326.367 C 197.515 327.012,196.875 327.979,196.766 328.516 C 196.656 329.053,196.210 330.832,195.773 332.471 C 194.655 336.664,193.673 345.374,193.820 349.786 C 193.949 353.618,193.646 354.250,192.654 352.217 C 191.591 350.036,189.709 351.305,190.648 353.571 C 191.606 355.885,194.446 356.339,201.172 355.256 C 203.213 354.927,207.064 354.488,209.730 354.281 C 213.759 353.967,214.663 353.780,215.090 353.171 C 215.883 352.039,217.584 351.874,218.377 352.853 C 219.011 353.636,219.172 353.651,222.117 353.202 C 227.766 352.342,232.946 348.857,238.534 342.159 C 239.174 341.392,240.457 340.337,241.384 339.816 C 243.640 338.547,245.650 335.786,245.035 334.802 C 244.539 334.007,245.943 332.058,249.146 329.095 C 251.099 327.287,251.049 326.692,248.853 325.637 C 248.017 325.235,247.246 324.576,247.140 324.172 C 247.023 323.722,246.594 323.433,246.033 323.425 C 244.301 323.402,243.001 321.796,243.245 319.982 C 243.496 318.108,242.254 317.097,240.713 317.921 C 240.088 318.256,239.873 318.218,239.690 317.740 C 239.539 317.348,239.079 317.179,238.381 317.259 C 237.522 317.358,237.081 317.086,236.197 315.918 C 234.924 314.235,233.538 313.970,232.947 315.295 C 232.587 316.101,232.534 316.075,231.728 314.709 C 231.261 313.918,230.575 313.280,230.189 313.279 C 229.806 313.277,229.201 312.765,228.846 312.140 C 227.705 310.134,222.079 308.458,220.474 309.647 M225.101 313.624 C 225.241 314.160,225.117 314.335,224.660 314.246 C 224.310 314.178,223.885 314.109,223.717 314.092 C 223.548 314.076,223.601 313.706,223.834 313.270 C 224.312 312.377,224.811 312.517,225.101 313.624 M167.336 314.402 C 167.966 315.097,167.952 315.123,167.032 314.947 C 166.502 314.846,165.974 314.517,165.859 314.217 C 165.554 313.423,166.565 313.550,167.336 314.402 M219.850 314.731 C 219.670 315.668,215.480 317.960,214.443 317.689 C 213.764 317.511,214.124 317.172,216.477 315.772 C 219.656 313.881,220.037 313.763,219.850 314.731 M149.042 317.883 L 147.930 318.945 148.812 317.653 C 149.297 316.943,149.798 316.465,149.924 316.591 C 150.051 316.717,149.653 317.299,149.042 317.883 M161.012 320.102 C 161.849 321.576,162.479 323.061,162.413 323.403 C 162.310 323.935,158.594 318.063,158.594 317.368 C 158.594 316.540,159.702 317.793,161.012 320.102 M212.038 319.153 C 211.557 319.805,210.013 320.991,208.609 321.790 C 205.344 323.646,205.469 323.601,205.469 322.933 C 205.469 322.516,212.014 318.101,212.805 317.985 C 212.865 317.976,212.520 318.502,212.038 319.153 M142.565 321.117 C 142.342 321.534,141.903 321.875,141.588 321.875 C 140.845 321.875,140.864 321.518,141.654 320.645 C 142.454 319.762,143.109 320.101,142.565 321.117 M217.747 320.666 C 217.547 320.853,216.943 321.127,216.406 321.275 C 215.514 321.520,215.531 321.478,216.602 320.786 C 217.736 320.053,218.489 319.974,217.747 320.666 M156.242 324.355 C 157.276 326.199,157.393 326.613,156.849 326.503 C 156.449 326.422,155.794 325.428,155.236 324.055 C 153.776 320.460,154.115 320.561,156.242 324.355 M212.924 323.869 C 212.580 324.729,212.548 324.739,212.525 323.991 C 212.511 323.543,212.617 323.060,212.760 322.917 C 213.227 322.450,213.306 322.913,212.924 323.869 M151.953 325.586 L 152.871 326.563 151.840 326.563 C 150.838 326.563,149.752 325.378,150.274 324.856 C 150.692 324.438,151.001 324.573,151.953 325.586 M170.691 326.540 C 170.681 327.026,170.563 326.996,170.105 326.390 C 169.789 325.973,169.537 325.358,169.544 325.023 C 169.554 324.536,169.671 324.566,170.130 325.172 C 170.445 325.589,170.698 326.205,170.691 326.540 M201.566 325.582 C 201.301 325.902,200.909 326.055,200.695 325.923 C 200.460 325.778,200.515 325.552,200.837 325.348 C 201.680 324.814,202.093 324.947,201.566 325.582 M207.676 325.495 C 207.303 325.767,206.786 326.412,206.527 326.929 C 205.870 328.235,205.078 328.411,205.078 327.252 C 205.078 326.583,205.443 326.132,206.348 325.682 C 207.885 324.917,208.605 324.815,207.676 325.495 M245.898 327.344 C 246.031 327.559,245.768 327.734,245.313 327.734 C 244.857 327.734,244.594 327.559,244.727 327.344 C 244.859 327.129,245.123 326.953,245.313 326.953 C 245.502 326.953,245.766 327.129,245.898 327.344 M167.158 331.641 C 167.153 332.470,167.010 332.351,166.211 330.859 C 164.920 328.449,164.912 327.009,166.201 329.102 C 166.730 329.961,167.161 331.104,167.158 331.641 M201.166 329.199 C 201.163 329.575,200.990 330.146,200.781 330.469 C 200.494 330.913,200.401 330.749,200.397 329.785 C 200.393 329.087,200.566 328.516,200.781 328.516 C 200.996 328.516,201.169 328.823,201.166 329.199 M214.812 332.995 C 214.542 334.203,214.171 335.285,213.987 335.398 C 213.613 335.630,213.990 332.731,214.521 331.293 C 215.132 329.640,215.319 330.732,214.812 332.995 M204.934 332.474 C 204.619 333.197,204.346 333.581,204.329 333.326 C 204.281 332.635,205.069 330.720,205.304 330.955 C 205.416 331.067,205.250 331.751,204.934 332.474 M178.873 335.568 C 178.109 337.447,177.770 337.996,177.915 337.119 C 178.143 335.747,179.659 332.263,179.916 332.520 C 179.993 332.597,179.523 333.968,178.873 335.568 M241.706 333.984 C 241.193 334.807,240.625 335.022,240.625 334.394 C 240.625 334.190,240.933 333.844,241.309 333.625 C 242.244 333.080,242.261 333.095,241.706 333.984 M183.922 341.278 C 183.204 343.605,182.566 345.150,182.503 344.714 C 182.441 344.277,182.849 342.607,183.411 341.003 C 183.973 339.399,184.530 337.771,184.649 337.387 C 184.768 337.002,184.946 336.769,185.045 336.868 C 185.145 336.968,184.639 338.952,183.922 341.278 M238.649 338.173 C 238.391 338.585,237.105 339.384,235.790 339.949 C 234.474 340.514,233.724 340.765,234.123 340.507 C 234.521 340.250,235.751 339.408,236.857 338.636 C 239.042 337.110,239.364 337.027,238.649 338.173 M203.836 344.615 C 203.387 347.896,202.538 348.722,202.892 345.534 C 203.102 343.640,203.620 342.188,204.085 342.188 C 204.130 342.188,204.018 343.280,203.836 344.615 M162.896 344.231 C 163.512 343.470,164.844 344.080,164.844 345.122 C 164.844 346.020,159.352 344.804,158.335 343.680 C 157.793 343.081,158.088 343.138,159.957 343.994 L 162.241 345.040 162.896 344.231 M232.581 345.020 C 231.879 346.678,225.894 350.260,223.210 350.629 C 221.880 350.811,222.191 350.564,225.586 348.738 C 227.734 347.582,230.195 346.173,231.055 345.607 C 232.917 344.380,232.839 344.410,232.581 345.020 M171.484 349.274 C 171.484 349.505,171.206 349.586,170.866 349.456 C 170.527 349.325,170.093 349.219,169.902 349.219 C 169.712 349.219,169.656 348.958,169.778 348.640 C 170.030 347.983,171.484 348.524,171.484 349.274 M175.683 350.489 C 176.259 351.134,176.222 351.149,175.062 350.744 C 173.703 350.271,173.592 349.982,174.316 348.808 C 174.797 348.028,174.807 348.029,174.938 348.910 C 175.011 349.402,175.347 350.113,175.683 350.489 M167.537 350.815 C 168.548 351.118,169.138 351.525,169.135 351.917 C 169.131 352.295,169.016 352.378,168.842 352.128 C 168.684 351.903,167.720 351.405,166.699 351.022 C 165.679 350.639,164.844 350.234,164.844 350.121 C 164.844 350.009,165.089 350.011,165.389 350.126 C 165.689 350.241,166.656 350.551,167.537 350.815 " stroke="none" fill="#24d443" fill-rule="evenodd"></path><path id="path1" d="M39.530 4.333 C 37.531 4.753,34.982 5.444,33.866 5.869 C 31.357 6.822,31.127 6.827,31.699 5.911 C 33.387 3.209,30.637 3.457,28.446 6.205 C 26.704 8.389,26.516 8.510,24.438 8.769 C 21.369 9.153,18.665 11.677,20.264 12.665 C 20.452 12.782,18.987 14.506,17.007 16.497 C 8.590 24.961,4.257 34.693,3.698 46.389 C 3.587 48.697,3.294 52.054,3.047 53.848 C 2.703 56.339,2.705 57.285,3.056 57.847 C 3.406 58.408,3.516 92.112,3.518 199.506 C 3.520 320.378,3.601 340.962,4.085 344.173 C 6.984 363.408,21.197 378.216,40.430 382.041 C 41.719 382.297,43.828 382.961,45.117 383.516 C 47.884 384.709,56.818 384.943,57.623 383.845 C 57.945 383.406,58.760 383.367,61.920 383.638 C 77.331 384.957,153.203 384.744,157.251 383.370 C 158.724 382.870,270.130 382.782,308.984 383.251 C 311.455 383.280,319.541 383.204,326.953 383.080 C 342.709 382.818,342.081 383.050,321.375 385.145 C 308.174 386.481,308.203 386.475,308.203 387.554 C 308.203 388.784,308.906 388.794,319.620 387.713 C 334.836 386.179,339.069 385.647,345.216 384.493 L 350.783 383.449 351.566 384.289 C 352.345 385.125,353.477 385.095,353.557 384.236 C 353.580 383.990,353.624 383.456,353.655 383.050 C 353.728 382.081,360.292 379.440,363.895 378.930 C 366.684 378.535,367.703 377.973,367.403 376.996 C 367.196 376.323,370.562 373.828,371.675 373.828 C 372.000 373.828,372.266 373.592,372.266 373.303 C 372.266 373.014,372.605 372.470,373.020 372.095 C 373.726 371.456,373.713 371.633,372.816 374.866 C 370.790 382.165,370.580 383.100,370.821 383.728 C 370.957 384.084,371.419 384.375,371.846 384.375 C 372.695 384.375,372.845 383.954,375.595 373.828 C 376.566 370.255,377.362 368.133,378.064 367.246 C 386.899 356.099,393.147 346.548,392.397 345.335 C 391.715 344.231,390.654 345.025,389.039 347.849 C 387.086 351.260,386.984 351.307,387.737 348.437 C 388.047 347.256,388.502 344.531,388.748 342.383 C 389.134 339.010,389.445 337.970,391.024 334.766 C 393.150 330.452,393.582 328.796,392.762 328.115 C 391.892 327.393,391.098 327.936,390.637 329.570 C 390.407 330.386,389.964 331.494,389.654 332.031 C 388.710 333.667,388.839 325.192,389.811 321.796 C 390.967 317.753,391.251 314.233,390.458 313.789 C 389.877 313.464,389.855 312.666,390.219 305.055 C 390.440 300.449,390.648 294.658,390.681 292.188 C 390.751 287.023,390.709 286.765,392.029 300.391 C 393.050 310.925,393.313 312.012,394.708 311.477 C 395.325 311.240,395.383 310.884,395.174 308.630 C 395.042 307.214,394.485 301.421,393.936 295.757 C 392.992 286.018,392.975 285.433,393.615 284.965 C 394.257 284.496,394.257 284.226,393.626 279.833 C 392.341 270.899,391.968 266.175,390.345 238.281 L 389.288 220.117 389.164 132.422 C 389.068 64.181,389.145 44.529,389.515 43.835 C 389.903 43.106,389.860 42.574,389.276 40.905 C 387.810 36.718,385.120 29.980,384.128 28.012 C 383.217 26.205,383.192 26.057,383.906 26.696 C 384.918 27.601,385.435 28.682,388.879 37.109 C 391.402 43.283,391.763 43.945,392.608 43.945 C 393.170 43.945,393.594 43.686,393.669 43.296 C 393.792 42.655,389.966 32.798,387.883 28.389 C 387.291 27.137,386.891 25.793,386.993 25.401 C 387.360 23.999,383.856 19.766,379.963 16.908 C 378.815 16.065,378.160 15.316,378.285 14.989 C 378.730 13.831,378.062 13.351,375.655 13.101 C 372.769 12.802,371.023 12.129,367.383 9.913 C 363.827 7.748,359.733 6.025,355.098 4.743 L 351.367 3.711 197.266 3.640 C 45.640 3.569,43.106 3.580,39.530 4.333 M90.820 6.274 C 61.674 6.522,43.621 6.998,38.086 7.665 C 35.111 8.024,36.220 7.460,40.097 6.643 C 43.350 5.958,45.915 5.917,83.398 5.956 L 123.242 5.998 90.820 6.274 M339.844 6.420 C 339.844 7.872,351.656 12.558,357.623 13.474 C 364.013 14.456,364.856 14.991,372.994 23.238 C 376.813 27.108,381.083 31.629,382.483 33.286 C 386.900 38.512,386.506 30.968,386.628 112.726 L 386.733 183.070 385.554 182.897 C 384.122 182.687,384.125 182.653,384.934 190.486 C 385.241 193.463,385.684 198.623,385.918 201.953 C 386.152 205.283,386.424 208.887,386.523 209.961 C 386.702 211.914,386.702 211.914,386.222 210.547 C 385.076 207.283,383.361 208.862,384.191 212.418 C 384.490 213.701,385.186 219.738,385.736 225.833 L 386.738 236.914 386.631 281.250 L 386.523 325.586 382.878 338.672 C 379.160 352.022,378.263 354.341,374.876 359.375 C 371.356 364.606,364.993 370.290,359.806 372.836 C 355.678 374.863,354.312 376.563,356.813 376.563 C 359.143 376.563,357.887 377.253,355.164 377.469 C 353.505 377.601,347.314 378.170,341.406 378.734 C 328.304 379.985,296.732 380.267,292.578 379.169 L 290.430 378.602 292.578 378.561 C 293.760 378.538,304.482 378.252,316.406 377.925 C 328.330 377.598,340.459 377.290,343.359 377.240 L 348.633 377.148 348.633 376.172 L 348.633 375.195 343.359 375.079 C 340.459 375.015,328.330 375.236,316.406 375.570 C 290.378 376.298,276.332 376.357,275.951 375.740 C 275.764 375.437,274.090 375.387,270.362 375.571 C 267.383 375.718,257.297 375.570,247.461 375.234 C 233.486 374.757,214.125 374.424,209.668 374.585 C 209.217 374.601,208.984 374.923,208.984 375.530 C 208.984 376.757,210.787 376.939,223.592 377.001 C 228.986 377.027,235.859 377.159,238.867 377.294 L 244.336 377.539 240.039 377.852 C 237.193 378.059,234.331 378.004,231.562 377.689 C 228.253 377.312,225.240 377.316,217.109 377.708 C 210.592 378.021,199.837 378.144,187.695 378.044 C 169.885 377.897,164.838 377.689,149.414 376.466 C 143.111 375.965,95.355 375.978,82.031 376.484 C 75.684 376.724,74.021 376.650,68.359 375.871 C 58.915 374.571,54.492 374.519,54.492 375.708 C 54.492 376.995,56.358 378.099,57.417 377.438 C 58.032 377.053,59.114 377.075,62.785 377.544 C 71.459 378.652,73.243 378.981,73.930 379.593 C 74.474 380.078,74.799 380.115,75.492 379.770 C 76.146 379.444,77.356 379.466,80.273 379.856 C 83.938 380.346,83.101 380.381,66.751 380.424 L 49.322 380.469 44.876 377.790 C 36.411 372.690,33.594 370.736,33.594 369.964 C 33.594 369.561,33.117 368.918,32.533 368.536 C 31.950 368.153,27.355 364.134,22.322 359.604 C 17.289 355.074,12.761 351.016,12.260 350.586 C 10.569 349.136,8.393 338.779,7.996 330.295 C 7.875 327.705,7.701 325.103,7.609 324.512 C 7.474 323.646,7.591 323.437,8.213 323.437 C 9.157 323.438,9.159 323.359,8.536 311.328 C 8.175 304.351,8.184 301.579,8.581 297.881 C 9.055 293.462,9.043 293.196,8.349 292.687 C 7.496 292.060,7.321 264.842,8.161 263.398 C 8.483 262.844,8.573 263.136,8.582 264.777 C 8.596 267.226,10.477 289.033,10.736 289.746 C 10.974 290.403,12.473 290.369,12.729 289.702 C 12.841 289.409,12.466 284.179,11.895 278.081 C 10.806 266.460,10.401 246.945,9.978 185.742 C 9.906 175.215,9.672 164.316,9.460 161.523 C 9.247 158.730,9.208 156.196,9.374 155.892 C 9.539 155.588,9.519 154.798,9.329 154.137 C 8.891 152.609,8.873 98.331,9.310 97.832 C 9.489 97.628,9.403 89.551,9.118 79.883 C 8.833 70.215,8.637 58.965,8.683 54.883 L 8.766 47.461 7.757 47.472 L 6.748 47.483 7.831 43.371 C 9.095 38.570,10.366 35.051,11.433 33.401 C 11.851 32.755,12.096 32.523,11.977 32.886 C 8.844 42.480,8.270 45.736,9.620 46.254 C 10.597 46.629,11.328 45.755,11.328 44.214 C 11.328 42.399,13.283 36.343,14.152 35.464 C 14.524 35.089,15.604 33.240,16.553 31.356 C 20.787 22.948,22.990 20.749,27.853 20.075 C 30.172 19.754,30.522 17.954,28.337 17.579 C 27.295 17.400,27.562 17.203,31.072 15.561 C 37.063 12.757,39.727 11.758,40.133 12.164 C 40.591 12.622,41.797 12.180,41.797 11.554 C 41.797 9.817,60.017 8.336,77.734 8.633 L 79.883 8.669 77.930 9.121 C 76.370 9.482,75.951 9.750,75.852 10.452 C 75.668 11.744,76.568 11.894,80.189 11.178 C 83.263 10.571,90.728 10.049,114.648 8.771 C 130.495 7.925,151.109 7.671,165.234 8.149 C 177.247 8.555,177.554 8.546,178.188 7.798 C 178.798 7.077,190.788 6.543,191.453 7.208 C 191.550 7.305,203.469 7.488,217.940 7.614 C 232.597 7.742,244.546 8.002,244.918 8.201 C 245.316 8.414,246.989 8.421,249.062 8.217 C 250.975 8.030,259.746 7.768,268.555 7.637 C 277.363 7.506,288.789 7.111,293.945 6.760 C 303.139 6.134,317.501 6.334,332.931 7.302 C 336.621 7.533,336.768 7.511,336.980 6.701 C 337.245 5.689,339.844 5.435,339.844 6.420 M351.768 6.649 C 352.105 6.928,352.248 7.473,352.120 7.984 C 351.893 8.886,352.803 10.011,353.441 9.616 C 353.634 9.497,354.125 9.652,354.532 9.961 C 356.623 11.544,351.405 9.857,346.094 7.233 L 343.164 5.786 347.182 5.982 C 349.456 6.093,351.447 6.382,351.768 6.649 M361.376 10.329 C 362.531 10.854,363.187 11.293,362.833 11.306 C 362.479 11.318,361.424 10.891,360.489 10.356 C 358.324 9.119,358.686 9.108,361.376 10.329 M33.398 11.670 C 31.465 12.491,28.421 13.899,26.635 14.801 L 23.387 16.440 25.396 13.934 C 28.137 10.513,28.224 10.480,35.156 10.240 C 36.894 10.180,36.874 10.196,33.398 11.670 M17.716 19.824 C 16.903 20.845,16.188 21.753,16.127 21.842 C 16.066 21.932,15.895 21.884,15.747 21.737 C 15.522 21.511,18.630 17.969,19.053 17.969 C 19.130 17.969,18.528 18.804,17.716 19.824 M380.742 20.829 C 380.897 21.082,380.287 20.705,379.385 19.991 C 378.483 19.277,377.618 18.486,377.462 18.233 C 377.306 17.980,377.916 18.358,378.818 19.071 C 379.720 19.785,380.586 20.576,380.742 20.829 M380.819 27.029 L 381.729 28.711 380.163 26.953 C 379.302 25.986,378.683 25.055,378.787 24.883 C 379.079 24.401,379.821 25.184,380.819 27.029 M7.102 169.922 C 7.671 174.219,7.635 188.883,6.989 216.211 C 6.095 254.022,5.978 246.576,5.985 152.539 C 5.992 58.171,6.000 57.095,6.302 110.938 C 6.529 151.521,6.742 167.197,7.102 169.922 M390.514 286.230 C 390.425 286.821,390.351 286.338,390.351 285.156 C 390.351 283.975,390.425 283.491,390.514 284.082 C 390.604 284.673,390.604 285.640,390.514 286.230 M385.755 339.818 C 384.348 342.595,384.313 342.337,385.489 337.847 L 386.523 333.897 386.641 335.868 C 386.730 337.373,386.520 338.308,385.755 339.818 M7.228 343.071 C 7.452 343.931,7.392 344.105,6.931 343.928 C 6.311 343.690,5.840 340.922,5.903 337.891 C 5.935 336.336,5.998 336.472,6.443 339.063 C 6.720 340.674,7.073 342.478,7.228 343.071 M385.728 346.582 C 385.178 349.870,381.702 358.699,381.658 356.921 C 381.648 356.539,381.392 356.130,381.088 356.013 C 380.293 355.708,380.966 353.802,383.594 348.919 C 386.031 344.389,386.110 344.303,385.728 346.582 M10.293 354.674 C 10.842 356.493,11.234 358.037,11.166 358.105 C 11.021 358.250,8.423 352.220,8.011 350.781 L 7.731 349.805 8.514 350.586 C 8.944 351.016,9.745 352.855,10.293 354.674 M18.750 359.755 C 21.006 361.760,23.027 363.573,23.242 363.785 C 23.457 363.996,22.227 363.233,20.508 362.090 C 17.251 359.922,12.891 355.888,12.891 355.041 C 12.891 354.734,13.219 354.842,13.770 355.331 C 14.253 355.759,16.494 357.750,18.750 359.755 M380.432 359.766 C 379.133 361.875,378.699 362.231,379.119 360.840 C 379.344 360.094,381.150 357.813,381.515 357.813 C 381.580 357.813,381.093 358.691,380.432 359.766 M18.848 363.873 C 20.083 364.683,21.094 365.489,21.094 365.666 C 21.094 366.594,26.455 371.492,30.886 374.614 C 36.389 378.489,36.654 378.737,34.473 377.958 C 24.748 374.483,14.844 366.084,14.844 361.312 C 14.844 360.977,15.146 361.076,15.723 361.601 C 16.206 362.041,17.612 363.064,18.848 363.873 M375.603 364.425 C 375.462 364.653,374.961 365.040,374.490 365.285 C 373.673 365.710,373.677 365.683,374.578 364.703 C 375.478 363.725,376.148 363.543,375.603 364.425 M371.680 370.105 C 371.035 370.633,370.303 371.072,370.052 371.080 C 369.801 371.087,368.425 371.715,366.993 372.475 C 365.561 373.234,364.506 373.669,364.647 373.440 C 364.868 373.082,372.114 369.213,372.656 369.163 C 372.764 369.153,372.324 369.577,371.680 370.105 M264.536 379.297 L 264.364 380.469 251.811 380.415 C 241.845 380.372,240.023 380.291,242.969 380.022 C 252.280 379.171,263.160 378.207,263.897 378.168 C 264.583 378.132,264.682 378.306,264.536 379.297 M281.507 378.516 C 285.771 378.516,287.500 378.646,287.500 378.966 C 287.500 379.514,268.738 379.085,266.948 378.496 C 266.169 378.240,267.319 378.185,270.667 378.320 C 273.332 378.428,278.210 378.516,281.507 378.516 M155.918 379.980 C 156.309 380.371,152.916 380.469,138.958 380.469 C 123.453 380.469,121.534 380.402,121.738 379.871 C 122.047 379.065,155.110 379.171,155.918 379.980 " stroke="none" fill="#040404" fill-rule="evenodd"></path><path id="path2" d="M174.056 230.680 C 173.215 231.423,172.611 232.116,172.714 232.219 C 172.818 232.323,173.586 231.708,174.421 230.852 C 176.282 228.946,176.111 228.866,174.056 230.680 M215.411 301.660 L 213.867 303.320 215.527 301.776 C 216.440 300.927,217.188 300.180,217.188 300.116 C 217.188 299.820,216.847 300.116,215.411 301.660 " stroke="none" fill="#14d824" fill-rule="evenodd"></path><path id="path3" d="M174.056 230.680 C 173.215 231.423,172.611 232.116,172.714 232.219 C 172.818 232.323,173.586 231.708,174.421 230.852 C 176.282 228.946,176.111 228.866,174.056 230.680 M215.411 301.660 L 213.867 303.320 215.527 301.776 C 216.440 300.927,217.188 300.180,217.188 300.116 C 217.188 299.820,216.847 300.116,215.411 301.660 " stroke="none" fill="#14d824" fill-rule="evenodd"></path><path id="path4" d="M174.056 230.680 C 173.215 231.423,172.611 232.116,172.714 232.219 C 172.818 232.323,173.586 231.708,174.421 230.852 C 176.282 228.946,176.111 228.866,174.056 230.680 M215.411 301.660 L 213.867 303.320 215.527 301.776 C 216.440 300.927,217.188 300.180,217.188 300.116 C 217.188 299.820,216.847 300.116,215.411 301.660 " stroke="none" fill="#14d824" fill-rule="evenodd"></path></g></svg>