<svg id="svg" version="1.1" xmlns="http://www.w3.org/2000/svg" xmlns:xlink="http://www.w3.org/1999/xlink" width="400" height="400" viewBox="0, 0, 400,400"><g id="svgg"><path id="path0" d="M309.277 66.199 C 308.573 67.167,308.370 68.566,308.887 68.885 C 309.385 69.192,308.659 87.859,308.050 90.430 C 305.552 100.959,308.248 101.128,318.277 91.073 C 321.652 87.688,325.434 84.169,326.680 83.253 C 329.544 81.147,330.672 78.498,328.994 77.819 C 327.525 77.225,319.226 71.489,319.006 70.916 C 318.879 70.584,318.501 70.313,318.167 70.313 C 317.127 70.313,312.655 67.252,312.183 66.217 C 311.606 64.951,310.192 64.942,309.277 66.199 " stroke="none" fill="#fc0b0b" fill-rule="evenodd"></path><path id="path1" d="M39.530 4.333 C 37.531 4.753,34.982 5.444,33.866 5.869 C 31.357 6.822,31.127 6.827,31.699 5.911 C 33.387 3.209,30.637 3.457,28.446 6.205 C 26.704 8.389,26.516 8.510,24.438 8.769 C 21.369 9.153,18.665 11.677,20.264 12.665 C 20.452 12.782,18.987 14.506,17.007 16.497 C 8.590 24.961,4.257 34.693,3.698 46.389 C 3.587 48.697,3.294 52.054,3.047 53.848 C 2.703 56.339,2.705 57.285,3.056 57.847 C 3.406 58.408,3.516 92.112,3.518 199.506 C 3.520 320.378,3.601 340.962,4.085 344.173 C 6.984 363.408,21.197 378.216,40.430 382.041 C 41.719 382.297,43.828 382.961,45.117 383.516 C 47.884 384.709,56.818 384.943,57.623 383.845 C 57.945 383.406,58.760 383.367,61.920 383.638 C 77.331 384.957,153.203 384.744,157.251 383.370 C 158.724 382.870,270.130 382.782,308.984 383.251 C 311.455 383.280,319.541 383.204,326.953 383.080 C 342.709 382.818,342.081 383.050,321.375 385.145 C 308.174 386.481,308.203 386.475,308.203 387.554 C 308.203 388.784,308.906 388.794,319.620 387.713 C 334.836 386.179,339.069 385.647,345.216 384.493 L 350.783 383.449 351.566 384.289 C 352.345 385.125,353.477 385.095,353.557 384.236 C 353.580 383.990,353.624 383.456,353.655 383.050 C 353.728 382.081,360.292 379.440,363.895 378.930 C 366.684 378.535,367.703 377.973,367.403 376.996 C 367.196 376.323,370.562 373.828,371.675 373.828 C 372.000 373.828,372.266 373.592,372.266 373.303 C 372.266 373.014,372.605 372.470,373.020 372.095 C 373.726 371.456,373.713 371.633,372.816 374.866 C 370.790 382.165,370.580 383.100,370.821 383.728 C 370.957 384.084,371.419 384.375,371.846 384.375 C 372.695 384.375,372.845 383.954,375.595 373.828 C 376.566 370.255,377.362 368.133,378.064 367.246 C 386.899 356.099,393.147 346.548,392.397 345.335 C 391.715 344.231,390.654 345.025,389.039 347.849 C 387.086 351.260,386.984 351.307,387.737 348.437 C 388.047 347.256,388.502 344.531,388.748 342.383 C 389.134 339.010,389.445 337.970,391.024 334.766 C 393.150 330.452,393.582 328.796,392.762 328.115 C 391.892 327.393,391.098 327.936,390.637 329.570 C 390.407 330.386,389.964 331.494,389.654 332.031 C 388.710 333.667,388.839 325.192,389.811 321.796 C 390.967 317.753,391.251 314.233,390.458 313.789 C 389.877 313.464,389.855 312.666,390.219 305.055 C 390.440 300.449,390.648 294.658,390.681 292.188 C 390.751 287.023,390.709 286.765,392.029 300.391 C 393.050 310.925,393.313 312.012,394.708 311.477 C 395.325 311.240,395.383 310.884,395.174 308.630 C 395.042 307.214,394.485 301.421,393.936 295.757 C 392.991 286.002,392.974 285.434,393.618 284.963 C 394.262 284.492,394.263 284.234,393.637 280.026 C 393.274 277.584,392.722 272.686,392.410 269.141 C 391.455 258.288,391.439 257.883,391.974 257.678 C 392.352 257.533,392.525 252.935,392.735 237.437 C 393.461 183.854,393.718 173.339,394.318 172.676 C 394.824 172.116,394.781 170.117,393.953 155.845 C 392.259 126.636,392.133 122.470,392.422 105.469 C 392.631 93.198,392.818 89.163,393.189 88.867 C 394.094 88.147,395.018 79.649,394.735 74.655 C 394.455 69.729,393.109 51.447,392.710 47.159 C 392.494 44.837,392.556 44.438,393.204 43.959 C 393.928 43.425,393.923 43.353,393.008 40.944 C 392.377 39.281,391.887 36.693,391.505 33.008 C 390.923 27.383,390.338 25.621,389.135 25.870 C 388.609 25.978,388.494 26.395,388.566 27.944 L 388.655 29.883 387.730 28.003 C 387.221 26.968,386.889 25.800,386.992 25.406 C 387.360 23.999,383.862 19.770,379.963 16.908 C 378.815 16.065,378.160 15.316,378.285 14.989 C 378.730 13.831,378.062 13.351,375.655 13.101 C 372.769 12.802,371.023 12.129,367.383 9.913 C 363.827 7.748,359.733 6.025,355.098 4.743 L 351.367 3.711 197.266 3.640 C 45.640 3.569,43.106 3.580,39.530 4.333 M90.820 6.274 C 61.674 6.522,43.621 6.998,38.086 7.665 C 35.111 8.024,36.220 7.460,40.097 6.643 C 43.350 5.958,45.915 5.917,83.398 5.956 L 123.242 5.998 90.820 6.274 M339.844 6.420 C 339.844 7.872,351.656 12.558,357.623 13.474 C 364.013 14.456,364.856 14.991,372.994 23.238 C 376.813 27.108,381.083 31.629,382.483 33.286 C 386.900 38.512,386.506 30.968,386.628 112.726 L 386.733 183.070 385.554 182.897 C 384.122 182.687,384.125 182.653,384.934 190.486 C 385.241 193.463,385.684 198.623,385.918 201.953 C 386.152 205.283,386.424 208.887,386.523 209.961 C 386.702 211.914,386.702 211.914,386.222 210.547 C 385.076 207.283,383.361 208.862,384.191 212.418 C 384.490 213.701,385.186 219.738,385.736 225.833 L 386.738 236.914 386.631 281.250 L 386.523 325.586 382.878 338.672 C 379.160 352.022,378.263 354.341,374.876 359.375 C 371.356 364.606,364.993 370.290,359.806 372.836 C 355.678 374.863,354.312 376.563,356.813 376.563 C 359.143 376.563,357.887 377.253,355.164 377.469 C 353.505 377.601,347.314 378.170,341.406 378.734 C 328.304 379.985,296.732 380.267,292.578 379.169 L 290.430 378.602 292.578 378.561 C 293.760 378.538,304.482 378.252,316.406 377.925 C 328.330 377.598,340.459 377.290,343.359 377.240 L 348.633 377.148 348.633 376.172 L 348.633 375.195 343.359 375.079 C 340.459 375.015,328.330 375.236,316.406 375.570 C 290.378 376.298,276.332 376.357,275.951 375.740 C 275.764 375.437,274.090 375.387,270.362 375.571 C 267.383 375.718,257.297 375.570,247.461 375.234 C 233.486 374.757,214.125 374.424,209.668 374.585 C 209.217 374.601,208.984 374.923,208.984 375.530 C 208.984 376.757,210.787 376.939,223.592 377.001 C 228.986 377.027,235.859 377.159,238.867 377.294 L 244.336 377.539 240.039 377.852 C 237.193 378.059,234.331 378.004,231.562 377.689 C 228.253 377.312,225.240 377.316,217.109 377.708 C 210.592 378.021,199.837 378.144,187.695 378.044 C 169.885 377.897,164.838 377.689,149.414 376.466 C 143.111 375.965,95.355 375.978,82.031 376.484 C 75.684 376.724,74.021 376.650,68.359 375.871 C 58.915 374.571,54.492 374.519,54.492 375.708 C 54.492 376.995,56.358 378.099,57.417 377.438 C 58.032 377.053,59.114 377.075,62.785 377.544 C 71.459 378.652,73.243 378.981,73.930 379.593 C 74.474 380.078,74.799 380.115,75.492 379.770 C 76.146 379.444,77.356 379.466,80.273 379.856 C 83.938 380.346,83.101 380.381,66.751 380.424 L 49.322 380.469 44.876 377.790 C 36.411 372.690,33.594 370.736,33.594 369.964 C 33.594 369.561,33.117 368.918,32.533 368.536 C 31.950 368.153,27.355 364.134,22.322 359.604 C 17.289 355.074,12.761 351.016,12.260 350.586 C 10.569 349.136,8.393 338.779,7.996 330.295 C 7.875 327.705,7.701 325.103,7.609 324.512 C 7.474 323.646,7.591 323.437,8.213 323.437 C 9.157 323.438,9.159 323.359,8.536 311.328 C 8.175 304.351,8.184 301.579,8.581 297.881 C 9.055 293.462,9.043 293.196,8.349 292.687 C 7.496 292.060,7.321 264.842,8.161 263.398 C 8.483 262.844,8.573 263.136,8.582 264.777 C 8.596 267.226,10.477 289.033,10.736 289.746 C 10.974 290.403,12.473 290.369,12.729 289.702 C 12.841 289.409,12.466 284.179,11.895 278.081 C 10.806 266.460,10.401 246.945,9.978 185.742 C 9.906 175.215,9.672 164.316,9.460 161.523 C 9.247 158.730,9.208 156.196,9.374 155.892 C 9.539 155.588,9.519 154.798,9.329 154.137 C 8.891 152.609,8.873 98.331,9.310 97.832 C 9.489 97.628,9.403 89.551,9.118 79.883 C 8.833 70.215,8.637 58.965,8.683 54.883 L 8.766 47.461 7.757 47.472 L 6.748 47.483 7.831 43.371 C 9.095 38.570,10.366 35.051,11.433 33.401 C 11.851 32.755,12.096 32.523,11.977 32.886 C 8.844 42.480,8.270 45.736,9.620 46.254 C 10.597 46.629,11.328 45.755,11.328 44.214 C 11.328 42.399,13.283 36.343,14.152 35.464 C 14.524 35.089,15.604 33.240,16.553 31.356 C 20.787 22.948,22.990 20.749,27.853 20.075 C 30.172 19.754,30.522 17.954,28.337 17.579 C 27.295 17.400,27.562 17.203,31.072 15.561 C 37.063 12.757,39.727 11.758,40.133 12.164 C 40.591 12.622,41.797 12.180,41.797 11.554 C 41.797 9.817,60.017 8.336,77.734 8.633 L 79.883 8.669 77.930 9.121 C 76.370 9.482,75.951 9.750,75.852 10.452 C 75.668 11.744,76.568 11.894,80.189 11.178 C 83.263 10.571,90.728 10.049,114.648 8.771 C 130.495 7.925,151.109 7.671,165.234 8.149 C 177.247 8.555,177.554 8.546,178.188 7.798 C 178.798 7.077,190.788 6.543,191.453 7.208 C 191.550 7.305,203.469 7.488,217.940 7.614 C 232.597 7.742,244.546 8.002,244.918 8.201 C 245.316 8.414,246.989 8.421,249.062 8.217 C 250.975 8.030,259.746 7.768,268.555 7.637 C 277.363 7.506,288.789 7.111,293.945 6.760 C 303.139 6.134,317.501 6.334,332.931 7.302 C 336.621 7.533,336.768 7.511,336.980 6.701 C 337.245 5.689,339.844 5.435,339.844 6.420 M351.768 6.649 C 352.105 6.928,352.248 7.473,352.120 7.984 C 351.893 8.886,352.803 10.011,353.441 9.616 C 353.634 9.497,354.125 9.652,354.532 9.961 C 356.623 11.544,351.405 9.857,346.094 7.233 L 343.164 5.786 347.182 5.982 C 349.456 6.093,351.447 6.382,351.768 6.649 M361.376 10.329 C 362.531 10.854,363.187 11.293,362.833 11.306 C 362.479 11.318,361.424 10.891,360.489 10.356 C 358.324 9.119,358.686 9.108,361.376 10.329 M33.398 11.670 C 31.465 12.491,28.421 13.899,26.635 14.801 L 23.387 16.440 25.396 13.934 C 28.137 10.513,28.224 10.480,35.156 10.240 C 36.894 10.180,36.874 10.196,33.398 11.670 M17.716 19.824 C 16.903 20.845,16.188 21.753,16.127 21.842 C 16.066 21.932,15.895 21.884,15.747 21.737 C 15.522 21.511,18.630 17.969,19.053 17.969 C 19.130 17.969,18.528 18.804,17.716 19.824 M380.742 20.829 C 380.897 21.082,380.287 20.705,379.385 19.991 C 378.483 19.277,377.618 18.486,377.462 18.233 C 377.306 17.980,377.916 18.358,378.818 19.071 C 379.720 19.785,380.586 20.576,380.742 20.829 M380.819 27.029 L 381.729 28.711 380.163 26.953 C 379.302 25.986,378.683 25.055,378.787 24.883 C 379.079 24.401,379.821 25.184,380.819 27.029 M387.430 33.498 C 389.278 37.969,390.339 41.797,389.730 41.797 C 389.611 41.797,389.302 41.138,389.044 40.332 C 388.230 37.795,385.196 30.134,384.165 28.012 L 383.175 25.977 384.263 27.224 C 384.862 27.911,386.287 30.734,387.430 33.498 M390.234 45.060 C 390.234 45.780,390.349 47.469,390.490 48.812 C 390.743 51.238,390.740 51.250,389.904 50.728 C 388.644 49.941,388.649 43.750,389.909 43.750 C 390.088 43.750,390.234 44.339,390.234 45.060 M7.102 169.922 C 7.671 174.219,7.635 188.883,6.989 216.211 C 6.095 254.022,5.978 246.576,5.985 152.539 C 5.992 58.171,6.000 57.095,6.302 110.938 C 6.529 151.521,6.742 167.197,7.102 169.922 M391.512 61.914 C 391.653 64.842,391.620 65.527,391.406 64.063 C 391.081 61.831,390.907 57.170,391.160 57.454 C 391.240 57.544,391.398 59.551,391.512 61.914 M110.822 61.230 C 110.120 66.339,110.322 96.586,111.163 112.339 L 111.415 117.062 105.219 117.326 C 101.812 117.471,97.002 117.861,94.531 118.192 C 92.061 118.523,87.784 118.893,85.028 119.014 L 80.017 119.235 78.645 117.918 C 77.219 116.551,74.464 111.604,74.890 111.178 C 75.254 110.814,73.399 108.984,72.666 108.984 C 72.317 108.984,71.820 109.195,71.563 109.453 C 71.198 109.818,71.094 109.818,71.094 109.453 C 71.094 108.704,69.220 108.895,68.991 109.668 C 68.580 111.063,68.836 123.883,69.427 131.445 C 70.137 140.521,69.590 161.107,68.484 166.967 C 68.125 168.868,67.846 172.982,67.780 177.344 C 67.721 181.318,67.477 186.768,67.240 189.453 C 66.836 194.017,66.018 209.134,66.016 212.048 C 66.016 213.026,66.212 213.406,66.797 213.559 C 67.755 213.809,67.774 213.039,66.581 222.426 C 66.033 226.742,64.900 236.287,64.065 243.636 C 63.229 250.985,62.378 257.313,62.173 257.698 C 61.690 258.608,60.412 265.073,57.015 283.789 C 53.158 305.049,52.804 306.250,50.406 306.250 C 49.893 306.250,49.620 307.884,50.012 308.616 C 50.267 309.094,50.199 309.439,49.778 309.788 C 49.001 310.433,49.217 311.868,50.116 312.040 C 51.220 312.250,55.056 307.725,55.089 306.174 C 55.105 305.444,57.341 302.582,58.108 302.311 C 58.576 302.145,59.051 300.711,59.836 297.087 C 60.509 293.983,61.155 291.919,61.542 291.636 C 62.308 291.076,63.491 287.042,64.433 281.775 C 64.824 279.592,65.245 277.643,65.368 277.443 C 65.761 276.808,68.685 264.798,69.377 260.976 C 70.016 257.450,70.014 257.284,69.331 256.784 C 68.649 256.286,68.679 256.032,70.020 250.892 C 70.802 247.892,71.289 245.284,71.122 244.986 C 70.957 244.692,70.964 243.722,71.136 242.831 C 71.578 240.554,71.556 238.281,71.094 238.281 C 69.976 238.281,71.671 227.038,72.814 226.875 C 73.749 226.741,74.091 223.654,74.175 214.614 C 74.199 212.016,74.757 205.337,75.415 199.770 C 76.073 194.203,76.544 189.172,76.462 188.589 C 76.379 188.007,76.516 187.452,76.765 187.356 C 77.065 187.241,77.304 185.205,77.471 181.344 C 77.610 178.133,78.106 171.393,78.572 166.366 C 79.553 155.803,79.688 144.752,78.954 135.208 C 78.382 127.777,78.575 125.604,79.777 125.918 C 80.212 126.032,83.633 125.608,87.380 124.976 C 94.316 123.807,100.976 123.493,106.527 124.073 L 108.873 124.318 109.129 128.468 C 109.270 130.750,109.549 134.023,109.749 135.742 C 109.950 137.461,110.124 140.929,110.135 143.448 C 110.161 149.112,110.316 148.968,103.516 149.601 C 91.269 150.741,89.174 151.290,89.661 153.231 C 90.006 154.605,91.040 154.937,91.851 153.936 C 92.459 153.186,92.676 153.162,95.370 153.558 C 96.950 153.790,100.827 154.070,103.985 154.181 L 109.728 154.381 109.512 156.780 C 109.310 159.013,109.380 159.295,110.507 160.836 C 111.389 162.042,111.719 162.923,111.719 164.072 C 111.719 165.937,112.496 167.964,113.655 169.124 C 114.313 169.782,114.464 170.341,114.373 171.781 C 114.277 173.307,114.378 173.630,114.994 173.756 C 115.399 173.838,116.382 174.591,117.180 175.429 C 118.823 177.157,120.528 177.494,121.012 176.186 C 121.271 175.487,121.381 175.469,122.269 175.981 C 125.580 177.889,125.778 177.929,131.874 177.929 C 136.394 177.930,137.927 177.800,138.439 177.375 C 139.189 176.752,142.292 176.425,146.094 176.568 C 152.524 176.809,154.417 176.600,160.547 174.970 C 161.514 174.713,162.524 174.445,162.793 174.373 C 163.062 174.302,163.281 173.910,163.281 173.502 C 163.281 173.095,163.633 172.315,164.063 171.768 C 164.910 170.691,165.069 169.716,164.459 169.339 C 164.222 169.193,164.169 167.766,164.320 165.635 L 164.566 162.168 163.251 160.967 C 160.797 158.726,159.169 159.998,159.830 163.638 C 160.233 165.852,159.902 166.616,157.238 169.629 C 156.087 170.930,155.949 170.949,155.789 169.824 L 155.664 168.945 142.109 168.945 C 131.786 168.945,128.438 168.829,128.066 168.457 C 127.798 168.188,127.218 167.968,126.777 167.967 C 122.266 167.954,118.349 163.769,119.422 160.108 C 120.150 157.624,119.960 156.157,118.846 155.668 C 116.423 154.606,123.006 154.061,136.192 154.234 C 139.755 154.281,140.748 153.882,140.017 152.699 C 139.896 152.504,140.171 152.344,140.628 152.344 C 142.594 152.344,143.800 150.372,142.480 149.313 C 140.905 148.051,134.507 147.120,126.297 146.960 L 118.024 146.798 117.809 145.372 C 116.938 139.595,116.732 135.806,117.198 134.141 C 117.516 133.006,117.602 131.334,117.443 129.380 C 117.308 127.723,117.303 125.972,117.433 125.488 C 117.690 124.533,118.359 124.281,118.359 125.140 C 118.359 126.264,130.932 126.165,136.131 125.000 C 137.156 124.771,142.497 124.509,148.001 124.419 C 153.505 124.329,159.106 124.104,160.449 123.918 C 161.792 123.733,162.891 123.681,162.891 123.802 C 162.891 127.294,160.565 132.767,157.673 136.084 C 155.052 139.089,154.538 140.334,155.731 140.792 C 156.171 140.961,156.859 140.579,157.835 139.626 C 158.654 138.827,159.352 138.407,159.437 138.661 C 159.659 139.328,163.495 138.728,164.609 137.852 C 165.110 137.458,166.730 135.183,168.209 132.797 C 169.688 130.411,172.098 126.942,173.565 125.090 C 175.031 123.237,176.485 121.230,176.796 120.629 C 177.277 119.698,177.469 119.603,178.082 119.986 C 179.131 120.641,180.078 120.123,180.078 118.895 C 180.078 116.587,173.826 109.731,171.801 109.819 C 171.090 109.849,169.951 109.641,169.270 109.356 C 167.633 108.670,166.798 109.319,166.795 111.278 C 166.794 112.058,166.364 113.750,165.839 115.039 L 164.884 117.383 152.071 117.502 C 138.952 117.625,118.573 117.141,118.129 116.696 C 117.992 116.560,118.090 115.575,118.347 114.507 C 118.694 113.058,118.701 112.356,118.372 111.743 C 118.130 111.291,117.741 107.804,117.507 103.996 C 117.200 98.991,116.913 96.799,116.472 96.094 C 116.086 95.475,115.801 93.864,115.696 91.699 L 115.529 88.281 120.167 88.269 C 122.718 88.262,126.563 88.002,128.711 87.691 C 130.859 87.379,133.519 87.121,134.620 87.117 C 136.764 87.109,137.775 86.437,137.342 85.309 C 137.134 84.766,136.575 84.696,133.585 84.839 C 130.302 84.996,130.088 84.959,130.303 84.281 C 130.934 82.294,127.356 81.803,122.589 83.223 C 120.946 83.712,119.105 83.979,117.859 83.907 L 115.820 83.789 115.600 79.102 C 115.479 76.523,115.263 74.150,115.120 73.828 C 114.977 73.506,114.689 70.767,114.481 67.741 C 114.066 61.726,113.424 59.773,111.859 59.768 C 111.188 59.766,110.983 60.056,110.822 61.230 M389.524 125.270 C 389.240 133.667,389.184 130.651,389.186 107.227 L 389.188 79.102 389.526 97.145 C 389.719 107.385,389.718 119.547,389.524 125.270 M337.254 102.125 C 336.581 102.418,335.912 102.850,335.766 103.086 C 335.620 103.322,334.984 103.516,334.352 103.516 C 333.413 103.516,333.203 103.680,333.203 104.415 C 333.203 105.070,332.176 106.188,329.425 108.530 L 325.647 111.747 323.859 111.493 C 322.558 111.309,321.682 110.868,320.649 109.880 C 318.979 108.282,317.833 108.277,317.650 109.867 C 317.501 111.154,318.019 111.079,308.984 111.127 C 305.010 111.149,300.816 111.315,299.666 111.496 C 298.344 111.705,297.481 111.684,297.322 111.440 C 297.184 111.228,296.349 110.603,295.468 110.051 C 294.587 109.499,292.829 107.960,291.562 106.631 C 287.691 102.571,281.661 101.045,281.318 104.038 C 281.188 105.176,282.140 106.641,283.009 106.641 C 283.344 106.641,283.551 108.702,283.745 113.965 C 284.011 121.212,283.933 124.118,283.194 134.375 C 282.099 149.584,281.904 158.146,282.627 159.250 C 283.252 160.203,283.328 161.746,283.428 175.515 C 283.499 185.166,283.685 190.872,283.937 191.125 C 284.207 191.395,284.146 191.889,283.746 192.662 C 282.915 194.268,283.167 195.866,284.277 196.023 C 284.938 196.117,285.258 195.876,285.571 195.047 C 286.380 192.906,288.320 190.284,289.186 190.161 C 290.285 190.004,291.797 187.073,291.797 185.097 C 291.797 183.358,291.903 183.280,295.242 182.562 C 304.442 180.583,307.466 180.078,310.132 180.078 C 311.823 180.078,313.316 179.888,313.563 179.640 C 314.241 178.962,318.938 179.383,319.844 180.203 C 320.438 180.741,321.644 180.930,325.716 181.125 L 330.840 181.370 331.216 180.431 C 331.480 179.771,331.598 181.420,331.616 185.987 C 331.636 191.238,331.752 192.575,332.222 192.965 C 333.075 193.673,333.908 193.178,334.279 191.744 C 334.717 190.056,335.294 189.954,336.314 191.387 C 337.984 193.732,339.509 192.213,339.503 188.211 C 339.501 186.853,339.572 181.611,339.660 176.563 C 339.749 171.514,339.988 155.781,340.192 141.602 C 340.396 127.422,340.688 114.112,340.842 112.024 C 341.072 108.897,341.013 108.062,340.508 107.292 C 339.913 106.383,339.944 106.320,341.627 105.059 C 342.815 104.169,343.359 103.473,343.359 102.845 C 343.359 101.783,342.419 101.275,341.644 101.918 C 341.266 102.231,340.804 102.244,340.061 101.962 C 338.770 101.470,338.757 101.471,337.254 102.125 M337.392 108.701 C 337.287 108.976,336.992 110.206,336.737 111.436 C 336.134 114.338,335.547 114.295,335.547 111.348 C 335.547 109.546,335.701 108.934,336.230 108.625 C 337.170 108.078,337.620 108.107,337.392 108.701 M287.500 110.282 C 287.500 111.273,286.927 110.750,286.511 109.378 C 286.246 108.507,286.283 108.461,286.858 108.938 C 287.211 109.231,287.500 109.836,287.500 110.282 M71.848 111.839 C 71.863 112.013,71.699 112.047,71.484 111.914 C 71.270 111.781,71.106 111.288,71.121 110.817 C 71.149 109.965,71.759 110.825,71.848 111.839 M294.274 114.627 C 294.393 114.937,295.159 115.298,295.976 115.429 C 296.793 115.560,297.808 115.860,298.232 116.095 C 299.389 116.736,309.671 117.322,311.328 116.842 C 313.451 116.227,317.109 115.963,317.382 116.406 C 317.515 116.621,318.307 116.797,319.141 116.797 C 319.975 116.797,320.766 116.973,320.898 117.188 C 321.292 117.825,322.978 117.632,323.386 116.903 C 323.723 116.301,323.960 116.279,325.560 116.707 C 326.547 116.971,327.704 117.188,328.131 117.188 C 328.557 117.188,328.907 117.231,328.907 117.285 C 328.908 117.339,329.169 120.095,329.488 123.410 C 329.807 126.725,330.016 129.489,329.953 129.552 C 329.315 130.191,322.138 130.443,321.699 129.843 C 321.325 129.331,320.501 129.135,318.317 129.039 C 316.729 128.968,312.971 128.382,309.966 127.737 C 302.391 126.109,300.492 126.313,295.682 129.273 C 294.613 129.930,293.301 130.469,292.768 130.469 L 291.797 130.469 291.797 122.266 L 291.797 114.063 292.927 114.063 C 293.552 114.063,294.154 114.315,294.274 114.627 M74.945 119.761 C 74.487 120.858,74.464 120.866,74.313 119.991 C 74.100 118.756,74.520 117.723,75.027 118.230 C 75.290 118.493,75.263 118.999,74.945 119.761 M75.391 126.587 C 75.391 126.978,75.215 127.406,75.000 127.539 C 74.783 127.673,74.585 129.722,74.554 132.152 C 74.507 135.913,74.458 136.224,74.202 134.375 C 73.741 131.046,74.196 124.886,74.862 125.438 C 75.153 125.680,75.391 126.197,75.391 126.587 M306.396 129.677 C 306.670 129.951,305.630 130.069,303.105 130.048 C 299.534 130.020,299.459 130.001,300.781 129.470 C 302.264 128.875,305.721 129.002,306.396 129.677 M329.975 138.379 C 329.855 140.796,329.442 145.033,329.059 147.794 L 328.361 152.814 325.020 152.550 C 323.183 152.404,320.713 152.045,319.531 151.752 C 317.134 151.157,293.750 151.052,293.750 151.635 C 293.750 151.810,293.108 151.953,292.323 151.953 L 290.896 151.953 291.151 147.204 C 291.291 144.592,291.406 140.728,291.406 138.617 L 291.406 134.778 302.832 134.846 C 319.095 134.944,326.582 134.812,327.930 134.405 C 330.271 133.698,330.214 133.587,329.975 138.379 M220.697 135.750 C 220.219 136.326,220.259 136.605,221.011 137.912 C 222.047 139.712,222.051 139.752,221.220 139.913 C 220.618 140.029,220.560 141.657,220.509 159.961 C 220.473 172.869,220.223 184.058,219.800 191.742 C 219.127 203.961,219.169 205.229,220.258 205.834 C 220.680 206.067,221.033 207.098,221.293 208.856 C 221.771 212.088,223.948 213.100,224.089 210.156 C 224.125 209.404,224.432 207.031,224.770 204.883 C 225.109 202.734,225.387 200.297,225.388 199.466 C 225.390 198.079,225.462 197.978,226.270 198.231 C 227.765 198.700,237.944 198.923,240.681 198.548 C 243.903 198.105,243.939 198.131,246.279 202.458 C 247.297 204.342,248.605 206.361,249.186 206.945 C 249.766 207.530,250.357 208.315,250.499 208.691 C 250.812 209.521,252.175 209.597,252.480 208.802 C 252.601 208.486,252.467 207.005,252.182 205.510 C 251.595 202.426,251.985 178.242,252.703 173.242 C 252.918 171.738,253.218 164.847,253.368 157.928 C 253.655 144.683,253.599 144.141,251.939 144.141 C 251.325 144.141,251.293 143.999,251.680 142.974 C 252.802 140.003,248.745 140.694,245.734 143.987 L 243.909 145.982 238.068 146.185 C 234.407 146.312,231.620 146.603,230.602 146.964 L 228.977 147.540 228.839 146.088 C 228.710 144.733,228.799 144.593,230.170 143.999 C 232.025 143.195,232.055 142.323,230.276 140.903 C 229.525 140.304,228.642 139.294,228.313 138.657 C 227.984 138.021,227.408 137.500,227.034 137.500 C 226.659 137.500,225.701 137.057,224.904 136.515 C 222.947 135.185,221.399 134.904,220.697 135.750 M389.648 147.017 C 389.314 155.522,389.950 166.226,390.849 167.220 C 391.421 167.851,391.438 170.160,391.049 193.234 C 390.814 207.160,390.602 222.422,390.578 227.148 C 390.554 231.875,390.472 235.479,390.397 235.156 C 389.199 230.064,388.331 139.345,389.487 140.060 C 389.782 140.243,389.831 142.355,389.648 147.017 M337.836 154.199 L 337.782 159.570 337.404 156.321 C 337.070 153.451,337.267 148.828,337.723 148.828 C 337.815 148.828,337.866 151.245,337.836 154.199 M240.137 150.269 C 239.761 150.368,239.146 150.368,238.770 150.269 C 238.394 150.171,238.701 150.091,239.453 150.091 C 240.205 150.091,240.513 150.171,240.137 150.269 M243.359 172.773 C 243.359 196.787,243.419 196.094,241.340 196.094 C 240.335 196.094,240.264 195.990,240.344 194.629 L 240.430 193.164 233.931 193.221 L 227.433 193.279 227.197 191.854 C 226.573 188.081,226.926 176.661,227.673 176.465 C 228.502 176.249,228.899 173.344,228.903 167.456 C 228.905 165.316,229.151 163.266,229.553 162.036 C 230.077 160.436,230.114 159.821,229.748 158.810 C 229.050 156.880,229.154 153.906,229.919 153.906 C 230.262 153.906,230.637 153.544,230.753 153.100 C 230.957 152.318,231.121 152.302,236.380 152.569 L 241.797 152.844 241.797 151.617 C 241.797 150.651,241.963 150.391,242.578 150.391 C 243.350 150.391,243.359 150.651,243.359 172.773 M246.999 158.496 C 246.696 165.508,246.484 165.575,246.484 158.659 C 246.484 155.400,246.638 153.125,246.858 153.125 C 247.088 153.125,247.143 155.179,246.999 158.496 M317.319 156.525 C 316.534 156.916,315.822 157.024,315.366 156.820 C 314.796 156.564,314.969 156.444,316.211 156.234 C 318.570 155.836,318.657 155.858,317.319 156.525 M294.688 157.065 C 296.411 157.357,300.008 157.455,304.649 157.334 L 311.914 157.145 313.197 158.260 C 314.860 159.705,316.316 159.694,319.449 158.212 C 321.402 157.288,322.242 157.095,323.550 157.266 C 324.455 157.385,326.230 157.316,327.494 157.112 L 329.792 156.742 329.476 161.477 C 328.975 168.985,328.971 168.927,329.983 169.070 C 330.607 169.159,330.970 168.931,331.228 168.289 C 331.480 167.660,331.599 169.009,331.616 172.700 L 331.641 178.017 330.741 177.845 C 330.246 177.750,328.539 177.853,326.947 178.073 C 325.356 178.294,323.871 178.326,323.648 178.145 C 323.425 177.964,322.035 177.631,320.559 177.403 C 319.083 177.176,317.853 176.938,317.825 176.874 C 317.107 175.244,316.964 175.193,313.429 175.309 C 311.521 175.372,305.918 175.475,300.977 175.539 C 296.035 175.603,291.701 175.784,291.345 175.942 C 290.785 176.189,290.664 175.839,290.454 173.368 C 289.825 165.949,290.354 156.119,291.366 156.420 C 291.710 156.523,293.205 156.813,294.688 157.065 M69.923 195.301 C 68.791 205.418,68.496 205.532,69.104 195.617 C 69.633 186.972,69.771 186.021,70.403 186.653 C 70.728 186.978,70.602 189.232,69.923 195.301 M305.078 196.040 C 304.006 196.548,303.694 196.940,303.632 197.856 C 303.589 198.498,303.386 199.902,303.182 200.977 C 302.978 202.051,302.903 203.737,303.015 204.723 C 303.128 205.718,303.024 206.880,302.781 207.334 C 302.469 207.918,302.461 208.461,302.755 209.234 C 302.981 209.829,303.058 210.960,302.925 211.748 L 302.683 213.179 300.072 213.437 C 298.636 213.579,295.312 214.133,292.685 214.669 L 287.908 215.643 284.020 214.657 C 278.944 213.371,278.125 213.371,278.125 214.661 C 278.125 215.263,278.392 215.731,278.809 215.857 C 279.185 215.972,280.040 216.333,280.710 216.660 C 281.379 216.987,282.258 217.205,282.663 217.144 C 283.803 216.974,286.328 217.568,286.328 218.006 C 286.328 219.202,289.203 219.634,295.380 219.366 L 301.503 219.100 300.937 221.562 C 299.641 227.204,294.977 238.463,291.098 245.313 C 290.915 245.635,289.899 247.642,288.840 249.773 C 287.781 251.904,286.494 254.155,285.981 254.776 C 285.468 255.397,284.989 256.419,284.915 257.047 C 284.727 258.668,282.139 262.429,281.112 262.576 C 280.490 262.664,279.656 263.838,277.881 267.123 C 276.273 270.099,275.112 271.779,274.340 272.249 C 272.543 273.342,268.748 278.914,268.751 280.454 C 268.761 284.288,272.495 284.126,276.323 280.126 C 277.226 279.182,277.672 278.992,278.565 279.170 C 281.357 279.728,285.280 276.520,291.757 268.382 C 294.307 265.178,294.873 264.665,295.751 264.767 C 298.178 265.049,306.904 243.792,314.280 219.629 C 314.386 219.279,315.620 219.137,318.640 219.128 C 320.956 219.121,324.609 218.861,326.758 218.550 C 328.906 218.239,331.553 217.981,332.640 217.976 C 333.762 217.972,334.944 217.721,335.375 217.395 C 335.849 217.036,337.051 216.817,338.586 216.809 C 340.408 216.800,341.099 216.645,341.267 216.206 C 341.737 214.981,340.654 214.453,337.673 214.453 C 336.102 214.453,334.322 214.254,333.717 214.010 C 333.104 213.764,329.771 213.515,326.182 213.449 C 322.643 213.384,318.926 213.218,317.921 213.079 L 316.096 212.828 316.479 211.439 C 316.690 210.675,316.804 209.129,316.732 208.003 C 316.609 206.074,316.655 205.956,317.525 205.956 C 319.960 205.958,319.630 203.192,317.124 202.594 C 315.258 202.149,310.070 198.417,310.268 197.662 C 310.564 196.531,309.837 195.670,308.805 195.929 C 308.299 196.056,307.561 195.988,307.165 195.776 C 306.650 195.502,306.056 195.577,305.078 196.040 M329.724 196.825 C 327.943 197.324,327.788 198.294,329.289 199.548 C 330.395 200.471,330.620 200.909,330.547 201.996 C 330.475 203.061,330.786 203.704,332.130 205.274 C 333.050 206.348,334.307 207.974,334.923 208.887 C 336.027 210.522,336.821 210.938,337.315 210.140 C 337.453 209.917,337.878 209.833,338.259 209.954 C 339.362 210.304,340.087 209.827,340.807 208.278 C 341.176 207.485,342.351 206.166,343.419 205.346 C 346.664 202.856,345.501 201.586,337.636 199.035 C 335.885 198.467,333.782 197.660,332.964 197.243 C 331.383 196.437,331.196 196.413,329.724 196.825 M101.853 206.481 C 101.239 207.094,101.610 208.717,102.736 210.355 C 103.428 211.359,103.749 212.161,103.518 212.303 C 103.282 212.449,103.125 214.945,103.125 218.540 C 103.125 222.954,102.820 226.835,101.969 233.263 C 100.845 241.754,100.137 248.353,99.879 252.734 C 99.655 256.556,96.820 270.400,95.875 272.289 C 95.385 273.269,94.534 275.620,93.986 277.514 C 92.729 281.847,91.529 283.539,89.770 283.457 C 88.837 283.414,88.467 283.583,88.361 284.101 C 88.156 285.098,88.984 285.936,90.185 285.946 L 91.211 285.955 90.276 286.674 C 89.569 287.217,89.400 287.626,89.583 288.354 C 89.805 289.238,89.730 289.301,88.658 289.144 C 87.245 288.936,86.461 289.522,86.130 291.030 C 85.809 292.492,87.973 295.415,89.239 295.229 C 89.679 295.164,90.233 295.361,90.471 295.666 C 91.212 296.618,92.201 295.808,93.243 293.392 C 93.883 291.909,94.423 291.148,94.747 291.273 C 95.951 291.735,96.802 289.897,98.240 283.731 C 99.949 276.399,101.489 271.400,102.160 271.002 C 102.426 270.844,102.769 269.877,102.921 268.854 C 103.073 267.830,103.335 266.816,103.502 266.602 C 103.670 266.387,104.966 262.432,106.382 257.813 C 108.986 249.322,110.096 244.727,112.699 231.675 C 114.390 223.194,114.224 223.438,118.337 223.438 C 121.573 223.438,126.060 222.499,126.758 221.677 C 126.973 221.423,128.555 221.011,130.273 220.761 C 132.087 220.497,134.322 219.853,135.599 219.227 L 137.799 218.147 138.029 220.890 C 138.706 228.949,138.792 237.891,138.192 237.891 C 137.677 237.891,137.604 239.042,137.647 246.582 C 137.692 254.737,137.635 255.490,136.719 258.789 C 134.937 265.202,135.457 277.591,137.736 283.045 C 138.047 283.789,138.184 284.820,138.046 285.371 C 137.890 285.992,138.011 286.608,138.371 287.027 C 138.686 287.395,139.053 288.003,139.186 288.379 C 139.320 288.755,139.786 289.063,140.222 289.063 C 140.659 289.063,141.022 289.194,141.030 289.355 C 141.079 290.379,142.965 291.856,144.370 291.972 C 145.363 292.054,147.057 292.803,149.207 294.110 C 152.808 296.300,155.457 297.234,158.670 297.445 C 159.810 297.520,161.621 297.804,162.695 298.075 C 165.337 298.741,175.007 298.677,179.883 297.960 C 182.097 297.635,185.246 297.461,187.153 297.559 C 189.745 297.692,190.797 297.587,191.737 297.101 C 192.732 296.586,193.099 296.559,193.731 296.954 C 194.555 297.468,196.875 295.790,196.875 294.679 C 196.875 294.411,197.081 293.697,197.333 293.092 L 197.792 291.992 198.017 293.359 C 198.393 295.640,199.996 295.310,200.862 292.773 C 201.857 289.857,201.461 282.034,200.242 280.508 C 199.971 280.169,199.730 277.127,199.609 272.504 C 199.392 264.224,199.272 263.915,196.937 265.641 C 195.186 266.935,194.895 268.016,194.475 274.789 C 194.087 281.055,192.973 285.919,191.575 287.451 C 190.436 288.700,181.721 291.101,180.168 290.594 C 179.581 290.402,177.458 289.882,175.450 289.438 C 173.442 288.994,171.464 288.422,171.054 288.166 C 170.506 287.823,170.130 287.814,169.628 288.132 C 169.109 288.459,168.440 288.388,166.833 287.836 C 164.088 286.892,163.735 286.917,163.442 288.083 C 163.238 288.899,163.031 289.019,162.165 288.825 C 159.216 288.164,157.991 287.769,157.126 287.203 C 156.377 286.712,156.019 286.675,155.452 287.029 C 153.497 288.250,149.729 285.551,146.294 280.469 C 144.191 277.357,143.931 276.118,145.313 275.782 C 146.194 275.567,146.279 275.376,146.183 273.807 C 145.748 266.703,145.690 239.063,146.110 239.063 C 146.434 239.063,146.502 238.666,146.327 237.793 C 146.164 236.981,146.492 234.554,147.237 231.055 C 147.878 228.047,148.506 224.768,148.633 223.768 C 148.826 222.256,149.026 221.910,149.823 221.710 C 151.348 221.327,150.986 220.113,148.633 217.722 C 147.451 216.521,146.484 215.295,146.484 214.996 C 146.484 214.697,146.330 214.453,146.140 214.453 C 145.951 214.453,144.338 212.959,142.555 211.133 C 138.652 207.134,135.493 206.533,137.591 210.189 C 138.163 211.186,138.154 211.317,137.463 212.060 C 137.053 212.499,136.719 213.105,136.719 213.406 C 136.719 213.767,136.413 213.896,135.820 213.782 C 135.325 213.688,133.826 213.894,132.489 214.240 C 129.024 215.138,112.525 215.589,111.097 214.824 C 110.548 214.531,109.166 212.877,108.026 211.149 C 105.296 207.012,103.033 205.300,101.853 206.481 M142.956 219.866 C 142.899 221.019,141.797 221.526,141.797 220.399 C 141.797 219.463,141.938 219.219,142.383 219.390 C 142.705 219.514,142.963 219.728,142.956 219.866 M111.379 225.987 C 111.049 227.400,111.013 227.434,110.982 226.367 C 110.941 224.944,111.436 222.975,111.617 223.839 C 111.686 224.167,111.579 225.134,111.379 225.987 M313.374 241.113 C 311.734 243.149,312.318 244.792,317.024 251.382 C 319.085 254.268,320.820 257.083,320.881 257.638 C 320.942 258.193,321.520 259.206,322.164 259.890 C 322.809 260.574,323.952 262.113,324.705 263.310 C 325.458 264.508,327.377 266.881,328.970 268.584 C 330.562 270.287,332.782 272.846,333.902 274.272 C 335.023 275.698,336.541 277.151,337.276 277.499 C 338.012 277.848,340.507 280.197,342.822 282.719 C 348.954 289.399,349.891 289.860,351.723 287.092 C 352.298 286.223,353.213 285.126,353.755 284.654 C 354.298 284.182,355.271 282.803,355.918 281.590 C 356.982 279.593,357.210 279.389,358.320 279.438 C 359.805 279.504,360.885 275.717,359.640 274.807 C 359.234 274.511,359.156 274.187,359.397 273.806 C 360.519 272.033,359.162 270.525,357.733 271.955 C 355.167 274.521,351.228 272.690,343.750 265.453 C 338.701 260.567,333.851 257.064,330.970 256.224 C 329.788 255.879,329.028 255.319,328.280 254.239 C 327.494 253.104,326.971 252.734,326.152 252.734 C 325.001 252.734,323.385 251.083,318.605 245.020 C 317.378 243.462,316.137 242.188,315.849 242.188 C 315.561 242.188,315.234 241.836,315.121 241.406 C 314.892 240.528,313.970 240.374,313.374 241.113 M142.136 283.217 C 142.343 284.391,142.629 285.791,142.771 286.328 L 143.028 287.305 142.217 286.383 C 141.587 285.666,141.406 284.933,141.406 283.095 C 141.406 280.279,141.624 280.315,142.136 283.217 M390.514 286.230 C 390.425 286.821,390.351 286.338,390.351 285.156 C 390.351 283.975,390.425 283.491,390.514 284.082 C 390.604 284.673,390.604 285.640,390.514 286.230 M192.969 293.140 C 192.969 293.722,189.650 294.467,189.175 293.992 C 189.041 293.859,189.467 293.750,190.121 293.750 C 190.775 293.750,191.529 293.486,191.797 293.164 C 192.413 292.422,192.969 292.411,192.969 293.140 M385.755 339.818 C 384.348 342.595,384.313 342.337,385.489 337.847 L 386.523 333.897 386.641 335.868 C 386.730 337.373,386.520 338.308,385.755 339.818 M7.228 343.071 C 7.452 343.931,7.392 344.105,6.931 343.928 C 6.311 343.690,5.840 340.922,5.903 337.891 C 5.935 336.336,5.998 336.472,6.443 339.063 C 6.720 340.674,7.073 342.478,7.228 343.071 M385.728 346.582 C 385.178 349.870,381.702 358.699,381.658 356.921 C 381.648 356.539,381.392 356.130,381.088 356.013 C 380.293 355.708,380.966 353.802,383.594 348.919 C 386.031 344.389,386.110 344.303,385.728 346.582 M10.293 354.674 C 10.842 356.493,11.234 358.037,11.166 358.105 C 11.021 358.250,8.423 352.220,8.011 350.781 L 7.731 349.805 8.514 350.586 C 8.944 351.016,9.745 352.855,10.293 354.674 M18.750 359.755 C 21.006 361.760,23.027 363.573,23.242 363.785 C 23.457 363.996,22.227 363.233,20.508 362.090 C 17.251 359.922,12.891 355.888,12.891 355.041 C 12.891 354.734,13.219 354.842,13.770 355.331 C 14.253 355.759,16.494 357.750,18.750 359.755 M380.432 359.766 C 379.133 361.875,378.699 362.231,379.119 360.840 C 379.344 360.094,381.150 357.813,381.515 357.813 C 381.580 357.813,381.093 358.691,380.432 359.766 M18.848 363.873 C 20.083 364.683,21.094 365.489,21.094 365.666 C 21.094 366.594,26.455 371.492,30.886 374.614 C 36.389 378.489,36.654 378.737,34.473 377.958 C 24.748 374.483,14.844 366.084,14.844 361.312 C 14.844 360.977,15.146 361.076,15.723 361.601 C 16.206 362.041,17.612 363.064,18.848 363.873 M375.603 364.425 C 375.462 364.653,374.961 365.040,374.490 365.285 C 373.673 365.710,373.677 365.683,374.578 364.703 C 375.478 363.725,376.148 363.543,375.603 364.425 M371.680 370.105 C 371.035 370.633,370.303 371.072,370.052 371.080 C 369.801 371.087,368.425 371.715,366.993 372.475 C 365.561 373.234,364.506 373.669,364.647 373.440 C 364.868 373.082,372.114 369.213,372.656 369.163 C 372.764 369.153,372.324 369.577,371.680 370.105 M264.536 379.297 L 264.364 380.469 251.811 380.415 C 241.845 380.372,240.023 380.291,242.969 380.022 C 252.280 379.171,263.160 378.207,263.897 378.168 C 264.583 378.132,264.682 378.306,264.536 379.297 M281.507 378.516 C 285.771 378.516,287.500 378.646,287.500 378.966 C 287.500 379.514,268.738 379.085,266.948 378.496 C 266.169 378.240,267.319 378.185,270.667 378.320 C 273.332 378.428,278.210 378.516,281.507 378.516 M155.918 379.980 C 156.309 380.371,152.916 380.469,138.958 380.469 C 123.453 380.469,121.534 380.402,121.738 379.871 C 122.047 379.065,155.110 379.171,155.918 379.980 " stroke="none" fill="#040404" fill-rule="evenodd"></path><path id="path2" d="" stroke="none" fill="#1000808" fill-rule="evenodd"></path><path id="path3" d="" stroke="none" fill="#440808" fill-rule="evenodd"></path><path id="path4" d="" stroke="none" fill="#040c08" fill-rule="evenodd"></path></g></svg>