<svg id="svg" version="1.1" xmlns="http://www.w3.org/2000/svg" xmlns:xlink="http://www.w3.org/1999/xlink" width="400" height="400" viewBox="0, 0, 400,400"><g id="svgg"><path id="path0" d="M128.867 25.627 C 119.113 34.244,107.909 45.654,97.507 57.565 C 93.961 61.624,93.539 62.633,95.092 63.341 C 96.339 63.909,97.412 63.493,97.162 62.538 C 96.788 61.107,116.284 40.127,126.169 31.324 C 135.943 22.619,136.880 21.687,136.599 20.954 C 136.090 19.628,134.721 20.456,128.867 25.627 M287.456 24.334 C 280.966 29.783,262.053 49.429,256.662 56.323 C 255.414 57.920,255.381 60.352,256.608 60.352 C 257.311 60.352,257.650 60.053,257.936 59.180 C 258.880 56.295,281.022 32.799,289.377 25.816 C 294.176 21.804,294.968 20.656,293.116 20.390 C 292.546 20.308,290.810 21.518,287.456 24.334 M72.427 27.429 C 69.237 30.695,67.514 32.672,55.816 46.484 C 38.806 66.568,36.090 70.181,36.393 72.324 C 36.601 73.793,38.434 73.612,38.606 72.105 C 38.744 70.900,40.716 68.335,50.946 56.055 C 61.516 43.368,70.025 33.464,73.733 29.533 C 77.336 25.713,77.933 24.526,76.363 24.304 C 75.826 24.228,74.609 25.194,72.427 27.429 M348.001 36.165 C 341.407 43.454,328.955 60.508,327.599 64.106 C 327.195 65.179,327.244 65.380,328.071 66.050 C 329.722 67.388,331.710 66.535,330.457 65.025 C 329.569 63.955,341.914 46.412,349.003 38.672 C 353.531 33.728,354.426 32.541,354.157 31.840 C 353.631 30.468,352.326 31.385,348.001 36.165 M174.971 44.809 C 171.205 48.631,167.067 53.076,165.776 54.688 C 155.596 67.398,142.578 84.958,142.578 85.980 C 142.578 86.902,144.167 87.332,145.313 86.719 C 145.865 86.423,146.101 86.008,145.980 85.546 C 145.852 85.056,148.267 81.534,153.659 74.349 C 165.174 59.003,168.898 54.508,176.665 46.579 C 183.608 39.491,184.470 38.241,182.605 37.973 C 182.033 37.890,179.962 39.745,174.971 44.809 M371.014 77.420 C 359.038 92.238,357.757 94.038,357.891 95.865 C 358.045 97.963,359.864 98.313,360.094 96.289 C 360.256 94.864,362.063 92.397,371.794 80.320 C 379.161 71.176,379.961 69.851,378.259 69.607 C 377.589 69.511,376.158 71.054,371.014 77.420 M68.082 87.188 C 67.616 87.774,40.297 130.059,34.589 139.030 C 29.214 147.478,28.386 149.609,30.476 149.609 C 31.039 149.609,31.468 149.182,31.868 148.225 C 32.528 146.645,35.866 141.392,55.806 110.547 C 63.653 98.408,70.084 88.125,70.096 87.695 C 70.121 86.772,68.699 86.413,68.082 87.188 M284.511 103.386 C 283.478 104.174,280.345 106.755,277.547 109.123 C 259.387 124.488,258.366 125.551,260.717 126.622 C 261.914 127.168,262.891 126.814,262.891 125.836 C 262.891 124.845,276.574 112.678,286.919 104.471 C 289.962 102.056,287.629 101.006,284.511 103.386 M386.540 118.652 C 382.183 122.965,369.427 143.355,369.617 145.703 C 369.773 147.642,371.513 147.729,371.904 145.817 C 372.202 144.360,377.024 136.235,382.390 128.150 C 387.801 119.997,387.799 120.000,388.867 119.300 C 389.535 118.862,389.844 118.304,389.844 117.533 C 389.844 115.870,389.094 116.123,386.540 118.652 M131.119 138.379 C 116.650 152.774,109.257 162.115,111.114 163.656 C 112.016 164.405,112.949 163.973,113.426 162.586 C 114.304 160.037,122.144 150.902,132.177 140.739 C 142.176 130.610,143.192 129.297,141.035 129.297 C 140.530 129.297,136.970 132.558,131.119 138.379 M166.916 159.061 C 151.908 176.600,151.114 177.623,151.248 179.237 C 151.399 181.043,153.217 181.414,153.455 179.688 C 153.612 178.544,156.187 175.321,167.944 161.550 C 176.377 151.673,177.268 150.326,175.532 150.077 C 174.878 149.983,173.078 151.860,166.916 159.061 M56.584 153.027 C 52.081 157.783,23.250 196.588,22.267 199.216 C 20.845 203.016,22.751 203.919,24.386 200.221 C 24.903 199.053,27.307 195.405,29.730 192.115 C 35.094 184.830,53.226 160.988,56.227 157.274 C 59.713 152.959,59.854 152.746,59.621 152.140 C 59.241 151.149,58.027 151.503,56.584 153.027 M290.380 164.964 C 281.849 172.323,281.544 172.643,281.708 174.080 C 281.868 175.476,283.616 175.717,283.967 174.392 C 284.199 173.515,285.719 172.089,293.870 165.105 C 299.256 160.490,300.083 159.333,298.188 159.061 C 297.593 158.976,295.398 160.636,290.380 164.964 M386.444 166.522 C 384.183 167.777,376.105 176.708,367.506 187.460 C 363.860 192.018,363.639 192.397,363.750 193.905 C 363.906 196.039,365.737 196.366,365.938 194.296 C 366.105 192.587,378.501 177.370,385.448 170.345 C 388.623 167.135,389.178 165.006,386.444 166.522 M45.134 194.070 C 22.431 222.239,19.260 226.389,18.721 228.638 C 17.965 231.788,20.058 232.490,20.956 229.388 C 21.520 227.439,25.984 221.652,47.225 195.330 C 61.549 177.580,62.846 175.719,61.069 175.466 C 60.374 175.367,57.557 178.655,45.134 194.070 M70.471 180.566 C 69.234 182.339,64.568 188.654,60.102 194.601 C 47.680 211.142,28.221 239.252,27.369 241.887 C 26.515 244.527,28.489 245.240,29.555 242.676 C 30.780 239.730,50.413 211.565,62.308 195.690 C 72.681 181.846,74.790 178.769,74.474 177.944 C 73.940 176.554,72.709 177.361,70.471 180.566 M183.377 198.923 C 175.491 206.893,170.977 212.187,171.176 213.233 C 171.470 214.774,172.942 214.139,174.863 211.643 C 176.374 209.680,182.869 202.461,184.812 200.586 C 192.368 193.295,193.522 191.750,191.598 191.501 C 191.041 191.429,188.704 193.540,183.377 198.923 M74.573 206.543 C 71.083 209.927,68.540 212.213,68.922 211.624 C 69.767 210.322,69.467 209.272,68.299 209.445 C 67.682 209.536,64.509 213.793,56.589 225.154 C 50.614 233.724,41.863 245.752,37.143 251.882 C 29.930 261.249,28.485 263.343,28.086 265.009 C 27.825 266.100,27.011 267.896,26.278 269.002 C 24.623 271.496,24.567 273.633,26.156 273.633 C 26.915 273.633,27.168 273.381,27.362 272.432 C 27.590 271.318,32.260 264.288,43.304 248.438 C 52.255 235.590,68.756 215.548,77.081 207.411 C 81.381 203.209,82.876 201.510,82.694 201.036 C 82.143 199.601,80.782 200.525,74.573 206.543 M96.652 207.891 C 94.311 210.533,88.166 217.266,82.997 222.852 C 61.363 246.228,56.103 252.648,40.531 274.679 C 28.697 291.422,27.541 293.239,27.961 294.433 C 28.488 295.932,30.255 295.981,30.312 294.499 C 30.389 292.491,53.716 259.814,62.872 248.890 C 67.794 243.017,72.321 237.973,85.369 223.828 C 102.979 204.736,103.941 203.523,101.719 203.204 C 101.106 203.116,99.867 204.262,96.652 207.891 M297.009 219.071 C 286.928 228.692,284.713 231.050,285.017 231.840 C 285.389 232.811,287.600 232.445,288.086 231.332 C 288.301 230.839,292.573 226.557,297.579 221.814 C 306.594 213.275,307.555 212.074,305.599 211.794 C 304.967 211.703,302.854 213.493,297.009 219.071 M385.447 220.369 C 383.922 221.675,373.521 232.705,361.612 245.644 C 359.837 247.572,359.357 248.353,359.450 249.159 C 359.598 250.434,361.181 250.860,361.590 249.734 C 361.890 248.906,364.541 245.931,376.563 232.929 C 387.898 220.670,388.418 220.060,388.143 219.343 C 387.813 218.485,387.513 218.599,385.447 220.369 M191.098 226.446 C 187.153 229.756,180.266 237.925,163.523 259.152 C 158.234 265.857,157.399 267.103,157.500 268.136 C 157.643 269.604,159.483 269.948,159.684 268.546 C 159.987 266.428,188.212 231.989,192.835 228.096 C 196.162 225.294,196.774 224.150,195.077 223.907 C 194.538 223.829,193.195 224.686,191.098 226.446 M371.399 240.115 C 356.653 257.558,355.950 258.505,356.318 260.418 C 356.539 261.563,358.365 261.371,358.532 260.186 C 358.683 259.117,361.620 255.411,372.770 242.221 C 380.335 233.271,381.163 231.965,379.432 231.717 C 378.769 231.622,377.127 233.339,371.399 240.115 M77.304 244.415 C 63.032 260.018,58.440 265.894,35.035 298.499 C 28.120 308.132,27.476 309.384,29.436 309.369 C 30.384 309.361,36.515 302.225,36.536 301.105 C 36.557 299.932,62.028 265.326,67.825 258.594 C 69.768 256.338,74.382 251.171,78.079 247.111 C 84.675 239.869,85.491 238.610,83.755 238.361 C 83.146 238.273,81.567 239.754,77.304 244.415 M377.849 261.816 C 369.945 269.259,354.198 287.499,354.373 289.009 C 354.520 290.278,356.106 290.701,356.507 289.578 C 357.119 287.865,371.837 271.082,378.262 264.772 C 381.783 261.315,383.236 259.633,383.072 259.206 C 382.594 257.959,381.211 258.650,377.849 261.816 M381.022 280.601 C 374.125 286.700,370.101 291.933,361.735 305.681 C 357.943 311.912,357.687 312.672,359.155 313.341 C 360.495 313.952,361.467 313.498,361.190 312.392 C 361.024 311.732,361.928 309.954,364.761 305.363 C 372.718 292.470,376.075 288.265,384.700 280.384 C 387.523 277.804,388.132 276.537,386.681 276.258 C 386.342 276.192,383.811 278.135,381.022 280.601 M130.054 291.276 C 111.687 307.922,109.704 309.963,77.778 345.086 C 62.664 361.712,62.287 362.162,62.651 363.110 C 63.133 364.367,64.504 363.357,68.783 358.594 C 101.601 322.058,115.451 307.638,132.540 292.217 C 142.523 283.208,143.555 282.005,141.552 281.718 C 140.945 281.631,137.938 284.131,130.054 291.276 M149.318 288.165 C 137.332 300.308,120.762 320.381,101.047 346.636 C 95.893 353.500,95.462 354.416,97.045 355.138 C 98.347 355.731,99.366 355.292,99.094 354.254 C 98.858 353.350,102.343 348.603,117.132 329.688 C 132.887 309.536,139.758 301.455,150.763 290.136 C 157.450 283.259,158.276 282.031,156.214 282.031 C 155.644 282.031,153.413 284.016,149.318 288.165 M163.631 296.777 C 147.578 312.932,144.543 316.265,130.200 333.492 C 124.611 340.203,117.684 348.266,114.805 351.410 C 109.631 357.059,108.875 358.254,110.301 358.528 C 111.679 358.794,118.197 351.716,133.405 333.437 C 146.167 318.099,151.537 312.199,166.938 296.603 C 179.504 283.877,180.702 282.422,178.609 282.422 C 178.191 282.422,171.998 288.357,163.631 296.777 M233.721 285.407 C 225.371 291.710,216.571 300.177,200.287 317.578 C 190.729 327.791,175.391 343.072,175.391 342.381 C 175.391 342.240,176.749 340.513,178.410 338.543 C 204.254 307.879,218.905 293.374,230.460 287.013 C 231.259 286.573,231.652 286.088,231.569 285.646 C 230.584 280.453,207.674 300.493,187.248 324.414 C 182.111 330.430,173.596 340.537,168.325 346.875 C 163.054 353.213,157.541 359.482,156.074 360.806 C 152.207 364.296,153.293 366.181,157.275 362.891 C 158.314 362.031,159.473 361.328,159.848 361.328 C 160.241 361.328,160.855 360.706,161.294 359.863 C 161.722 359.042,165.279 355.395,169.390 351.563 C 181.666 340.117,194.496 327.336,205.659 315.430 C 219.662 300.494,225.786 294.680,236.132 286.502 C 239.180 284.093,236.859 283.039,233.721 285.407 M241.157 292.797 C 220.563 310.543,201.376 329.026,188.870 343.164 C 187.160 345.098,183.151 349.357,179.962 352.630 C 174.021 358.726,173.135 360.181,175.195 360.456 C 176.280 360.601,178.516 359.145,178.516 358.293 C 178.516 357.907,179.500 356.630,180.704 355.455 C 181.908 354.281,186.719 349.102,191.396 343.945 C 205.528 328.363,223.144 311.464,243.673 293.793 C 249.243 289.000,250.079 287.848,248.184 287.576 C 247.589 287.491,245.600 288.968,241.157 292.797 M72.070 291.351 C 68.346 294.418,53.849 310.433,40.249 326.503 C 35.677 331.906,35.510 332.166,35.624 333.730 C 35.779 335.863,37.610 336.226,37.812 334.163 C 37.985 332.396,58.148 308.926,70.627 295.966 C 75.409 291.000,76.388 289.552,75.195 289.211 C 74.980 289.150,73.574 290.113,72.070 291.351 M193.478 296.210 C 190.298 299.093,180.576 308.379,171.875 316.845 C 163.174 325.311,152.234 335.898,147.564 340.372 C 138.127 349.413,137.018 350.605,137.193 351.512 C 137.490 353.056,138.804 352.179,144.589 346.577 C 147.887 343.383,153.694 337.793,157.492 334.154 C 161.290 330.516,169.992 322.090,176.828 315.429 C 183.664 308.769,191.945 300.871,195.230 297.877 C 201.140 292.491,201.959 291.353,200.115 291.089 C 199.481 290.998,197.772 292.317,193.478 296.210 M183.507 300.919 C 175.086 308.453,174.899 308.651,175.066 309.831 C 175.235 311.021,176.831 311.321,177.249 310.240 C 177.408 309.826,180.084 307.221,183.195 304.451 C 192.155 296.471,192.734 295.891,192.459 295.174 C 191.916 293.759,190.477 294.682,183.507 300.919 M171.415 301.855 C 167.615 305.400,150.781 327.148,150.781 328.513 C 150.781 328.915,151.126 329.354,151.548 329.488 C 152.526 329.798,153.906 329.070,153.906 328.243 C 153.906 327.043,167.438 309.560,172.206 304.600 C 174.373 302.346,175.405 300.991,175.253 300.596 C 174.838 299.513,173.432 299.974,171.415 301.855 M232.975 317.660 C 224.379 326.101,213.065 337.139,207.834 342.188 C 196.474 353.150,188.578 361.528,188.752 362.433 C 189.092 364.196,190.471 363.068,201.451 352.049 C 207.635 345.842,221.185 332.448,231.562 322.283 C 243.560 310.530,250.384 303.572,250.308 303.171 C 249.933 301.203,248.591 302.325,232.975 317.660 M249.949 307.860 C 239.433 316.206,228.361 326.509,213.055 342.190 C 196.291 359.365,196.420 359.220,196.558 360.652 C 196.708 362.211,198.540 362.563,198.752 361.074 C 198.903 360.015,224.618 333.523,233.255 325.528 C 240.520 318.803,244.686 315.187,251.290 309.874 C 255.900 306.166,256.686 305.030,254.828 304.764 C 254.270 304.684,252.674 305.697,249.949 307.860 M72.594 332.715 C 58.498 346.870,56.712 348.801,56.469 350.149 C 56.004 352.729,58.035 353.312,58.755 350.804 C 59.044 349.797,62.993 345.575,74.731 333.724 C 90.018 318.292,91.292 316.797,89.157 316.797 C 88.741 316.797,81.883 323.388,72.594 332.715 M59.681 325.271 C 57.015 329.096,52.717 335.303,50.132 339.063 C 41.062 352.254,40.971 352.420,42.563 352.925 C 43.585 353.249,44.922 352.494,44.922 351.592 C 44.922 350.963,51.001 341.912,63.038 324.620 C 66.480 319.674,66.866 318.650,65.367 318.435 C 64.678 318.336,63.675 319.541,59.681 325.271 M369.336 322.786 C 368.691 323.278,366.136 325.183,363.658 327.018 C 361.179 328.854,357.224 332.026,354.868 334.067 C 348.616 339.485,316.701 371.842,316.955 372.505 C 317.643 374.299,318.959 373.168,334.051 357.809 C 352.789 338.739,359.065 333.037,369.141 325.927 C 371.358 324.362,372.461 323.332,372.461 322.827 C 372.461 321.723,370.757 321.701,369.336 322.786 M299.766 322.811 C 299.640 323.140,298.103 324.324,296.350 325.442 C 287.667 330.983,276.721 340.234,261.922 354.539 C 244.033 371.830,239.340 377.007,240.807 377.828 C 241.363 378.140,242.578 377.840,242.578 377.392 C 242.578 376.417,255.923 363.535,256.284 364.160 C 256.938 365.291,257.979 364.954,260.995 362.635 C 268.968 356.504,291.481 336.419,291.321 335.580 C 290.973 333.751,289.496 334.718,280.784 342.481 C 261.469 359.691,254.638 365.084,264.844 355.067 C 275.039 345.059,283.903 337.415,295.313 328.790 C 301.502 324.110,302.384 323.363,302.238 322.919 C 302.003 322.201,300.033 322.116,299.766 322.811 M259.941 324.232 C 256.929 325.906,252.135 330.085,238.867 342.600 C 223.342 357.246,219.114 361.957,219.676 363.987 C 219.843 364.594,217.948 366.455,214.486 369.083 C 213.353 369.944,213.607 371.096,214.929 371.090 C 216.180 371.085,217.360 370.081,233.959 354.906 C 242.079 347.482,249.634 340.683,250.748 339.796 C 252.843 338.129,253.207 337.011,251.726 336.798 C 250.555 336.630,247.992 338.757,235.205 350.508 C 228.948 356.258,223.828 360.825,223.828 360.656 C 223.828 360.257,243.696 341.202,251.687 333.938 C 257.217 328.910,259.497 327.190,263.660 324.904 C 264.462 324.463,264.856 323.979,264.772 323.537 C 264.551 322.374,262.840 322.620,259.941 324.232 M372.057 329.024 C 360.354 338.306,333.667 363.063,334.113 364.225 C 334.572 365.420,335.774 364.782,339.258 361.495 C 348.276 352.983,370.316 333.397,374.634 330.057 C 375.537 329.359,375.847 328.861,375.669 328.397 C 375.280 327.383,373.803 327.640,372.057 329.024 M322.640 336.455 C 320.823 337.833,311.865 344.878,302.734 352.112 C 293.604 359.346,285.200 365.889,284.060 366.652 C 281.800 368.165,281.492 369.250,283.264 369.456 C 284.484 369.597,285.327 368.974,305.078 353.326 C 312.705 347.283,320.933 340.795,323.362 338.907 C 326.316 336.610,327.737 335.260,327.654 334.827 C 327.398 333.480,325.942 333.953,322.640 336.455 M318.720 346.114 C 316.481 347.863,308.276 353.856,300.488 359.431 C 292.699 365.006,285.884 370.042,285.343 370.623 C 283.531 372.570,285.090 373.974,287.050 372.162 C 287.620 371.635,294.150 366.878,301.563 361.590 C 318.690 349.371,324.414 344.948,324.414 343.935 C 324.414 342.286,322.855 342.883,318.720 346.114 " stroke="none" fill="#fb6c0c" fill-rule="evenodd"></path><path id="path1" d="M96.225 86.844 C 95.116 87.742,93.378 88.989,92.363 89.616 C 88.007 92.307,83.190 97.420,84.127 98.357 C 84.869 99.099,84.095 100.303,80.501 104.002 C 78.171 106.400,77.853 107.160,79.105 107.339 C 79.603 107.410,80.454 106.875,81.431 105.874 C 83.245 104.016,85.014 103.679,84.947 105.204 C 84.898 106.328,83.987 107.662,81.348 110.472 C 80.220 111.673,79.297 112.857,79.297 113.103 C 79.297 113.349,78.945 113.869,78.516 114.258 C 78.086 114.647,77.734 115.207,77.734 115.502 C 77.734 116.426,78.827 116.511,79.741 115.659 C 80.222 115.211,80.816 114.844,81.060 114.844 C 81.305 114.844,81.931 114.387,82.451 113.829 C 82.972 113.271,83.866 112.479,84.438 112.069 L 85.478 111.324 84.708 112.917 C 83.637 115.134,83.855 115.814,85.647 115.848 C 86.446 115.864,87.219 115.995,87.365 116.141 C 87.511 116.287,88.104 116.406,88.683 116.406 C 89.572 116.406,89.709 116.546,89.563 117.309 C 89.013 120.185,90.619 119.571,97.461 114.287 L 101.367 111.270 97.949 114.523 C 94.907 117.419,94.531 117.929,94.531 119.162 C 94.531 122.778,96.508 122.324,102.138 117.415 L 104.862 115.039 103.566 116.853 C 102.083 118.930,102.096 119.894,103.619 120.624 C 105.048 121.309,111.183 115.105,110.222 113.946 C 109.785 113.419,111.263 110.797,113.574 107.999 C 115.064 106.196,115.247 104.540,114.028 103.888 C 113.294 103.495,112.683 103.969,107.876 108.661 C 104.941 111.526,101.757 114.572,100.802 115.431 C 99.846 116.290,102.172 113.869,105.970 110.053 C 113.300 102.688,114.366 101.296,113.670 99.996 C 112.760 98.295,111.564 98.835,104.688 104.048 C 104.365 104.292,104.780 103.724,105.609 102.784 C 107.083 101.113,107.382 99.172,106.408 97.596 C 105.603 96.293,102.477 98.366,95.313 104.953 C 92.218 107.799,93.166 106.747,98.361 101.572 C 106.012 93.952,106.748 92.900,104.604 92.651 C 103.599 92.535,102.389 93.182,100.000 95.110 L 99.023 95.898 99.822 94.922 C 100.262 94.385,100.863 93.462,101.158 92.871 C 101.453 92.280,101.841 91.797,102.019 91.797 C 102.562 91.797,102.382 90.719,101.730 90.067 C 101.333 89.670,100.745 89.531,100.069 89.673 C 99.076 89.882,99.099 89.824,100.543 88.510 C 102.137 87.060,102.015 85.626,100.335 86.065 C 99.952 86.166,99.434 86.002,99.185 85.702 C 98.573 84.964,98.527 84.982,96.225 86.844 M107.813 104.800 C 107.813 104.862,106.890 105.784,105.762 106.851 L 103.711 108.789 105.649 106.738 C 107.451 104.833,107.813 104.508,107.813 104.800 " stroke="none" fill="#fbd30c" fill-rule="evenodd"></path><path id="path2" d="M39.530 4.333 C 37.531 4.753,34.982 5.444,33.866 5.869 C 31.357 6.822,31.127 6.827,31.699 5.911 C 33.387 3.209,30.637 3.457,28.446 6.205 C 26.704 8.389,26.516 8.510,24.438 8.769 C 21.369 9.153,18.665 11.677,20.264 12.665 C 20.452 12.782,18.987 14.506,17.007 16.497 C 8.590 24.961,4.257 34.693,3.698 46.389 C 3.587 48.697,3.294 52.054,3.047 53.848 C 2.703 56.339,2.705 57.285,3.056 57.847 C 3.406 58.408,3.516 92.112,3.518 199.506 C 3.520 320.378,3.601 340.962,4.085 344.173 C 6.984 363.408,21.197 378.216,40.430 382.041 C 41.719 382.297,43.828 382.961,45.117 383.516 C 47.884 384.709,56.818 384.943,57.623 383.845 C 57.945 383.406,58.760 383.367,61.920 383.638 C 77.331 384.957,153.203 384.744,157.251 383.370 C 158.724 382.870,270.130 382.782,308.984 383.251 C 311.455 383.280,319.541 383.204,326.953 383.080 C 342.709 382.818,342.081 383.050,321.375 385.145 C 308.174 386.481,308.203 386.475,308.203 387.554 C 308.203 388.784,308.906 388.794,319.620 387.713 C 334.836 386.179,339.069 385.647,345.216 384.493 L 350.783 383.449 351.566 384.289 C 352.345 385.125,353.477 385.095,353.557 384.236 C 353.580 383.990,353.624 383.456,353.655 383.050 C 353.728 382.081,360.292 379.440,363.895 378.930 C 366.684 378.535,367.703 377.973,367.403 376.996 C 367.196 376.323,370.562 373.828,371.675 373.828 C 372.000 373.828,372.266 373.592,372.266 373.303 C 372.266 373.014,372.605 372.470,373.020 372.095 C 373.726 371.456,373.713 371.633,372.816 374.866 C 370.790 382.165,370.580 383.100,370.821 383.728 C 370.957 384.084,371.419 384.375,371.846 384.375 C 372.695 384.375,372.845 383.954,375.595 373.828 C 376.566 370.255,377.362 368.133,378.064 367.246 C 386.899 356.099,393.147 346.548,392.397 345.335 C 391.715 344.231,390.654 345.025,389.039 347.849 C 387.086 351.260,386.984 351.307,387.737 348.437 C 388.047 347.256,388.502 344.531,388.748 342.383 C 389.134 339.010,389.445 337.970,391.024 334.766 C 393.150 330.452,393.582 328.796,392.762 328.115 C 391.892 327.393,391.098 327.936,390.637 329.570 C 390.407 330.386,389.964 331.494,389.654 332.031 C 388.710 333.667,388.839 325.192,389.811 321.796 C 390.967 317.753,391.251 314.233,390.458 313.789 C 389.877 313.464,389.855 312.666,390.219 305.055 C 390.440 300.449,390.648 294.658,390.681 292.188 C 390.751 287.023,390.709 286.765,392.029 300.391 C 393.050 310.925,393.313 312.012,394.708 311.477 C 395.325 311.240,395.383 310.884,395.174 308.630 C 395.042 307.214,394.485 301.421,393.936 295.757 C 392.991 286.002,392.974 285.434,393.618 284.963 C 394.262 284.492,394.263 284.234,393.637 280.026 C 393.274 277.584,392.722 272.686,392.410 269.141 C 391.455 258.288,391.439 257.883,391.974 257.678 C 392.352 257.533,392.525 252.935,392.735 237.437 C 393.461 183.854,393.718 173.339,394.318 172.676 C 394.824 172.116,394.781 170.117,393.953 155.845 C 392.259 126.636,392.133 122.470,392.422 105.469 C 392.631 93.198,392.818 89.163,393.189 88.867 C 394.094 88.147,395.018 79.649,394.735 74.655 C 394.455 69.729,393.109 51.447,392.710 47.159 C 392.494 44.837,392.556 44.438,393.204 43.959 C 393.928 43.425,393.923 43.353,393.008 40.944 C 392.377 39.281,391.887 36.693,391.505 33.008 C 390.923 27.383,390.338 25.621,389.135 25.870 C 388.609 25.978,388.494 26.395,388.566 27.944 L 388.655 29.883 387.730 28.003 C 387.221 26.968,386.889 25.800,386.992 25.406 C 387.360 23.999,383.862 19.770,379.963 16.908 C 378.815 16.065,378.160 15.316,378.285 14.989 C 378.730 13.831,378.062 13.351,375.655 13.101 C 372.769 12.802,371.023 12.129,367.383 9.913 C 363.827 7.748,359.733 6.025,355.098 4.743 L 351.367 3.711 197.266 3.640 C 45.640 3.569,43.106 3.580,39.530 4.333 M90.820 6.274 C 61.674 6.522,43.621 6.998,38.086 7.665 C 35.111 8.024,36.220 7.460,40.097 6.643 C 43.350 5.958,45.915 5.917,83.398 5.956 L 123.242 5.998 90.820 6.274 M339.844 6.420 C 339.844 7.872,351.656 12.558,357.623 13.474 C 364.013 14.456,364.856 14.991,372.994 23.238 C 388.090 38.536,386.488 31.822,386.632 80.399 L 386.745 118.414 387.904 117.174 L 389.063 115.933 389.131 97.517 L 389.200 79.102 389.477 93.164 C 389.872 113.224,389.878 118.314,389.515 127.344 L 389.193 135.352 389.128 127.441 C 389.092 123.091,388.966 119.531,388.848 119.531 C 388.731 119.531,388.209 120.015,387.689 120.605 L 386.743 121.680 386.731 143.848 C 386.719 165.873,386.724 166.016,387.512 166.016 C 388.776 166.016,388.888 167.115,387.746 168.306 L 386.719 169.379 386.719 176.223 L 386.719 183.068 385.547 182.896 C 384.124 182.687,384.126 182.660,384.934 190.486 C 385.241 193.463,385.684 198.623,385.918 201.953 C 386.152 205.283,386.424 208.887,386.523 209.961 C 386.702 211.914,386.702 211.914,386.222 210.547 C 385.044 207.191,383.366 208.886,384.226 212.561 C 384.546 213.924,384.841 216.301,384.884 217.843 L 384.961 220.647 385.959 219.699 C 388.386 217.391,389.506 219.237,387.141 221.647 L 385.505 223.315 386.112 229.969 C 386.565 234.937,386.719 241.626,386.719 256.356 C 386.719 273.535,386.795 276.117,387.305 276.313 C 388.052 276.600,388.058 277.500,387.316 278.115 C 386.825 278.523,386.726 281.986,386.630 302.089 L 386.519 325.586 382.876 338.672 C 379.159 352.024,378.265 354.339,374.876 359.375 C 371.356 364.606,364.993 370.290,359.806 372.836 C 355.678 374.863,354.312 376.563,356.813 376.563 C 359.143 376.563,357.887 377.253,355.164 377.469 C 353.505 377.601,347.314 378.170,341.406 378.734 C 328.304 379.985,296.732 380.267,292.578 379.169 L 290.430 378.602 292.578 378.561 C 293.760 378.538,304.482 378.252,316.406 377.925 C 328.330 377.598,340.459 377.290,343.359 377.240 L 348.633 377.148 348.633 376.172 L 348.633 375.195 343.359 375.079 C 340.459 375.015,328.330 375.236,316.406 375.570 C 290.637 376.290,276.331 376.355,275.959 375.753 C 275.782 375.466,273.773 375.412,269.588 375.582 C 266.227 375.719,259.258 375.660,254.102 375.450 C 244.876 375.076,244.713 375.083,243.848 375.884 C 242.792 376.862,242.731 377.330,243.652 377.384 C 244.028 377.406,243.721 377.568,242.969 377.745 C 242.217 377.922,239.141 377.956,236.133 377.821 C 233.125 377.686,226.885 377.653,222.266 377.748 C 217.646 377.843,203.936 377.923,191.797 377.925 C 170.594 377.930,165.692 377.761,149.414 376.467 C 143.112 375.965,95.374 375.978,82.031 376.484 C 75.684 376.724,74.021 376.650,68.359 375.871 C 58.915 374.571,54.492 374.519,54.492 375.708 C 54.492 376.995,56.358 378.099,57.417 377.438 C 58.032 377.053,59.114 377.075,62.785 377.544 C 71.459 378.652,73.243 378.981,73.930 379.593 C 74.474 380.078,74.799 380.115,75.492 379.770 C 76.146 379.444,77.356 379.466,80.273 379.856 C 83.938 380.346,83.101 380.381,66.751 380.424 L 49.322 380.469 44.876 377.790 C 36.411 372.690,33.594 370.736,33.594 369.964 C 33.594 369.561,33.117 368.918,32.533 368.536 C 31.950 368.153,27.355 364.134,22.322 359.604 C 17.289 355.074,12.761 351.016,12.260 350.586 C 10.569 349.136,8.393 338.779,7.996 330.295 C 7.875 327.705,7.701 325.103,7.609 324.512 C 7.474 323.646,7.591 323.437,8.213 323.437 C 9.157 323.438,9.159 323.359,8.536 311.328 C 8.175 304.351,8.184 301.579,8.581 297.881 C 9.055 293.462,9.043 293.196,8.349 292.687 C 7.496 292.060,7.321 264.842,8.161 263.398 C 8.483 262.844,8.573 263.136,8.582 264.777 C 8.596 267.226,10.477 289.033,10.736 289.746 C 10.974 290.403,12.473 290.369,12.729 289.702 C 12.841 289.409,12.466 284.179,11.895 278.081 C 10.806 266.460,10.401 246.945,9.978 185.742 C 9.906 175.215,9.672 164.316,9.460 161.523 C 9.247 158.730,9.208 156.196,9.374 155.892 C 9.539 155.588,9.519 154.798,9.329 154.137 C 8.891 152.609,8.873 98.331,9.310 97.832 C 9.489 97.628,9.403 89.551,9.118 79.883 C 8.833 70.215,8.637 58.965,8.683 54.883 L 8.766 47.461 7.757 47.472 L 6.748 47.483 7.831 43.371 C 9.095 38.570,10.366 35.051,11.433 33.401 C 11.851 32.755,12.096 32.523,11.977 32.886 C 8.844 42.480,8.270 45.736,9.620 46.254 C 10.597 46.629,11.328 45.755,11.328 44.214 C 11.328 42.399,13.283 36.343,14.152 35.464 C 14.524 35.089,15.604 33.240,16.553 31.356 C 20.787 22.948,22.990 20.749,27.853 20.075 C 30.172 19.754,30.522 17.954,28.337 17.579 C 27.295 17.400,27.562 17.203,31.072 15.561 C 37.063 12.757,39.727 11.758,40.133 12.164 C 40.591 12.622,41.797 12.180,41.797 11.554 C 41.797 9.817,60.017 8.336,77.734 8.633 L 79.883 8.669 77.930 9.121 C 76.370 9.482,75.951 9.750,75.852 10.452 C 75.668 11.744,76.568 11.894,80.189 11.178 C 83.263 10.571,90.728 10.049,114.648 8.771 C 130.495 7.925,151.109 7.671,165.234 8.149 C 177.247 8.555,177.554 8.546,178.188 7.798 C 178.798 7.077,190.788 6.543,191.453 7.208 C 191.550 7.305,203.469 7.488,217.940 7.614 C 232.597 7.742,244.546 8.002,244.918 8.201 C 245.316 8.414,246.989 8.421,249.062 8.217 C 250.975 8.030,259.746 7.768,268.555 7.637 C 277.363 7.506,288.789 7.111,293.945 6.760 C 303.139 6.134,317.501 6.334,332.931 7.302 C 336.621 7.533,336.768 7.511,336.980 6.701 C 337.245 5.689,339.844 5.435,339.844 6.420 M351.768 6.649 C 352.105 6.928,352.248 7.473,352.120 7.984 C 351.893 8.886,352.803 10.011,353.441 9.616 C 353.634 9.497,354.125 9.652,354.532 9.961 C 356.623 11.544,351.405 9.857,346.094 7.233 L 343.164 5.786 347.182 5.982 C 349.456 6.093,351.447 6.382,351.768 6.649 M361.376 10.329 C 362.531 10.854,363.187 11.293,362.833 11.306 C 362.479 11.318,361.424 10.891,360.489 10.356 C 358.324 9.119,358.686 9.108,361.376 10.329 M33.398 11.670 C 31.465 12.491,28.421 13.899,26.635 14.801 L 23.387 16.440 25.396 13.934 C 28.137 10.513,28.224 10.480,35.156 10.240 C 36.894 10.180,36.874 10.196,33.398 11.670 M17.716 19.824 C 16.903 20.845,16.188 21.753,16.127 21.842 C 16.066 21.932,15.895 21.884,15.747 21.737 C 15.522 21.511,18.630 17.969,19.053 17.969 C 19.130 17.969,18.528 18.804,17.716 19.824 M380.742 20.829 C 380.897 21.082,380.287 20.705,379.385 19.991 C 378.483 19.277,377.618 18.486,377.462 18.233 C 377.306 17.980,377.916 18.358,378.818 19.071 C 379.720 19.785,380.586 20.576,380.742 20.829 M380.819 27.029 L 381.729 28.711 380.163 26.953 C 379.302 25.986,378.683 25.055,378.787 24.883 C 379.079 24.401,379.821 25.184,380.819 27.029 M387.430 33.498 C 389.278 37.969,390.339 41.797,389.730 41.797 C 389.611 41.797,389.302 41.138,389.044 40.332 C 388.230 37.795,385.196 30.134,384.165 28.012 L 383.175 25.977 384.263 27.224 C 384.862 27.911,386.287 30.734,387.430 33.498 M390.234 45.060 C 390.234 45.780,390.349 47.469,390.490 48.812 C 390.743 51.238,390.740 51.250,389.904 50.728 C 388.644 49.941,388.649 43.750,389.909 43.750 C 390.088 43.750,390.234 44.339,390.234 45.060 M186.337 50.772 C 185.243 51.867,185.721 52.728,187.444 52.765 C 188.227 52.781,189.746 53.124,190.820 53.526 L 192.773 54.257 191.115 54.032 C 188.499 53.677,187.306 55.202,189.218 56.455 C 190.650 57.394,201.465 59.651,207.813 60.337 C 210.928 60.674,214.619 61.230,216.016 61.574 L 218.555 62.198 216.725 65.962 C 214.627 70.279,212.468 76.414,212.769 77.201 C 213.564 79.271,216.605 76.362,218.133 72.070 C 220.203 66.257,221.549 63.281,222.107 63.281 C 222.409 63.281,222.656 62.918,222.656 62.474 C 222.656 61.126,221.913 60.156,220.880 60.156 C 220.347 60.156,218.643 59.805,217.093 59.375 C 215.542 58.945,213.705 58.594,213.010 58.594 C 212.181 58.594,211.613 58.346,211.360 57.872 C 211.091 57.370,209.403 56.703,205.823 55.683 C 202.990 54.877,197.774 53.268,194.231 52.108 C 186.820 49.682,187.339 49.770,186.337 50.772 M197.852 55.888 C 198.926 56.271,199.619 56.596,199.392 56.612 C 198.828 56.651,194.141 55.052,194.141 54.821 C 194.141 54.617,194.886 54.832,197.852 55.888 M7.102 169.922 C 7.671 174.219,7.635 188.883,6.989 216.211 C 6.095 254.022,5.978 246.576,5.985 152.539 C 5.992 58.171,6.000 57.095,6.302 110.938 C 6.529 151.521,6.742 167.197,7.102 169.922 M391.512 61.914 C 391.653 64.842,391.620 65.527,391.406 64.063 C 391.081 61.831,390.907 57.170,391.160 57.454 C 391.240 57.544,391.398 59.551,391.512 61.914 M185.273 59.082 C 183.817 60.681,180.935 66.135,178.408 72.074 C 177.037 75.294,174.422 80.479,172.596 83.594 C 164.408 97.563,159.945 106.602,158.595 111.950 C 157.757 115.270,154.753 122.087,153.259 124.060 C 151.959 125.778,152.090 127.060,153.753 128.901 C 157.960 133.559,172.729 136.697,173.900 133.183 C 173.985 132.927,175.197 133.312,176.951 134.152 C 179.798 135.517,181.641 135.918,181.641 135.175 C 181.641 134.970,182.233 134.521,182.958 134.177 C 186.401 132.543,204.791 114.480,204.608 112.911 C 204.415 111.247,203.095 111.450,200.534 113.536 C 199.278 114.559,197.260 116.019,196.050 116.780 C 193.403 118.445,181.738 127.323,180.732 128.438 C 180.340 128.873,179.968 129.865,179.907 130.642 C 179.741 132.731,179.787 132.736,173.547 129.954 C 167.445 127.234,162.578 125.652,158.895 125.192 L 156.666 124.913 157.234 123.813 C 158.163 122.016,161.328 114.492,161.328 114.079 C 161.328 113.078,162.680 111.048,163.627 110.629 C 164.311 110.326,165.276 109.124,166.354 107.229 C 167.690 104.880,168.205 104.297,168.943 104.297 C 169.685 104.297,170.064 103.860,170.891 102.051 C 171.455 100.815,172.413 99.277,173.018 98.633 C 176.076 95.377,178.439 90.716,177.366 90.053 C 177.164 89.928,178.983 85.801,181.409 80.883 C 185.812 71.954,189.530 63.623,189.990 61.653 C 190.489 59.516,186.740 57.472,185.273 59.082 M269.141 69.720 C 264.188 71.215,263.805 71.255,263.556 70.301 C 263.258 69.161,260.462 69.513,253.906 71.514 C 251.221 72.334,245.667 73.887,241.565 74.964 C 237.463 76.042,232.883 77.378,231.388 77.932 C 229.892 78.487,226.318 79.426,223.445 80.019 C 218.111 81.122,216.797 81.797,217.878 82.878 C 218.335 83.335,221.619 83.003,225.000 82.158 L 225.977 81.913 224.906 82.927 C 222.761 84.957,224.598 85.876,227.470 84.209 C 230.330 82.549,255.964 75.316,259.375 75.206 C 260.557 75.168,262.578 74.850,263.867 74.499 C 267.950 73.387,301.400 71.371,301.917 72.206 C 302.077 72.466,302.722 72.650,303.350 72.614 C 306.090 72.457,331.979 84.335,334.239 86.786 C 337.637 90.470,342.611 99.415,345.497 107.031 C 346.515 109.717,347.487 112.002,347.659 112.109 C 348.157 112.422,351.882 122.444,352.719 125.722 C 354.238 131.669,356.296 148.328,356.197 153.866 C 356.168 155.499,356.071 156.396,355.981 155.859 C 354.923 149.499,352.613 141.797,351.763 141.797 C 351.459 141.797,351.039 142.104,350.828 142.480 C 350.484 143.095,350.408 143.065,350.078 142.188 C 347.480 135.283,345.362 129.277,345.253 128.503 C 345.068 127.188,343.693 127.200,343.228 128.521 C 342.950 129.312,343.642 131.589,346.787 140.239 C 353.240 157.987,354.013 160.854,353.948 166.797 C 353.877 173.293,352.827 184.624,352.181 185.875 C 351.841 186.533,351.563 187.791,351.563 188.672 C 351.563 192.008,347.256 207.126,343.219 217.964 C 341.013 223.886,340.922 224.609,342.378 224.609 C 343.561 224.609,348.820 210.687,351.191 201.276 C 352.013 198.019,352.011 198.816,351.176 211.563 C 350.077 228.342,349.581 242.870,350.071 243.946 C 350.345 244.545,350.278 246.397,349.853 250.040 C 349.517 252.919,349.054 257.734,348.823 260.742 C 348.593 263.750,348.131 267.881,347.796 269.922 C 347.133 273.968,347.153 273.810,347.219 274.512 C 347.291 275.270,349.135 275.103,349.376 274.316 C 349.949 272.446,350.767 266.305,351.235 260.352 C 351.544 256.433,351.810 254.512,351.886 255.664 C 352.068 258.446,351.279 266.829,350.409 271.348 C 348.537 281.082,348.184 282.173,345.140 287.667 C 343.543 290.550,342.204 293.141,342.165 293.427 C 341.889 295.462,343.626 295.548,344.701 293.552 C 346.000 291.140,345.792 292.355,343.921 298.101 C 340.240 309.411,335.971 314.441,326.413 318.729 C 324.217 319.715,323.774 320.064,323.936 320.683 C 324.213 321.741,322.666 322.212,317.188 322.736 C 312.456 323.189,311.547 323.520,311.850 324.680 C 312.009 325.286,311.789 325.391,310.361 325.391 C 309.056 325.391,308.643 325.230,308.495 324.665 C 308.342 324.080,307.773 323.887,305.575 323.670 L 302.844 323.401 300.405 325.079 C 298.515 326.380,298.143 326.785,298.751 326.878 C 299.199 326.946,299.638 327.403,299.773 327.941 C 300.199 329.638,300.969 329.726,308.654 328.958 C 313.141 328.510,315.996 328.378,316.289 328.606 C 317.276 329.371,335.809 326.003,341.150 324.088 C 343.254 323.333,343.546 323.096,343.857 321.889 C 344.049 321.145,344.521 320.090,344.905 319.546 C 345.812 318.260,347.865 314.144,348.225 312.891 C 348.380 312.354,349.120 310.246,349.871 308.207 C 350.918 305.362,351.174 304.181,350.973 303.129 C 350.507 300.698,350.638 298.760,351.724 291.992 C 352.310 288.340,352.842 283.664,352.906 281.601 C 353.002 278.515,353.240 277.290,354.246 274.680 C 355.943 270.279,355.663 267.921,353.640 269.585 C 353.054 270.068,353.018 269.991,353.261 268.764 C 354.132 264.372,354.434 256.185,354.462 236.231 L 354.492 214.453 355.326 214.453 C 356.041 214.453,356.194 214.161,356.399 212.402 C 357.181 205.707,357.453 198.283,357.349 186.523 C 357.252 175.507,357.356 172.176,357.961 166.992 C 359.558 153.286,357.543 132.202,353.490 120.219 C 350.055 110.063,342.016 91.803,340.431 90.556 C 339.882 90.125,338.723 88.726,337.855 87.448 C 335.253 83.617,329.747 80.559,312.078 73.134 L 302.866 69.263 290.398 69.958 C 283.540 70.340,276.929 70.735,275.706 70.834 C 273.539 71.011,273.479 70.989,273.362 69.984 C 273.209 68.670,272.722 68.639,269.141 69.720 M178.315 80.713 C 177.781 81.921,177.344 82.976,177.344 83.056 C 177.344 83.137,177.173 83.203,176.965 83.203 C 176.492 83.203,176.807 82.306,178.028 80.176 C 179.348 77.874,179.470 78.102,178.315 80.713 M96.680 82.229 C 88.819 83.718,79.920 90.041,77.000 96.212 C 72.442 105.845,72.094 112.070,75.862 116.604 C 76.397 117.247,76.944 118.473,77.079 119.327 C 78.710 129.679,88.815 136.069,98.242 132.711 C 99.746 132.175,102.822 131.088,105.078 130.296 C 114.584 126.957,126.085 118.570,122.857 117.331 C 122.513 117.199,121.277 117.890,119.829 119.022 C 118.484 120.075,116.504 121.536,115.430 122.268 L 113.477 123.599 115.073 121.778 C 121.952 113.929,123.248 101.370,118.010 93.318 C 117.396 92.374,116.597 90.689,116.235 89.573 C 114.848 85.297,113.082 83.712,109.164 83.227 C 107.669 83.042,105.742 82.617,104.883 82.282 C 103.000 81.550,100.354 81.533,96.680 82.229 M99.446 85.684 C 99.560 85.982,100.023 86.144,100.508 86.056 C 101.131 85.942,101.667 86.280,102.458 87.286 C 103.642 88.790,103.631 88.845,102.250 88.320 C 101.553 88.055,101.088 88.149,100.369 88.702 L 99.414 89.436 100.466 89.444 C 101.045 89.449,101.748 89.769,102.029 90.156 C 102.309 90.543,103.682 91.265,105.078 91.762 C 108.566 93.001,111.538 94.743,112.520 96.122 L 113.342 97.276 109.509 95.906 L 105.677 94.536 104.753 95.460 L 103.830 96.383 107.286 97.650 C 109.187 98.346,111.344 98.940,112.080 98.970 C 114.129 99.052,115.713 101.989,115.493 105.297 C 115.263 108.767,114.258 110.605,109.743 115.811 L 105.686 120.488 107.628 119.372 C 108.696 118.758,110.518 117.551,111.677 116.690 L 113.783 115.125 112.849 116.804 C 111.425 119.361,105.480 122.774,103.207 122.339 C 102.180 122.143,102.178 122.136,103.032 121.755 L 103.896 121.369 102.954 120.496 L 102.011 119.622 100.012 120.612 C 98.038 121.588,97.961 121.595,94.074 121.124 C 88.973 120.506,88.690 120.375,87.320 118.011 C 86.511 116.615,85.977 116.074,85.542 116.213 C 84.089 116.674,83.345 115.453,84.106 113.856 C 84.921 112.147,84.830 111.912,83.668 112.726 C 82.580 113.488,82.594 113.928,83.792 116.688 L 84.772 118.945 82.933 117.030 L 81.094 115.114 79.968 115.760 C 77.742 117.038,76.513 115.974,78.173 114.207 C 78.832 113.506,79.115 112.726,79.149 111.524 C 79.175 110.593,79.305 109.396,79.438 108.866 C 79.626 108.116,79.508 107.857,78.903 107.698 C 77.538 107.341,78.057 106.099,80.644 103.535 C 82.957 101.243,83.185 100.866,83.425 98.945 C 83.715 96.623,88.679 91.408,92.927 88.962 C 93.956 88.370,95.485 87.279,96.325 86.537 C 97.930 85.120,99.106 84.799,99.446 85.684 M109.261 88.380 C 110.935 89.938,112.937 91.740,113.711 92.384 C 114.484 93.028,115.298 94.082,115.520 94.727 C 115.858 95.708,115.402 95.390,112.717 92.773 C 110.953 91.055,108.519 88.945,107.307 88.086 C 104.887 86.370,104.290 85.547,105.465 85.547 C 105.878 85.547,107.587 86.822,109.261 88.380 M111.983 86.816 C 113.826 88.863,113.612 89.258,111.719 87.305 C 110.990 86.553,110.573 85.938,110.793 85.938 C 111.012 85.938,111.548 86.333,111.983 86.816 M283.008 89.341 C 282.148 89.422,278.062 90.008,273.926 90.642 C 269.791 91.277,265.307 91.797,263.963 91.797 C 262.618 91.797,260.951 91.960,260.257 92.159 C 259.482 92.381,258.909 92.381,258.771 92.159 C 258.385 91.534,256.708 91.765,256.174 92.516 C 255.309 93.736,254.427 93.974,243.555 95.929 C 234.288 97.595,232.905 97.938,232.150 98.753 C 231.677 99.263,231.107 99.567,230.884 99.429 C 230.267 99.048,211.966 105.516,210.968 106.468 C 210.038 107.356,211.064 110.156,212.320 110.156 C 212.849 110.156,213.281 109.937,213.281 109.668 C 213.282 108.818,230.121 102.176,235.351 100.963 C 236.641 100.663,240.685 100.144,244.337 99.808 C 251.742 99.128,256.825 98.197,257.653 97.369 C 258.124 96.898,258.556 96.963,260.710 97.824 C 263.584 98.974,266.406 99.176,266.406 98.232 C 266.406 97.227,285.709 97.759,290.430 98.894 C 293.613 99.660,299.390 102.955,298.926 103.741 C 298.616 104.266,298.932 104.688,299.637 104.688 C 300.081 104.688,301.230 105.227,302.189 105.887 C 303.148 106.547,304.761 107.447,305.775 107.887 C 309.724 109.604,310.004 110.004,310.276 114.329 C 310.408 116.438,311.130 121.855,311.880 126.367 C 314.089 139.662,314.137 140.279,314.003 153.711 C 313.913 162.775,314.016 166.855,314.377 168.555 C 314.650 169.844,314.959 171.294,315.062 171.777 C 315.193 172.394,315.530 172.656,316.190 172.656 C 317.285 172.656,317.323 171.162,315.828 186.719 C 314.387 201.713,314.496 208.594,316.175 208.594 L 317.064 208.594 316.196 213.762 C 315.304 219.070,315.312 219.922,316.253 219.922 C 316.922 219.922,316.925 219.448,316.191 231.370 C 315.752 238.490,315.216 243.371,314.253 249.023 C 311.949 262.538,311.777 266.406,313.480 266.406 C 314.453 266.406,314.392 266.689,315.085 258.984 C 315.584 253.432,315.680 257.021,315.248 265.122 C 314.485 279.438,313.582 284.636,311.382 287.377 C 310.400 288.600,299.333 291.575,296.855 291.281 C 295.322 291.100,294.894 291.190,294.466 291.786 C 293.968 292.479,293.757 292.437,289.599 290.813 C 287.208 289.879,284.020 288.860,282.515 288.548 C 280.755 288.184,278.333 287.215,275.729 285.834 C 271.185 283.424,268.609 282.771,268.036 283.884 C 267.487 284.952,267.901 285.500,269.462 285.774 C 271.097 286.060,277.344 289.302,277.344 289.864 C 277.344 290.068,277.678 290.234,278.087 290.234 C 278.497 290.234,279.947 290.868,281.310 291.642 C 286.669 294.684,292.282 297.287,295.122 298.048 C 296.760 298.487,299.491 299.545,301.190 300.400 C 304.873 302.252,305.859 302.371,305.859 300.965 C 305.859 300.100,305.358 299.729,301.855 298.000 C 297.874 296.035,297.863 296.025,299.805 296.260 C 300.879 296.391,303.691 296.660,306.055 296.859 C 308.418 297.058,311.552 297.345,313.020 297.496 L 315.688 297.771 315.559 296.644 C 315.403 295.288,315.072 295.211,306.445 294.525 C 303.223 294.268,300.419 293.901,300.215 293.709 C 299.987 293.495,300.097 293.359,300.498 293.359 C 301.331 293.359,315.474 289.317,318.457 288.226 C 320.310 287.549,320.703 287.246,320.703 286.499 C 320.703 285.097,320.149 285.038,317.148 286.121 C 314.676 287.012,314.394 287.047,314.637 286.434 C 316.333 282.151,316.899 279.327,317.399 272.656 C 317.536 270.830,318.069 266.602,318.584 263.261 C 320.172 252.953,320.369 247.781,319.728 233.244 C 318.961 215.839,320.216 196.094,322.089 196.094 C 322.388 196.094,322.622 194.441,322.797 191.113 C 322.940 188.374,323.318 184.551,323.636 182.617 C 324.914 174.862,323.623 144.875,321.660 136.719 C 320.337 131.223,317.177 120.195,316.812 119.803 C 316.651 119.630,316.054 119.605,315.486 119.747 C 314.313 120.042,313.997 122.144,314.978 123.126 C 316.384 124.532,319.699 137.324,318.938 138.410 C 318.491 139.048,318.359 140.532,318.359 144.940 C 318.359 150.818,317.773 163.393,317.322 167.188 L 317.066 169.336 316.689 167.969 C 316.476 167.194,316.344 161.102,316.384 153.906 C 316.461 140.267,316.340 138.684,314.272 126.172 C 313.544 121.768,312.837 116.846,312.701 115.234 L 312.454 112.305 313.848 113.867 C 317.273 117.706,320.356 125.910,324.228 141.488 C 326.979 152.557,327.174 154.084,326.442 158.789 C 325.821 162.781,325.899 163.281,327.148 163.281 C 328.182 163.281,328.276 163.007,328.930 158.037 C 329.541 153.394,329.338 152.036,326.132 139.324 C 321.633 121.478,318.617 114.427,313.736 110.340 C 313.019 109.740,312.272 108.827,312.076 108.311 C 311.856 107.731,311.458 107.414,311.035 107.481 C 310.659 107.541,308.506 106.350,306.250 104.834 C 303.994 103.319,301.644 101.954,301.028 101.801 C 300.412 101.649,299.985 101.448,300.079 101.354 C 300.173 101.260,301.556 101.545,303.152 101.987 C 304.749 102.430,306.541 102.695,307.136 102.576 C 308.069 102.390,308.615 102.737,311.088 105.086 C 314.130 107.976,315.625 108.573,315.625 106.900 C 315.625 105.637,310.789 101.029,308.343 99.961 C 305.872 98.882,293.952 94.922,293.177 94.922 C 292.847 94.922,292.578 94.746,292.578 94.531 C 292.578 94.316,292.842 94.141,293.164 94.141 C 293.492 94.141,293.750 93.792,293.750 93.349 C 293.750 92.629,293.934 92.681,295.796 93.935 C 298.276 95.605,300.000 95.781,300.000 94.365 C 300.000 93.725,299.651 93.237,298.926 92.865 C 298.335 92.561,296.947 91.742,295.842 91.045 C 293.154 89.350,288.903 88.786,283.008 89.341 M290.625 91.746 L 292.383 92.027 289.648 92.410 C 288.145 92.620,284.893 92.699,282.422 92.584 L 277.930 92.374 280.664 92.062 C 282.168 91.890,283.662 91.693,283.984 91.623 C 285.060 91.391,288.846 91.461,290.625 91.746 M101.403 92.773 C 100.936 93.486,100.898 93.747,101.261 93.738 C 102.064 93.718,103.226 92.666,102.946 92.213 C 102.540 91.557,102.094 91.719,101.403 92.773 M276.591 93.711 C 275.634 95.054,273.438 95.414,269.824 94.818 C 267.387 94.416,266.804 93.765,268.848 93.726 C 269.546 93.713,271.348 93.469,272.852 93.184 C 274.355 92.899,275.993 92.646,276.491 92.622 L 277.397 92.578 276.591 93.711 M168.540 97.854 C 167.613 100.507,165.699 103.906,166.232 101.953 C 166.569 100.718,169.033 95.313,169.259 95.313 C 169.352 95.313,169.028 96.456,168.540 97.854 M81.695 105.606 C 80.859 106.496,80.802 109.766,81.622 109.766 C 82.558 109.766,83.466 107.914,83.298 106.348 C 83.094 104.437,82.884 104.340,81.695 105.606 M213.799 112.780 C 210.538 113.189,211.233 115.437,214.514 115.094 C 216.587 114.878,216.797 114.925,216.797 115.605 C 216.797 116.634,217.601 116.820,224.256 117.330 L 230.033 117.773 228.562 120.508 C 224.999 127.134,222.134 132.031,221.822 132.031 C 221.636 132.031,221.484 132.720,221.484 133.562 C 221.484 135.813,221.165 136.325,219.251 137.146 C 217.340 137.965,217.102 138.961,218.655 139.643 C 219.305 139.930,219.531 140.358,219.531 141.304 C 219.531 143.525,221.248 143.102,222.051 140.683 L 222.681 138.787 227.905 138.298 C 231.097 137.999,240.322 137.787,251.623 137.752 L 270.117 137.695 272.358 138.600 C 274.804 139.588,275.391 139.492,275.391 138.105 C 275.391 136.839,273.054 135.968,268.372 135.489 C 265.068 135.151,263.248 134.766,264.955 134.766 C 265.302 134.766,265.738 134.495,265.923 134.163 C 266.562 133.022,275.329 134.057,280.953 135.937 C 286.170 137.682,286.915 137.788,287.277 136.845 C 287.676 135.806,286.843 135.337,281.608 133.648 C 272.219 130.620,256.499 130.422,232.031 133.024 C 226.349 133.629,225.391 133.971,225.391 135.400 C 225.391 135.858,223.934 136.564,223.626 136.256 C 223.378 136.008,228.779 125.124,230.855 121.687 C 232.719 118.602,232.924 118.398,234.290 118.285 C 235.867 118.154,236.665 115.906,235.469 114.961 C 233.500 113.406,219.809 112.028,213.799 112.780 M209.081 123.512 C 204.101 130.836,188.497 158.346,185.569 164.964 C 181.610 173.912,180.464 178.516,182.194 178.516 C 183.042 178.516,183.277 178.108,184.507 174.512 C 185.318 172.139,185.888 170.928,185.907 171.540 C 185.997 174.576,187.862 173.137,189.403 168.843 C 190.727 165.153,206.227 134.699,207.456 133.373 C 208.265 132.500,208.411 131.623,207.847 131.035 C 207.630 130.808,208.394 129.236,209.817 126.986 C 212.234 123.162,212.484 122.153,211.066 121.950 C 210.445 121.861,209.925 122.270,209.081 123.512 M87.695 125.237 C 88.340 125.392,89.975 126.127,91.330 126.870 C 92.684 127.612,94.530 128.450,95.431 128.732 L 97.070 129.245 95.229 129.271 C 91.836 129.319,86.589 126.765,83.594 123.608 L 82.227 122.167 84.375 123.561 C 85.557 124.328,87.051 125.082,87.695 125.237 M191.797 123.158 C 191.797 123.219,190.786 124.230,189.551 125.404 L 187.305 127.539 189.440 125.293 C 191.423 123.206,191.797 122.868,191.797 123.158 M106.250 125.186 C 106.250 126.264,101.890 127.423,99.121 127.081 C 96.915 126.809,96.645 126.175,98.730 126.164 C 99.536 126.160,101.074 125.912,102.148 125.613 C 104.120 125.065,106.250 124.843,106.250 125.186 M84.393 127.556 C 84.759 127.887,86.179 128.769,87.549 129.517 C 89.214 130.426,89.651 130.790,88.867 130.617 C 87.132 130.233,85.086 129.117,84.014 127.968 C 82.997 126.878,83.291 126.558,84.393 127.556 M160.130 127.924 C 163.499 128.633,165.077 129.273,167.406 130.875 C 169.761 132.496,169.474 132.623,165.564 131.695 C 157.014 129.664,152.060 126.227,160.130 127.924 M289.222 137.649 C 289.108 137.945,289.289 139.635,289.625 141.403 C 289.960 143.171,290.234 145.477,290.234 146.528 L 290.234 148.438 288.574 148.452 C 287.661 148.460,282.607 148.943,277.344 149.526 C 269.537 150.391,266.694 150.548,261.914 150.379 C 257.413 150.220,255.845 150.293,255.152 150.696 C 253.904 151.422,254.117 152.930,255.469 152.930 C 256.006 152.930,256.596 153.167,256.779 153.456 C 257.032 153.856,257.551 153.904,258.928 153.657 C 259.926 153.478,267.070 153.329,274.805 153.326 L 288.867 153.320 288.867 152.344 C 288.867 151.501,288.653 151.337,287.305 151.150 C 285.897 150.954,285.994 150.915,288.281 150.759 C 289.777 150.656,290.886 150.746,290.981 150.976 C 291.372 151.930,293.749 153.906,294.504 153.906 C 295.534 153.906,295.980 152.876,295.371 151.901 C 294.860 151.083,295.185 150.994,296.651 151.552 C 297.930 152.038,298.828 151.690,298.828 150.708 C 298.828 150.170,298.351 149.750,297.249 149.317 C 296.319 148.951,295.746 148.499,295.854 148.216 C 296.583 146.317,296.940 142.932,296.471 142.367 C 295.451 141.138,294.345 141.825,294.243 143.750 C 294.040 147.573,292.578 149.811,292.578 146.299 C 292.578 140.100,290.418 134.532,289.222 137.649 M389.648 147.017 C 389.314 155.522,389.950 166.226,390.849 167.220 C 391.421 167.851,391.438 170.160,391.049 193.234 C 390.814 207.160,390.602 222.422,390.578 227.148 C 390.554 231.875,390.472 235.479,390.397 235.156 C 389.199 230.064,388.331 139.345,389.487 140.060 C 389.782 140.243,389.831 142.355,389.648 147.017 M320.621 170.605 C 320.576 180.005,320.484 185.938,320.417 183.789 C 320.321 180.745,320.154 179.778,319.660 179.408 C 319.076 178.969,319.078 178.101,319.675 168.275 C 320.032 162.413,320.321 156.694,320.318 155.566 C 320.315 154.438,320.400 153.516,320.508 153.516 C 320.615 153.516,320.666 161.206,320.621 170.605 M254.623 155.176 C 253.846 156.592,253.627 176.173,254.383 176.728 C 254.725 176.980,255.041 178.108,255.170 179.537 C 255.532 183.549,255.343 183.433,261.993 183.743 C 265.172 183.891,271.977 184.363,277.115 184.791 C 282.253 185.219,287.527 185.535,288.834 185.494 C 292.085 185.392,295.145 185.866,297.388 186.819 C 299.044 187.522,299.337 187.549,299.844 187.042 C 302.427 184.459,293.966 182.665,276.190 182.028 C 262.868 181.551,258.056 181.206,257.721 180.704 C 257.147 179.843,257.453 176.245,258.573 170.703 C 260.533 160.997,261.190 155.868,260.525 155.447 C 259.211 154.615,257.336 155.740,258.058 156.927 C 258.399 157.485,258.265 159.029,257.472 163.689 L 256.445 169.727 256.335 165.109 C 256.274 162.570,256.383 159.318,256.576 157.883 C 257.055 154.328,255.938 152.780,254.623 155.176 M215.003 155.616 C 214.426 157.121,215.314 157.312,224.251 157.609 C 231.466 157.850,232.829 157.986,232.650 158.453 C 232.127 159.817,231.307 163.677,231.084 165.820 C 230.951 167.109,230.584 169.131,230.269 170.313 C 228.830 175.715,230.614 180.038,233.421 177.953 C 234.016 177.511,234.090 177.243,233.762 176.707 C 233.297 175.949,233.875 170.870,234.933 166.406 C 235.264 165.010,235.538 163.032,235.541 162.012 C 235.546 160.419,235.657 160.156,236.328 160.156 C 236.887 160.156,237.109 159.896,237.109 159.240 C 237.109 158.277,236.025 157.031,235.188 157.031 C 234.917 157.031,234.404 156.690,234.047 156.273 C 233.110 155.177,215.406 154.567,215.003 155.616 M85.938 157.617 C 85.670 157.939,85.250 158.203,85.005 158.203 C 84.760 158.203,83.902 158.555,83.100 158.985 C 81.929 159.612,81.641 159.656,81.641 159.203 C 81.641 157.205,78.900 158.468,77.138 161.278 C 75.566 163.785,73.694 169.275,74.040 170.364 C 74.370 171.405,76.172 171.361,76.172 170.313 C 76.172 168.889,76.735 169.497,79.069 173.440 C 81.920 178.257,85.007 179.231,82.587 174.550 L 81.970 173.358 83.661 174.516 C 84.591 175.154,87.725 177.071,90.625 178.777 C 93.525 180.484,95.949 182.110,96.012 182.393 C 96.173 183.125,104.402 191.792,104.939 191.795 C 105.505 191.797,115.699 208.974,116.531 211.328 C 116.873 212.295,117.419 215.246,117.745 217.885 L 118.337 222.685 116.718 226.459 C 114.752 231.042,110.574 236.752,99.310 250.250 C 91.266 259.890,84.031 268.956,83.706 269.802 C 83.604 270.068,81.911 271.583,79.944 273.169 C 75.307 276.905,70.313 281.587,70.313 282.197 C 70.313 282.461,69.885 283.078,69.362 283.569 L 68.412 284.462 66.650 283.196 C 64.838 281.895,63.865 281.854,63.403 283.060 C 63.152 283.713,63.588 284.209,65.646 285.612 L 66.602 286.264 65.315 287.461 C 64.228 288.473,64.094 288.782,64.450 289.447 C 65.058 290.584,66.314 290.416,67.616 289.022 L 68.749 287.809 70.701 289.061 C 71.857 289.803,72.550 290.497,72.399 290.762 C 72.259 291.009,72.665 290.728,73.301 290.137 C 75.122 288.445,77.235 289.193,75.633 290.963 C 74.757 291.932,74.726 291.882,77.347 293.721 C 78.638 294.626,82.356 298.212,85.610 301.688 C 91.588 308.075,93.359 309.375,93.359 307.372 C 93.359 306.886,92.894 306.002,92.324 305.408 L 91.289 304.327 92.715 304.558 C 94.023 304.771,94.141 304.712,94.141 303.855 C 94.141 302.876,93.559 302.387,84.990 296.166 C 79.431 292.130,74.557 287.848,74.939 287.335 C 82.169 277.649,87.719 271.787,96.603 264.453 C 98.034 263.271,99.208 262.037,99.212 261.710 C 99.216 261.382,100.625 259.716,102.344 258.008 C 105.580 254.790,106.279 253.227,104.840 252.421 C 104.217 252.073,108.904 247.808,112.398 245.546 C 113.210 245.019,113.664 244.408,113.667 243.835 C 113.675 242.381,112.643 242.402,110.560 243.899 C 108.625 245.289,108.644 245.253,113.159 239.154 C 118.797 231.537,118.449 231.898,118.340 233.789 C 118.205 236.135,118.279 236.328,119.305 236.328 C 120.379 236.328,120.503 235.943,120.924 231.280 C 121.134 228.958,121.411 228.071,122.312 226.827 C 124.118 224.334,123.286 221.506,121.424 223.806 L 120.703 224.696 120.703 223.708 C 120.703 222.191,121.101 221.484,121.955 221.484 C 122.939 221.484,122.628 216.939,121.588 216.126 C 120.410 215.205,117.881 207.380,118.546 206.714 C 118.680 206.580,121.816 212.216,122.690 214.160 C 123.361 215.654,125.000 215.683,125.000 214.201 C 125.000 211.590,110.501 188.501,109.015 188.747 C 107.964 188.921,106.641 187.559,106.641 186.305 C 106.641 185.370,106.223 184.990,103.418 183.372 C 101.646 182.350,99.280 180.840,98.161 180.015 C 97.043 179.190,95.876 178.516,95.568 178.516 C 95.260 178.516,93.802 177.809,92.328 176.946 C 89.994 175.579,89.825 175.408,91.016 175.623 C 91.768 175.759,94.580 177.161,97.266 178.739 C 105.929 183.829,109.375 185.033,109.375 182.971 C 109.375 182.279,109.122 181.892,108.575 181.749 C 106.969 181.329,102.271 178.886,96.661 175.555 C 93.502 173.679,89.577 171.621,87.939 170.983 C 85.404 169.995,84.387 169.737,82.333 169.556 C 81.053 169.444,80.746 164.844,82.019 164.844 C 82.206 164.844,82.476 164.315,82.618 163.669 C 83.579 159.291,92.499 162.163,114.453 173.918 C 116.279 174.896,118.389 175.890,119.141 176.128 C 120.257 176.481,121.649 177.991,126.739 184.374 C 130.166 188.671,133.154 192.189,133.379 192.191 C 133.605 192.193,134.486 193.291,135.337 194.632 C 136.189 195.973,138.511 199.558,140.498 202.598 C 144.343 208.481,146.312 213.308,147.244 219.141 C 148.286 225.653,147.526 224.571,145.514 216.679 C 143.534 208.910,142.763 207.031,141.555 207.031 C 140.646 207.031,140.210 208.385,140.833 209.274 C 141.749 210.582,146.166 228.913,145.907 230.332 C 145.353 233.365,142.007 241.368,139.592 245.434 C 137.064 249.688,133.624 256.414,132.362 259.570 C 132.019 260.430,129.907 263.418,127.669 266.211 C 125.432 269.004,122.838 272.344,121.906 273.633 C 120.974 274.922,119.620 276.537,118.898 277.223 C 117.347 278.696,117.476 279.688,119.218 279.688 L 120.383 279.688 118.572 281.738 C 117.576 282.866,114.888 285.986,112.598 288.672 C 110.309 291.357,106.458 295.538,104.040 297.961 C 99.486 302.526,98.843 303.774,101.228 303.424 C 101.841 303.334,102.344 303.406,102.344 303.583 C 102.344 304.299,104.872 303.858,106.089 302.930 C 106.794 302.393,107.789 301.953,108.302 301.953 C 110.443 301.953,114.088 297.682,119.031 289.381 C 122.041 284.326,125.265 280.175,129.793 275.523 C 131.711 273.552,132.101 272.934,131.944 272.111 C 131.746 271.080,133.233 269.421,137.793 265.581 C 139.580 264.076,139.967 262.673,138.726 262.194 C 138.081 261.946,138.327 261.428,140.898 257.617 C 142.493 255.254,143.766 253.584,143.727 253.906 C 143.435 256.352,145.349 256.133,146.290 253.613 C 146.671 252.593,147.775 250.014,148.743 247.882 C 150.281 244.498,150.498 243.689,150.461 241.495 C 150.424 239.306,150.517 238.956,151.186 238.781 C 152.142 238.531,152.221 236.907,151.301 236.393 C 150.760 236.090,150.721 235.837,151.074 234.908 C 151.307 234.293,151.492 232.998,151.484 232.031 C 151.472 230.693,151.945 229.294,153.463 226.172 C 154.560 223.916,155.460 221.587,155.463 220.996 C 155.468 220.158,155.654 219.922,156.310 219.922 C 157.355 219.922,157.133 208.613,156.065 207.433 C 155.762 207.098,155.341 206.054,155.129 205.111 C 154.677 203.101,154.186 202.577,140.321 189.333 C 134.435 183.710,131.064 180.226,131.435 180.147 C 133.425 179.726,132.020 178.105,128.027 176.215 C 124.505 174.548,123.821 174.056,122.340 172.121 C 121.415 170.912,120.410 169.922,120.108 169.922 C 119.462 169.922,118.652 171.256,119.054 171.658 C 119.206 171.810,117.222 170.931,114.646 169.704 C 112.069 168.477,109.258 167.229,108.398 166.929 C 105.610 165.958,105.126 165.584,105.001 164.301 C 104.888 163.144,104.793 163.080,102.983 162.965 C 101.457 162.868,100.247 162.342,96.824 160.286 C 93.094 158.047,92.397 157.759,91.224 157.979 C 90.374 158.139,89.360 158.012,88.449 157.631 C 86.677 156.891,86.541 156.890,85.938 157.617 M213.831 158.502 C 213.597 158.660,213.105 159.580,212.738 160.547 C 212.345 161.584,210.608 163.987,208.504 166.406 C 203.667 171.967,201.636 174.796,201.337 176.389 C 201.129 177.499,200.943 177.698,200.250 177.553 C 195.374 176.536,187.426 175.747,186.853 176.223 C 185.501 177.344,186.846 179.893,188.308 178.980 C 189.345 178.333,190.377 178.388,197.210 179.457 C 205.972 180.828,205.293 181.115,193.653 180.956 C 181.562 180.791,182.195 180.584,182.825 184.494 C 183.256 187.164,183.216 187.899,182.411 192.075 C 181.118 198.786,181.574 200.752,183.865 198.340 C 185.029 197.114,185.077 196.925,185.245 192.856 C 185.347 190.407,185.610 188.452,185.874 188.188 C 186.124 187.939,186.328 187.349,186.328 186.878 C 186.328 186.407,186.592 185.920,186.914 185.796 C 187.617 185.526,187.683 184.324,187.031 183.672 C 186.479 183.119,188.091 183.112,212.305 183.566 C 229.344 183.885,230.221 183.822,230.004 182.298 C 229.892 181.511,229.642 181.439,226.758 181.362 C 222.739 181.255,210.825 180.503,208.773 180.226 C 206.325 179.897,205.856 178.469,207.218 175.493 C 208.182 173.388,212.433 166.147,213.471 164.844 C 215.601 162.169,215.888 157.118,213.831 158.502 M204.179 176.808 C 203.940 177.588,203.687 178.054,203.617 177.844 C 203.480 177.431,204.169 175.391,204.446 175.391 C 204.539 175.391,204.419 176.028,204.179 176.808 M302.092 184.577 C 301.781 185.388,302.173 190.630,302.934 195.837 C 303.703 201.105,303.827 201.563,304.472 201.563 C 304.776 201.563,305.080 201.958,305.149 202.441 C 305.240 203.085,305.535 203.320,306.250 203.320 C 308.222 203.320,308.438 187.982,306.488 186.364 C 305.513 185.554,304.585 186.295,304.872 187.653 C 305.014 188.321,305.195 190.361,305.276 192.188 C 305.466 196.515,304.815 193.256,304.378 187.695 C 304.097 184.126,302.894 182.486,302.092 184.577 M137.977 192.095 C 139.020 193.463,139.357 194.230,139.191 194.864 C 138.969 195.712,138.124 194.635,134.993 189.510 C 134.215 188.238,136.632 190.332,137.977 192.095 M354.743 203.906 L 354.404 207.617 354.351 203.675 C 354.321 201.506,354.429 197.551,354.590 194.886 L 354.883 190.039 354.982 195.117 C 355.036 197.910,354.929 201.865,354.743 203.906 M317.591 200.925 C 317.102 201.414,317.062 198.944,317.483 194.141 L 317.773 190.820 317.884 195.671 C 317.951 198.635,317.837 200.679,317.591 200.925 M113.632 199.023 C 116.348 202.562,116.632 203.125,115.704 203.125 C 115.122 203.125,114.420 202.270,113.059 199.902 C 112.040 198.130,110.951 196.240,110.640 195.703 C 109.929 194.475,111.358 196.062,113.632 199.023 M221.484 197.078 C 188.552 199.611,184.485 200.085,184.701 201.371 C 184.932 202.749,185.415 202.903,187.983 202.415 C 191.043 201.834,207.404 200.525,212.891 200.422 C 215.146 200.380,220.508 200.093,224.805 199.785 C 235.714 199.003,235.327 198.986,234.526 200.208 C 234.148 200.785,233.796 202.352,233.680 203.971 C 233.486 206.677,233.465 206.724,232.821 205.871 C 231.872 204.613,230.649 204.952,230.715 206.456 C 230.743 207.095,230.964 211.221,231.206 215.625 C 231.449 220.029,231.761 228.931,231.901 235.407 L 232.156 247.181 231.163 246.991 C 230.617 246.887,230.078 246.950,229.966 247.131 C 229.604 247.717,220.997 247.051,219.453 246.318 C 216.388 244.864,213.991 235.914,215.864 232.924 C 216.805 231.422,216.568 230.469,215.254 230.469 C 214.620 230.469,213.955 230.731,213.775 231.051 C 213.521 231.505,213.172 231.555,212.201 231.276 C 209.577 230.524,191.950 230.286,191.677 231.000 C 191.089 232.530,192.682 233.781,194.396 233.136 C 195.174 232.843,198.034 232.828,203.906 233.087 C 208.525 233.291,212.499 233.312,212.737 233.134 C 213.051 232.898,213.064 233.344,212.783 234.765 C 212.438 236.507,212.534 237.158,213.663 240.724 C 216.072 248.337,217.000 249.088,224.512 249.501 C 227.336 249.657,228.516 249.865,228.516 250.210 C 228.516 250.947,229.467 251.172,232.589 251.172 C 237.283 251.172,238.695 250.036,237.143 247.507 C 235.671 245.108,235.005 238.573,236.186 238.119 C 236.840 237.869,236.823 236.875,236.092 232.715 C 235.871 231.452,235.937 231.249,236.570 231.239 C 236.974 231.233,237.793 230.731,238.389 230.122 L 239.473 229.017 238.471 227.085 C 237.191 224.618,236.725 220.470,237.206 215.820 C 237.406 213.887,237.488 210.763,237.388 208.880 C 237.288 206.996,237.361 205.360,237.549 205.243 C 237.737 205.127,237.891 206.721,237.891 208.785 C 237.891 213.129,238.530 214.974,239.964 214.770 C 240.661 214.671,240.798 214.430,240.702 213.477 C 240.637 212.832,240.460 210.424,240.310 208.125 C 240.051 204.180,239.969 203.874,238.841 202.657 C 237.226 200.914,236.571 199.359,237.328 199.069 C 237.913 198.844,238.109 197.440,237.598 197.140 C 236.766 196.652,227.490 196.616,221.484 197.078 M142.119 199.497 C 141.757 199.933,141.545 199.831,140.958 198.941 C 139.928 197.378,140.065 197.117,141.398 198.103 C 142.310 198.777,142.466 199.078,142.119 199.497 M150.769 206.944 L 151.849 208.255 151.290 211.257 C 150.982 212.907,150.506 215.137,150.230 216.211 L 149.730 218.164 149.223 215.820 C 148.943 214.531,148.726 212.686,148.741 211.719 C 148.755 210.752,148.627 209.609,148.456 209.180 C 148.284 208.750,147.950 207.915,147.713 207.324 C 147.476 206.733,147.029 206.250,146.719 206.250 C 146.383 206.250,145.896 205.425,145.509 204.199 C 145.153 203.071,144.787 201.914,144.696 201.627 C 144.484 200.959,149.341 205.212,150.769 206.944 M252.456 202.223 C 252.317 202.587,252.525 205.511,252.920 208.723 C 253.549 213.847,253.605 216.335,253.381 229.058 C 253.241 237.031,253.281 245.019,253.470 246.809 C 253.704 249.021,253.678 250.426,253.387 251.195 C 253.017 252.175,253.076 252.435,253.824 253.132 C 254.299 253.575,254.688 254.267,254.688 254.671 C 254.688 255.792,255.107 256.641,255.660 256.641 C 255.935 256.641,256.254 257.006,256.371 257.453 C 256.883 259.411,258.388 258.206,258.516 255.735 C 258.634 253.476,258.641 253.464,259.714 253.700 C 260.441 253.859,261.473 253.622,262.871 252.974 C 264.441 252.247,265.109 252.112,265.604 252.421 C 266.421 252.932,267.490 252.408,271.503 249.528 L 274.450 247.414 275.697 248.111 C 277.945 249.366,279.166 247.611,277.148 246.024 C 276.611 245.601,276.172 244.901,276.172 244.466 C 276.172 244.005,275.847 243.592,275.391 243.473 C 274.795 243.317,274.605 242.932,274.592 241.849 C 274.583 241.068,274.422 239.639,274.236 238.672 C 273.703 235.914,274.040 236.378,275.283 240.112 C 276.214 242.910,276.588 243.578,277.278 243.680 C 278.724 243.892,278.679 242.736,277.061 238.111 L 275.510 233.677 278.087 232.992 C 283.485 231.557,285.323 230.576,284.862 229.376 C 284.674 228.887,283.795 228.840,279.045 229.071 C 271.923 229.418,270.123 229.891,270.102 231.425 C 270.091 232.209,269.831 232.634,269.223 232.859 C 268.161 233.252,268.106 234.416,269.108 235.322 C 269.676 235.836,270.037 235.904,270.602 235.601 C 271.287 235.234,271.376 235.413,271.711 237.841 C 272.072 240.450,272.066 240.478,271.199 240.313 C 269.464 239.981,269.832 243.203,271.582 243.662 C 271.958 243.760,272.266 243.970,272.266 244.127 C 272.266 244.537,258.587 249.342,258.283 249.038 C 258.144 248.899,257.917 243.477,257.780 236.990 C 257.592 228.100,257.305 223.446,256.615 218.091 C 255.839 212.063,255.779 210.841,256.217 210.023 C 256.768 208.993,256.535 208.203,255.681 208.203 C 255.317 208.203,255.072 207.339,254.879 205.371 C 254.534 201.863,253.240 200.181,252.456 202.223 M317.470 205.566 C 317.383 206.265,317.313 205.693,317.313 204.297 C 317.313 202.900,317.383 202.329,317.470 203.027 C 317.557 203.726,317.557 204.868,317.470 205.566 M267.773 202.723 L 259.180 202.930 259.180 203.906 L 259.180 204.883 280.469 204.741 C 302.553 204.594,303.107 204.550,302.512 202.999 C 302.244 202.301,289.506 202.200,267.773 202.723 M233.483 210.053 C 233.394 210.647,233.318 210.254,233.315 209.180 C 233.312 208.105,233.385 207.620,233.478 208.100 C 233.571 208.581,233.573 209.459,233.483 210.053 M286.499 229.004 L 285.352 230.273 286.621 229.126 C 287.319 228.495,287.891 227.924,287.891 227.857 C 287.891 227.555,287.568 227.821,286.499 229.004 M284.375 232.182 C 284.375 232.503,285.314 234.680,286.462 237.019 C 287.858 239.865,288.911 242.748,289.642 245.733 C 290.804 250.475,291.158 251.243,292.106 251.079 C 292.821 250.956,292.944 251.362,294.689 259.570 C 296.798 269.492,296.804 268.484,294.632 269.244 C 291.696 270.271,283.139 271.620,285.449 270.691 C 287.010 270.064,285.503 266.734,281.167 261.230 C 279.468 259.075,276.620 260.228,278.038 262.497 C 278.671 263.512,269.651 268.032,266.406 268.325 L 263.867 268.555 263.828 269.831 C 263.807 270.533,263.697 271.199,263.585 271.311 C 263.059 271.837,255.514 274.211,254.358 274.215 C 253.403 274.218,252.999 274.419,252.857 274.964 C 252.624 275.854,252.146 275.995,247.293 276.607 C 243.306 277.110,242.421 277.482,242.697 278.539 C 242.848 279.113,242.230 279.289,238.135 279.837 C 231.916 280.669,230.610 280.659,230.379 279.778 C 230.201 279.096,227.043 278.581,216.411 277.503 C 213.261 277.183,205.059 273.197,204.350 271.640 C 204.115 271.125,203.719 270.703,203.469 270.703 C 203.220 270.703,202.821 270.454,202.582 270.149 C 202.344 269.844,200.654 267.781,198.828 265.564 L 195.508 261.533 202.480 267.583 C 211.410 275.332,211.590 275.472,212.403 275.318 C 214.204 274.974,213.303 273.635,208.510 269.531 C 198.168 260.676,193.359 256.213,193.359 255.467 C 193.359 255.053,193.005 254.525,192.572 254.294 C 191.814 253.888,191.787 253.522,191.835 244.480 C 191.885 234.961,191.752 234.009,190.447 234.510 C 189.599 234.835,189.597 234.847,189.098 242.612 C 188.582 250.645,189.596 259.861,191.748 266.714 C 192.375 268.710,192.818 270.643,192.733 271.011 C 192.542 271.842,194.251 273.819,195.343 274.029 C 196.130 274.181,202.482 277.039,207.227 279.376 C 208.516 280.011,211.855 281.433,214.648 282.535 L 219.727 284.540 225.684 284.688 L 231.641 284.836 231.641 283.878 L 231.641 282.921 237.988 282.648 C 242.882 282.437,244.438 282.242,244.780 281.797 C 245.427 280.958,249.776 280.322,250.743 280.926 C 251.380 281.324,252.997 280.907,261.001 278.280 C 270.886 275.036,271.875 274.479,270.085 273.170 C 269.439 272.698,269.466 272.656,270.419 272.656 C 271.050 272.656,271.618 272.356,271.866 271.891 C 272.091 271.471,273.416 270.489,274.810 269.709 C 276.402 268.819,277.344 268.042,277.344 267.618 C 277.344 267.247,277.847 266.572,278.462 266.117 L 279.581 265.290 280.299 267.664 C 281.576 271.881,284.308 274.871,285.938 273.834 C 286.383 273.550,286.574 273.669,286.735 274.328 C 287.071 275.708,288.099 275.522,294.531 272.917 C 300.026 270.693,300.586 270.377,300.586 269.510 C 300.586 268.821,300.345 268.520,299.720 268.432 C 299.063 268.338,298.793 267.961,298.602 266.869 C 298.463 266.077,298.135 264.368,297.872 263.070 C 297.527 261.361,297.512 260.524,297.819 260.033 C 298.148 259.506,297.914 258.423,296.768 255.166 C 295.957 252.862,294.676 248.623,293.920 245.745 C 292.380 239.883,292.103 239.212,291.078 238.887 C 290.604 238.737,290.145 237.889,289.731 236.400 C 288.555 232.171,288.466 232.033,287.161 232.407 C 286.336 232.644,285.773 232.575,285.190 232.167 C 284.472 231.665,284.375 231.666,284.375 232.182 M317.969 245.117 C 317.969 246.946,317.826 247.656,317.459 247.656 C 317.052 247.656,317.026 247.140,317.328 245.117 C 317.537 243.721,317.766 242.578,317.838 242.578 C 317.910 242.578,317.969 243.721,317.969 245.117 M147.052 245.674 C 146.122 247.745,145.925 247.965,145.505 247.391 C 145.102 246.840,145.245 246.427,146.389 244.835 C 148.149 242.384,148.391 242.690,147.052 245.674 M141.020 253.057 C 140.383 254.094,139.483 255.280,139.021 255.694 C 138.560 256.107,139.009 255.259,140.020 253.809 C 142.158 250.740,142.693 250.338,141.020 253.057 M137.850 257.520 C 137.195 258.776,133.911 263.672,133.723 263.672 C 133.463 263.672,134.383 262.064,136.239 259.277 C 137.989 256.649,138.721 255.851,137.850 257.520 M195.072 264.833 C 196.323 266.422,196.394 266.640,195.849 267.242 C 194.670 268.545,195.330 269.579,198.591 271.533 C 203.101 274.237,203.434 274.867,199.371 273.011 L 195.813 271.386 194.995 268.994 C 193.699 265.203,192.930 262.305,193.329 262.712 C 193.530 262.918,194.315 263.872,195.072 264.833 M74.223 283.198 C 73.545 284.054,72.815 284.863,72.600 284.995 C 72.386 285.128,72.090 285.563,71.943 285.962 C 71.742 286.503,71.526 286.588,71.091 286.298 C 70.615 285.982,70.940 285.517,72.852 283.776 C 75.648 281.230,75.849 281.145,74.223 283.198 M390.514 286.230 C 390.425 286.821,390.351 286.338,390.351 285.156 C 390.351 283.975,390.425 283.491,390.514 284.082 C 390.604 284.673,390.604 285.640,390.514 286.230 M171.264 288.770 L 170.117 290.039 171.387 288.892 C 172.570 287.822,172.836 287.500,172.534 287.500 C 172.467 287.500,171.896 288.071,171.264 288.770 M266.914 289.925 C 266.021 291.059,265.003 304.743,265.539 308.398 C 265.806 310.218,267.969 311.802,267.969 310.179 C 267.969 309.948,268.483 309.220,269.112 308.562 C 270.723 306.877,271.275 291.992,269.727 291.992 C 269.163 291.992,268.891 291.667,268.750 290.825 C 268.541 289.573,267.566 289.096,266.914 289.925 M346.683 298.883 C 345.615 303.117,344.513 306.174,343.979 306.378 C 343.647 306.506,343.849 305.595,344.561 303.761 C 345.162 302.213,345.957 299.855,346.329 298.520 C 347.207 295.359,347.497 295.655,346.683 298.883 M346.492 309.737 C 346.115 311.138,345.927 311.328,344.921 311.328 L 343.779 311.328 345.229 309.376 C 346.824 307.231,347.142 307.322,346.492 309.737 M263.805 312.717 C 263.370 313.851,264.266 314.899,266.415 315.768 C 268.229 316.501,268.539 316.772,268.452 317.548 C 268.304 318.880,269.012 319.537,270.315 319.277 C 271.685 319.003,279.413 323.160,278.316 323.580 C 276.339 324.339,277.877 325.582,281.055 325.794 C 283.163 325.935,284.599 326.253,285.469 326.771 C 286.733 327.525,286.768 327.525,287.312 326.797 C 287.811 326.130,288.207 326.081,291.213 326.312 L 294.560 326.569 296.893 324.924 C 299.452 323.119,299.403 322.920,296.289 322.474 C 292.805 321.974,269.885 314.492,268.646 313.449 C 267.392 312.394,266.972 312.291,266.571 312.941 C 266.384 313.242,266.186 313.180,265.942 312.745 C 265.490 311.937,264.111 311.919,263.805 312.717 M337.891 319.158 C 336.576 320.211,332.030 322.786,331.834 322.589 C 331.688 322.443,338.246 318.414,338.672 318.388 C 338.779 318.382,338.428 318.729,337.891 319.158 M342.176 319.547 C 341.250 320.132,340.749 319.951,341.573 319.328 C 341.987 319.014,342.421 318.854,342.538 318.971 C 342.655 319.087,342.492 319.347,342.176 319.547 M285.938 322.648 C 290.310 323.751,290.372 323.781,288.281 323.802 C 285.745 323.828,283.840 323.346,282.227 322.270 C 281.582 321.841,281.143 321.495,281.250 321.502 C 281.357 321.510,283.467 322.025,285.938 322.648 M78.117 326.855 L 74.414 330.664 78.223 326.961 C 80.317 324.924,82.031 323.210,82.031 323.152 C 82.031 322.869,81.557 323.318,78.117 326.855 M319.531 325.411 C 318.564 325.583,316.807 325.711,315.625 325.697 C 313.537 325.671,313.521 325.662,315.039 325.391 C 315.898 325.237,317.656 325.108,318.945 325.104 L 321.289 325.098 319.531 325.411 M385.755 339.818 C 384.348 342.595,384.313 342.337,385.489 337.847 L 386.523 333.897 386.641 335.868 C 386.730 337.373,386.520 338.308,385.755 339.818 M7.228 343.071 C 7.452 343.931,7.392 344.105,6.931 343.928 C 6.311 343.690,5.840 340.922,5.903 337.891 C 5.935 336.336,5.998 336.472,6.443 339.063 C 6.720 340.674,7.073 342.478,7.228 343.071 M385.728 346.582 C 385.178 349.870,381.702 358.699,381.658 356.921 C 381.648 356.539,381.392 356.130,381.088 356.013 C 380.293 355.708,380.966 353.802,383.594 348.919 C 386.031 344.389,386.110 344.303,385.728 346.582 M10.293 354.674 C 10.842 356.493,11.234 358.037,11.166 358.105 C 11.021 358.250,8.423 352.220,8.011 350.781 L 7.731 349.805 8.514 350.586 C 8.944 351.016,9.745 352.855,10.293 354.674 M18.750 359.755 C 21.006 361.760,23.027 363.573,23.242 363.785 C 23.457 363.996,22.227 363.233,20.508 362.090 C 17.251 359.922,12.891 355.888,12.891 355.041 C 12.891 354.734,13.219 354.842,13.770 355.331 C 14.253 355.759,16.494 357.750,18.750 359.755 M380.432 359.766 C 379.133 361.875,378.699 362.231,379.119 360.840 C 379.344 360.094,381.150 357.813,381.515 357.813 C 381.580 357.813,381.093 358.691,380.432 359.766 M18.848 363.873 C 20.083 364.683,21.094 365.489,21.094 365.666 C 21.094 366.594,26.455 371.492,30.886 374.614 C 36.389 378.489,36.654 378.737,34.473 377.958 C 24.748 374.483,14.844 366.084,14.844 361.312 C 14.844 360.977,15.146 361.076,15.723 361.601 C 16.206 362.041,17.612 363.064,18.848 363.873 M375.603 364.425 C 375.462 364.653,374.961 365.040,374.490 365.285 C 373.673 365.710,373.677 365.683,374.578 364.703 C 375.478 363.725,376.148 363.543,375.603 364.425 M371.680 370.105 C 371.035 370.633,370.303 371.072,370.052 371.080 C 369.801 371.087,368.425 371.715,366.993 372.475 C 365.561 373.234,364.506 373.669,364.647 373.440 C 364.868 373.082,372.114 369.213,372.656 369.163 C 372.764 369.153,372.324 369.577,371.680 370.105 M209.668 374.518 C 209.254 374.608,208.984 375.027,208.984 375.580 C 208.984 376.743,210.583 376.872,227.739 377.086 L 240.047 377.241 240.765 376.289 C 241.814 374.898,242.140 374.938,228.250 374.759 C 221.199 374.668,214.287 374.543,212.891 374.482 C 211.494 374.420,210.044 374.437,209.668 374.518 M264.536 379.297 L 264.364 380.469 251.811 380.415 C 241.845 380.372,240.023 380.291,242.969 380.022 C 252.280 379.171,263.160 378.207,263.897 378.168 C 264.583 378.132,264.682 378.306,264.536 379.297 M281.507 378.516 C 285.771 378.516,287.500 378.646,287.500 378.966 C 287.500 379.514,268.738 379.085,266.948 378.496 C 266.169 378.240,267.319 378.185,270.667 378.320 C 273.332 378.428,278.210 378.516,281.507 378.516 M155.918 379.980 C 156.309 380.371,152.916 380.469,138.958 380.469 C 123.453 380.469,121.534 380.402,121.738 379.871 C 122.047 379.065,155.110 379.171,155.918 379.980 " stroke="none" fill="#040404" fill-rule="evenodd"></path><path id="path3" d="" stroke="none" fill="#604404" fill-rule="evenodd"></path><path id="path4" d="M85.916 94.824 L 84.570 96.289 86.035 94.943 C 87.399 93.690,87.680 93.359,87.381 93.359 C 87.316 93.359,86.657 94.019,85.916 94.824 M79.077 105.176 L 77.930 106.445 79.199 105.298 C 80.383 104.229,80.648 103.906,80.347 103.906 C 80.279 103.906,79.708 104.478,79.077 105.176 M106.421 119.238 L 105.273 120.508 106.543 119.361 C 107.726 118.291,107.992 117.969,107.690 117.969 C 107.623 117.969,107.052 118.540,106.421 119.238 M386.698 221.777 L 385.352 223.242 386.816 221.896 C 388.180 220.643,388.461 220.313,388.163 220.313 C 388.097 220.313,387.438 220.972,386.698 221.777 M165.614 294.434 L 163.086 297.070 165.723 294.543 C 167.173 293.152,168.359 291.966,168.359 291.906 C 168.359 291.618,167.962 291.984,165.614 294.434 " stroke="none" fill="#746404" fill-rule="evenodd"></path></g></svg>