<svg id="svg" version="1.1" xmlns="http://www.w3.org/2000/svg" xmlns:xlink="http://www.w3.org/1999/xlink" width="400" height="400" viewBox="0, 0, 400,400"><g id="svgg"><path id="path0" d="M310.646 75.416 C 307.783 75.789,307.422 75.963,307.422 76.976 C 307.422 77.701,307.083 77.734,299.668 77.734 C 288.135 77.734,286.099 77.964,285.534 79.329 C 284.903 80.851,285.303 81.250,287.464 81.250 C 290.449 81.250,295.313 81.730,295.313 82.025 C 295.313 82.174,293.599 82.599,291.504 82.970 C 287.165 83.740,285.938 84.353,285.938 85.751 C 285.938 86.872,286.981 87.056,288.393 86.184 C 291.486 84.273,321.143 81.135,329.102 81.877 C 332.109 82.157,336.263 82.394,338.331 82.404 C 341.181 82.418,342.210 82.564,342.578 83.008 C 342.891 83.385,342.915 83.594,342.644 83.594 C 341.279 83.594,340.911 86.301,342.093 87.647 C 343.053 88.741,343.337 89.543,343.719 92.240 C 343.974 94.037,344.273 95.815,344.383 96.191 C 344.605 96.946,343.215 97.199,342.773 96.484 C 342.421 95.914,338.220 96.010,334.180 96.680 C 331.568 97.113,325.540 97.330,310.742 97.522 C 289.260 97.802,288.097 97.916,288.354 99.723 C 288.449 100.394,288.780 100.615,289.842 100.716 C 290.593 100.787,291.384 100.990,291.600 101.166 C 291.816 101.343,293.929 101.548,296.296 101.623 L 300.600 101.758 300.453 103.027 L 300.305 104.297 297.906 104.314 C 289.119 104.375,282.644 105.006,281.945 105.868 C 280.526 107.621,281.638 108.835,283.600 107.676 C 284.200 107.321,285.103 107.049,285.607 107.070 C 286.520 107.109,286.520 107.110,285.547 107.379 C 284.188 107.753,284.006 109.461,285.232 110.326 C 286.079 110.924,286.172 110.913,286.800 110.146 C 287.575 109.197,297.017 107.227,298.990 107.602 C 299.666 107.731,300.476 107.591,300.984 107.257 C 301.898 106.658,305.796 106.456,324.414 106.041 C 333.453 105.840,341.730 105.342,344.188 104.852 C 345.689 104.552,345.786 105.578,344.697 110.253 C 344.184 112.456,343.761 114.721,343.757 115.286 C 343.752 115.983,343.498 116.381,342.969 116.519 C 342.401 116.668,342.188 117.052,342.188 117.927 C 342.188 119.411,340.802 120.097,336.133 120.925 C 334.414 121.230,332.393 121.665,331.641 121.891 C 329.961 122.396,312.411 124.211,309.180 124.214 C 305.388 124.218,280.974 120.262,279.297 119.372 C 278.760 119.087,278.101 118.933,277.832 119.030 C 277.544 119.134,277.344 118.880,277.344 118.411 C 277.344 117.974,277.036 117.428,276.660 117.197 C 276.144 116.880,276.120 116.791,276.563 116.833 C 277.931 116.964,278.125 116.765,278.125 115.234 C 278.125 114.375,277.940 113.672,277.714 113.672 C 277.380 113.672,276.172 111.417,276.172 110.793 C 276.172 110.700,276.718 111.134,277.385 111.757 C 278.660 112.948,279.994 113.209,280.781 112.422 C 281.620 111.583,281.280 110.750,279.699 109.773 C 277.726 108.553,277.527 107.426,277.896 99.519 C 278.214 92.683,278.221 92.658,279.818 92.503 C 281.811 92.309,281.620 90.476,279.590 90.308 L 278.125 90.187 278.125 87.855 C 278.125 85.474,277.456 84.497,276.489 85.464 C 276.262 85.691,275.837 85.784,275.543 85.672 C 275.250 85.559,274.460 85.659,273.788 85.893 L 272.566 86.319 272.832 83.836 C 273.287 79.584,271.257 79.973,270.292 84.322 C 269.946 85.884,269.555 86.724,269.121 86.837 C 268.763 86.931,268.344 87.514,268.190 88.133 C 268.037 88.751,267.548 89.647,267.105 90.122 C 266.363 90.916,266.318 91.293,266.549 94.809 C 266.687 96.912,266.970 103.115,267.179 108.594 C 267.670 121.484,267.619 121.282,271.509 125.538 C 272.959 127.125,273.780 127.736,274.286 127.604 C 275.501 127.286,279.998 128.948,280.220 129.797 C 280.385 130.427,280.653 130.509,281.907 130.311 C 283.032 130.133,284.527 130.440,287.985 131.559 L 292.572 133.042 289.941 135.247 C 287.879 136.974,287.241 137.330,286.994 136.890 C 286.400 135.828,285.428 136.334,282.260 139.355 C 278.145 143.279,272.756 147.904,265.268 153.937 C 261.957 156.606,257.771 160.107,255.965 161.719 C 251.038 166.117,247.692 168.663,245.410 169.749 C 243.294 170.757,242.919 171.414,243.964 172.281 C 244.461 172.693,244.808 172.669,245.910 172.143 C 247.575 171.349,248.438 171.642,248.438 173.002 C 248.438 175.459,250.761 176.547,253.125 175.195 C 254.780 174.249,254.955 174.551,253.396 175.661 C 251.828 176.776,251.534 178.195,252.820 178.440 C 253.441 178.559,256.928 176.122,262.046 171.996 C 263.673 170.684,264.342 170.368,265.089 170.555 C 267.957 171.275,273.434 166.810,281.055 157.537 C 282.988 155.185,285.186 152.779,285.938 152.190 C 287.133 151.255,290.689 147.940,299.902 139.170 C 301.245 137.892,302.344 136.621,302.344 136.346 C 302.344 135.956,302.923 135.921,304.980 136.185 C 310.946 136.951,314.628 136.599,319.531 134.795 C 326.032 132.403,329.125 131.845,331.928 132.559 C 334.958 133.331,336.590 132.152,334.393 130.780 C 333.290 130.091,336.713 128.414,338.533 128.751 C 339.237 128.881,340.154 128.761,340.682 128.470 C 341.569 127.981,345.298 127.338,347.225 127.342 C 348.584 127.345,349.109 126.750,349.777 124.450 C 350.105 123.324,350.728 122.081,351.163 121.688 C 351.597 121.295,351.953 120.773,351.953 120.530 C 351.953 120.286,352.303 119.401,352.730 118.563 C 353.158 117.725,353.661 116.237,353.849 115.258 C 354.037 114.278,354.818 111.350,355.584 108.750 C 357.589 101.944,358.086 99.336,357.489 98.739 C 356.724 97.974,355.737 98.877,355.278 100.762 L 354.873 102.428 354.379 99.749 C 353.946 97.401,353.981 96.425,354.665 91.841 C 355.518 86.127,355.641 85.723,355.993 87.486 C 356.182 88.431,356.431 88.672,357.217 88.672 C 358.921 88.672,358.632 85.883,356.730 83.982 C 355.641 82.893,355.352 82.358,355.620 81.932 C 356.403 80.691,355.611 80.078,353.224 80.078 C 351.408 80.078,350.816 79.916,350.258 79.264 C 349.875 78.817,349.314 78.545,349.012 78.661 C 348.710 78.777,347.944 78.352,347.309 77.717 C 346.059 76.467,345.349 76.291,344.596 77.044 C 343.824 77.817,339.487 77.671,338.888 76.852 C 338.475 76.288,337.733 76.179,334.334 76.184 C 332.101 76.188,327.373 75.925,323.828 75.600 C 316.849 74.961,314.411 74.927,310.646 75.416 M352.884 87.892 C 352.537 90.061,351.954 90.257,351.949 88.207 C 351.946 87.281,351.850 85.820,351.734 84.961 L 351.524 83.398 352.330 84.856 C 352.946 85.969,353.077 86.687,352.884 87.892 M76.358 84.935 C 75.457 85.835,75.049 85.939,72.346 85.948 C 67.735 85.963,67.119 86.385,62.381 92.773 C 50.688 108.538,45.216 125.326,51.747 125.399 C 52.246 125.405,52.767 125.874,53.157 126.669 C 54.090 128.572,56.077 129.751,58.199 129.660 C 60.215 129.574,61.253 129.794,64.960 131.096 C 66.420 131.608,69.145 132.207,71.015 132.426 C 72.884 132.645,75.265 132.953,76.305 133.111 L 78.195 133.398 76.370 134.765 C 75.366 135.517,72.859 138.303,70.799 140.958 C 67.551 145.144,66.629 146.059,63.843 147.856 C 60.490 150.019,59.008 151.720,54.489 158.594 C 53.430 160.205,51.846 162.410,50.969 163.493 C 50.092 164.577,48.952 166.511,48.435 167.790 C 47.918 169.070,46.751 171.523,45.842 173.242 C 41.086 182.232,38.298 191.581,38.879 196.590 C 39.523 202.137,43.296 209.542,45.121 208.842 C 46.250 208.408,46.147 207.498,44.764 205.686 C 43.513 204.048,42.188 200.756,42.188 199.289 C 42.187 198.975,42.594 199.315,43.090 200.043 C 43.587 200.771,44.646 202.274,45.445 203.382 C 46.324 204.602,46.718 205.456,46.443 205.548 C 45.683 205.801,46.438 207.338,47.777 208.262 C 48.463 208.734,49.974 210.078,51.136 211.248 C 54.775 214.910,58.815 216.083,62.695 214.605 C 65.379 213.582,69.082 213.754,70.948 214.989 C 71.895 215.615,72.794 215.938,73.181 215.790 C 74.312 215.356,73.901 214.122,72.266 213.040 C 71.406 212.471,70.703 211.985,70.703 211.960 C 70.703 211.586,80.502 212.022,80.647 212.402 C 81.224 213.905,86.597 211.248,90.600 207.479 C 91.366 206.759,92.519 205.906,93.164 205.585 C 93.970 205.183,93.457 205.843,91.519 207.699 C 88.811 210.293,87.176 211.391,80.297 215.237 C 77.059 217.048,76.128 218.409,77.948 218.669 C 78.835 218.796,86.788 214.548,89.789 212.345 C 90.844 211.571,91.959 210.938,92.268 210.938 C 93.061 210.938,98.807 204.933,100.570 202.263 C 101.859 200.309,102.112 200.104,102.611 200.602 C 103.655 201.646,104.519 200.933,105.603 198.137 C 106.581 195.615,105.762 191.308,103.503 187.086 C 103.242 186.597,103.358 185.899,103.902 184.701 C 104.438 183.520,104.673 182.143,104.679 180.150 L 104.688 177.292 103.613 177.415 C 102.573 177.535,102.535 177.622,102.423 180.188 C 102.296 183.111,101.563 183.491,101.563 180.634 C 101.563 177.734,99.563 172.721,95.265 164.844 C 94.034 162.588,92.913 160.281,92.773 159.718 C 92.354 158.031,89.706 155.711,88.534 156.005 C 86.250 156.579,85.902 158.161,87.880 158.980 C 88.989 159.439,90.625 162.488,90.625 164.095 C 90.625 164.486,90.876 164.946,91.184 165.118 C 92.817 166.032,95.307 175.872,94.710 179.054 C 94.560 179.853,94.630 180.484,94.887 180.642 C 95.123 180.788,95.313 182.027,95.313 183.421 C 95.313 187.372,87.184 200.314,85.028 199.796 C 84.437 199.653,83.566 200.060,82.155 201.137 C 75.433 206.269,74.272 206.723,70.464 205.709 C 66.294 204.599,57.890 198.943,56.986 196.639 C 55.793 193.598,58.093 180.859,59.835 180.859 C 60.240 180.859,60.673 180.593,60.798 180.268 C 61.133 179.397,60.215 178.516,58.974 178.516 L 57.888 178.516 59.041 176.387 C 59.836 174.918,60.371 174.326,60.766 174.477 C 62.047 174.969,62.879 173.482,61.882 172.484 C 60.985 171.587,66.853 160.731,67.925 161.305 C 68.933 161.844,69.299 161.421,70.778 158.008 C 73.161 152.506,82.136 140.648,87.932 135.343 C 91.144 132.402,93.553 130.544,94.336 130.403 C 95.494 130.195,95.413 128.362,94.238 128.195 C 93.136 128.039,93.107 128.185,94.727 125.727 C 95.479 124.585,96.094 123.255,96.094 122.772 C 96.094 122.265,96.508 121.622,97.070 121.253 C 98.073 120.596,98.367 119.385,97.634 118.932 C 96.695 118.351,95.300 119.271,93.503 121.658 C 92.124 123.489,91.348 124.188,90.678 124.201 C 90.070 124.213,88.724 125.221,86.744 127.148 C 83.746 130.065,82.813 130.619,82.813 129.480 C 82.813 129.151,82.550 128.781,82.229 128.658 C 81.794 128.491,81.966 128.218,82.910 127.582 C 84.606 126.440,84.707 125.583,83.238 124.823 C 82.070 124.219,82.013 124.236,79.478 125.972 C 76.686 127.884,75.391 128.203,75.391 126.980 C 75.391 126.428,74.609 125.850,72.464 124.819 C 70.485 123.867,69.364 123.068,69.001 122.350 C 66.955 118.301,66.349 112.442,67.871 111.428 C 68.354 111.106,68.750 110.475,68.750 110.026 C 68.750 109.576,69.233 108.819,69.824 108.343 C 70.748 107.598,70.833 107.368,70.430 106.705 C 69.355 104.935,79.251 92.188,81.700 92.188 C 82.745 92.188,83.056 91.075,82.354 89.851 C 81.793 88.873,81.805 88.819,82.580 88.843 C 83.750 88.878,83.884 87.357,82.778 86.582 C 81.992 86.032,81.786 86.047,80.401 86.753 C 78.658 87.643,76.792 87.251,78.477 86.349 C 79.048 86.043,79.303 85.593,79.223 85.032 C 79.044 83.773,77.569 83.723,76.358 84.935 M72.656 88.469 C 72.656 88.572,71.968 89.007,71.127 89.436 C 70.163 89.928,68.547 91.531,66.761 93.768 C 64.961 96.023,63.361 97.608,62.381 98.108 L 60.836 98.896 61.740 97.592 C 62.238 96.876,63.285 95.498,64.068 94.531 C 64.850 93.564,66.065 91.927,66.767 90.892 C 67.468 89.857,68.421 88.857,68.884 88.670 C 69.782 88.308,72.656 88.155,72.656 88.469 M274.252 89.494 C 273.908 90.354,273.876 90.364,273.853 89.616 C 273.839 89.168,273.945 88.685,274.089 88.542 C 274.555 88.075,274.634 88.538,274.252 89.494 M164.382 90.038 C 162.732 90.316,160.007 90.986,158.327 91.526 C 154.978 92.604,143.664 93.386,143.162 92.575 C 142.865 92.094,140.524 92.063,140.020 92.534 C 139.267 93.235,135.658 94.038,134.975 93.656 C 134.018 93.121,132.493 94.684,131.979 96.726 C 131.752 97.628,131.275 98.472,130.920 98.601 C 128.268 99.564,128.184 99.563,127.519 98.548 C 126.956 97.689,126.673 97.591,125.288 97.777 C 120.471 98.423,119.141 102.838,119.141 118.176 L 119.141 123.809 118.057 123.592 C 117.256 123.432,116.773 123.598,116.202 124.230 C 115.146 125.400,115.108 156.651,116.148 169.531 C 116.644 175.676,116.817 183.562,116.893 203.418 C 116.948 217.651,117.126 229.297,117.290 229.297 C 117.675 229.297,117.321 231.650,116.203 236.523 C 115.711 238.672,115.192 241.265,115.052 242.285 C 114.911 243.306,114.608 244.141,114.378 244.141 C 114.103 244.141,114.055 244.708,114.238 245.801 C 114.392 246.714,114.645 248.397,114.802 249.541 C 115.087 251.622,115.614 252.327,116.895 252.338 C 117.271 252.341,117.578 252.586,117.578 252.882 C 117.578 253.671,118.554 254.348,119.286 254.067 C 119.726 253.898,119.922 253.343,119.922 252.263 C 119.922 250.771,121.608 248.438,122.688 248.438 C 123.303 248.438,124.172 246.251,124.409 244.104 C 124.985 238.907,125.022 238.757,125.773 238.561 C 126.815 238.288,127.602 230.686,128.426 212.924 C 128.622 208.690,128.768 207.490,128.905 208.984 C 129.086 210.963,129.179 211.133,130.078 211.133 L 131.055 211.133 130.903 197.070 C 130.820 189.336,130.732 181.406,130.708 179.449 L 130.664 175.890 131.752 176.269 C 132.751 176.618,143.569 176.106,147.754 175.513 C 149.340 175.288,149.670 175.776,148.633 176.814 C 148.282 177.164,148.047 178.119,148.047 179.190 C 148.047 180.900,148.015 180.951,147.333 180.334 C 146.399 179.490,145.080 179.508,144.722 180.371 C 143.677 182.897,144.600 196.265,146.091 200.187 C 146.625 201.592,146.637 201.574,145.319 201.310 C 142.645 200.775,143.466 203.008,146.425 204.317 C 147.409 204.752,148.350 205.321,148.516 205.582 C 148.947 206.260,148.897 207.422,148.438 207.422 C 148.223 207.422,148.047 207.089,148.047 206.682 C 148.047 206.276,147.761 205.833,147.411 205.699 C 146.692 205.423,145.703 206.090,145.703 206.852 C 145.703 207.131,145.396 207.910,145.020 208.585 C 143.302 211.665,154.361 215.424,162.633 214.572 C 163.926 214.439,166.075 214.661,168.630 215.190 C 179.090 217.359,199.644 212.804,195.293 209.281 C 194.348 208.515,193.270 208.405,192.219 208.967 C 191.622 209.287,191.547 209.204,191.704 208.386 C 192.006 206.805,190.712 206.662,189.495 208.143 C 188.935 208.825,188.317 209.380,188.123 209.379 C 187.929 209.377,188.082 209.030,188.463 208.608 C 189.870 207.053,188.351 206.070,186.328 207.227 C 185.200 207.871,184.766 207.945,184.766 207.490 C 184.766 207.313,185.864 206.673,187.207 206.068 C 189.853 204.875,190.689 204.137,190.361 203.282 C 189.985 202.304,188.688 202.689,182.887 205.501 L 177.181 208.267 172.282 208.450 C 168.188 208.603,166.676 208.485,163.086 207.734 L 158.789 206.836 158.594 203.125 C 158.331 198.129,160.061 174.591,160.743 173.895 C 160.812 173.825,164.883 174.056,169.790 174.408 C 184.254 175.447,197.967 175.663,198.276 174.858 C 198.574 174.081,197.812 173.052,196.925 173.034 C 196.575 173.028,195.938 172.751,195.508 172.420 C 194.768 171.850,194.799 171.830,196.094 172.027 C 196.846 172.142,198.976 172.344,200.827 172.477 L 204.193 172.718 204.651 178.058 C 204.902 180.995,205.170 191.309,205.245 200.977 C 205.500 233.584,208.798 257.713,213.415 260.738 C 215.042 261.804,216.831 261.381,217.936 259.668 C 218.462 258.852,219.198 258.203,219.597 258.203 C 220.762 258.203,220.754 254.865,219.532 230.664 C 219.109 222.285,218.496 208.926,218.171 200.977 C 216.887 169.659,216.717 167.578,215.433 167.578 C 214.908 167.578,214.739 166.584,214.037 159.396 C 213.637 155.297,213.657 154.883,214.280 154.427 C 214.905 153.971,214.924 153.568,214.512 149.501 C 213.815 142.632,213.931 139.264,214.959 136.447 L 215.843 134.027 216.710 136.447 C 217.434 138.464,217.578 139.689,217.578 143.806 C 217.578 148.007,217.673 148.781,218.214 148.988 C 220.830 149.992,220.675 139.655,217.974 133.008 C 215.971 128.076,216.073 128.843,216.018 118.359 C 215.964 108.214,214.763 102.302,212.421 100.655 C 211.927 100.308,210.996 99.571,210.352 99.017 L 209.180 98.010 210.352 98.497 C 210.996 98.765,212.889 99.758,214.559 100.703 C 219.135 103.294,220.899 101.753,216.451 99.051 C 211.108 95.805,207.859 94.920,199.219 94.356 C 196.963 94.208,193.359 93.820,191.211 93.493 C 189.063 93.166,185.172 92.849,182.565 92.790 C 179.958 92.730,177.596 92.539,177.315 92.365 C 177.034 92.192,175.446 91.971,173.785 91.875 C 171.415 91.738,170.810 91.583,170.973 91.158 C 171.612 89.492,169.630 89.155,164.382 90.038 M159.733 95.063 C 159.403 95.348,154.566 95.695,154.847 95.413 C 155.008 95.253,156.136 95.028,157.355 94.914 C 159.472 94.716,160.090 94.754,159.733 95.063 M146.429 96.490 C 145.264 97.103,143.006 97.232,143.220 96.674 C 143.427 96.135,145.440 95.742,146.429 96.047 C 146.877 96.184,146.877 96.254,146.429 96.490 M189.258 96.131 C 192.695 96.363,196.035 96.581,196.680 96.616 C 197.755 96.674,200.781 99.780,200.781 100.826 C 200.781 102.031,198.488 101.220,196.670 99.372 C 194.360 97.024,188.210 95.410,187.284 96.909 C 187.138 97.144,186.648 97.219,186.186 97.076 C 185.727 96.935,183.594 96.590,181.445 96.310 L 177.539 95.801 180.273 95.755 C 181.777 95.730,185.820 95.900,189.258 96.131 M140.055 97.240 C 139.914 97.469,139.500 97.651,139.137 97.644 C 138.557 97.633,138.568 97.562,139.229 97.062 C 140.032 96.455,140.481 96.551,140.055 97.240 M206.836 99.728 C 208.391 100.606,208.399 100.621,208.528 103.261 L 208.658 105.913 207.121 104.896 C 206.015 104.164,205.450 103.433,205.107 102.286 C 204.806 101.280,204.347 100.619,203.862 100.492 C 203.226 100.326,201.953 98.593,201.953 97.895 C 201.953 97.579,205.164 98.784,206.836 99.728 M185.449 99.605 C 186.147 100.031,186.719 100.569,186.719 100.801 C 186.719 101.852,188.867 100.975,188.994 99.873 C 189.123 98.743,190.127 98.641,193.045 99.462 C 195.434 100.134,204.455 113.959,203.977 116.216 C 203.735 117.360,203.726 117.352,203.525 115.820 C 203.348 114.467,203.177 114.241,202.246 114.134 C 200.850 113.974,200.847 113.856,202.539 124.945 C 203.711 132.622,203.906 134.888,203.906 140.783 L 203.906 147.662 201.074 147.414 C 193.929 146.789,193.300 146.586,198.340 146.534 C 203.107 146.485,203.125 146.481,203.125 145.553 C 203.125 144.413,202.321 144.153,198.775 144.146 C 196.417 144.141,196.123 144.049,195.517 143.124 L 194.851 142.107 188.613 142.377 C 185.181 142.525,181.815 142.807,181.131 143.003 C 178.960 143.625,178.773 143.446,179.973 141.895 C 184.098 136.561,186.827 127.394,186.689 119.336 C 186.659 117.617,186.761 114.798,186.915 113.072 C 187.150 110.441,187.095 109.849,186.572 109.415 C 185.756 108.738,184.766 109.138,184.766 110.144 C 184.766 110.580,184.602 110.938,184.401 110.938 C 184.201 110.938,183.931 111.270,183.802 111.677 C 183.673 112.083,183.265 112.495,182.894 112.592 C 181.816 112.874,180.154 117.494,179.667 121.561 C 179.211 125.363,177.729 130.586,175.698 135.547 C 174.210 139.180,174.103 140.385,175.253 140.549 C 176.224 140.688,176.735 142.095,176.095 142.866 C 175.663 143.386,165.259 143.527,161.067 143.070 C 159.349 142.883,157.813 140.593,157.813 138.220 L 157.813 137.326 158.435 138.215 C 158.943 138.940,159.357 139.082,160.681 138.986 L 162.305 138.867 162.424 137.004 C 162.664 133.264,155.123 112.996,152.966 111.583 C 151.741 110.780,150.826 110.758,150.532 111.523 C 150.408 111.846,149.886 112.109,149.372 112.109 C 147.960 112.109,148.182 113.419,149.957 115.555 C 152.079 118.108,152.429 119.345,150.923 118.967 C 149.573 118.628,149.870 118.981,148.690 116.309 C 147.240 113.022,144.888 113.187,146.263 116.478 C 146.695 117.513,146.750 118.213,146.476 119.171 C 146.024 120.745,146.498 122.713,148.086 125.858 C 148.709 127.093,149.219 128.503,149.219 128.993 C 149.219 131.210,150.720 136.955,152.030 139.753 C 152.948 141.713,153.911 142.334,155.492 141.987 C 156.385 141.791,156.641 141.872,156.641 142.352 C 156.641 143.094,140.727 143.285,138.834 142.565 C 137.955 142.231,137.627 142.299,136.928 142.956 C 134.922 144.840,131.238 143.562,131.459 141.059 C 131.546 140.068,131.706 134.998,131.815 129.792 L 132.011 120.326 135.379 113.191 C 137.231 109.266,139.017 105.382,139.349 104.559 C 140.183 102.494,140.439 102.438,152.252 101.755 C 157.996 101.423,165.420 100.893,168.750 100.577 C 176.824 99.811,180.704 99.814,181.001 100.586 C 181.293 101.349,183.161 101.345,183.454 100.581 C 183.579 100.256,183.464 99.729,183.199 99.409 C 182.466 98.526,183.881 98.649,185.449 99.605 M344.922 100.764 C 344.922 102.454,343.829 103.002,341.175 102.645 C 340.010 102.489,340.150 102.380,342.383 101.706 C 343.258 101.442,343.586 101.083,343.678 100.286 C 343.880 98.545,344.922 98.945,344.922 100.764 M350.276 103.613 C 350.183 104.097,350.106 103.701,350.106 102.734 C 350.106 101.768,350.183 101.372,350.276 101.855 C 350.369 102.339,350.369 103.130,350.276 103.613 M61.204 101.855 C 59.913 104.071,56.694 111.391,56.060 113.549 C 55.438 115.669,55.109 116.276,54.716 116.033 C 53.547 115.311,55.354 108.330,56.762 108.130 C 57.634 108.005,58.276 106.250,57.449 106.250 C 56.495 106.250,57.155 105.039,59.027 103.357 C 60.915 101.659,61.589 101.194,61.204 101.855 M305.176 102.229 C 304.692 102.322,303.901 102.322,303.418 102.229 C 302.935 102.136,303.330 102.060,304.297 102.060 C 305.264 102.060,305.659 102.136,305.176 102.229 M135.221 107.910 C 133.990 110.542,132.780 113.135,132.533 113.672 C 132.163 114.476,132.079 113.851,132.058 110.120 L 132.031 105.591 134.668 104.362 C 136.118 103.685,137.340 103.131,137.383 103.129 C 137.426 103.127,136.453 105.278,135.221 107.910 M212.066 105.660 C 212.990 107.625,213.235 111.508,212.417 111.235 C 211.756 111.015,210.468 103.906,211.090 103.906 C 211.174 103.906,211.613 104.695,212.066 105.660 M203.042 107.617 C 203.512 108.584,203.826 109.375,203.739 109.375 C 203.653 109.375,203.140 108.584,202.600 107.617 C 202.060 106.650,201.746 105.859,201.903 105.859 C 202.060 105.859,202.572 106.650,203.042 107.617 M123.999 108.496 C 123.960 111.376,123.397 115.503,122.796 117.308 C 122.265 118.904,122.256 118.856,122.424 115.430 C 122.708 109.654,124.063 103.688,123.999 108.496 M208.927 108.429 C 209.084 108.560,210.160 114.047,210.147 114.648 C 210.142 114.863,209.847 114.424,209.491 113.672 C 209.135 112.920,208.344 111.289,207.732 110.048 L 206.619 107.792 207.704 108.053 C 208.301 108.196,208.851 108.365,208.927 108.429 M129.615 117.380 C 129.536 117.996,129.329 118.237,129.036 118.053 C 128.689 117.836,128.689 117.303,129.036 115.817 C 129.515 113.771,129.933 114.899,129.615 117.380 M60.290 118.848 C 59.958 119.976,59.657 120.930,59.622 120.969 C 59.587 121.008,59.145 120.728,58.639 120.347 C 57.650 119.601,57.998 117.969,59.146 117.969 C 59.434 117.969,59.889 117.705,60.156 117.383 C 60.919 116.463,60.937 116.656,60.290 118.848 M275.000 118.327 C 275.000 118.740,275.100 119.399,275.222 119.792 C 275.345 120.186,275.175 120.068,274.846 119.531 C 274.150 118.398,274.051 117.578,274.609 117.578 C 274.824 117.578,275.000 117.915,275.000 118.327 M66.145 122.449 C 66.184 122.903,65.931 123.275,65.527 123.356 C 64.924 123.479,64.848 123.161,64.879 120.634 L 64.914 117.773 65.497 119.727 C 65.817 120.801,66.109 122.026,66.145 122.449 M209.342 125.307 C 209.957 126.866,210.151 128.207,210.133 130.776 L 210.111 134.180 208.706 129.297 C 207.374 124.669,206.957 121.825,207.364 120.152 C 207.484 119.658,207.712 120.054,208.037 121.324 C 208.307 122.379,208.894 124.172,209.342 125.307 M344.656 121.387 C 344.750 121.548,344.222 122.075,343.481 122.558 L 342.135 123.436 342.969 122.265 C 343.798 121.102,344.328 120.825,344.656 121.387 M279.838 122.559 C 279.970 122.935,280.190 123.488,280.326 123.789 C 280.526 124.231,280.254 124.284,278.898 124.067 C 276.553 123.692,276.335 123.453,277.603 122.641 C 279.025 121.731,279.539 121.712,279.838 122.559 M118.487 159.766 C 117.949 161.608,117.676 155.629,117.627 140.913 C 117.590 130.031,117.696 126.362,118.066 125.770 C 118.618 124.886,119.026 157.916,118.487 159.766 M325.759 126.356 C 325.078 126.726,324.208 126.816,323.025 126.637 L 321.289 126.375 323.242 126.139 C 326.690 125.724,326.889 125.741,325.759 126.356 M294.727 129.560 C 299.744 130.332,299.542 130.245,298.635 131.248 C 297.796 132.175,296.939 132.261,296.627 131.450 C 296.483 131.074,295.900 130.878,294.979 130.895 C 294.196 130.910,292.236 130.480,290.625 129.939 C 286.933 128.700,288.310 128.572,294.727 129.560 M313.534 132.107 L 318.821 132.585 316.741 133.292 C 312.302 134.801,305.715 134.676,305.089 133.072 C 304.650 131.946,305.670 131.126,307.151 131.416 C 307.754 131.534,310.626 131.845,313.534 132.107 M82.712 136.025 C 78.933 140.990,77.625 142.281,76.548 142.115 C 75.672 141.979,75.986 141.556,80.051 137.395 C 85.068 132.258,85.909 131.826,82.712 136.025 M159.808 134.498 C 160.180 135.889,159.929 135.825,159.157 134.332 C 158.703 133.453,158.667 133.163,159.028 133.283 C 159.303 133.374,159.654 133.921,159.808 134.498 M155.062 138.965 C 155.071 139.233,154.920 139.453,154.726 139.453 C 154.329 139.453,153.507 137.327,153.532 136.367 C 153.550 135.671,155.036 138.193,155.062 138.965 M127.241 142.285 C 127.162 143.413,127.098 142.490,127.098 140.234 C 127.098 137.979,127.162 137.056,127.241 138.184 C 127.320 139.312,127.320 141.157,127.241 142.285 M289.634 139.149 C 288.568 140.271,287.569 141.288,287.415 141.410 C 287.261 141.532,284.888 143.825,282.142 146.505 C 277.686 150.853,275.937 152.385,270.117 157.039 C 269.179 157.790,269.413 157.478,270.703 156.260 C 271.885 155.144,274.170 152.968,275.781 151.424 C 277.393 149.880,280.645 146.862,283.008 144.718 C 285.371 142.574,288.184 139.988,289.258 138.970 C 291.850 136.513,292.049 136.608,289.634 139.149 M209.049 147.688 C 208.866 151.545,208.734 150.973,208.502 145.313 C 208.323 140.961,208.349 140.674,208.741 142.676 C 208.982 143.911,209.121 146.166,209.049 147.688 M299.068 144.322 C 298.170 145.693,298.286 146.758,299.414 147.497 C 300.170 147.992,300.391 148.469,300.391 149.613 C 300.391 151.117,301.017 151.747,302.098 151.332 C 302.393 151.219,302.739 151.401,302.867 151.737 C 303.074 152.273,302.645 152.316,299.270 152.095 C 296.055 151.884,295.402 151.939,295.212 152.433 C 294.968 153.067,296.244 155.469,296.824 155.469 C 297.017 155.469,297.259 155.792,297.363 156.188 C 297.525 156.809,298.108 156.939,301.607 157.139 C 308.091 157.509,308.050 157.421,303.602 161.495 C 299.737 165.035,291.087 173.143,284.404 179.492 C 282.369 181.426,279.112 184.519,277.168 186.366 C 269.835 193.333,267.326 195.497,268.175 194.124 C 268.485 193.622,267.670 192.578,266.968 192.578 C 266.685 192.578,264.796 194.772,262.770 197.453 C 257.957 203.822,250.151 209.845,245.606 210.698 C 244.195 210.963,243.188 211.648,242.888 212.546 C 242.778 212.877,242.523 212.863,241.929 212.492 C 240.627 211.679,239.844 212.255,239.844 214.024 C 239.844 215.912,240.629 216.300,242.698 215.436 C 244.550 214.662,245.331 214.679,244.203 215.469 C 240.414 218.123,245.260 221.325,251.057 219.998 C 253.049 219.542,262.259 214.115,264.557 212.043 C 265.467 211.223,267.002 209.974,267.969 209.267 C 268.936 208.561,269.900 207.593,270.112 207.116 C 270.324 206.640,270.626 206.250,270.782 206.250 C 270.939 206.250,271.644 205.744,272.350 205.125 C 273.055 204.506,275.303 202.892,277.344 201.537 C 281.941 198.486,288.651 191.855,295.334 183.760 C 299.868 178.267,310.294 165.423,310.874 164.613 C 311.016 164.415,312.205 163.336,313.516 162.216 L 315.900 160.179 319.434 161.739 C 322.833 163.238,328.712 164.818,330.961 164.835 C 331.553 164.840,333.751 165.582,335.843 166.485 L 339.648 168.126 345.313 168.155 C 353.408 168.198,353.225 168.111,359.990 175.122 C 366.540 181.912,365.941 179.912,365.045 191.992 C 364.014 205.888,363.868 206.682,361.547 211.133 C 356.313 221.169,353.453 225.489,347.656 232.114 C 339.180 241.801,333.022 248.952,330.401 252.150 C 328.753 254.161,326.699 256.443,325.839 257.221 C 320.399 262.135,320.798 266.795,326.489 264.811 C 327.439 264.480,327.877 264.509,328.498 264.944 C 329.234 265.459,329.081 265.538,326.463 265.999 C 324.906 266.273,323.457 266.628,323.242 266.788 C 322.353 267.451,319.106 267.574,318.198 266.979 C 316.166 265.647,315.246 267.759,317.219 269.226 C 318.159 269.925,318.504 269.946,322.297 269.534 C 331.979 268.485,334.914 267.444,339.913 263.287 C 341.983 261.565,343.802 260.156,343.954 260.156 C 345.560 260.156,354.607 250.502,356.498 246.772 C 357.057 245.668,357.921 244.141,358.419 243.379 C 358.917 242.616,359.634 241.204,360.014 240.241 C 360.394 239.279,361.642 236.906,362.789 234.968 C 363.935 233.031,364.971 231.006,365.090 230.469 C 365.210 229.932,365.982 228.086,366.808 226.367 C 367.633 224.648,369.374 220.957,370.676 218.164 C 371.978 215.371,373.044 213.385,373.045 213.750 C 373.046 214.115,373.317 214.565,373.646 214.750 C 375.105 215.566,367.908 234.402,363.806 240.504 C 361.790 243.503,361.649 243.848,362.212 244.411 C 364.988 247.186,372.927 229.900,377.912 210.227 C 379.950 202.184,380.688 192.507,379.680 187.052 C 379.325 185.131,379.388 184.617,380.266 182.284 C 382.038 177.576,381.172 174.609,378.026 174.609 C 376.500 174.609,373.633 169.576,373.633 166.899 C 373.633 165.655,373.487 165.482,371.905 164.860 C 370.937 164.479,370.048 163.829,369.882 163.380 C 369.485 162.306,368.892 161.991,368.102 162.433 C 367.623 162.701,366.603 162.391,364.290 161.274 L 361.133 159.749 359.880 156.779 C 358.423 153.324,357.650 152.344,356.385 152.344 C 355.417 152.344,355.024 153.976,355.867 154.497 C 356.086 154.632,356.700 155.601,357.232 156.651 L 358.199 158.559 355.564 157.375 C 353.519 156.455,352.537 156.229,351.172 156.360 C 348.628 156.606,339.910 154.445,338.830 153.301 C 337.953 152.372,334.912 151.555,329.492 150.791 C 327.773 150.548,324.258 149.585,321.680 148.651 C 318.876 147.635,315.893 146.839,314.258 146.671 C 312.754 146.517,309.150 145.710,306.250 144.879 C 300.011 143.091,299.881 143.081,299.068 144.322 M73.434 146.917 C 71.008 149.832,66.917 153.246,68.118 151.354 C 70.596 147.449,73.406 144.788,75.307 144.546 C 75.369 144.538,74.526 145.605,73.434 146.917 M135.645 146.005 C 139.058 146.198,140.208 147.262,137.012 147.269 C 136.099 147.271,134.429 147.383,133.301 147.519 L 131.250 147.765 131.250 146.497 C 131.250 145.435,131.361 145.278,131.934 145.531 C 132.310 145.697,133.979 145.910,135.645 146.005 M195.117 149.224 C 197.910 149.448,201.025 149.730,202.038 149.851 L 203.881 150.070 203.991 160.237 L 204.102 170.404 201.798 170.163 C 200.531 170.030,198.905 169.922,198.185 169.922 C 197.160 169.922,196.875 169.761,196.875 169.182 C 196.875 168.250,195.954 167.886,194.356 168.186 C 193.482 168.350,192.963 168.237,192.603 167.803 C 192.168 167.280,190.904 167.188,184.155 167.188 C 178.821 167.188,176.131 167.047,175.953 166.759 C 175.808 166.524,175.166 166.408,174.527 166.502 C 173.452 166.659,173.380 166.595,173.569 165.650 C 175.229 157.353,174.383 150.598,171.878 152.146 C 171.649 152.288,171.484 151.925,171.484 151.274 L 171.484 150.157 178.027 149.677 C 181.626 149.413,185.186 149.047,185.938 148.864 C 186.689 148.680,187.920 148.594,188.672 148.673 C 189.424 148.752,192.324 149.000,195.117 149.224 M303.686 149.959 C 303.805 150.151,303.639 150.410,303.318 150.533 C 302.964 150.669,302.734 150.532,302.734 150.183 C 302.734 149.551,303.345 149.408,303.686 149.959 M132.250 150.429 C 132.396 150.665,133.066 151.098,133.738 151.390 C 134.503 151.723,134.698 151.928,134.258 151.938 C 133.871 151.946,133.036 152.221,132.402 152.549 L 131.250 153.145 131.250 151.573 C 131.250 150.055,131.701 149.540,132.250 150.429 M164.063 150.935 C 164.063 151.449,163.799 151.971,163.477 152.094 C 162.610 152.427,162.765 153.500,163.797 154.312 C 165.271 155.471,166.082 158.935,165.941 163.477 L 165.820 167.383 153.125 166.916 C 146.143 166.659,139.199 166.291,137.695 166.098 C 134.477 165.685,133.984 165.802,133.984 166.980 C 133.984 167.956,136.712 168.750,140.068 168.750 C 141.516 168.750,141.699 168.845,141.525 169.511 C 141.342 170.209,140.897 170.281,136.092 170.390 L 130.858 170.508 130.864 163.672 C 130.871 155.985,131.014 154.928,131.977 155.431 C 132.826 155.874,136.955 155.287,141.474 154.081 C 149.290 151.995,153.095 151.163,157.227 150.636 C 163.723 149.807,164.063 149.822,164.063 150.935 M314.063 151.563 C 314.539 151.870,314.488 151.942,313.793 151.947 C 313.322 151.950,312.828 151.777,312.695 151.563 C 312.388 151.065,313.293 151.065,314.063 151.563 M266.016 157.418 C 262.900 160.419,259.956 162.985,259.473 163.120 C 258.968 163.261,258.594 163.673,258.594 164.086 C 258.594 166.408,254.837 169.159,254.142 167.346 C 253.979 166.921,254.542 166.147,255.917 164.905 C 258.501 162.572,271.227 152.008,271.484 151.982 C 271.592 151.971,269.131 154.418,266.016 157.418 M63.003 161.656 C 61.096 164.655,59.766 166.022,59.766 164.985 C 59.766 163.972,64.688 157.526,65.126 157.964 C 65.202 158.040,64.246 159.701,63.003 161.656 M123.725 163.574 C 123.644 164.595,123.578 163.760,123.578 161.719 C 123.578 159.678,123.644 158.843,123.725 159.863 C 123.805 160.884,123.805 162.554,123.725 163.574 M312.500 158.943 C 312.500 159.220,309.489 162.158,307.839 163.490 C 306.916 164.236,307.911 162.691,310.540 159.295 C 311.261 158.364,312.500 158.142,312.500 158.943 M358.199 164.411 C 358.734 164.560,358.998 164.789,358.785 164.920 C 358.572 165.051,357.871 164.926,357.227 164.642 C 355.985 164.095,356.567 163.957,358.199 164.411 M123.242 172.582 C 123.089 175.442,122.881 177.699,122.780 177.597 C 122.678 177.496,122.734 174.716,122.904 171.421 C 123.074 168.126,123.282 165.869,123.366 166.406 C 123.450 166.943,123.394 169.723,123.242 172.582 M372.247 170.838 L 373.537 173.121 371.339 171.662 C 369.329 170.327,369.141 170.078,369.141 168.760 C 369.141 166.070,369.804 166.514,372.247 170.838 M342.552 171.973 C 340.131 174.312,333.131 181.600,329.139 185.938 C 327.656 187.549,322.460 192.910,317.593 197.852 C 312.725 202.793,307.083 208.682,305.055 210.938 C 303.027 213.193,301.272 215.127,301.157 215.234 C 301.041 215.342,300.125 216.486,299.122 217.777 C 298.118 219.069,296.745 220.452,296.070 220.850 C 295.043 221.457,294.878 221.751,295.057 222.649 C 295.286 223.795,295.703 223.417,283.641 233.040 C 281.163 235.017,273.758 239.453,272.936 239.453 C 272.805 239.453,272.645 238.618,272.580 237.598 C 272.361 234.183,270.570 234.877,270.313 238.477 C 270.120 241.174,270.103 241.209,269.060 241.101 C 268.296 241.022,267.829 241.256,267.377 241.947 C 267.032 242.473,266.014 243.219,265.113 243.606 C 264.213 243.992,263.318 244.382,263.125 244.472 C 262.932 244.562,263.063 244.221,263.418 243.715 C 265.328 240.988,263.372 240.225,261.095 242.809 C 258.322 245.956,259.076 248.197,262.907 248.197 C 264.109 248.197,264.844 248.368,264.844 248.647 C 264.844 248.895,265.175 249.398,265.580 249.764 C 265.985 250.131,266.423 250.961,266.552 251.609 C 266.755 252.621,266.940 252.770,267.867 252.663 C 268.551 252.584,269.162 252.800,269.540 253.253 C 270.397 254.282,271.625 253.837,274.637 251.406 C 277.627 248.990,281.209 247.724,287.891 246.719 C 294.486 245.726,299.486 242.822,307.759 235.179 C 310.275 232.855,311.328 231.616,311.328 230.980 C 311.328 229.417,309.786 229.881,307.422 232.154 C 299.471 239.801,294.018 243.328,288.672 244.284 L 287.305 244.529 288.672 243.681 C 298.487 237.593,303.049 234.089,307.571 229.163 C 309.763 226.775,312.882 224.028,316.328 221.450 C 322.891 216.540,323.962 215.234,321.423 215.234 C 320.212 215.234,320.701 214.674,330.724 204.576 C 341.345 193.876,345.420 189.319,345.231 188.354 C 345.160 187.992,345.633 187.180,346.282 186.549 C 349.282 183.634,350.251 180.859,348.269 180.859 C 347.622 180.859,347.233 181.141,347.052 181.738 C 346.725 182.815,332.028 197.701,331.571 197.418 C 331.391 197.307,331.465 196.992,331.735 196.717 C 332.005 196.443,334.248 194.041,336.719 191.378 C 350.055 177.005,352.283 173.828,349.023 173.828 C 348.512 173.828,347.989 173.660,347.862 173.455 C 347.568 172.979,346.614 173.331,345.080 174.483 C 344.416 174.982,343.699 175.391,343.488 175.391 C 343.277 175.391,342.679 175.846,342.158 176.403 C 341.637 176.960,340.859 177.595,340.430 177.814 C 340.000 178.033,341.211 176.626,343.121 174.687 C 345.523 172.250,346.521 170.972,346.356 170.542 C 345.929 169.428,344.711 169.885,342.552 171.973 M185.156 171.289 C 185.424 171.611,186.192 171.888,186.864 171.905 C 187.536 171.921,188.701 172.184,189.453 172.489 C 190.936 173.091,178.674 172.922,175.195 172.293 L 173.633 172.010 175.000 171.389 C 176.910 170.520,184.457 170.446,185.156 171.289 M253.082 171.628 C 253.591 172.241,253.115 172.775,251.660 173.221 C 250.912 173.450,250.781 173.346,250.781 172.520 C 250.781 171.175,252.238 170.611,253.082 171.628 M361.523 171.875 C 362.277 172.199,362.274 172.212,361.449 172.238 C 360.978 172.253,360.484 172.090,360.352 171.875 C 360.066 171.413,360.448 171.413,361.523 171.875 M132.295 173.134 C 131.484 173.650,130.859 173.458,130.859 172.693 C 130.859 172.043,130.979 172.005,131.806 172.395 C 132.440 172.694,132.601 172.939,132.295 173.134 M120.687 181.250 C 120.911 184.580,121.196 188.077,121.321 189.021 C 121.645 191.462,121.057 198.634,120.661 197.070 C 120.421 196.120,119.453 182.565,119.430 179.826 C 119.357 171.010,120.052 171.798,120.687 181.250 M158.056 175.879 C 156.823 187.543,156.251 195.219,156.250 200.085 C 156.250 205.035,156.169 205.804,155.664 205.610 C 154.754 205.261,154.874 192.291,155.865 183.789 C 156.894 174.967,156.886 174.226,155.762 174.191 C 154.923 174.165,154.919 174.148,155.664 173.828 C 157.901 172.867,158.335 173.240,158.056 175.879 M212.404 179.883 C 212.387 183.654,212.350 183.893,212.094 181.836 C 211.691 178.588,211.702 173.338,212.109 174.609 C 212.281 175.146,212.414 177.520,212.404 179.883 M295.313 173.950 C 295.313 174.018,294.741 174.589,294.043 175.220 L 292.773 176.367 293.921 175.098 C 294.990 173.914,295.313 173.649,295.313 173.950 M365.158 175.864 L 366.018 177.900 364.263 176.177 C 363.022 174.959,362.650 174.365,362.992 174.148 C 363.931 173.551,364.307 173.848,365.158 175.864 M55.629 177.872 C 54.359 180.545,53.647 181.705,54.095 180.371 C 54.185 180.103,54.443 179.159,54.670 178.274 C 55.057 176.756,56.543 174.381,56.888 174.727 C 56.976 174.814,56.409 176.230,55.629 177.872 M152.734 179.753 C 152.734 182.581,152.621 184.783,152.483 184.645 C 152.184 184.346,151.575 175.325,151.826 174.902 C 152.471 173.813,152.734 175.216,152.734 179.753 M373.438 178.757 C 373.438 179.569,373.279 180.026,373.047 179.883 C 372.832 179.750,372.656 179.026,372.656 178.274 C 372.656 177.462,372.815 177.005,373.047 177.148 C 373.262 177.281,373.438 178.005,373.438 178.757 M378.839 178.274 C 379.045 180.074,378.329 180.236,377.864 178.494 C 377.494 177.111,377.521 176.930,378.076 177.035 C 378.446 177.105,378.764 177.622,378.839 178.274 M369.934 179.709 C 370.157 180.127,370.186 180.469,369.998 180.469 C 369.810 180.469,369.451 180.018,369.200 179.467 C 368.681 178.328,369.304 178.533,369.934 179.709 M51.744 180.190 C 51.608 180.733,51.148 181.267,50.723 181.378 C 50.015 181.564,49.995 181.509,50.491 180.732 C 50.789 180.265,51.170 179.651,51.337 179.369 C 51.792 178.599,52.025 179.070,51.744 180.190 M148.804 187.305 C 148.828 190.872,148.385 199.296,148.184 199.096 C 147.133 198.044,146.050 182.422,147.029 182.422 C 147.328 182.422,147.706 182.114,147.870 181.738 C 148.311 180.723,148.779 183.509,148.804 187.305 M376.138 184.570 L 376.117 185.352 375.781 184.570 C 375.279 183.402,375.279 182.427,375.781 183.203 C 375.990 183.525,376.150 184.141,376.138 184.570 M44.687 185.417 C 44.133 187.260,43.867 187.765,43.609 187.467 C 43.342 187.161,44.627 183.216,44.932 183.405 C 45.099 183.508,44.989 184.414,44.687 185.417 M369.529 187.165 C 369.530 187.733,369.263 188.301,368.934 188.427 C 368.445 188.614,368.382 189.110,368.590 191.134 C 368.869 193.863,368.239 198.454,367.372 200.000 C 367.063 200.552,366.819 200.727,366.811 200.404 C 366.795 199.749,367.489 190.108,367.820 186.374 L 368.042 183.882 368.784 185.007 C 369.192 185.626,369.527 186.597,369.529 187.165 M288.672 187.996 C 288.672 188.054,286.958 189.768,284.863 191.805 L 281.055 195.508 284.758 191.699 C 288.197 188.162,288.672 187.713,288.672 187.996 M53.489 191.699 C 53.467 193.565,53.393 193.801,53.050 193.092 C 52.678 192.322,52.905 189.453,53.338 189.453 C 53.436 189.453,53.504 190.464,53.489 191.699 M44.342 194.851 C 43.904 195.288,43.368 192.745,43.625 191.456 C 43.902 190.071,43.915 190.091,44.214 192.356 C 44.383 193.630,44.440 194.753,44.342 194.851 M374.058 193.574 C 373.659 194.663,373.484 194.864,373.465 194.257 C 373.434 193.302,374.316 191.111,374.504 191.675 C 374.569 191.871,374.368 192.726,374.058 193.574 M55.354 200.164 C 55.962 202.178,55.973 202.176,53.695 200.458 C 51.953 199.144,51.745 198.824,51.634 197.281 L 51.511 195.566 53.197 197.084 C 54.246 198.029,55.061 199.192,55.354 200.164 M96.461 200.614 C 95.752 201.469,95.604 201.036,96.176 199.780 C 96.561 198.935,96.708 198.837,96.809 199.358 C 96.881 199.732,96.724 200.297,96.461 200.614 M374.270 206.329 C 373.965 207.388,373.892 206.981,373.863 204.036 C 373.844 202.066,373.960 200.133,374.121 199.739 C 374.566 198.653,374.705 204.820,374.270 206.329 M208.114 211.719 C 208.077 219.367,208.024 220.181,207.796 216.602 C 207.400 210.408,207.429 199.013,207.835 200.977 C 208.013 201.836,208.138 206.670,208.114 211.719 M93.121 200.488 C 91.450 203.352,90.394 204.403,87.965 205.619 C 84.683 207.262,78.119 209.890,77.883 209.654 C 77.669 209.440,80.203 208.203,80.857 208.203 C 81.112 208.203,81.789 207.848,82.360 207.413 C 82.931 206.979,85.258 205.406,87.532 203.919 C 89.805 202.432,91.892 200.942,92.169 200.608 C 92.770 199.884,93.529 199.789,93.121 200.488 M327.717 201.779 C 327.439 202.113,326.847 202.562,326.399 202.776 C 325.894 203.019,326.030 202.790,326.758 202.171 C 328.091 201.039,328.454 200.891,327.717 201.779 M58.141 207.362 C 56.488 207.616,54.528 206.649,53.027 204.839 C 50.586 201.894,51.314 201.820,55.292 204.610 C 58.327 206.739,58.857 207.252,58.141 207.362 M62.207 204.370 C 64.181 205.663,64.241 205.753,63.706 206.599 C 63.221 207.364,60.836 205.853,59.557 203.971 C 58.358 202.206,58.326 201.660,59.473 202.506 C 59.956 202.863,61.187 203.701,62.207 204.370 M67.969 207.534 C 68.291 207.653,67.983 207.765,67.285 207.782 C 66.391 207.803,66.016 207.635,66.016 207.213 C 66.016 206.768,66.192 206.704,66.699 206.965 C 67.075 207.158,67.646 207.414,67.969 207.534 M371.312 209.943 C 371.062 211.612,370.626 212.152,370.150 211.382 C 369.913 210.997,371.120 207.708,371.397 207.986 C 371.497 208.085,371.459 208.966,371.312 209.943 M98.862 211.230 C 98.212 211.763,97.974 212.517,97.784 214.648 C 97.636 216.305,97.332 217.506,97.012 217.695 C 95.649 218.502,96.597 235.177,98.121 237.190 C 98.657 237.898,99.214 238.960,99.360 239.551 C 99.586 240.471,99.833 240.631,101.082 240.670 C 104.810 240.785,105.679 240.047,105.631 236.806 C 105.613 235.576,105.573 229.819,105.542 224.012 C 105.482 212.938,105.288 211.646,103.767 212.229 C 103.210 212.443,103.123 213.288,103.112 218.640 L 103.098 224.805 101.957 221.912 C 101.330 220.321,100.633 218.836,100.408 218.611 C 99.761 217.964,99.920 214.124,100.644 212.897 C 101.796 210.947,100.587 209.817,98.862 211.230 M58.225 212.806 C 57.724 212.994,55.859 212.151,55.859 211.737 C 55.859 211.521,56.458 211.649,57.189 212.020 C 57.920 212.391,58.386 212.745,58.225 212.806 M252.063 216.860 C 252.855 217.359,249.334 218.075,247.464 217.794 C 245.220 217.458,245.415 217.217,248.757 216.192 C 251.053 215.488,251.384 215.465,251.510 215.997 C 251.589 216.329,251.837 216.718,252.063 216.860 M367.513 219.161 C 367.284 219.816,367.008 220.264,366.900 220.155 C 366.590 219.845,367.161 217.969,367.565 217.969 C 367.777 217.969,367.755 218.465,367.513 219.161 M124.505 225.087 C 124.423 226.006,124.354 225.352,124.353 223.633 C 124.351 221.914,124.419 221.162,124.503 221.962 C 124.587 222.762,124.588 224.169,124.505 225.087 M208.479 225.488 C 208.386 225.972,208.310 225.576,208.310 224.609 C 208.310 223.643,208.386 223.247,208.479 223.730 C 208.572 224.214,208.572 225.005,208.479 225.488 M74.428 225.149 C 73.361 226.003,73.235 226.376,72.820 229.932 C 72.572 232.053,72.082 234.837,71.731 236.117 C 70.937 239.019,70.873 250.591,71.640 252.714 C 71.907 253.455,72.771 254.582,73.558 255.220 L 74.990 256.378 76.362 255.639 C 78.073 254.718,78.324 253.125,76.758 253.125 C 75.759 253.125,75.455 252.592,76.193 252.135 C 76.465 251.967,76.385 251.545,75.957 250.892 C 75.601 250.349,75.460 249.978,75.643 250.068 C 75.826 250.158,76.448 250.467,77.024 250.754 C 78.592 251.535,79.211 251.079,79.478 248.949 C 79.607 247.916,80.266 243.906,80.941 240.039 C 82.759 229.632,82.654 224.219,80.633 224.219 L 79.640 224.219 79.907 228.027 C 80.168 231.766,80.159 231.821,79.442 231.035 C 78.444 229.941,77.734 228.648,77.734 227.923 C 77.734 227.591,77.474 227.219,77.156 227.097 C 76.708 226.925,76.671 226.700,76.990 226.102 C 77.990 224.235,76.339 223.620,74.428 225.149 M355.988 227.832 C 353.546 231.436,352.567 232.586,353.824 230.377 C 354.759 228.733,357.748 224.609,358.004 224.609 C 358.096 224.609,357.189 226.060,355.988 227.832 M101.791 234.738 C 101.938 235.935,102.207 237.314,102.390 237.804 C 102.681 238.581,102.634 238.646,102.020 238.317 C 101.255 237.907,100.534 234.785,100.196 230.418 L 100.003 227.930 100.764 230.245 C 101.182 231.519,101.644 233.540,101.791 234.738 M46.110 230.437 C 45.876 230.876,45.326 234.183,44.888 237.785 C 44.366 242.089,43.743 245.341,43.074 247.266 C 41.719 251.158,41.405 258.454,42.401 262.891 C 42.763 264.502,43.113 267.198,43.180 268.882 C 43.283 271.496,43.462 272.174,44.404 273.525 C 45.011 274.395,45.822 275.709,46.206 276.446 C 47.160 278.274,48.575 278.149,48.759 276.220 C 48.828 275.494,48.701 274.717,48.477 274.493 C 47.725 273.741,49.669 273.056,50.511 273.776 C 51.557 274.672,52.318 274.008,53.954 270.772 C 55.556 267.602,55.759 266.622,56.257 259.666 C 56.453 256.926,57.053 252.426,57.591 249.667 C 58.911 242.900,59.295 237.462,58.499 236.802 C 57.460 235.940,56.641 236.645,56.641 238.401 C 56.641 239.645,56.536 239.896,56.172 239.531 C 54.675 238.034,54.496 238.758,54.398 246.727 C 54.303 254.509,53.859 257.652,52.100 263.014 C 51.092 266.086,51.165 264.919,52.218 261.133 C 53.503 256.510,53.836 249.105,53.003 243.635 C 52.497 240.305,52.493 239.501,52.975 237.433 C 53.615 234.693,53.373 234.146,51.466 234.018 C 48.390 233.811,48.303 233.869,47.851 236.480 C 47.698 237.363,47.490 237.868,47.388 237.603 C 47.287 237.337,47.415 235.843,47.673 234.282 C 48.369 230.083,48.357 229.899,47.390 229.761 C 46.846 229.684,46.382 229.929,46.110 230.437 M123.553 232.324 C 123.240 234.353,123.047 234.415,123.047 232.487 C 123.047 231.592,123.212 230.859,123.413 230.859 C 123.616 230.859,123.678 231.513,123.553 232.324 M75.607 244.238 C 75.402 246.655,75.163 248.295,75.076 247.883 C 74.851 246.819,75.411 239.844,75.721 239.844 C 75.863 239.844,75.812 241.821,75.607 244.238 M117.969 243.359 C 117.969 245.182,117.806 246.484,117.578 246.484 C 117.132 246.484,117.074 244.687,117.436 242.047 C 117.799 239.401,117.969 239.820,117.969 243.359 M217.145 253.125 C 217.171 255.711,216.114 258.984,215.253 258.984 C 214.683 258.984,214.742 258.640,215.430 257.952 C 215.843 257.538,216.016 256.529,216.016 254.522 C 216.016 252.957,216.142 250.553,216.296 249.178 L 216.577 246.680 216.848 248.633 C 216.997 249.707,217.131 251.729,217.145 253.125 M348.892 250.879 C 347.610 252.437,345.816 254.414,344.905 255.273 L 343.248 256.836 344.964 254.345 C 346.893 251.545,350.193 248.165,351.099 248.061 C 351.167 248.053,350.173 249.321,348.892 250.879 M334.893 254.182 C 338.069 252.963,332.453 258.579,327.270 261.806 C 326.201 262.470,326.204 262.456,327.548 260.587 C 328.295 259.547,328.921 258.453,328.939 258.156 C 328.985 257.396,333.733 253.551,334.043 254.024 C 334.182 254.237,334.565 254.308,334.893 254.182 M336.006 261.230 C 335.585 261.821,334.836 262.656,334.342 263.086 C 333.848 263.516,334.130 263.032,334.969 262.012 C 336.648 259.969,337.204 259.550,336.006 261.230 M108.546 285.645 C 108.520 287.202,108.477 288.916,108.450 289.453 C 108.424 289.990,108.541 293.154,108.711 296.484 C 108.944 301.056,108.872 303.912,108.416 308.147 C 107.660 315.168,107.622 321.075,108.327 322.038 C 109.222 323.263,110.289 322.654,110.674 320.700 C 110.864 319.735,111.201 318.832,111.422 318.694 C 111.795 318.462,111.666 317.351,111.093 315.857 C 110.908 315.374,111.113 315.234,112.005 315.234 L 113.157 315.234 113.423 305.773 C 113.732 294.764,113.686 294.883,116.192 298.550 C 125.860 312.699,133.248 321.484,135.477 321.484 C 135.984 321.484,136.707 321.865,137.084 322.331 C 138.203 323.713,139.065 323.037,139.018 320.814 C 138.996 319.786,139.007 311.506,139.044 302.413 C 139.114 284.997,139.092 284.759,137.355 284.772 C 135.888 284.782,135.489 285.368,135.265 287.836 C 135.089 289.779,134.918 290.234,134.363 290.234 C 133.010 290.234,132.991 291.430,134.189 300.977 C 134.486 303.340,134.831 307.383,134.956 309.961 C 135.080 312.539,135.286 315.699,135.413 316.983 C 135.764 320.526,133.340 317.576,131.673 312.430 C 131.047 310.497,128.635 306.805,125.186 302.502 C 123.619 300.548,121.559 297.735,120.606 296.252 C 118.783 293.412,116.290 290.889,114.860 290.435 C 114.132 290.204,114.017 289.900,114.070 288.344 C 114.181 285.072,114.115 284.766,113.295 284.766 C 112.395 284.766,111.719 285.854,111.719 287.302 C 111.719 287.886,111.551 288.223,111.328 288.086 C 111.113 287.953,110.938 286.990,110.938 285.946 C 110.938 283.443,110.654 282.813,109.529 282.813 C 108.633 282.813,108.592 282.931,108.546 285.645 M178.756 286.768 C 178.210 288.560,177.664 291.150,177.367 293.359 C 177.179 294.756,176.728 296.953,176.365 298.242 C 175.894 299.914,175.778 301.241,175.962 302.869 C 176.430 307.026,175.787 315.234,174.993 315.234 C 173.762 315.234,173.261 316.274,173.970 317.356 C 174.469 318.117,174.917 318.306,176.184 318.289 C 177.057 318.277,177.875 318.369,178.000 318.495 C 178.125 318.620,178.518 318.567,178.873 318.377 C 179.228 318.187,184.038 317.941,189.561 317.830 C 200.526 317.610,200.391 317.632,200.391 316.040 C 200.391 314.070,199.886 313.970,193.299 314.630 C 182.319 315.732,180.469 315.535,180.469 313.263 C 180.469 312.439,180.293 311.656,180.078 311.523 C 179.594 311.225,179.569 304.698,180.049 303.941 C 180.564 303.126,195.364 303.621,197.633 304.528 C 200.787 305.791,201.573 303.853,198.584 302.182 C 196.885 301.232,196.455 301.172,191.416 301.172 C 188.468 301.172,184.726 301.059,183.101 300.922 L 180.147 300.672 180.371 297.706 C 180.503 295.963,180.820 294.515,181.140 294.194 C 181.440 293.895,181.612 293.452,181.521 293.211 C 180.855 291.433,180.892 291.203,181.921 290.723 C 183.330 290.066,183.749 290.102,185.244 291.014 C 186.885 292.015,194.656 292.174,195.921 291.233 C 198.392 289.396,193.725 287.545,185.156 286.962 C 183.545 286.852,181.482 286.643,180.573 286.497 C 179.333 286.297,178.878 286.365,178.756 286.768 M293.049 289.121 C 292.771 289.411,291.982 289.839,291.296 290.072 C 288.244 291.109,287.294 299.609,290.230 299.609 C 290.443 299.609,291.568 300.471,292.731 301.524 C 293.894 302.577,295.258 303.569,295.762 303.729 C 298.737 304.669,300.737 308.502,299.579 311.043 C 298.801 312.752,292.527 313.944,290.774 312.717 C 290.330 312.406,289.105 311.940,288.050 311.682 C 286.996 311.424,285.818 310.887,285.434 310.489 C 284.055 309.061,282.105 310.014,282.575 311.886 C 282.846 312.965,284.976 315.107,287.133 316.470 C 287.922 316.969,288.723 317.730,288.913 318.161 C 289.408 319.287,291.687 319.365,294.466 318.352 C 296.481 317.617,297.029 317.567,299.027 317.936 C 302.754 318.625,303.974 318.088,305.223 315.207 C 307.415 310.153,305.308 306.201,297.214 300.185 C 293.049 297.089,291.604 294.757,292.796 293.056 C 294.092 291.205,295.981 291.903,300.705 295.977 C 306.284 300.789,308.458 298.394,303.614 292.771 C 300.536 289.198,294.856 287.236,293.049 289.121 M228.116 290.944 C 227.380 291.540,227.311 291.787,227.682 292.481 C 227.926 292.936,228.128 294.418,228.131 295.775 C 228.144 301.272,231.769 312.660,234.819 316.786 C 236.782 319.441,239.063 317.992,239.063 314.089 C 239.063 311.978,239.918 308.867,241.380 305.664 C 241.576 305.234,241.848 304.373,241.984 303.751 C 242.120 303.128,242.890 301.527,243.695 300.192 L 245.158 297.766 246.064 300.348 C 246.562 301.768,247.311 304.160,247.727 305.664 C 249.878 313.424,254.784 319.875,256.466 317.153 C 256.611 316.920,257.061 316.816,257.467 316.922 C 259.828 317.539,265.625 301.784,265.625 294.750 C 265.625 292.762,263.820 291.578,262.546 292.732 C 262.165 293.077,261.674 293.359,261.456 293.359 C 260.905 293.359,259.766 294.676,259.766 295.313 C 259.766 295.601,259.313 296.968,258.760 298.350 C 258.111 299.973,257.423 303.150,256.816 307.321 C 255.364 317.317,254.456 317.628,252.527 308.789 C 252.147 307.045,251.095 304.162,250.147 302.264 C 248.956 299.882,248.272 297.855,247.860 295.494 C 247.117 291.233,246.466 290.409,245.000 291.875 C 244.635 292.240,244.531 292.234,244.531 291.848 C 244.531 291.557,244.168 291.404,243.652 291.477 C 242.514 291.638,241.362 293.970,240.021 298.828 C 239.458 300.869,238.329 303.876,237.512 305.510 L 236.026 308.482 235.154 305.120 C 234.674 303.271,233.665 300.093,232.912 298.058 C 232.159 296.023,231.453 293.650,231.344 292.784 C 231.013 290.173,229.872 289.522,228.116 290.944 " stroke="none" fill="#e42323" fill-rule="evenodd"></path><path id="path1" d="M39.530 4.333 C 37.531 4.753,34.982 5.444,33.866 5.869 C 31.357 6.822,31.127 6.827,31.699 5.911 C 33.387 3.209,30.637 3.457,28.446 6.205 C 26.704 8.389,26.516 8.510,24.438 8.769 C 21.369 9.153,18.665 11.677,20.264 12.665 C 20.452 12.782,18.987 14.506,17.007 16.497 C 8.590 24.961,4.257 34.693,3.698 46.389 C 3.587 48.697,3.294 52.054,3.047 53.848 C 2.703 56.339,2.705 57.285,3.056 57.847 C 3.406 58.408,3.516 92.112,3.518 199.506 C 3.520 320.378,3.601 340.962,4.085 344.173 C 6.984 363.408,21.197 378.216,40.430 382.041 C 41.719 382.297,43.828 382.961,45.117 383.516 C 47.884 384.709,56.818 384.943,57.623 383.845 C 57.945 383.406,58.760 383.367,61.920 383.638 C 77.331 384.957,153.203 384.744,157.251 383.370 C 158.724 382.870,270.130 382.782,308.984 383.251 C 311.455 383.280,319.541 383.204,326.953 383.080 C 342.709 382.818,342.081 383.050,321.375 385.145 C 308.174 386.481,308.203 386.475,308.203 387.554 C 308.203 388.784,308.906 388.794,319.620 387.713 C 334.836 386.179,339.069 385.647,345.216 384.493 L 350.783 383.449 351.566 384.289 C 352.345 385.125,353.477 385.095,353.557 384.236 C 353.580 383.990,353.624 383.456,353.655 383.050 C 353.728 382.081,360.292 379.440,363.895 378.930 C 366.684 378.535,367.703 377.973,367.403 376.996 C 367.196 376.323,370.562 373.828,371.675 373.828 C 372.000 373.828,372.266 373.592,372.266 373.303 C 372.266 373.014,372.605 372.470,373.020 372.095 C 373.726 371.456,373.713 371.633,372.816 374.866 C 370.790 382.165,370.580 383.100,370.821 383.728 C 370.957 384.084,371.419 384.375,371.846 384.375 C 372.695 384.375,372.845 383.954,375.595 373.828 C 376.566 370.255,377.362 368.133,378.064 367.246 C 386.899 356.099,393.147 346.548,392.397 345.335 C 391.715 344.231,390.654 345.025,389.039 347.849 C 387.086 351.260,386.984 351.307,387.737 348.437 C 388.047 347.256,388.502 344.531,388.748 342.383 C 389.134 339.010,389.445 337.970,391.024 334.766 C 393.150 330.452,393.582 328.796,392.762 328.115 C 391.892 327.393,391.098 327.936,390.637 329.570 C 390.407 330.386,389.964 331.494,389.654 332.031 C 388.710 333.667,388.839 325.192,389.811 321.796 C 390.967 317.753,391.251 314.233,390.458 313.789 C 389.877 313.464,389.855 312.666,390.219 305.055 C 390.440 300.449,390.648 294.658,390.681 292.188 C 390.751 287.023,390.709 286.765,392.029 300.391 C 393.050 310.925,393.313 312.012,394.708 311.477 C 395.325 311.240,395.383 310.884,395.174 308.630 C 395.042 307.214,394.485 301.421,393.936 295.757 C 392.991 286.002,392.974 285.434,393.618 284.963 C 394.262 284.492,394.263 284.234,393.637 280.026 C 393.274 277.584,392.722 272.686,392.410 269.141 C 391.455 258.288,391.439 257.883,391.974 257.678 C 392.352 257.533,392.525 252.935,392.735 237.437 C 393.461 183.854,393.718 173.339,394.318 172.676 C 394.824 172.116,394.781 170.117,393.953 155.845 C 392.259 126.636,392.133 122.470,392.422 105.469 C 392.631 93.198,392.818 89.163,393.189 88.867 C 394.094 88.147,395.018 79.649,394.735 74.655 C 394.455 69.729,393.109 51.447,392.710 47.159 C 392.494 44.837,392.556 44.438,393.204 43.959 C 393.928 43.425,393.923 43.353,393.008 40.944 C 392.377 39.281,391.887 36.693,391.505 33.008 C 390.923 27.383,390.338 25.621,389.135 25.870 C 388.609 25.978,388.494 26.395,388.566 27.944 L 388.655 29.883 387.730 28.003 C 387.221 26.968,386.889 25.800,386.992 25.406 C 387.360 23.999,383.862 19.770,379.963 16.908 C 378.815 16.065,378.160 15.316,378.285 14.989 C 378.730 13.831,378.062 13.351,375.655 13.101 C 372.769 12.802,371.023 12.129,367.383 9.913 C 363.827 7.748,359.733 6.025,355.098 4.743 L 351.367 3.711 197.266 3.640 C 45.640 3.569,43.106 3.580,39.530 4.333 M90.820 6.274 C 61.674 6.522,43.621 6.998,38.086 7.665 C 35.111 8.024,36.220 7.460,40.097 6.643 C 43.350 5.958,45.915 5.917,83.398 5.956 L 123.242 5.998 90.820 6.274 M339.844 6.420 C 339.844 7.872,351.656 12.558,357.623 13.474 C 364.013 14.456,364.856 14.991,372.994 23.238 C 376.813 27.108,381.083 31.629,382.483 33.286 C 386.900 38.512,386.506 30.968,386.628 112.726 L 386.733 183.070 385.554 182.897 C 384.122 182.687,384.125 182.653,384.934 190.486 C 385.241 193.463,385.684 198.623,385.918 201.953 C 386.152 205.283,386.424 208.887,386.523 209.961 C 386.702 211.914,386.702 211.914,386.222 210.547 C 385.076 207.283,383.361 208.862,384.191 212.418 C 384.490 213.701,385.186 219.738,385.736 225.833 L 386.738 236.914 386.631 281.250 L 386.523 325.586 382.878 338.672 C 379.160 352.022,378.263 354.341,374.876 359.375 C 371.356 364.606,364.993 370.290,359.806 372.836 C 355.678 374.863,354.312 376.563,356.813 376.563 C 359.143 376.563,357.887 377.253,355.164 377.469 C 353.505 377.601,347.314 378.170,341.406 378.734 C 328.304 379.985,296.732 380.267,292.578 379.169 L 290.430 378.602 292.578 378.561 C 293.760 378.538,304.482 378.252,316.406 377.925 C 328.330 377.598,340.459 377.290,343.359 377.240 L 348.633 377.148 348.633 376.172 L 348.633 375.195 343.359 375.079 C 340.459 375.015,328.330 375.236,316.406 375.570 C 290.378 376.298,276.332 376.357,275.951 375.740 C 275.764 375.437,274.090 375.387,270.362 375.571 C 267.383 375.718,257.297 375.570,247.461 375.234 C 233.486 374.757,214.125 374.424,209.668 374.585 C 209.217 374.601,208.984 374.923,208.984 375.530 C 208.984 376.757,210.787 376.939,223.592 377.001 C 228.986 377.027,235.859 377.159,238.867 377.294 L 244.336 377.539 240.039 377.852 C 237.193 378.059,234.331 378.004,231.562 377.689 C 228.253 377.312,225.240 377.316,217.109 377.708 C 210.592 378.021,199.837 378.144,187.695 378.044 C 169.885 377.897,164.838 377.689,149.414 376.466 C 143.111 375.965,95.355 375.978,82.031 376.484 C 75.684 376.724,74.021 376.650,68.359 375.871 C 58.915 374.571,54.492 374.519,54.492 375.708 C 54.492 376.995,56.358 378.099,57.417 377.438 C 58.032 377.053,59.114 377.075,62.785 377.544 C 71.459 378.652,73.243 378.981,73.930 379.593 C 74.474 380.078,74.799 380.115,75.492 379.770 C 76.146 379.444,77.356 379.466,80.273 379.856 C 83.938 380.346,83.101 380.381,66.751 380.424 L 49.322 380.469 44.876 377.790 C 36.411 372.690,33.594 370.736,33.594 369.964 C 33.594 369.561,33.117 368.918,32.533 368.536 C 31.950 368.153,27.355 364.134,22.322 359.604 C 17.289 355.074,12.761 351.016,12.260 350.586 C 10.569 349.136,8.393 338.779,7.996 330.295 C 7.875 327.705,7.701 325.103,7.609 324.512 C 7.474 323.646,7.591 323.437,8.213 323.437 C 9.157 323.438,9.159 323.359,8.536 311.328 C 8.175 304.351,8.184 301.579,8.581 297.881 C 9.055 293.462,9.043 293.196,8.349 292.687 C 7.496 292.060,7.321 264.842,8.161 263.398 C 8.483 262.844,8.573 263.136,8.582 264.777 C 8.596 267.226,10.477 289.033,10.736 289.746 C 10.974 290.403,12.473 290.369,12.729 289.702 C 12.841 289.409,12.466 284.179,11.895 278.081 C 10.806 266.460,10.401 246.945,9.978 185.742 C 9.906 175.215,9.672 164.316,9.460 161.523 C 9.247 158.730,9.208 156.196,9.374 155.892 C 9.539 155.588,9.519 154.798,9.329 154.137 C 8.891 152.609,8.873 98.331,9.310 97.832 C 9.489 97.628,9.403 89.551,9.118 79.883 C 8.833 70.215,8.637 58.965,8.683 54.883 L 8.766 47.461 7.757 47.472 L 6.748 47.483 7.831 43.371 C 9.095 38.570,10.366 35.051,11.433 33.401 C 11.851 32.755,12.096 32.523,11.977 32.886 C 8.844 42.480,8.270 45.736,9.620 46.254 C 10.597 46.629,11.328 45.755,11.328 44.214 C 11.328 42.399,13.283 36.343,14.152 35.464 C 14.524 35.089,15.604 33.240,16.553 31.356 C 20.787 22.948,22.990 20.749,27.853 20.075 C 30.172 19.754,30.522 17.954,28.337 17.579 C 27.295 17.400,27.562 17.203,31.072 15.561 C 37.063 12.757,39.727 11.758,40.133 12.164 C 40.591 12.622,41.797 12.180,41.797 11.554 C 41.797 9.817,60.017 8.336,77.734 8.633 L 79.883 8.669 77.930 9.121 C 76.370 9.482,75.951 9.750,75.852 10.452 C 75.668 11.744,76.568 11.894,80.189 11.178 C 83.263 10.571,90.728 10.049,114.648 8.771 C 130.495 7.925,151.109 7.671,165.234 8.149 C 177.247 8.555,177.554 8.546,178.188 7.798 C 178.798 7.077,190.788 6.543,191.453 7.208 C 191.550 7.305,203.469 7.488,217.940 7.614 C 232.597 7.742,244.546 8.002,244.918 8.201 C 245.316 8.414,246.989 8.421,249.062 8.217 C 250.975 8.030,259.746 7.768,268.555 7.637 C 277.363 7.506,288.789 7.111,293.945 6.760 C 303.139 6.134,317.501 6.334,332.931 7.302 C 336.621 7.533,336.768 7.511,336.980 6.701 C 337.245 5.689,339.844 5.435,339.844 6.420 M351.768 6.649 C 352.105 6.928,352.248 7.473,352.120 7.984 C 351.893 8.886,352.803 10.011,353.441 9.616 C 353.634 9.497,354.125 9.652,354.532 9.961 C 356.623 11.544,351.405 9.857,346.094 7.233 L 343.164 5.786 347.182 5.982 C 349.456 6.093,351.447 6.382,351.768 6.649 M361.376 10.329 C 362.531 10.854,363.187 11.293,362.833 11.306 C 362.479 11.318,361.424 10.891,360.489 10.356 C 358.324 9.119,358.686 9.108,361.376 10.329 M33.398 11.670 C 31.465 12.491,28.421 13.899,26.635 14.801 L 23.387 16.440 25.396 13.934 C 28.137 10.513,28.224 10.480,35.156 10.240 C 36.894 10.180,36.874 10.196,33.398 11.670 M17.716 19.824 C 16.903 20.845,16.188 21.753,16.127 21.842 C 16.066 21.932,15.895 21.884,15.747 21.737 C 15.522 21.511,18.630 17.969,19.053 17.969 C 19.130 17.969,18.528 18.804,17.716 19.824 M380.742 20.829 C 380.897 21.082,380.287 20.705,379.385 19.991 C 378.483 19.277,377.618 18.486,377.462 18.233 C 377.306 17.980,377.916 18.358,378.818 19.071 C 379.720 19.785,380.586 20.576,380.742 20.829 M380.819 27.029 L 381.729 28.711 380.163 26.953 C 379.302 25.986,378.683 25.055,378.787 24.883 C 379.079 24.401,379.821 25.184,380.819 27.029 M387.430 33.498 C 389.278 37.969,390.339 41.797,389.730 41.797 C 389.611 41.797,389.302 41.138,389.044 40.332 C 388.230 37.795,385.196 30.134,384.165 28.012 L 383.175 25.977 384.263 27.224 C 384.862 27.911,386.287 30.734,387.430 33.498 M390.234 45.060 C 390.234 45.780,390.349 47.469,390.490 48.812 C 390.743 51.238,390.740 51.250,389.904 50.728 C 388.644 49.941,388.649 43.750,389.909 43.750 C 390.088 43.750,390.234 44.339,390.234 45.060 M7.102 169.922 C 7.671 174.219,7.635 188.883,6.989 216.211 C 6.095 254.022,5.978 246.576,5.985 152.539 C 5.992 58.171,6.000 57.095,6.302 110.938 C 6.529 151.521,6.742 167.197,7.102 169.922 M391.512 61.914 C 391.653 64.842,391.620 65.527,391.406 64.063 C 391.081 61.831,390.907 57.170,391.160 57.454 C 391.240 57.544,391.398 59.551,391.512 61.914 M389.524 125.270 C 389.240 133.667,389.184 130.651,389.186 107.227 L 389.188 79.102 389.526 97.145 C 389.719 107.385,389.718 119.547,389.524 125.270 M389.648 147.017 C 389.314 155.522,389.950 166.226,390.849 167.220 C 391.421 167.851,391.438 170.160,391.049 193.234 C 390.814 207.160,390.602 222.422,390.578 227.148 C 390.554 231.875,390.472 235.479,390.397 235.156 C 389.199 230.064,388.331 139.345,389.487 140.060 C 389.782 140.243,389.831 142.355,389.648 147.017 M390.514 286.230 C 390.425 286.821,390.351 286.338,390.351 285.156 C 390.351 283.975,390.425 283.491,390.514 284.082 C 390.604 284.673,390.604 285.640,390.514 286.230 M385.755 339.818 C 384.348 342.595,384.313 342.337,385.489 337.847 L 386.523 333.897 386.641 335.868 C 386.730 337.373,386.520 338.308,385.755 339.818 M7.228 343.071 C 7.452 343.931,7.392 344.105,6.931 343.928 C 6.311 343.690,5.840 340.922,5.903 337.891 C 5.935 336.336,5.998 336.472,6.443 339.063 C 6.720 340.674,7.073 342.478,7.228 343.071 M385.728 346.582 C 385.178 349.870,381.702 358.699,381.658 356.921 C 381.648 356.539,381.392 356.130,381.088 356.013 C 380.293 355.708,380.966 353.802,383.594 348.919 C 386.031 344.389,386.110 344.303,385.728 346.582 M10.293 354.674 C 10.842 356.493,11.234 358.037,11.166 358.105 C 11.021 358.250,8.423 352.220,8.011 350.781 L 7.731 349.805 8.514 350.586 C 8.944 351.016,9.745 352.855,10.293 354.674 M18.750 359.755 C 21.006 361.760,23.027 363.573,23.242 363.785 C 23.457 363.996,22.227 363.233,20.508 362.090 C 17.251 359.922,12.891 355.888,12.891 355.041 C 12.891 354.734,13.219 354.842,13.770 355.331 C 14.253 355.759,16.494 357.750,18.750 359.755 M380.432 359.766 C 379.133 361.875,378.699 362.231,379.119 360.840 C 379.344 360.094,381.150 357.813,381.515 357.813 C 381.580 357.813,381.093 358.691,380.432 359.766 M18.848 363.873 C 20.083 364.683,21.094 365.489,21.094 365.666 C 21.094 366.594,26.455 371.492,30.886 374.614 C 36.389 378.489,36.654 378.737,34.473 377.958 C 24.748 374.483,14.844 366.084,14.844 361.312 C 14.844 360.977,15.146 361.076,15.723 361.601 C 16.206 362.041,17.612 363.064,18.848 363.873 M375.603 364.425 C 375.462 364.653,374.961 365.040,374.490 365.285 C 373.673 365.710,373.677 365.683,374.578 364.703 C 375.478 363.725,376.148 363.543,375.603 364.425 M371.680 370.105 C 371.035 370.633,370.303 371.072,370.052 371.080 C 369.801 371.087,368.425 371.715,366.993 372.475 C 365.561 373.234,364.506 373.669,364.647 373.440 C 364.868 373.082,372.114 369.213,372.656 369.163 C 372.764 369.153,372.324 369.577,371.680 370.105 M264.536 379.297 L 264.364 380.469 251.811 380.415 C 241.845 380.372,240.023 380.291,242.969 380.022 C 252.280 379.171,263.160 378.207,263.897 378.168 C 264.583 378.132,264.682 378.306,264.536 379.297 M281.507 378.516 C 285.771 378.516,287.500 378.646,287.500 378.966 C 287.500 379.514,268.738 379.085,266.948 378.496 C 266.169 378.240,267.319 378.185,270.667 378.320 C 273.332 378.428,278.210 378.516,281.507 378.516 M155.918 379.980 C 156.309 380.371,152.916 380.469,138.958 380.469 C 123.453 380.469,121.534 380.402,121.738 379.871 C 122.047 379.065,155.110 379.171,155.918 379.980 " stroke="none" fill="#040404" fill-rule="evenodd"></path><path id="path2" d="" stroke="none" fill="#e81414" fill-rule="evenodd"></path><path id="path3" d="" stroke="none" fill="#e81414" fill-rule="evenodd"></path><path id="path4" d="" stroke="none" fill="#e81414" fill-rule="evenodd"></path></g></svg>