<svg id="svg" version="1.1" xmlns="http://www.w3.org/2000/svg" xmlns:xlink="http://www.w3.org/1999/xlink" width="400" height="400" viewBox="0, 0, 400,400"><g id="svgg"><path id="path0" d="M39.530 4.333 C 37.531 4.753,34.982 5.444,33.866 5.869 C 31.357 6.822,31.127 6.827,31.699 5.911 C 33.387 3.209,30.637 3.457,28.446 6.205 C 26.704 8.389,26.516 8.510,24.438 8.769 C 21.369 9.153,18.665 11.677,20.264 12.665 C 20.452 12.782,18.987 14.506,17.007 16.497 C 8.590 24.961,4.257 34.693,3.698 46.389 C 3.587 48.697,3.294 52.054,3.047 53.848 C 2.703 56.339,2.705 57.285,3.056 57.847 C 3.406 58.408,3.516 92.112,3.518 199.506 C 3.520 320.378,3.601 340.962,4.085 344.173 C 6.984 363.408,21.197 378.216,40.430 382.041 C 41.719 382.297,43.828 382.961,45.117 383.516 C 47.884 384.709,56.818 384.943,57.623 383.845 C 57.945 383.406,58.760 383.367,61.920 383.638 C 77.331 384.957,153.203 384.744,157.251 383.370 C 158.724 382.870,270.130 382.782,308.984 383.251 C 311.455 383.280,319.541 383.204,326.953 383.080 C 342.709 382.818,342.081 383.050,321.375 385.145 C 308.174 386.481,308.203 386.475,308.203 387.554 C 308.203 388.784,308.906 388.794,319.620 387.713 C 334.836 386.179,339.069 385.647,345.216 384.493 L 350.783 383.449 351.566 384.289 C 352.345 385.125,353.477 385.095,353.557 384.236 C 353.580 383.990,353.624 383.456,353.655 383.050 C 353.728 382.081,360.292 379.440,363.895 378.930 C 366.684 378.535,367.703 377.973,367.403 376.996 C 367.196 376.323,370.562 373.828,371.675 373.828 C 372.000 373.828,372.266 373.592,372.266 373.303 C 372.266 373.014,372.605 372.470,373.020 372.095 C 373.726 371.456,373.713 371.633,372.816 374.866 C 370.790 382.165,370.580 383.100,370.821 383.728 C 370.957 384.084,371.419 384.375,371.846 384.375 C 372.695 384.375,372.845 383.954,375.595 373.828 C 376.566 370.255,377.362 368.133,378.064 367.246 C 386.899 356.099,393.147 346.548,392.397 345.335 C 391.715 344.231,390.654 345.025,389.039 347.849 C 387.086 351.260,386.984 351.307,387.737 348.437 C 388.047 347.256,388.502 344.531,388.748 342.383 C 389.134 339.010,389.445 337.970,391.024 334.766 C 393.150 330.452,393.582 328.796,392.762 328.115 C 391.892 327.393,391.098 327.936,390.637 329.570 C 390.407 330.386,389.964 331.494,389.654 332.031 C 388.710 333.667,388.839 325.192,389.811 321.796 C 390.967 317.753,391.251 314.233,390.458 313.789 C 389.877 313.464,389.855 312.666,390.219 305.055 C 390.440 300.449,390.648 294.658,390.681 292.188 C 390.751 287.023,390.709 286.765,392.029 300.391 C 393.050 310.925,393.313 312.012,394.708 311.477 C 395.325 311.240,395.383 310.884,395.174 308.630 C 395.042 307.214,394.485 301.421,393.936 295.757 C 392.991 286.002,392.974 285.434,393.618 284.963 C 394.262 284.492,394.263 284.234,393.637 280.026 C 393.274 277.584,392.722 272.686,392.410 269.141 C 391.455 258.288,391.439 257.883,391.974 257.678 C 392.352 257.533,392.525 252.935,392.735 237.437 C 393.461 183.854,393.718 173.339,394.318 172.676 C 394.824 172.116,394.781 170.117,393.953 155.845 C 392.259 126.636,392.133 122.470,392.422 105.469 C 392.631 93.198,392.818 89.163,393.189 88.867 C 394.094 88.147,395.018 79.649,394.735 74.655 C 394.455 69.729,393.109 51.447,392.710 47.159 C 392.494 44.837,392.556 44.438,393.204 43.959 C 393.928 43.425,393.923 43.353,393.008 40.944 C 392.377 39.281,391.887 36.693,391.505 33.008 C 390.923 27.383,390.338 25.621,389.135 25.870 C 388.609 25.978,388.494 26.395,388.566 27.944 L 388.655 29.883 387.730 28.003 C 387.221 26.968,386.889 25.800,386.992 25.406 C 387.360 23.999,383.862 19.770,379.963 16.908 C 378.815 16.065,378.160 15.316,378.285 14.989 C 378.730 13.831,378.062 13.351,375.655 13.101 C 372.769 12.802,371.023 12.129,367.383 9.913 C 363.827 7.748,359.733 6.025,355.098 4.743 L 351.367 3.711 197.266 3.640 C 45.640 3.569,43.106 3.580,39.530 4.333 M90.820 6.274 C 61.674 6.522,43.621 6.998,38.086 7.665 C 35.111 8.024,36.220 7.460,40.097 6.643 C 43.350 5.958,45.915 5.917,83.398 5.956 L 123.242 5.998 90.820 6.274 M339.844 6.420 C 339.844 7.872,351.656 12.558,357.623 13.474 C 364.013 14.456,364.856 14.991,372.994 23.238 C 376.813 27.108,381.083 31.629,382.483 33.286 C 386.900 38.512,386.506 30.968,386.628 112.726 L 386.733 183.070 385.554 182.897 C 384.122 182.687,384.125 182.653,384.934 190.486 C 385.241 193.463,385.684 198.623,385.918 201.953 C 386.152 205.283,386.424 208.887,386.523 209.961 C 386.702 211.914,386.702 211.914,386.222 210.547 C 385.076 207.283,383.361 208.862,384.191 212.418 C 384.490 213.701,385.186 219.738,385.736 225.833 L 386.738 236.914 386.631 281.250 L 386.523 325.586 382.878 338.672 C 379.160 352.022,378.263 354.341,374.876 359.375 C 371.356 364.606,364.993 370.290,359.806 372.836 C 355.678 374.863,354.312 376.563,356.813 376.563 C 359.143 376.563,357.887 377.253,355.164 377.469 C 353.505 377.601,347.314 378.170,341.406 378.734 C 328.304 379.985,296.732 380.267,292.578 379.169 L 290.430 378.602 292.578 378.561 C 293.760 378.538,304.482 378.252,316.406 377.925 C 328.330 377.598,340.459 377.290,343.359 377.240 L 348.633 377.148 348.633 376.172 L 348.633 375.195 343.359 375.079 C 340.459 375.015,328.330 375.236,316.406 375.570 C 290.378 376.298,276.332 376.357,275.951 375.740 C 275.764 375.437,274.090 375.387,270.362 375.571 C 267.383 375.718,257.297 375.570,247.461 375.234 C 233.486 374.757,214.125 374.424,209.668 374.585 C 209.217 374.601,208.984 374.923,208.984 375.530 C 208.984 376.757,210.787 376.939,223.592 377.001 C 228.986 377.027,235.859 377.159,238.867 377.294 L 244.336 377.539 240.039 377.852 C 237.193 378.059,234.331 378.004,231.562 377.689 C 228.253 377.312,225.240 377.316,217.109 377.708 C 210.592 378.021,199.837 378.144,187.695 378.044 C 169.885 377.897,164.838 377.689,149.414 376.466 C 143.111 375.965,95.355 375.978,82.031 376.484 C 75.684 376.724,74.021 376.650,68.359 375.871 C 58.915 374.571,54.492 374.519,54.492 375.708 C 54.492 376.995,56.358 378.099,57.417 377.438 C 58.032 377.053,59.114 377.075,62.785 377.544 C 71.459 378.652,73.243 378.981,73.930 379.593 C 74.474 380.078,74.799 380.115,75.492 379.770 C 76.146 379.444,77.356 379.466,80.273 379.856 C 83.938 380.346,83.101 380.381,66.751 380.424 L 49.322 380.469 44.876 377.790 C 36.411 372.690,33.594 370.736,33.594 369.964 C 33.594 369.561,33.117 368.918,32.533 368.536 C 31.950 368.153,27.355 364.134,22.322 359.604 C 17.289 355.074,12.761 351.016,12.260 350.586 C 10.569 349.136,8.393 338.779,7.996 330.295 C 7.875 327.705,7.701 325.103,7.609 324.512 C 7.474 323.646,7.591 323.437,8.213 323.437 C 9.157 323.438,9.159 323.359,8.536 311.328 C 8.175 304.351,8.184 301.579,8.581 297.881 C 9.055 293.462,9.043 293.196,8.349 292.687 C 7.496 292.060,7.321 264.842,8.161 263.398 C 8.483 262.844,8.573 263.136,8.582 264.777 C 8.596 267.226,10.477 289.033,10.736 289.746 C 10.974 290.403,12.473 290.369,12.729 289.702 C 12.841 289.409,12.466 284.179,11.895 278.081 C 10.806 266.460,10.401 246.945,9.978 185.742 C 9.906 175.215,9.672 164.316,9.460 161.523 C 9.247 158.730,9.208 156.196,9.374 155.892 C 9.539 155.588,9.519 154.798,9.329 154.137 C 8.891 152.609,8.873 98.331,9.310 97.832 C 9.489 97.628,9.403 89.551,9.118 79.883 C 8.833 70.215,8.637 58.965,8.683 54.883 L 8.766 47.461 7.757 47.472 L 6.748 47.483 7.831 43.371 C 9.095 38.570,10.366 35.051,11.433 33.401 C 11.851 32.755,12.096 32.523,11.977 32.886 C 8.844 42.480,8.270 45.736,9.620 46.254 C 10.597 46.629,11.328 45.755,11.328 44.214 C 11.328 42.399,13.283 36.343,14.152 35.464 C 14.524 35.089,15.604 33.240,16.553 31.356 C 20.787 22.948,22.990 20.749,27.853 20.075 C 30.172 19.754,30.522 17.954,28.337 17.579 C 27.295 17.400,27.562 17.203,31.072 15.561 C 37.063 12.757,39.727 11.758,40.133 12.164 C 40.591 12.622,41.797 12.180,41.797 11.554 C 41.797 9.817,60.017 8.336,77.734 8.633 L 79.883 8.669 77.930 9.121 C 76.370 9.482,75.951 9.750,75.852 10.452 C 75.668 11.744,76.568 11.894,80.189 11.178 C 83.263 10.571,90.728 10.049,114.648 8.771 C 130.495 7.925,151.109 7.671,165.234 8.149 C 177.247 8.555,177.554 8.546,178.188 7.798 C 178.798 7.077,190.788 6.543,191.453 7.208 C 191.550 7.305,203.469 7.488,217.940 7.614 C 232.597 7.742,244.546 8.002,244.918 8.201 C 245.316 8.414,246.989 8.421,249.062 8.217 C 250.975 8.030,259.746 7.768,268.555 7.637 C 277.363 7.506,288.789 7.111,293.945 6.760 C 303.139 6.134,317.501 6.334,332.931 7.302 C 336.621 7.533,336.768 7.511,336.980 6.701 C 337.245 5.689,339.844 5.435,339.844 6.420 M351.768 6.649 C 352.105 6.928,352.248 7.473,352.120 7.984 C 351.893 8.886,352.803 10.011,353.441 9.616 C 353.634 9.497,354.125 9.652,354.532 9.961 C 356.623 11.544,351.405 9.857,346.094 7.233 L 343.164 5.786 347.182 5.982 C 349.456 6.093,351.447 6.382,351.768 6.649 M361.376 10.329 C 362.531 10.854,363.187 11.293,362.833 11.306 C 362.479 11.318,361.424 10.891,360.489 10.356 C 358.324 9.119,358.686 9.108,361.376 10.329 M33.398 11.670 C 31.465 12.491,28.421 13.899,26.635 14.801 L 23.387 16.440 25.396 13.934 C 28.137 10.513,28.224 10.480,35.156 10.240 C 36.894 10.180,36.874 10.196,33.398 11.670 M17.716 19.824 C 16.903 20.845,16.188 21.753,16.127 21.842 C 16.066 21.932,15.895 21.884,15.747 21.737 C 15.522 21.511,18.630 17.969,19.053 17.969 C 19.130 17.969,18.528 18.804,17.716 19.824 M380.742 20.829 C 380.897 21.082,380.287 20.705,379.385 19.991 C 378.483 19.277,377.618 18.486,377.462 18.233 C 377.306 17.980,377.916 18.358,378.818 19.071 C 379.720 19.785,380.586 20.576,380.742 20.829 M380.819 27.029 L 381.729 28.711 380.163 26.953 C 379.302 25.986,378.683 25.055,378.787 24.883 C 379.079 24.401,379.821 25.184,380.819 27.029 M387.430 33.498 C 389.278 37.969,390.339 41.797,389.730 41.797 C 389.611 41.797,389.302 41.138,389.044 40.332 C 388.230 37.795,385.196 30.134,384.165 28.012 L 383.175 25.977 384.263 27.224 C 384.862 27.911,386.287 30.734,387.430 33.498 M259.961 35.526 C 258.672 35.912,256.182 36.784,254.427 37.465 C 252.361 38.267,250.900 38.619,250.279 38.463 C 249.321 38.222,243.346 40.871,242.780 41.786 C 242.644 42.007,242.221 42.188,241.842 42.188 C 237.187 42.188,229.460 50.137,231.390 52.940 C 231.681 53.364,232.121 54.330,232.367 55.086 C 232.913 56.765,236.354 60.343,238.456 61.416 C 240.779 62.603,247.125 61.755,247.531 60.204 C 247.867 58.916,270.703 57.577,270.703 58.845 C 270.703 58.927,270.483 59.355,270.215 59.795 C 269.530 60.917,270.734 61.866,272.070 61.257 C 272.696 60.972,275.622 60.970,281.699 61.251 C 290.884 61.675,291.959 61.889,298.738 64.647 C 300.252 65.263,300.518 65.270,301.633 64.730 C 303.139 64.001,304.156 64.486,304.384 66.042 L 304.538 67.094 302.481 66.386 C 299.708 65.432,286.620 62.109,285.635 62.109 C 284.548 62.109,284.268 63.112,284.974 64.478 C 285.561 65.614,286.903 66.048,287.188 65.193 C 287.283 64.908,289.414 65.303,293.457 66.356 C 305.085 69.384,309.445 71.164,311.888 73.882 C 314.536 76.827,322.516 87.953,322.782 89.072 C 322.912 89.615,324.798 92.691,326.974 95.908 C 338.600 113.099,338.099 112.052,341.598 126.465 C 341.740 127.048,342.105 127.345,342.683 127.347 C 343.812 127.352,346.769 130.312,348.921 133.594 C 350.739 136.366,351.902 136.891,352.385 135.156 C 352.534 134.619,352.674 134.466,352.695 134.817 C 352.738 135.516,355.119 137.500,355.915 137.500 C 356.189 137.500,357.739 136.477,359.359 135.228 C 360.979 133.978,362.576 132.855,362.907 132.732 C 363.239 132.609,364.172 131.169,364.981 129.532 L 366.452 126.557 366.057 120.993 C 365.670 115.536,365.211 113.278,364.253 112.109 C 363.237 110.871,362.859 109.655,362.099 105.195 C 360.545 96.062,359.123 92.006,357.671 92.558 C 356.758 92.905,356.653 92.795,355.717 90.505 C 353.175 84.288,351.773 81.331,350.736 80.003 C 350.116 79.210,349.605 78.331,349.599 78.050 C 349.593 77.769,348.197 76.008,346.496 74.137 C 343.235 70.549,341.433 67.989,343.519 69.909 C 344.614 70.916,345.763 70.720,346.007 69.483 C 346.068 69.176,343.044 66.320,339.169 63.024 C 331.858 56.806,330.276 55.423,331.176 56.040 C 331.743 56.428,332.813 55.414,332.813 54.490 C 332.813 53.952,324.125 48.177,320.898 46.569 C 317.546 44.900,313.579 43.762,310.175 43.495 C 307.592 43.293,299.431 41.358,298.894 40.821 C 298.224 40.151,299.612 40.299,302.608 41.216 C 307.227 42.631,308.398 42.677,308.398 41.444 C 308.398 38.920,294.657 36.388,280.664 36.333 C 278.349 36.324,275.246 36.004,273.047 35.547 C 268.385 34.578,263.158 34.570,259.961 35.526 M283.838 41.033 C 289.292 42.924,289.735 43.016,291.589 42.642 C 293.353 42.285,294.196 42.409,299.805 43.844 C 303.242 44.724,306.573 45.418,307.206 45.388 C 307.840 45.357,308.645 45.591,308.996 45.909 C 309.629 46.481,314.931 48.438,315.850 48.438 C 316.114 48.437,317.885 49.490,319.786 50.777 C 324.713 54.113,325.262 54.579,324.805 55.037 C 324.544 55.299,323.588 54.787,321.927 53.496 C 316.761 49.481,316.450 51.721,321.582 55.983 C 323.569 57.634,326.384 60.014,327.837 61.273 C 329.848 63.015,330.700 63.519,331.405 63.385 C 332.168 63.239,332.704 63.675,334.473 65.881 C 335.652 67.352,339.591 71.455,343.226 75.000 C 350.313 81.912,351.353 83.378,351.086 86.075 C 350.951 87.434,351.176 88.105,352.478 90.234 C 356.849 97.386,361.391 110.488,361.747 116.974 C 361.966 120.957,362.196 122.535,362.601 122.834 C 363.678 123.628,363.744 126.563,362.684 126.563 C 362.141 126.563,361.679 126.853,361.543 127.281 C 361.418 127.676,360.893 128.226,360.378 128.501 C 359.463 128.991,359.000 129.947,358.990 131.371 C 358.986 131.811,359.168 131.982,359.473 131.825 C 359.741 131.686,359.521 131.938,358.984 132.385 C 357.772 133.393,356.876 133.281,356.708 132.100 C 356.585 131.237,356.540 131.226,355.620 131.829 C 354.461 132.588,352.549 131.415,352.126 129.688 C 351.612 127.582,348.004 119.890,345.555 115.676 C 343.690 112.468,343.038 110.994,343.199 110.352 C 343.634 108.617,331.785 91.406,330.155 91.406 C 329.998 91.406,329.056 90.659,328.062 89.746 C 327.068 88.833,325.841 87.778,325.335 87.402 C 324.828 87.025,324.590 86.739,324.805 86.764 C 327.489 87.087,326.551 85.452,320.550 79.350 C 317.458 76.205,314.576 73.044,314.144 72.324 C 313.713 71.605,311.502 69.133,309.231 66.831 L 305.103 62.647 298.352 61.775 C 285.599 60.128,282.995 59.722,277.539 58.526 C 272.358 57.392,270.630 56.677,270.816 55.747 C 271.051 54.578,268.370 54.593,262.228 55.794 C 243.898 59.379,244.897 59.232,244.308 58.427 C 244.015 58.026,243.852 57.573,243.946 57.421 C 244.040 57.269,243.698 57.224,243.186 57.322 C 241.994 57.550,236.865 54.898,236.610 53.922 C 236.491 53.469,237.305 52.032,238.863 49.946 C 241.632 46.237,244.134 43.686,244.153 44.552 C 244.163 44.990,244.281 44.964,244.681 44.438 C 246.010 42.688,255.741 40.591,259.662 41.210 C 265.369 42.111,266.122 42.313,266.299 42.991 C 266.429 43.489,267.032 43.763,268.422 43.954 C 270.985 44.306,271.102 44.058,268.963 42.804 C 267.986 42.232,267.188 41.527,267.188 41.238 C 267.188 40.629,265.979 40.381,261.213 40.014 C 256.017 39.613,257.450 39.298,265.749 39.016 C 276.520 38.652,277.186 38.726,283.838 41.033 M294.141 39.453 C 294.859 39.917,293.426 39.917,291.602 39.453 C 290.473 39.166,290.487 39.153,291.992 39.115 C 292.852 39.093,293.818 39.245,294.141 39.453 M272.266 41.167 C 272.266 41.253,274.548 42.050,277.339 42.938 C 280.129 43.825,282.722 44.651,283.100 44.773 C 283.479 44.895,282.471 44.207,280.859 43.245 C 278.252 41.688,272.266 40.240,272.266 41.167 M390.234 45.060 C 390.234 45.780,390.349 47.469,390.490 48.812 C 390.743 51.238,390.740 51.250,389.904 50.728 C 388.644 49.941,388.649 43.750,389.909 43.750 C 390.088 43.750,390.234 44.339,390.234 45.060 M235.468 50.413 C 234.945 51.121,234.520 51.411,234.425 51.126 C 234.336 50.861,234.660 50.323,235.144 49.931 C 236.395 48.918,236.481 49.044,235.468 50.413 M7.102 169.922 C 7.671 174.219,7.635 188.883,6.989 216.211 C 6.095 254.022,5.978 246.576,5.985 152.539 C 5.992 58.171,6.000 57.095,6.302 110.938 C 6.529 151.521,6.742 167.197,7.102 169.922 M391.512 61.914 C 391.653 64.842,391.620 65.527,391.406 64.063 C 391.081 61.831,390.907 57.170,391.160 57.454 C 391.240 57.544,391.398 59.551,391.512 61.914 M289.486 58.348 C 289.575 58.428,290.527 58.595,291.602 58.719 C 292.919 58.871,293.237 58.837,292.578 58.613 C 291.602 58.281,289.178 58.074,289.486 58.348 M338.035 65.606 C 337.941 65.703,337.123 65.015,336.217 64.079 L 334.570 62.375 336.389 63.902 C 337.389 64.742,338.130 65.509,338.035 65.606 M160.254 70.198 C 159.718 70.301,159.375 70.651,159.375 71.093 C 159.375 71.944,156.674 72.581,153.125 72.566 C 145.384 72.535,129.181 78.730,130.701 81.141 C 131.370 82.200,131.881 82.139,133.383 80.821 C 135.409 79.042,150.000 74.579,150.000 75.738 C 150.000 76.503,151.689 76.204,154.279 74.979 C 156.205 74.068,157.126 73.840,158.185 74.015 C 158.947 74.140,160.449 74.071,161.523 73.861 C 163.702 73.435,170.531 75.761,176.119 78.832 C 177.532 79.609,179.046 80.252,179.481 80.259 C 180.016 80.269,180.317 80.580,180.407 81.216 C 180.564 82.332,182.095 83.732,182.479 83.111 C 182.621 82.881,183.019 83.251,183.381 83.951 C 183.737 84.639,184.626 85.864,185.357 86.673 C 186.279 87.694,186.715 88.582,186.782 89.579 C 186.835 90.369,186.987 91.016,187.120 91.016 C 188.210 91.016,188.997 94.721,189.650 102.930 C 190.026 107.656,190.487 111.690,190.675 111.895 C 191.464 112.753,190.975 115.499,189.453 118.750 C 187.779 122.328,187.573 123.340,188.454 123.678 C 189.651 124.137,185.192 132.288,179.046 140.875 C 176.520 144.406,175.682 146.926,177.246 146.290 C 177.622 146.137,178.369 145.879,178.906 145.716 C 180.047 145.371,186.655 142.096,191.379 139.535 C 194.346 137.928,194.588 137.713,193.821 137.370 C 192.461 136.764,192.818 135.861,195.119 134.084 C 196.545 132.983,197.266 132.622,197.266 133.010 C 197.266 133.977,197.802 133.734,203.604 130.132 C 209.910 126.216,215.751 123.047,216.661 123.047 C 217.115 123.047,217.210 122.800,217.031 122.087 C 216.822 121.251,217.081 120.931,219.040 119.611 C 223.675 116.487,224.987 115.892,227.885 115.596 C 229.413 115.440,231.367 115.104,232.227 114.849 C 233.086 114.593,235.107 114.080,236.719 113.707 C 239.368 113.094,239.648 112.939,239.648 112.087 C 239.648 110.239,234.699 111.068,228.906 113.888 C 226.661 114.981,224.804 115.625,223.899 115.626 C 217.519 115.630,209.977 119.434,198.231 128.571 C 194.787 131.250,191.782 133.557,191.554 133.698 C 191.325 133.839,191.748 132.435,192.494 130.577 C 193.928 127.007,193.872 125.887,192.269 126.063 C 191.238 126.176,192.023 123.499,194.681 117.844 C 196.563 113.839,196.882 112.144,195.903 111.332 C 195.078 110.648,194.141 111.136,194.141 112.250 C 194.141 112.770,193.793 113.962,193.368 114.899 L 192.595 116.602 192.587 115.312 C 192.582 114.603,193.178 111.615,193.911 108.672 C 196.508 98.250,196.627 97.503,195.919 96.133 C 195.290 94.918,194.408 94.563,193.931 95.335 C 193.791 95.562,192.667 93.936,191.434 91.722 C 182.890 76.382,179.935 72.877,177.816 75.571 L 177.059 76.533 173.272 74.828 C 169.005 72.906,169.023 72.512,173.369 72.713 C 176.344 72.850,176.367 72.844,176.367 71.875 C 176.367 70.384,174.396 70.059,168.758 70.623 C 164.812 71.017,163.933 71.000,162.745 70.503 C 161.979 70.184,161.304 69.946,161.243 69.975 C 161.182 70.004,160.737 70.104,160.254 70.198 M262.105 75.382 C 253.897 75.942,249.011 80.741,251.758 85.547 C 252.524 86.887,252.478 87.209,251.588 86.732 C 250.474 86.136,249.336 86.240,249.058 86.964 C 248.458 88.529,251.169 89.576,258.285 90.529 C 262.710 91.121,263.263 91.279,263.363 91.983 C 263.461 92.666,263.938 92.834,266.858 93.218 C 274.751 94.256,278.503 96.311,287.559 104.555 C 297.264 113.389,302.661 119.250,305.123 123.626 C 306.725 126.473,307.568 127.587,308.248 127.753 C 308.999 127.937,309.156 128.197,309.058 129.090 C 308.922 130.327,311.146 132.895,314.505 135.380 C 316.218 136.646,316.487 136.719,319.492 136.719 C 323.241 136.719,323.339 136.622,325.235 131.038 C 325.852 129.221,326.480 127.734,326.631 127.734 C 326.962 127.734,327.311 130.527,327.216 132.422 C 327.156 133.629,327.260 133.789,328.100 133.789 C 329.871 133.789,330.196 129.655,328.685 126.367 C 328.290 125.508,327.870 124.282,327.753 123.643 C 327.635 123.004,327.188 122.299,326.758 122.076 C 324.617 120.964,323.897 120.197,323.431 118.531 C 322.146 113.941,310.405 96.938,308.463 96.856 C 308.213 96.845,306.449 94.759,304.543 92.221 C 298.696 84.434,295.627 82.171,292.893 83.634 C 292.344 83.928,290.956 83.464,286.813 81.600 C 275.511 76.514,273.189 75.722,271.924 76.524 C 271.523 76.778,271.819 77.116,273.099 77.866 C 275.850 79.478,280.082 81.294,280.494 81.039 C 281.153 80.632,283.628 81.679,286.612 83.627 C 288.196 84.660,289.837 85.616,290.259 85.750 C 290.681 85.884,290.909 86.184,290.766 86.417 C 290.609 86.670,290.687 86.727,290.960 86.558 C 291.211 86.403,291.973 86.554,292.653 86.893 C 293.334 87.232,293.779 87.399,293.643 87.263 C 293.156 86.776,294.552 85.858,295.442 86.081 C 298.228 86.781,306.407 96.220,311.040 104.084 C 312.565 106.672,315.276 110.875,317.065 113.426 C 320.516 118.346,321.737 120.680,322.124 123.101 C 322.256 123.922,322.605 124.795,322.900 125.040 C 323.677 125.685,323.562 128.421,322.647 131.081 C 321.617 134.075,321.675 134.035,318.099 134.228 L 315.025 134.394 313.409 132.724 C 309.855 129.053,301.304 116.470,301.687 115.475 C 301.900 114.918,297.111 110.254,286.133 100.326 C 282.910 97.412,279.834 94.547,279.297 93.960 C 277.580 92.084,274.259 90.784,273.659 91.754 C 273.539 91.949,272.412 91.842,271.103 91.512 C 269.815 91.188,268.835 90.803,268.925 90.657 C 269.400 89.890,268.075 89.444,263.664 88.887 C 257.350 88.091,257.162 88.041,256.919 87.114 C 256.786 86.605,256.387 86.328,255.785 86.328 C 254.417 86.328,253.618 84.653,253.457 81.445 L 253.320 78.711 254.883 78.814 C 255.742 78.871,256.797 78.755,257.227 78.556 C 258.662 77.891,262.271 77.470,265.545 77.585 C 268.391 77.686,268.883 77.601,269.595 76.890 C 270.486 75.998,270.081 75.413,268.555 75.391 C 268.125 75.385,267.422 75.318,266.992 75.241 C 266.563 75.165,264.363 75.228,262.105 75.382 M389.524 125.270 C 389.240 133.667,389.184 130.651,389.186 107.227 L 389.188 79.102 389.526 97.145 C 389.719 107.385,389.718 119.547,389.524 125.270 M128.711 84.498 C 118.876 89.513,116.955 90.628,108.939 95.974 C 100.658 101.497,99.436 102.615,99.295 104.799 C 99.141 107.188,100.888 107.650,101.477 105.377 C 102.053 103.155,127.344 86.147,127.344 87.982 C 127.344 88.251,120.901 93.693,115.085 98.335 C 110.185 102.245,109.553 102.640,109.297 101.948 C 108.302 99.260,101.198 105.733,89.572 119.922 C 82.144 128.987,80.606 131.122,74.800 140.430 C 72.924 143.438,70.341 147.512,69.060 149.484 C 63.397 158.201,56.661 177.633,53.343 194.827 C 51.936 202.121,52.126 201.994,54.083 194.336 C 55.102 190.348,56.478 186.135,57.527 183.789 C 59.658 179.022,59.907 178.400,59.828 178.027 C 59.794 177.866,59.960 177.734,60.198 177.734 C 60.436 177.734,60.526 177.462,60.398 177.128 C 60.270 176.795,60.297 176.604,60.459 176.704 C 60.718 176.864,65.097 168.500,68.796 160.779 C 69.507 159.295,70.677 157.458,71.397 156.695 C 72.771 155.238,75.133 150.042,75.608 147.433 C 75.990 145.337,77.002 143.442,81.748 135.938 C 83.990 132.393,85.701 129.404,85.550 129.297 C 85.116 128.988,96.643 114.445,98.006 113.582 C 98.901 113.015,99.367 112.918,99.735 113.223 C 100.106 113.531,100.487 113.412,101.193 112.770 C 101.718 112.291,103.730 110.618,105.664 109.053 C 107.598 107.488,111.113 104.307,113.477 101.984 C 118.534 97.013,118.408 97.103,126.311 92.798 C 134.593 88.287,136.363 87.075,135.896 86.240 C 135.628 85.762,135.759 85.379,136.395 84.788 C 137.784 83.494,136.328 83.786,134.389 85.191 C 132.844 86.310,132.776 86.327,133.452 85.420 C 133.852 84.882,135.382 83.858,136.852 83.144 C 139.510 81.853,140.288 81.108,139.954 80.176 C 139.593 79.169,137.842 79.841,128.711 84.498 M192.209 104.122 C 192.605 104.606,192.252 106.250,191.751 106.250 C 191.562 106.250,191.430 105.239,191.459 104.004 C 191.489 102.769,191.593 102.197,191.692 102.734 C 191.791 103.271,192.023 103.896,192.209 104.122 M240.234 113.661 C 236.320 114.167,235.234 114.468,234.986 115.115 C 234.546 116.260,235.330 116.472,238.522 116.072 C 240.216 115.859,241.865 115.694,242.188 115.703 C 246.749 115.842,255.753 115.098,256.381 114.530 C 257.062 113.913,257.145 113.921,257.753 114.652 C 258.109 115.080,259.268 115.839,260.328 116.339 C 261.388 116.839,262.062 117.015,261.826 116.730 C 261.590 116.444,261.338 115.691,261.265 115.055 C 261.169 114.211,260.869 113.825,260.156 113.629 C 258.880 113.276,243.011 113.302,240.234 113.661 M342.578 116.178 C 342.578 116.854,341.391 115.753,341.043 114.754 C 340.426 112.983,340.521 112.946,341.602 114.537 C 342.139 115.327,342.578 116.066,342.578 116.178 M262.891 118.123 C 262.891 119.032,266.819 124.732,268.707 126.563 C 272.422 130.165,273.538 136.596,271.232 141.113 C 270.930 141.704,270.847 142.188,271.048 142.188 C 271.391 142.188,271.512 142.922,272.104 148.590 C 272.520 152.577,269.196 166.167,267.516 167.343 C 267.032 167.682,266.649 168.516,266.514 169.527 C 266.272 171.324,265.400 171.992,264.643 170.958 C 264.044 170.138,263.697 170.511,262.354 173.408 C 261.571 175.098,261.474 175.634,261.842 176.224 C 262.464 177.220,262.522 177.188,263.969 175.054 C 264.670 174.020,265.691 172.754,266.238 172.241 L 267.232 171.306 266.170 173.251 C 265.587 174.320,264.897 175.459,264.638 175.781 C 262.914 177.928,264.148 180.222,266.318 178.903 C 267.004 178.486,267.814 178.240,268.118 178.357 C 268.422 178.473,268.787 178.381,268.929 178.152 C 269.071 177.922,269.534 177.734,269.958 177.734 C 270.382 177.734,271.646 177.262,272.767 176.684 C 273.888 176.106,275.508 175.564,276.367 175.480 C 279.337 175.190,283.016 175.201,285.352 175.509 C 287.546 175.798,287.633 175.780,286.719 175.227 C 285.150 174.279,292.716 174.376,296.520 175.353 C 301.203 176.555,308.356 179.615,313.477 182.606 C 316.025 184.095,317.361 184.332,317.733 183.363 C 318.080 182.458,317.973 182.366,313.787 179.988 C 304.486 174.705,297.822 172.600,289.453 172.301 L 283.008 172.070 286.266 170.782 C 288.058 170.074,290.518 169.370,291.734 169.218 C 293.758 168.965,293.945 168.859,293.945 167.967 C 293.945 166.018,289.920 166.549,283.262 169.377 C 280.833 170.409,278.620 171.094,277.715 171.094 C 276.777 171.094,276.086 171.317,275.879 171.686 C 275.594 172.196,268.789 175.170,268.522 174.902 C 268.297 174.676,272.549 166.065,273.497 164.829 C 277.555 159.531,278.530 148.321,274.808 149.749 C 274.310 149.941,274.219 149.429,274.219 146.430 C 274.219 143.549,274.321 142.925,274.767 143.095 C 277.800 144.259,277.823 133.079,274.794 129.727 C 274.059 128.913,273.233 127.561,272.959 126.722 C 272.579 125.558,272.228 125.165,271.484 125.068 C 270.926 124.995,269.338 123.820,267.773 122.323 C 264.160 118.863,262.891 117.771,262.891 118.123 M218.359 119.288 C 218.359 119.369,216.070 120.692,213.272 122.226 C 210.474 123.761,206.959 125.803,205.460 126.764 C 203.961 127.724,202.734 128.441,202.734 128.357 C 202.734 128.130,209.327 123.322,211.075 122.273 C 212.879 121.192,218.359 118.946,218.359 119.288 M349.515 126.763 C 350.625 128.476,350.492 128.475,348.828 126.758 C 348.018 125.922,347.722 125.393,348.068 125.395 C 348.379 125.398,349.030 126.013,349.515 126.763 M274.592 137.402 C 274.601 139.175,274.459 140.625,274.275 140.625 C 273.910 140.625,273.426 136.389,273.472 133.594 L 273.501 131.836 274.038 133.008 C 274.348 133.686,274.582 135.536,274.592 137.402 M389.648 147.017 C 389.314 155.522,389.950 166.226,390.849 167.220 C 391.421 167.851,391.438 170.160,391.049 193.234 C 390.814 207.160,390.602 222.422,390.578 227.148 C 390.554 231.875,390.472 235.479,390.397 235.156 C 389.199 230.064,388.331 139.345,389.487 140.060 C 389.782 140.243,389.831 142.355,389.648 147.017 M179.688 142.927 C 179.688 143.119,179.424 143.377,179.102 143.501 C 178.506 143.729,178.302 143.313,178.776 142.839 C 179.149 142.465,179.688 142.517,179.688 142.927 M75.148 146.018 C 75.255 146.191,73.753 149.135,71.809 152.561 C 67.639 159.912,64.675 165.767,62.875 170.207 C 60.793 175.343,61.085 173.635,63.301 167.715 C 66.480 159.223,68.436 155.070,71.537 150.225 C 74.344 145.840,74.748 145.370,75.148 146.018 M274.719 154.375 L 274.321 156.445 274.270 153.926 C 274.231 152.028,274.330 151.517,274.668 151.855 C 274.995 152.182,275.009 152.865,274.719 154.375 M173.242 173.490 C 169.026 173.950,166.815 173.985,160.156 173.699 C 151.030 173.308,145.508 173.782,145.508 174.957 C 145.508 176.265,146.750 176.987,147.429 176.074 C 147.979 175.335,150.211 175.206,153.516 175.724 C 155.508 176.035,155.188 176.097,143.007 177.755 L 137.381 178.520 136.805 177.698 C 135.573 175.939,126.902 178.489,121.753 182.125 C 121.149 182.551,119.215 183.216,117.456 183.603 C 106.584 185.990,98.838 190.634,92.880 198.340 C 90.869 200.941,89.523 202.344,89.038 202.344 C 87.822 202.344,85.547 207.259,85.547 209.886 C 85.547 212.963,85.843 212.832,87.752 208.911 C 89.525 205.268,90.481 204.308,89.079 207.578 C 85.324 216.338,85.628 245.466,89.476 245.500 C 90.395 245.508,90.438 245.630,90.647 248.828 C 91.023 254.585,100.586 271.418,105.505 274.981 C 107.481 276.413,112.034 278.236,113.002 277.983 C 113.414 277.875,115.081 278.127,116.706 278.542 C 122.397 279.998,120.780 278.557,114.065 276.189 C 108.114 274.090,105.790 272.559,101.074 267.632 C 97.824 264.236,96.039 261.839,97.754 263.175 C 98.022 263.385,100.377 264.396,102.987 265.424 C 107.430 267.174,107.965 267.504,111.386 270.609 C 117.764 276.398,121.119 278.485,129.480 281.862 C 132.319 283.009,132.634 283.063,133.074 282.478 C 133.516 281.890,133.692 281.912,135.167 282.743 C 141.898 286.536,152.041 287.594,173.339 286.723 C 187.403 286.149,191.773 286.347,192.094 287.574 C 192.330 288.478,192.543 288.455,197.852 286.951 C 199.785 286.403,206.211 284.727,212.131 283.228 C 221.799 280.779,233.418 276.647,232.687 275.916 C 232.620 275.849,229.148 276.657,224.973 277.713 C 215.928 280.001,213.662 280.426,208.228 280.856 C 205.959 281.035,203.223 281.376,202.148 281.614 C 197.345 282.676,190.086 283.282,182.031 283.292 L 173.633 283.304 168.945 281.897 C 156.602 278.193,121.154 265.760,118.498 264.204 C 116.903 263.269,116.681 263.230,116.128 263.783 C 114.431 265.479,116.563 266.542,133.789 272.586 C 141.738 275.375,151.055 278.647,154.492 279.856 L 160.742 282.054 156.993 281.844 C 150.882 281.501,143.476 279.103,122.266 270.601 L 111.523 266.295 107.028 262.347 C 97.756 254.204,90.256 245.240,92.179 244.599 C 92.842 244.378,92.637 243.136,91.441 240.126 C 89.053 234.116,87.672 228.516,88.576 228.516 C 88.782 228.516,89.042 225.852,89.164 222.497 L 89.384 216.478 91.567 212.243 C 94.694 206.176,95.902 204.378,96.955 204.229 C 97.648 204.130,97.855 203.847,97.867 202.978 C 97.880 202.040,98.183 201.702,99.707 200.928 L 101.530 200.002 102.953 200.967 C 104.487 202.008,106.650 202.574,107.642 202.193 C 108.581 201.833,108.192 200.221,107.129 200.070 C 106.454 199.975,106.250 199.689,106.250 198.843 C 106.250 197.657,107.217 196.950,107.573 197.876 C 107.896 198.720,109.414 198.569,109.649 197.670 C 109.892 196.739,110.763 196.213,119.727 191.582 C 133.076 184.684,138.645 183.409,158.203 182.774 C 181.836 182.006,192.578 181.899,193.554 182.421 C 194.235 182.786,194.773 182.805,195.662 182.495 C 196.666 182.145,197.677 182.318,202.041 183.585 C 204.893 184.413,210.548 186.012,214.607 187.138 C 219.343 188.451,222.208 189.442,222.604 189.905 C 222.943 190.301,223.456 190.625,223.744 190.625 C 224.032 190.625,226.146 191.737,228.442 193.097 C 230.738 194.456,234.111 196.382,235.938 197.376 C 238.898 198.987,240.172 200.106,247.696 207.697 C 258.437 218.535,258.549 218.699,262.908 230.078 C 264.266 233.623,265.692 236.881,266.077 237.319 C 267.929 239.425,267.705 244.090,265.627 246.680 C 264.938 247.539,263.732 249.206,262.949 250.383 C 260.094 254.671,255.181 259.275,250.653 261.905 C 249.186 262.758,248.810 263.171,248.966 263.766 C 249.530 265.925,231.966 272.477,217.837 275.379 C 213.205 276.330,211.699 277.434,213.889 278.274 C 215.380 278.847,232.357 274.571,238.620 272.046 C 242.338 270.546,242.345 270.671,238.672 273.046 L 236.133 274.687 240.234 274.416 C 245.274 274.084,252.307 270.445,247.758 270.523 C 246.718 270.541,246.471 270.770,251.510 267.040 C 255.656 263.970,257.031 263.083,257.031 263.478 C 257.031 263.931,258.485 262.589,263.169 257.813 C 265.803 255.127,267.960 252.704,267.963 252.428 C 267.966 252.152,268.216 251.536,268.519 251.060 C 269.486 249.539,270.411 244.450,269.943 243.220 C 269.340 241.633,269.434 239.880,270.340 235.836 C 271.410 231.057,270.828 228.473,267.887 224.939 C 264.904 221.355,264.418 219.649,265.890 217.927 C 266.353 217.385,266.238 216.849,265.050 214.033 C 264.293 212.238,263.765 210.480,263.877 210.127 C 263.989 209.774,263.782 209.241,263.418 208.942 C 263.054 208.643,262.153 207.096,261.416 205.505 C 260.197 202.873,255.697 197.706,254.590 197.667 C 253.874 197.641,254.413 198.928,255.709 200.337 C 256.485 201.182,257.442 202.592,257.836 203.470 L 258.551 205.068 256.326 203.886 C 255.103 203.236,252.380 201.330,250.276 199.651 C 248.172 197.971,245.274 195.912,243.837 195.076 C 242.400 194.239,240.955 193.289,240.627 192.965 C 240.044 192.388,235.177 190.713,226.953 188.259 C 224.697 187.586,221.885 186.496,220.703 185.837 C 218.152 184.413,218.174 184.430,218.430 184.174 C 218.737 183.867,239.446 188.882,244.878 190.579 C 247.694 191.458,247.691 191.453,243.945 188.868 C 241.292 187.037,241.101 186.973,237.500 186.685 C 232.397 186.278,226.101 184.933,223.053 183.601 C 219.481 182.039,216.237 180.993,212.707 180.263 C 211.039 179.919,208.751 179.229,207.624 178.731 C 205.308 177.706,199.792 176.337,196.289 175.917 C 194.547 175.708,194.196 175.575,194.922 175.398 C 195.634 175.225,195.898 174.900,195.898 174.201 L 195.898 173.242 186.133 173.196 C 180.762 173.170,174.961 173.303,173.242 173.490 M183.121 176.975 C 186.711 177.201,191.230 177.619,193.164 177.902 L 196.680 178.417 192.548 178.466 C 190.276 178.493,186.497 178.791,184.150 179.127 C 180.834 179.602,177.228 179.710,167.969 179.615 C 161.416 179.547,153.594 179.615,150.586 179.766 L 145.117 180.040 155.664 178.338 C 167.439 176.438,171.458 176.238,183.121 176.975 M289.258 178.516 C 288.985 178.957,289.203 179.018,290.698 178.921 C 291.275 178.883,292.154 179.052,292.651 179.296 C 293.506 179.716,293.503 179.697,292.578 178.941 C 291.547 178.098,289.665 177.857,289.258 178.516 M60.020 183.480 C 57.989 187.808,57.687 188.775,57.309 192.181 C 57.007 194.907,56.747 195.960,56.407 195.830 C 56.145 195.729,55.837 195.967,55.723 196.358 C 55.116 198.442,53.118 208.326,53.272 208.480 C 53.671 208.879,54.281 206.982,54.876 203.489 C 55.744 198.392,55.769 198.329,56.863 198.538 C 57.372 198.636,57.712 198.591,57.618 198.439 C 57.524 198.286,57.699 197.828,58.008 197.421 C 58.316 197.013,58.574 196.012,58.581 195.195 C 58.588 194.379,58.831 193.237,59.120 192.656 C 59.410 192.076,59.849 190.126,60.095 188.323 C 60.342 186.520,60.694 184.850,60.879 184.612 C 61.236 184.152,62.612 178.878,62.419 178.710 C 62.356 178.655,61.276 180.802,60.020 183.480 M305.339 181.510 C 304.804 182.045,305.108 183.088,306.032 183.891 C 307.103 184.823,315.478 201.393,316.516 204.635 C 316.886 205.787,317.188 207.831,317.188 209.177 C 317.188 210.778,317.585 212.913,318.337 215.357 C 318.969 217.412,319.604 219.718,319.748 220.484 C 320.061 222.152,321.094 222.396,321.093 220.801 C 321.093 220.210,320.822 218.232,320.491 216.406 C 320.160 214.580,319.734 211.152,319.545 208.789 C 319.144 203.773,318.547 202.187,312.810 190.898 C 308.497 182.413,306.697 180.152,305.339 181.510 M298.828 183.298 C 298.828 183.452,302.299 186.403,305.757 189.189 C 306.625 189.888,306.641 189.885,306.640 188.993 C 306.639 188.287,305.967 187.660,303.613 186.167 C 301.948 185.111,300.190 183.992,299.707 183.680 C 299.224 183.368,298.828 183.196,298.828 183.298 M108.249 192.784 C 104.981 195.867,103.426 196.946,101.367 197.561 C 100.508 197.817,98.442 198.805,96.777 199.757 C 93.205 201.798,93.191 201.785,95.672 198.688 C 99.498 193.913,103.276 190.837,103.633 192.205 C 103.870 193.111,105.283 193.232,105.755 192.388 C 106.023 191.909,109.581 190.365,110.652 190.263 C 110.817 190.247,109.736 191.382,108.249 192.784 M236.390 193.896 C 238.474 194.754,244.922 198.348,244.922 198.653 C 244.922 198.998,241.468 197.527,239.860 196.497 C 238.884 195.872,236.943 194.835,235.547 194.193 C 232.546 192.815,233.200 192.584,236.390 193.896 M322.754 195.603 C 322.068 195.835,322.144 197.526,322.852 197.798 C 323.203 197.932,323.438 198.521,323.438 199.267 C 323.438 200.448,323.401 200.479,322.723 199.865 C 321.237 198.521,319.786 199.724,320.880 201.394 C 322.039 203.163,325.333 222.956,325.783 230.859 C 325.997 234.619,326.271 238.281,326.391 238.997 C 326.526 239.798,326.399 240.625,326.063 241.146 C 324.833 243.048,323.514 248.537,323.966 249.874 C 324.137 250.381,324.016 251.292,323.664 252.134 C 323.340 252.910,323.244 253.440,323.451 253.312 C 326.411 251.482,315.652 266.432,310.586 271.187 C 307.705 273.892,307.492 274.185,308.565 273.971 C 310.117 273.660,311.085 274.384,310.523 275.436 C 310.047 276.324,305.229 278.792,297.601 282.055 C 294.539 283.365,291.848 284.668,291.622 284.951 C 291.396 285.234,288.750 286.552,285.742 287.881 C 282.734 289.209,280.076 290.548,279.835 290.857 C 279.594 291.166,278.534 291.675,277.478 291.988 C 276.423 292.302,275.159 292.931,274.670 293.387 C 274.181 293.843,272.693 294.524,271.363 294.901 C 269.365 295.467,268.964 295.719,269.055 296.354 C 269.305 298.099,266.924 298.892,259.341 299.588 C 254.973 299.989,253.373 300.292,249.141 301.519 C 247.059 302.122,246.441 302.177,246.117 301.786 C 245.678 301.256,242.834 301.503,241.783 302.162 C 241.468 302.359,240.684 302.546,240.039 302.577 C 239.395 302.608,237.208 303.287,235.179 304.087 C 230.920 305.765,225.953 306.488,216.028 306.873 C 210.435 307.090,209.396 307.256,202.734 308.998 C 198.760 310.037,194.541 311.073,193.359 311.301 C 190.106 311.929,181.388 313.223,178.449 313.515 L 175.843 313.773 175.714 312.648 C 175.606 311.697,175.390 311.505,174.316 311.401 C 173.618 311.334,173.047 311.129,173.047 310.946 C 173.047 310.374,178.088 310.311,183.984 310.810 C 191.275 311.427,190.938 311.432,190.875 310.699 C 190.799 309.817,191.433 309.543,196.094 308.447 L 200.195 307.482 195.703 307.745 C 193.232 307.890,186.518 308.008,180.782 308.008 C 170.917 308.008,170.342 308.047,170.161 308.739 C 169.994 309.380,169.737 309.435,168.090 309.180 C 167.057 309.021,165.200 308.917,163.965 308.949 C 162.646 308.984,161.719 308.842,161.719 308.606 C 161.719 307.941,160.085 308.152,159.541 308.887 C 159.071 309.523,158.253 309.307,147.779 305.785 C 141.589 303.704,135.425 301.807,134.083 301.569 C 132.741 301.332,130.943 300.891,130.089 300.590 C 129.235 300.288,128.446 300.187,128.337 300.364 C 128.227 300.542,127.783 300.780,127.349 300.893 C 126.916 301.006,126.648 300.960,126.753 300.789 C 126.858 300.619,125.935 299.806,124.703 298.983 C 123.470 298.161,122.109 297.193,121.680 296.833 C 121.250 296.473,118.878 295.440,116.409 294.538 C 112.001 292.927,92.768 281.208,88.756 277.688 C 87.232 276.351,86.414 276.263,85.997 277.388 C 85.646 278.338,80.469 273.131,80.469 271.828 C 80.469 271.464,79.051 269.913,77.317 268.384 C 72.972 264.548,69.450 260.517,67.324 256.947 C 66.337 255.290,65.139 253.678,64.661 253.364 C 64.092 252.992,63.556 251.940,63.111 250.323 C 62.737 248.964,61.751 246.270,60.920 244.336 C 60.089 242.402,59.357 240.557,59.294 240.234 C 59.231 239.912,59.068 239.561,58.931 239.453 C 58.794 239.346,58.243 238.203,57.706 236.914 C 57.056 235.355,56.388 234.400,55.711 234.062 C 54.145 233.280,53.941 232.558,52.425 222.469 L 52.133 220.525 51.242 221.776 C 50.248 223.172,49.799 226.999,50.478 228.282 C 50.695 228.690,51.189 230.540,51.577 232.392 C 53.332 240.775,59.192 255.078,60.871 255.078 C 61.374 255.078,63.236 256.940,66.269 260.477 C 84.774 282.055,103.179 299.785,105.271 298.049 C 106.350 297.154,105.885 296.522,102.441 294.201 C 95.688 289.648,96.058 289.630,107.813 293.935 C 108.564 294.211,109.817 295.029,110.596 295.753 C 111.375 296.478,113.220 297.571,114.697 298.182 C 116.174 298.794,120.849 301.489,125.085 304.170 C 132.619 308.941,133.372 309.251,133.914 307.807 C 134.154 307.169,134.746 307.346,140.020 309.632 C 150.875 314.337,158.045 316.520,163.292 316.718 C 171.373 317.021,195.599 314.038,196.758 312.596 C 197.499 311.674,211.011 312.775,212.779 313.902 C 214.017 314.690,217.519 314.584,221.224 313.645 C 230.216 311.365,286.585 295.605,288.184 294.923 C 289.133 294.518,289.390 293.070,288.568 292.755 C 288.296 292.650,286.185 293.095,283.876 293.743 C 278.463 295.263,278.282 295.206,282.813 293.409 C 287.354 291.607,288.808 290.869,294.531 287.461 C 298.187 285.284,299.605 284.666,302.148 284.145 C 306.247 283.304,306.943 282.907,309.614 279.883 C 310.853 278.481,312.448 276.991,313.160 276.571 C 313.999 276.076,314.453 275.507,314.453 274.951 C 314.453 273.928,317.464 269.805,317.978 270.123 C 318.996 270.752,324.549 264.827,326.996 260.501 C 327.771 259.130,328.891 257.162,329.484 256.129 C 331.395 252.798,331.448 250.077,329.844 237.695 C 329.510 235.117,329.255 231.455,329.278 229.557 C 329.312 226.749,329.176 225.873,328.546 224.853 C 327.884 223.783,327.626 221.777,326.777 211.116 C 325.515 195.265,325.372 194.716,322.754 195.603 M180.379 198.267 C 180.258 198.388,176.142 198.528,171.232 198.577 C 162.448 198.665,162.268 198.684,160.016 199.722 C 158.243 200.539,157.386 200.722,156.214 200.535 C 154.114 200.199,152.734 201.123,152.734 202.863 C 152.734 204.268,152.513 204.461,145.703 208.996 C 143.797 210.265,141.021 212.647,139.185 214.588 C 136.856 217.049,135.726 217.969,135.027 217.969 C 133.973 217.969,133.594 218.602,133.594 220.364 C 133.594 221.084,133.003 222.366,132.033 223.750 C 128.794 228.370,128.743 237.960,131.919 245.036 C 133.125 247.723,137.408 251.953,138.924 251.953 C 140.348 251.953,140.147 250.325,138.574 249.120 C 136.688 247.674,135.154 246.051,134.524 244.832 C 133.724 243.286,134.093 243.496,135.342 245.299 C 135.955 246.183,137.151 247.204,138.130 247.677 C 139.072 248.134,139.844 248.645,139.844 248.814 C 139.844 249.645,143.427 253.795,145.503 255.368 C 150.266 258.977,154.093 260.169,164.063 261.149 C 172.328 261.961,175.391 262.522,175.391 263.221 C 175.391 263.904,186.440 263.647,190.581 262.867 C 192.791 262.451,193.116 262.470,193.432 263.035 C 193.956 263.970,194.784 263.836,198.861 262.156 C 210.378 257.409,210.992 257.025,215.896 251.477 C 219.506 247.393,225.903 239.155,226.332 238.036 C 226.742 236.969,225.828 234.766,224.977 234.766 C 224.038 234.766,223.880 234.035,223.742 229.044 C 223.660 226.056,223.476 224.902,222.997 224.356 C 222.647 223.958,222.243 222.810,222.098 221.805 C 221.786 219.635,220.601 217.969,219.370 217.969 C 218.765 217.969,216.885 216.418,213.441 213.080 C 208.184 207.984,204.668 205.327,201.085 203.743 C 199.922 203.228,198.298 202.351,197.477 201.794 C 195.488 200.444,193.750 200.418,193.750 201.738 C 193.750 202.265,194.058 202.875,194.434 203.094 C 194.810 203.313,194.933 203.497,194.708 203.504 C 194.483 203.510,193.605 202.804,192.756 201.935 C 190.327 199.448,185.637 197.343,184.961 198.438 C 184.828 198.652,184.125 198.828,183.398 198.828 C 182.672 198.828,181.969 198.652,181.836 198.438 C 181.573 198.013,180.732 197.914,180.379 198.267 M249.462 203.352 C 257.752 207.200,259.724 209.515,262.143 218.245 C 264.445 226.554,264.484 226.948,262.570 222.656 C 260.159 217.245,258.457 214.986,251.716 208.245 C 248.194 204.723,245.313 201.779,245.313 201.702 C 245.313 201.445,245.589 201.555,249.462 203.352 M157.422 210.724 C 156.886 211.021,156.363 211.181,156.262 211.080 C 155.999 210.817,157.115 210.167,157.813 210.176 C 158.152 210.181,157.988 210.411,157.422 210.724 M50.500 215.553 C 50.040 220.201,50.002 220.158,51.933 217.172 C 53.625 214.553,54.314 210.961,52.898 212.136 C 52.429 212.525,52.111 212.542,51.577 212.209 C 50.926 211.803,50.846 212.051,50.500 215.553 M164.421 212.662 C 164.107 212.975,158.863 214.852,158.715 214.705 C 158.521 214.511,163.349 212.606,164.225 212.531 C 164.422 212.514,164.510 212.573,164.421 212.662 M142.578 214.960 C 142.578 215.024,141.831 215.771,140.918 216.620 L 139.258 218.164 140.802 216.504 C 142.238 214.960,142.578 214.664,142.578 214.960 M200.391 217.493 C 200.391 218.630,200.420 218.652,199.302 216.699 L 198.463 215.233 199.427 215.865 C 200.035 216.263,200.391 216.864,200.391 217.493 M177.129 216.314 C 176.925 216.479,176.274 217.037,175.684 217.554 C 175.093 218.072,174.609 218.287,174.609 218.031 C 174.609 217.776,175.181 217.218,175.879 216.793 C 177.158 216.013,177.816 215.761,177.129 216.314 M216.481 222.015 C 217.095 223.161,216.197 222.450,215.179 220.984 L 214.305 219.727 215.197 220.503 C 215.687 220.931,216.265 221.611,216.481 222.015 M219.650 221.507 C 219.784 222.018,219.694 222.255,219.403 222.158 C 218.841 221.971,218.548 220.703,219.066 220.703 C 219.272 220.703,219.535 221.065,219.650 221.507 M269.338 223.440 C 269.728 223.871,270.132 224.139,270.236 224.035 C 270.498 223.773,269.524 222.656,269.032 222.656 C 268.810 222.656,268.948 223.009,269.338 223.440 M178.129 223.629 C 177.641 224.216,176.953 224.091,176.953 223.414 C 176.953 223.212,177.326 223.047,177.782 223.047 C 178.472 223.047,178.530 223.144,178.129 223.629 M163.281 225.318 C 163.281 225.632,160.784 226.965,160.241 226.941 C 160.000 226.930,162.918 225.007,163.184 225.002 C 163.237 225.001,163.281 225.143,163.281 225.318 M138.196 226.761 L 138.307 227.930 137.521 226.953 C 136.550 225.745,136.514 225.294,137.402 225.463 C 137.839 225.546,138.126 226.015,138.196 226.761 M268.730 232.194 C 268.768 233.622,268.181 232.363,267.507 229.568 C 267.135 228.022,266.840 226.582,266.852 226.367 C 266.889 225.731,268.709 231.377,268.730 232.194 M192.109 227.756 C 192.771 228.278,193.445 228.481,194.026 228.335 C 194.962 228.100,195.220 228.847,194.685 230.241 C 194.438 230.884,189.963 233.203,188.970 233.203 C 186.581 233.203,186.036 228.101,188.383 227.710 C 189.191 227.575,189.968 227.350,190.108 227.209 C 190.538 226.779,191.042 226.917,192.109 227.756 M197.485 231.198 C 196.896 231.787,196.885 231.732,197.335 230.468 C 197.696 229.455,197.860 229.290,197.972 229.831 C 198.054 230.233,197.835 230.848,197.485 231.198 M138.460 234.861 C 138.599 235.990,138.812 237.441,138.933 238.086 C 139.331 240.201,138.773 238.928,137.907 235.742 C 136.525 230.665,136.556 230.915,137.442 231.931 C 137.879 232.432,138.316 233.688,138.460 234.861 M167.385 232.032 C 168.351 232.630,168.708 233.177,168.896 234.348 C 169.227 236.421,170.760 237.650,172.587 237.307 C 175.840 236.697,178.237 242.511,176.063 245.737 C 175.157 247.081,172.368 248.938,171.792 248.581 C 171.617 248.474,168.621 248.236,165.132 248.053 C 158.504 247.706,155.761 247.126,155.549 246.028 C 155.436 245.438,155.585 245.424,157.106 245.881 C 160.409 246.874,165.110 247.055,165.564 246.208 C 166.220 244.982,165.606 244.671,161.656 244.228 C 154.255 243.400,152.742 240.632,156.673 235.110 C 158.568 232.450,159.944 231.861,165.579 231.303 C 165.876 231.274,166.688 231.602,167.385 232.032 M155.207 232.990 C 154.017 234.481,153.834 234.539,154.151 233.328 C 154.320 232.682,155.312 231.865,156.169 231.667 C 156.232 231.653,155.799 232.248,155.207 232.990 M175.391 233.678 C 175.391 234.307,173.984 233.923,172.852 232.986 L 171.680 232.015 173.535 232.693 C 174.556 233.066,175.391 233.510,175.391 233.678 M187.437 236.599 C 187.040 237.077,186.894 237.026,186.468 236.257 C 185.715 234.900,185.831 234.678,186.921 235.392 C 187.716 235.913,187.815 236.144,187.437 236.599 M178.089 237.173 C 178.671 238.845,178.481 238.875,177.433 237.277 C 176.778 236.278,176.695 235.938,177.107 235.938 C 177.410 235.938,177.852 236.493,178.089 237.173 M142.135 242.188 C 142.167 242.954,142.094 243.038,141.797 242.578 C 141.589 242.256,141.436 241.289,141.458 240.430 C 141.504 238.673,142.049 240.088,142.135 242.188 M179.682 241.764 C 179.689 243.018,179.467 242.700,179.158 241.016 C 178.982 240.054,179.021 239.822,179.291 240.234 C 179.503 240.557,179.678 241.245,179.682 241.764 M58.360 244.520 C 60.183 248.670,60.740 250.584,59.372 247.995 C 58.589 246.513,56.250 240.789,56.250 240.354 C 56.250 239.828,56.619 240.557,58.360 244.520 M144.920 246.389 C 145.352 248.048,144.154 248.925,142.948 247.832 C 142.228 247.181,142.234 247.146,143.175 246.406 C 143.737 245.964,144.160 245.209,144.186 244.601 C 144.220 243.805,144.274 243.742,144.410 244.336 C 144.508 244.766,144.737 245.690,144.920 246.389 M181.771 245.870 C 181.889 246.176,181.756 246.617,181.476 246.850 C 181.074 247.183,181.006 247.065,181.154 246.292 C 181.369 245.166,181.473 245.094,181.771 245.870 M328.665 251.758 C 328.467 252.709,327.550 254.910,327.155 255.380 C 327.105 255.439,326.807 255.388,326.491 255.267 C 326.020 255.086,326.114 254.659,327.021 252.859 C 327.628 251.656,328.140 250.125,328.159 249.457 L 328.192 248.242 328.550 249.414 C 328.747 250.059,328.799 251.113,328.665 251.758 M158.203 250.024 C 158.628 250.272,158.446 250.370,157.543 250.379 C 156.857 250.385,156.187 250.567,156.054 250.782 C 155.659 251.421,154.285 250.485,154.561 249.765 C 154.807 249.124,156.923 249.274,158.203 250.024 M167.704 250.936 C 167.927 251.517,165.949 251.442,163.477 250.777 C 162.544 250.525,162.834 250.454,164.900 250.426 C 166.784 250.400,167.552 250.540,167.704 250.936 M324.805 251.953 C 324.451 252.638,324.081 253.117,323.982 253.019 C 323.884 252.921,324.114 252.300,324.492 251.641 C 325.387 250.081,325.641 250.335,324.805 251.953 M173.931 251.447 C 173.451 251.540,172.572 251.542,171.978 251.452 C 171.384 251.362,171.777 251.287,172.852 251.284 C 173.926 251.281,174.412 251.354,173.931 251.447 M176.758 251.563 C 176.625 251.777,176.131 251.941,175.661 251.926 C 174.835 251.899,174.833 251.886,175.586 251.563 C 176.661 251.100,177.043 251.100,176.758 251.563 M97.959 257.709 C 99.523 259.053,101.349 260.775,102.018 261.537 L 103.233 262.922 101.229 262.132 C 100.127 261.698,98.524 260.900,97.667 260.359 C 96.810 259.818,95.974 259.371,95.809 259.366 C 95.643 259.360,95.129 258.210,94.666 256.810 C 93.706 253.903,93.449 253.833,97.959 257.709 M184.769 255.269 C 184.367 255.754,184.159 255.776,183.685 255.383 C 183.180 254.963,183.227 254.864,184.030 254.660 C 185.210 254.361,185.396 254.514,184.769 255.269 M315.592 262.207 C 312.974 265.084,310.561 268.359,311.059 268.359 C 311.161 268.359,312.938 266.250,315.007 263.672 C 317.077 261.094,318.715 258.984,318.647 258.984 C 318.580 258.984,317.205 260.435,315.592 262.207 M124.805 274.217 C 130.874 276.653,142.499 280.977,144.827 281.665 C 148.013 282.607,146.121 282.488,142.118 281.496 C 139.900 280.946,136.174 280.049,133.838 279.503 C 128.612 278.280,126.961 277.566,122.363 274.540 C 119.053 272.362,117.982 271.486,119.238 271.985 C 119.507 272.092,122.012 273.097,124.805 274.217 M94.023 284.237 C 100.898 288.717,101.234 288.993,98.438 287.863 C 97.256 287.385,95.802 286.976,95.207 286.954 C 94.246 286.919,87.056 280.469,87.977 280.469 C 88.122 280.469,90.843 282.164,94.023 284.237 M390.514 286.230 C 390.425 286.821,390.351 286.338,390.351 285.156 C 390.351 283.975,390.425 283.491,390.514 284.082 C 390.604 284.673,390.604 285.640,390.514 286.230 M219.903 285.128 C 217.162 285.762,214.832 286.680,215.892 286.707 C 216.964 286.734,222.003 285.503,222.972 284.977 C 224.323 284.244,223.563 284.281,219.903 285.128 M135.977 304.242 C 153.211 310.399,156.432 311.374,160.838 311.765 C 164.738 312.111,173.819 313.533,174.132 313.846 C 174.448 314.161,165.639 314.538,162.538 314.343 C 157.613 314.032,149.311 311.180,136.050 305.245 C 126.944 301.169,126.933 301.010,135.977 304.242 M243.945 303.906 C 244.078 304.121,244.572 304.311,245.043 304.329 C 245.956 304.362,237.204 306.954,228.516 309.222 L 223.242 310.599 214.844 310.475 C 202.763 310.297,202.231 309.580,213.929 309.242 C 228.236 308.830,232.311 308.148,239.648 304.937 C 243.058 303.446,243.583 303.320,243.945 303.906 M385.755 339.818 C 384.348 342.595,384.313 342.337,385.489 337.847 L 386.523 333.897 386.641 335.868 C 386.730 337.373,386.520 338.308,385.755 339.818 M7.228 343.071 C 7.452 343.931,7.392 344.105,6.931 343.928 C 6.311 343.690,5.840 340.922,5.903 337.891 C 5.935 336.336,5.998 336.472,6.443 339.063 C 6.720 340.674,7.073 342.478,7.228 343.071 M385.728 346.582 C 385.178 349.870,381.702 358.699,381.658 356.921 C 381.648 356.539,381.392 356.130,381.088 356.013 C 380.293 355.708,380.966 353.802,383.594 348.919 C 386.031 344.389,386.110 344.303,385.728 346.582 M10.293 354.674 C 10.842 356.493,11.234 358.037,11.166 358.105 C 11.021 358.250,8.423 352.220,8.011 350.781 L 7.731 349.805 8.514 350.586 C 8.944 351.016,9.745 352.855,10.293 354.674 M18.750 359.755 C 21.006 361.760,23.027 363.573,23.242 363.785 C 23.457 363.996,22.227 363.233,20.508 362.090 C 17.251 359.922,12.891 355.888,12.891 355.041 C 12.891 354.734,13.219 354.842,13.770 355.331 C 14.253 355.759,16.494 357.750,18.750 359.755 M380.432 359.766 C 379.133 361.875,378.699 362.231,379.119 360.840 C 379.344 360.094,381.150 357.813,381.515 357.813 C 381.580 357.813,381.093 358.691,380.432 359.766 M18.848 363.873 C 20.083 364.683,21.094 365.489,21.094 365.666 C 21.094 366.594,26.455 371.492,30.886 374.614 C 36.389 378.489,36.654 378.737,34.473 377.958 C 24.748 374.483,14.844 366.084,14.844 361.312 C 14.844 360.977,15.146 361.076,15.723 361.601 C 16.206 362.041,17.612 363.064,18.848 363.873 M375.603 364.425 C 375.462 364.653,374.961 365.040,374.490 365.285 C 373.673 365.710,373.677 365.683,374.578 364.703 C 375.478 363.725,376.148 363.543,375.603 364.425 M371.680 370.105 C 371.035 370.633,370.303 371.072,370.052 371.080 C 369.801 371.087,368.425 371.715,366.993 372.475 C 365.561 373.234,364.506 373.669,364.647 373.440 C 364.868 373.082,372.114 369.213,372.656 369.163 C 372.764 369.153,372.324 369.577,371.680 370.105 M264.536 379.297 L 264.364 380.469 251.811 380.415 C 241.845 380.372,240.023 380.291,242.969 380.022 C 252.280 379.171,263.160 378.207,263.897 378.168 C 264.583 378.132,264.682 378.306,264.536 379.297 M281.507 378.516 C 285.771 378.516,287.500 378.646,287.500 378.966 C 287.500 379.514,268.738 379.085,266.948 378.496 C 266.169 378.240,267.319 378.185,270.667 378.320 C 273.332 378.428,278.210 378.516,281.507 378.516 M155.918 379.980 C 156.309 380.371,152.916 380.469,138.958 380.469 C 123.453 380.469,121.534 380.402,121.738 379.871 C 122.047 379.065,155.110 379.171,155.918 379.980 " stroke="none" fill="#040404" fill-rule="evenodd"></path><path id="path1" d="M146.052 47.331 C 116.715 68.842,115.196 70.099,115.592 72.537 C 115.937 74.658,117.670 74.745,117.969 72.656 C 118.197 71.059,121.690 68.222,139.866 54.868 C 166.397 35.378,165.043 36.490,163.337 35.577 C 162.730 35.252,159.914 37.166,146.052 47.331 M82.622 46.402 C 72.114 55.037,66.961 59.998,59.615 68.555 C 49.832 79.949,32.422 102.737,32.422 104.147 C 32.422 106.358,34.002 107.962,35.100 106.865 C 35.583 106.381,35.602 106.096,35.209 105.232 C 34.751 104.229,34.994 103.838,41.085 95.771 C 62.646 67.214,68.189 61.264,88.995 44.350 C 92.633 41.393,93.755 40.267,93.669 39.663 C 93.408 37.842,91.979 38.714,82.622 46.402 M276.793 39.698 C 276.544 40.346,277.160 41.406,277.785 41.406 C 278.261 41.406,285.217 45.382,285.044 45.555 C 284.890 45.709,272.526 41.640,271.289 41.028 C 267.310 39.059,265.643 40.630,269.385 42.823 C 270.325 43.374,271.094 43.940,271.094 44.081 C 271.094 44.222,271.888 44.759,272.859 45.274 C 275.392 46.618,274.814 46.699,269.924 45.686 C 267.544 45.193,265.797 44.667,266.040 44.516 C 270.239 41.921,253.860 40.329,247.938 42.756 C 245.309 43.834,244.395 44.720,244.613 45.978 C 244.698 46.467,244.184 46.800,242.593 47.286 C 239.202 48.322,238.852 50.769,242.169 50.250 C 243.978 49.968,242.889 50.649,240.039 51.583 C 238.233 52.175,238.077 52.327,237.968 53.593 C 237.779 55.794,239.102 56.417,243.328 56.117 C 246.458 55.895,246.596 55.916,245.410 56.437 C 242.183 57.853,245.022 59.311,248.831 58.193 C 249.581 57.973,253.447 57.257,257.422 56.603 C 261.396 55.948,265.145 55.169,265.752 54.870 C 266.754 54.378,267.563 54.385,270.188 54.909 C 270.706 55.013,271.089 55.424,271.164 55.958 C 271.365 57.367,279.165 59.098,293.559 60.927 C 298.713 61.581,303.494 62.222,304.184 62.349 C 305.177 62.533,306.597 63.844,311.019 68.659 C 314.090 72.002,318.711 77.010,321.289 79.787 C 323.867 82.564,326.817 86.094,327.844 87.630 C 328.870 89.167,330.386 91.128,331.212 91.989 C 337.393 98.435,345.553 111.498,347.442 117.969 C 347.599 118.506,348.690 121.019,349.868 123.554 C 351.045 126.089,352.107 128.770,352.227 129.513 C 352.452 130.900,352.922 131.014,356.319 130.508 C 356.464 130.486,356.670 130.161,356.775 129.785 C 356.880 129.409,356.903 129.848,356.826 130.760 C 356.712 132.094,356.834 132.498,357.450 132.827 C 358.346 133.307,358.255 133.492,359.369 128.906 C 359.812 127.080,360.449 124.619,360.784 123.438 C 362.090 118.830,361.617 112.545,359.529 106.775 C 357.409 100.920,355.571 96.875,355.030 96.875 C 354.820 96.875,354.375 96.216,354.043 95.410 C 353.710 94.604,353.178 93.653,352.861 93.296 C 351.483 91.744,350.484 88.346,350.888 86.582 C 351.507 83.878,350.637 82.614,342.780 74.805 C 338.889 70.938,334.937 66.751,333.997 65.502 C 332.615 63.662,332.127 63.270,331.439 63.443 C 330.627 63.647,326.565 61.077,326.243 60.155 C 326.025 59.533,313.486 49.176,309.847 46.613 C 309.355 46.267,308.301 45.855,307.504 45.699 C 306.707 45.543,305.591 45.290,305.025 45.137 C 304.236 44.925,303.808 45.060,303.196 45.716 L 302.398 46.573 299.734 45.574 C 296.328 44.296,293.289 43.486,290.819 43.196 C 289.744 43.070,286.351 42.089,283.278 41.015 C 276.959 38.806,277.122 38.839,276.793 39.698 M289.613 45.077 C 290.332 45.378,291.046 45.826,291.199 46.074 C 291.473 46.518,289.484 45.824,287.992 44.955 C 286.966 44.358,288.095 44.443,289.613 45.077 M283.984 47.461 C 284.736 47.751,285.088 47.993,284.766 48.000 C 284.443 48.006,283.652 47.770,283.008 47.475 C 281.499 46.784,282.201 46.774,283.984 47.461 M280.664 54.688 C 281.417 55.011,281.415 55.024,280.589 55.051 C 280.119 55.066,279.625 54.902,279.492 54.688 C 279.207 54.225,279.589 54.225,280.664 54.688 M292.383 58.581 L 295.117 59.331 292.969 59.127 C 291.787 59.015,290.381 58.767,289.844 58.577 C 289.307 58.387,288.252 58.165,287.500 58.084 C 286.312 57.957,286.363 57.930,287.891 57.884 C 288.857 57.854,290.879 58.168,292.383 58.581 M316.172 65.485 C 320.125 69.024,320.822 70.178,317.675 67.972 C 315.247 66.269,314.233 65.351,312.819 63.574 C 310.915 61.182,312.157 61.890,316.172 65.485 M326.527 64.932 C 326.845 65.441,326.463 65.268,325.420 64.430 C 324.545 63.726,323.828 63.082,323.828 62.998 C 323.828 62.616,326.094 64.239,326.527 64.932 M338.391 75.118 C 338.915 75.805,339.877 77.423,340.528 78.714 L 341.712 81.060 337.262 76.796 C 334.292 73.950,332.813 72.253,332.813 71.692 C 332.813 71.230,332.554 70.511,332.239 70.094 C 331.924 69.677,331.660 69.188,331.653 69.008 C 331.635 68.535,337.261 73.636,338.391 75.118 M233.789 77.861 C 229.053 80.847,222.320 85.593,213.574 92.111 C 206.663 97.261,206.150 97.909,207.798 99.401 C 208.751 100.263,209.762 99.927,209.776 98.743 C 209.790 97.537,227.087 84.730,236.053 79.287 C 238.790 77.625,239.465 77.037,239.373 76.394 C 239.170 74.972,237.803 75.331,233.789 77.861 M269.691 77.149 C 269.217 77.871,268.749 78.086,267.735 78.048 C 267.002 78.021,266.306 78.095,266.189 78.213 C 266.071 78.330,265.188 78.190,264.228 77.901 C 262.509 77.384,261.328 77.489,261.328 78.159 C 261.328 78.347,260.540 78.393,259.576 78.260 C 258.375 78.096,257.624 78.186,257.190 78.546 C 256.841 78.835,255.828 79.079,254.938 79.087 C 253.547 79.099,253.336 79.211,253.434 79.883 C 253.497 80.313,253.538 81.496,253.525 82.513 C 253.501 84.440,254.434 85.938,255.658 85.938 C 255.978 85.938,257.420 86.564,258.863 87.330 C 260.306 88.095,261.803 88.639,262.189 88.538 C 263.214 88.270,268.176 89.354,270.965 90.455 C 272.291 90.978,273.838 91.406,274.402 91.406 C 276.335 91.406,289.410 102.210,295.843 109.123 C 297.940 111.376,299.197 112.148,300.038 111.699 C 300.583 111.406,301.043 111.734,302.405 113.383 C 303.334 114.509,303.797 115.195,303.432 114.908 C 302.686 114.321,301.953 114.597,301.953 115.466 C 301.953 117.760,314.016 134.375,315.681 134.375 C 315.835 134.375,316.241 134.094,316.584 133.751 C 316.927 133.408,317.454 133.222,317.755 133.337 C 318.693 133.697,319.192 132.592,319.013 130.550 C 318.826 128.419,319.551 128.145,321.147 129.740 C 322.854 131.447,323.665 129.113,322.298 126.430 C 321.885 125.621,321.340 123.695,321.085 122.148 C 320.562 118.978,319.740 116.936,318.780 116.422 C 318.422 116.231,317.712 115.182,317.201 114.092 C 316.691 113.001,316.083 112.109,315.851 112.109 C 315.619 112.109,315.068 111.362,314.627 110.449 C 309.942 100.762,297.656 85.561,297.656 89.451 C 297.656 89.664,296.861 89.232,295.889 88.490 C 294.267 87.252,292.969 87.015,292.969 87.959 C 292.969 88.165,292.222 87.725,291.309 86.980 C 287.606 83.962,282.369 81.161,280.698 81.305 C 279.934 81.371,278.861 81.070,277.956 80.536 C 277.139 80.054,275.862 79.405,275.119 79.095 C 274.376 78.784,272.991 78.006,272.040 77.364 L 270.313 76.199 269.691 77.149 M333.995 81.152 L 336.455 84.180 333.676 81.475 C 331.383 79.242,330.629 78.125,331.416 78.125 C 331.482 78.125,332.642 79.487,333.995 81.152 M349.219 84.746 C 349.219 85.198,348.963 85.547,348.633 85.547 C 348.311 85.547,348.047 85.385,348.047 85.187 C 348.047 84.989,347.256 83.647,346.289 82.205 C 343.968 78.744,344.074 78.621,346.878 81.524 C 348.189 82.880,349.219 84.298,349.219 84.746 M344.664 83.984 C 345.045 84.629,345.271 85.156,345.166 85.156 C 345.061 85.156,344.600 84.629,344.141 83.984 C 343.682 83.340,343.456 82.813,343.639 82.813 C 343.822 82.813,344.284 83.340,344.664 83.984 M288.672 96.189 C 288.672 96.407,288.413 96.365,288.086 96.094 C 287.764 95.826,287.500 95.432,287.500 95.217 C 287.500 94.999,287.759 95.041,288.086 95.313 C 288.408 95.580,288.672 95.975,288.672 96.189 M347.068 99.987 C 348.032 101.002,349.488 104.934,349.059 105.367 C 349.009 105.418,348.365 104.299,347.630 102.879 C 346.895 101.460,345.933 100.162,345.494 99.995 C 344.568 99.643,344.090 99.071,343.425 97.518 L 342.948 96.402 344.423 97.579 C 345.235 98.226,346.425 99.310,347.068 99.987 M313.331 118.066 C 313.619 118.600,313.546 118.749,313.002 118.746 C 312.556 118.743,312.059 118.157,311.621 117.115 L 310.937 115.489 311.950 116.436 C 312.507 116.957,313.128 117.690,313.331 118.066 M308.339 121.710 C 309.599 123.770,309.893 124.451,309.218 123.748 C 308.660 123.166,308.203 122.595,308.203 122.479 C 308.203 122.363,307.552 121.362,306.757 120.255 C 305.962 119.147,305.566 118.326,305.878 118.429 C 306.190 118.532,307.297 120.008,308.339 121.710 M354.415 123.979 C 355.238 125.760,355.000 128.232,354.097 127.289 C 353.817 126.997,353.201 125.360,352.728 123.651 C 352.255 121.943,351.773 120.273,351.658 119.940 C 351.294 118.893,353.680 122.389,354.415 123.979 M67.507 124.512 C 65.880 126.392,62.396 130.303,59.765 133.203 C 49.852 144.129,42.954 153.804,25.233 181.641 C 19.069 191.323,18.569 192.440,19.704 193.968 C 20.482 195.017,21.676 194.274,21.691 192.731 C 21.711 190.573,46.359 152.999,53.915 143.607 C 55.203 142.005,58.849 137.819,62.015 134.305 C 71.106 124.219,72.266 122.818,72.266 121.929 C 72.266 120.046,70.578 120.962,67.507 124.512 M306.055 146.719 C 297.031 151.755,288.016 156.696,286.021 157.700 C 282.344 159.549,281.841 160.180,283.320 161.091 C 284.151 161.603,284.015 161.672,307.422 148.732 C 325.366 138.811,324.567 139.312,323.973 138.368 C 323.226 137.182,322.726 137.416,306.055 146.719 M363.672 146.148 C 352.735 152.522,329.261 171.745,328.728 174.764 C 328.255 177.438,329.800 177.680,331.055 175.130 C 331.908 173.395,336.939 169.014,347.852 160.502 C 359.203 151.648,361.063 150.331,366.534 147.274 C 368.997 145.898,369.495 145.234,368.746 144.331 C 368.086 143.536,368.264 143.472,363.672 146.148 M357.594 218.785 C 333.222 236.522,333.421 236.370,333.273 237.405 C 333.134 238.385,334.174 239.024,334.959 238.441 C 335.221 238.246,337.439 236.583,339.886 234.746 C 342.334 232.910,351.773 225.992,360.862 219.374 C 374.619 209.356,377.367 207.200,377.268 206.506 C 377.023 204.799,375.529 205.732,357.594 218.785 M54.023 214.551 C 53.582 215.034,52.771 216.156,52.221 217.043 C 51.671 217.931,50.748 219.161,50.170 219.778 C 46.617 223.570,31.043 249.103,18.175 272.232 C 14.205 279.369,13.977 279.899,14.302 281.217 C 14.810 283.269,16.594 283.295,16.618 281.250 C 16.656 278.039,44.148 231.432,53.539 218.656 C 56.201 215.035,56.697 213.672,55.354 213.672 C 55.062 213.672,54.463 214.067,54.023 214.551 M353.516 274.911 C 335.001 289.757,326.330 296.943,326.249 297.509 C 326.083 298.672,327.281 299.041,328.371 298.162 C 328.850 297.777,341.214 287.886,355.847 276.183 C 382.991 254.476,384.049 253.527,381.445 253.232 C 380.924 253.173,371.645 260.374,353.516 274.911 M66.661 270.801 C 58.827 281.396,41.357 307.151,33.465 319.744 C 31.214 323.335,30.787 324.911,31.831 325.777 C 32.645 326.452,33.594 325.979,33.594 324.898 C 33.594 323.385,54.346 291.839,64.967 277.206 C 70.690 269.321,71.269 267.969,68.916 267.969 C 68.828 267.969,67.813 269.243,66.661 270.801 M79.068 299.687 C 73.007 304.562,25.880 350.448,25.539 351.805 C 25.035 353.814,26.988 354.893,27.707 353.002 C 28.233 351.617,73.181 307.794,79.883 302.132 C 84.998 297.810,84.238 295.528,79.068 299.687 M305.446 304.756 C 303.203 306.298,296.533 310.928,290.625 315.045 C 284.717 319.161,276.191 325.047,271.680 328.123 C 255.766 338.974,254.797 339.721,255.217 340.815 C 255.628 341.885,258.037 341.565,258.921 340.323 C 259.345 339.728,263.415 336.695,267.965 333.585 C 272.515 330.475,279.958 325.347,284.505 322.191 C 289.053 319.035,296.944 313.586,302.041 310.082 C 309.463 304.980,311.310 303.536,311.318 302.832 C 311.336 301.283,309.739 301.806,305.446 304.756 M350.645 307.822 C 336.998 318.085,312.855 340.992,312.879 343.652 C 312.892 345.059,314.041 346.484,315.162 346.484 C 316.273 346.484,321.460 341.750,321.367 340.820 C 321.213 339.278,319.678 339.665,317.290 341.848 C 316.052 342.980,319.258 339.634,324.414 334.413 C 337.000 321.669,340.793 318.287,351.488 310.276 C 360.658 303.406,361.756 302.263,359.372 302.069 C 358.658 302.011,356.334 303.543,350.645 307.822 M86.288 312.191 C 76.642 321.692,68.439 331.049,54.365 348.605 C 48.484 355.941,47.791 357.180,49.005 358.188 C 49.860 358.898,50.975 358.520,50.988 357.515 C 51.018 355.125,77.848 323.610,88.999 312.866 C 95.011 307.074,95.852 305.827,93.932 305.551 C 93.364 305.469,91.242 307.312,86.288 312.191 M215.430 327.594 C 186.090 346.047,182.215 348.543,180.762 349.931 C 179.208 351.415,178.898 352.498,179.915 352.888 C 180.806 353.230,180.803 353.231,181.956 352.015 C 183.078 350.830,189.351 346.792,215.430 330.464 C 232.846 319.559,232.570 319.756,231.990 318.673 C 231.391 317.553,231.416 317.540,215.430 327.594 M149.798 320.197 C 148.942 320.778,141.914 326.689,134.180 333.333 C 105.896 357.628,106.210 357.329,107.426 358.794 C 108.150 359.666,109.325 359.505,109.600 358.496 C 109.731 358.013,112.724 355.095,116.251 352.012 C 127.882 341.845,148.292 324.377,150.755 322.481 C 152.362 321.244,153.102 320.425,152.955 320.043 C 152.834 319.726,152.734 319.394,152.734 319.304 C 152.734 318.799,151.145 319.282,149.798 320.197 M308.747 333.444 C 276.439 359.935,273.404 362.693,275.618 363.543 C 277.656 364.325,284.197 360.286,282.684 359.180 C 281.986 358.670,285.361 355.752,310.664 334.982 C 325.983 322.407,327.187 321.211,324.958 320.787 C 324.598 320.718,317.679 326.120,308.747 333.444 M364.414 324.546 C 362.475 325.668,358.792 328.794,346.884 339.427 C 329.954 354.544,328.963 355.619,330.659 357.027 C 331.356 357.605,332.422 357.281,332.422 356.490 C 332.422 355.216,362.036 328.694,365.939 326.472 C 367.551 325.554,367.984 325.109,367.892 324.463 C 367.725 323.290,366.536 323.318,364.414 324.546 M101.172 338.736 C 72.767 365.845,71.925 366.769,74.730 367.751 C 75.886 368.156,76.686 367.574,76.313 366.600 C 76.215 366.346,82.252 360.266,89.728 353.090 C 117.360 326.565,114.600 329.352,114.217 328.354 C 113.699 327.006,112.280 328.135,101.172 338.736 M180.859 330.609 C 180.537 330.916,176.055 334.022,170.898 337.511 C 151.821 350.419,147.906 353.914,141.286 363.947 C 137.036 370.386,136.513 371.633,137.876 372.066 C 138.929 372.400,140.234 371.624,140.234 370.665 C 140.234 370.229,141.759 367.555,143.623 364.722 C 149.461 355.848,154.015 351.858,173.132 338.871 C 181.463 333.211,183.008 332.013,183.008 331.217 C 183.008 330.099,181.763 329.746,180.859 330.609 M232.407 347.575 C 206.945 366.704,206.488 367.100,206.716 369.841 C 206.894 371.993,208.692 372.001,208.984 369.851 C 209.242 367.951,211.896 365.843,246.014 340.442 C 250.094 337.404,251.183 336.402,251.092 335.768 C 250.827 333.917,249.308 334.878,232.407 347.575 " stroke="none" fill="#f3b213" fill-rule="evenodd"></path><path id="path2" d="M155.233 74.767 C 154.137 75.276,152.850 75.816,152.375 75.967 C 151.899 76.118,150.336 76.902,148.900 77.710 C 147.464 78.518,145.762 79.300,145.117 79.447 C 142.717 79.995,141.797 80.542,141.797 81.420 C 141.797 82.238,139.826 83.570,138.561 83.608 C 137.290 83.645,135.728 85.512,136.258 86.361 C 136.541 86.814,136.717 87.229,136.648 87.282 C 136.580 87.336,135.381 87.996,133.984 88.750 C 119.179 96.741,118.068 97.484,112.805 102.925 C 106.483 109.459,105.276 110.578,104.297 110.821 C 103.760 110.954,102.363 111.913,101.194 112.951 C 99.875 114.123,98.967 114.678,98.803 114.413 C 98.280 113.566,97.066 114.305,95.205 116.604 C 91.627 121.021,87.194 127.025,86.468 128.434 C 86.069 129.209,83.879 132.841,81.602 136.504 C 76.610 144.534,76.307 145.107,75.774 147.519 C 75.055 150.774,72.921 155.602,71.767 156.585 C 70.755 157.447,60.207 178.136,57.066 185.420 C 55.911 188.097,53.318 197.742,52.305 203.125 C 52.043 204.521,51.694 205.754,51.530 205.864 C 50.873 206.304,50.700 210.715,51.308 211.523 C 51.866 212.266,51.949 212.273,52.998 211.657 L 54.102 211.009 53.966 212.829 C 53.856 214.312,53.924 214.558,54.337 214.160 C 55.021 213.501,55.835 213.544,56.107 214.254 C 56.238 214.596,55.499 215.956,54.314 217.555 L 52.298 220.275 52.713 222.930 C 54.341 233.341,54.385 233.503,55.693 233.831 C 56.199 233.958,56.726 234.440,56.865 234.902 C 57.003 235.364,58.152 237.637,59.418 239.953 C 60.683 242.269,61.719 244.420,61.719 244.734 C 61.719 246.262,64.150 252.754,64.866 253.137 C 65.727 253.598,65.899 253.351,66.101 251.367 C 66.203 250.374,66.359 250.613,67.124 252.930 C 67.620 254.434,68.281 256.059,68.592 256.541 C 68.920 257.052,69.057 257.816,68.918 258.370 C 68.741 259.072,68.909 259.508,69.559 260.032 C 70.043 260.423,73.882 263.739,78.091 267.402 C 82.299 271.066,86.885 274.923,88.281 275.975 C 89.678 277.026,91.699 278.668,92.773 279.622 C 96.285 282.742,99.523 284.306,100.889 283.541 C 101.356 283.280,102.162 283.772,104.172 285.546 C 106.926 287.977,108.350 288.681,109.065 287.966 C 109.503 287.528,111.116 288.601,116.797 293.106 C 121.785 297.062,127.246 300.474,128.135 300.192 C 128.568 300.055,129.753 300.206,130.770 300.529 C 131.786 300.851,134.111 301.405,135.938 301.759 C 141.401 302.818,143.488 303.309,154.007 306.014 C 164.280 308.656,169.922 309.548,169.922 308.531 C 169.922 308.107,172.083 308.002,181.348 307.975 C 188.480 307.954,193.948 307.756,195.898 307.448 C 199.379 306.898,202.966 306.564,201.758 306.903 C 201.328 307.023,200.889 307.252,200.781 307.411 C 200.674 307.570,198.477 308.209,195.898 308.830 C 191.670 309.850,191.198 310.051,191.081 310.876 C 190.968 311.676,191.067 311.755,191.863 311.501 C 192.364 311.341,194.443 310.820,196.484 310.343 C 198.525 309.866,203.347 308.658,207.198 307.659 C 211.968 306.421,214.329 305.969,214.601 306.241 C 215.241 306.882,217.140 306.709,220.901 305.669 C 222.833 305.134,224.733 304.695,225.122 304.692 C 225.511 304.690,226.742 304.256,227.856 303.730 C 229.735 302.842,235.588 302.194,240.585 302.321 C 241.099 302.334,241.760 302.146,242.052 301.903 C 242.345 301.661,243.681 301.402,245.022 301.329 C 248.457 301.142,250.970 300.806,253.906 300.142 C 255.303 299.827,258.293 299.405,260.552 299.205 C 266.582 298.671,268.750 297.947,268.750 296.469 C 268.750 295.433,268.618 295.308,267.480 295.273 L 266.211 295.233 267.578 294.884 C 268.330 294.693,269.824 294.524,270.898 294.509 C 272.383 294.489,273.227 294.217,274.416 293.379 C 275.277 292.772,276.745 292.047,277.678 291.768 C 278.624 291.484,279.641 290.854,279.975 290.343 C 280.579 289.421,284.387 287.471,289.032 285.704 C 290.411 285.180,291.730 284.595,291.961 284.404 C 292.193 284.214,294.900 282.983,297.977 281.668 C 308.695 277.088,312.231 274.949,310.005 274.390 C 309.444 274.249,308.534 274.247,307.984 274.385 C 307.016 274.628,307.037 274.558,308.635 272.205 C 309.543 270.867,310.286 269.555,310.286 269.289 C 310.286 268.420,313.779 263.810,318.062 259.024 C 323.512 252.935,324.884 249.922,323.343 247.429 C 323.058 246.968,324.029 243.872,324.742 242.969 C 326.796 240.366,326.797 238.332,324.744 238.848 C 323.914 239.056,323.873 238.994,324.226 238.066 C 325.066 235.857,324.209 234.486,322.612 235.484 C 321.986 235.875,321.858 235.792,321.654 234.862 C 321.231 232.931,321.107 232.755,320.216 232.828 C 318.799 232.942,318.626 232.847,319.137 232.231 C 319.438 231.868,319.532 231.097,319.387 230.180 C 319.205 229.039,319.236 228.907,319.525 229.590 C 319.907 230.492,321.241 230.788,321.686 230.068 C 321.950 229.641,321.050 225.178,320.114 222.266 C 319.803 221.299,319.092 218.838,318.533 216.797 C 317.975 214.756,316.847 211.504,316.028 209.570 C 314.044 204.888,313.421 202.176,314.055 200.990 C 314.652 199.874,314.431 199.433,311.124 195.149 C 308.671 191.971,306.378 189.785,300.882 185.385 C 299.326 184.139,298.138 182.980,298.244 182.810 C 298.581 182.264,295.657 179.999,294.879 180.203 C 294.481 180.307,293.493 180.052,292.683 179.636 C 291.873 179.220,290.858 178.966,290.426 179.072 C 289.995 179.178,289.415 179.124,289.138 178.953 C 288.351 178.467,289.462 177.745,290.844 177.846 C 291.831 177.918,291.992 177.792,291.992 176.953 C 291.992 175.999,291.924 175.976,289.063 175.963 C 287.451 175.956,284.693 175.707,282.933 175.408 C 280.011 174.914,279.553 174.928,277.659 175.567 C 276.519 175.953,274.883 176.405,274.023 176.572 C 270.056 177.344,268.547 178.252,268.641 179.814 C 268.688 180.604,268.665 181.250,268.590 181.250 C 267.701 181.250,263.940 179.026,263.683 178.349 C 263.501 177.871,262.897 177.182,262.340 176.817 C 261.088 175.996,261.078 175.467,262.274 173.107 C 263.354 170.976,264.250 170.058,264.637 170.684 C 265.175 171.555,265.939 171.038,266.198 169.629 C 266.346 168.823,266.881 167.725,267.387 167.188 C 268.367 166.145,270.446 160.334,270.879 157.422 C 271.023 156.455,271.415 154.374,271.750 152.797 C 272.451 149.498,272.268 146.663,271.308 145.960 C 270.514 145.380,270.670 142.343,271.650 139.293 C 273.084 134.827,270.808 126.563,268.144 126.563 C 267.891 126.563,266.769 125.072,265.652 123.249 C 264.534 121.427,263.456 119.834,263.255 119.711 C 263.055 119.587,262.891 119.161,262.891 118.764 C 262.891 118.025,259.947 116.016,258.865 116.016 C 258.553 116.016,258.018 115.620,257.675 115.137 C 257.089 114.310,257.020 114.298,256.510 114.941 C 256.075 115.491,255.352 115.625,252.822 115.625 C 250.659 115.625,249.619 115.778,249.498 116.113 C 249.356 116.504,249.155 116.504,248.494 116.113 C 247.591 115.580,245.703 115.448,245.703 115.918 C 245.702 116.638,234.605 116.235,233.483 115.474 C 232.466 114.784,232.302 114.777,230.944 115.354 C 230.146 115.693,228.416 116.034,227.101 116.112 C 223.834 116.305,217.334 120.276,217.456 122.004 C 217.507 122.727,217.340 123.047,216.910 123.047 C 216.059 123.047,210.678 126.005,203.938 130.177 C 200.840 132.095,198.027 133.727,197.688 133.803 C 196.411 134.090,193.310 135.424,193.334 135.676 C 193.348 135.820,193.359 136.181,193.359 136.478 C 193.359 136.775,193.683 137.103,194.079 137.207 C 196.118 137.740,194.756 139.103,190.630 140.660 C 188.408 141.499,184.817 143.063,182.650 144.135 C 180.484 145.208,178.145 146.197,177.453 146.332 C 176.710 146.477,176.100 146.878,175.962 147.312 C 175.814 147.779,175.364 148.047,174.731 148.047 L 173.734 148.047 175.174 146.289 C 175.967 145.322,176.526 144.531,176.418 144.531 C 176.310 144.531,177.608 142.554,179.302 140.137 C 185.567 131.199,188.318 126.211,187.152 125.905 C 186.467 125.726,186.544 125.398,188.171 121.547 C 190.714 115.530,191.289 113.417,190.658 112.408 C 190.352 111.917,189.927 108.517,189.576 103.749 C 188.844 93.797,188.829 93.700,187.748 92.108 C 187.252 91.376,186.738 90.112,186.606 89.299 C 186.313 87.497,185.738 86.759,184.089 86.070 C 183.345 85.759,182.733 85.170,182.599 84.637 C 182.474 84.140,181.856 83.428,181.225 83.055 C 180.454 82.600,180.078 82.065,180.078 81.423 C 180.078 80.430,178.828 80.039,178.313 80.871 C 178.171 81.101,177.190 80.475,176.019 79.406 C 173.267 76.894,168.565 75.391,163.463 75.391 C 161.094 75.391,159.830 75.223,159.406 74.851 C 158.259 73.847,157.257 73.827,155.233 74.767 M157.422 76.758 C 157.422 77.080,157.627 77.344,157.878 77.344 C 158.128 77.344,158.217 77.460,158.075 77.602 C 157.933 77.744,157.476 77.551,157.058 77.173 C 156.631 76.787,156.091 76.615,155.824 76.780 C 155.520 76.967,155.449 76.911,155.627 76.623 C 156.033 75.966,157.422 76.070,157.422 76.758 M169.838 90.158 C 170.611 91.321,170.263 91.239,169.111 89.985 C 168.590 89.419,168.413 89.033,168.717 89.128 C 169.020 89.223,169.525 89.687,169.838 90.158 M147.382 93.147 C 146.996 93.675,146.449 94.202,146.167 94.317 C 145.885 94.432,146.028 94.000,146.486 93.357 C 146.944 92.714,147.491 92.188,147.701 92.188 C 147.911 92.188,147.768 92.619,147.382 93.147 M186.719 95.192 C 186.719 96.063,186.423 95.759,185.981 94.434 C 185.594 93.272,185.607 93.229,186.138 93.922 C 186.457 94.339,186.719 94.911,186.719 95.192 M126.935 97.092 C 126.658 97.426,126.065 97.874,125.618 98.089 C 125.113 98.331,125.248 98.102,125.977 97.484 C 127.309 96.352,127.673 96.203,126.935 97.092 M130.078 100.578 C 130.078 100.681,129.375 101.124,128.516 101.563 C 126.639 102.520,126.441 102.254,128.223 101.168 C 129.476 100.404,130.078 100.212,130.078 100.578 M169.174 103.166 C 168.830 104.026,168.798 104.036,168.775 103.288 C 168.761 102.840,168.867 102.357,169.010 102.214 C 169.477 101.747,169.556 102.210,169.174 103.166 M175.741 106.716 C 175.468 107.226,175.193 107.413,175.105 107.150 C 175.019 106.893,175.166 106.279,175.431 105.784 C 175.704 105.274,175.979 105.087,176.067 105.350 C 176.153 105.607,176.006 106.221,175.741 106.716 M112.891 113.819 C 112.891 114.092,107.409 117.969,107.023 117.969 C 106.813 117.969,106.635 118.101,106.628 118.262 C 106.622 118.423,106.159 118.888,105.601 119.295 C 104.739 119.924,104.641 119.936,104.952 119.380 C 105.361 118.648,112.891 113.374,112.891 113.819 M158.563 118.034 C 157.649 120.614,157.196 121.389,156.823 121.016 C 156.702 120.895,157.164 119.540,157.850 118.006 C 159.363 114.621,159.768 114.637,158.563 118.034 M240.942 118.601 C 240.594 118.949,240.117 119.114,239.881 118.968 C 239.106 118.489,239.435 117.969,240.513 117.969 C 241.490 117.969,241.524 118.018,240.942 118.601 M127.784 120.610 C 127.582 120.988,127.007 121.647,126.508 122.075 C 125.600 122.851,125.600 122.851,126.161 122.070 C 127.594 120.078,128.510 119.253,127.784 120.610 M142.809 124.929 C 141.835 126.869,140.834 128.582,140.585 128.735 C 139.969 129.116,140.133 128.745,142.378 124.679 C 144.862 120.180,145.119 120.330,142.809 124.929 M155.424 126.270 C 154.650 127.739,153.448 128.272,153.781 126.998 C 153.933 126.417,154.946 125.614,155.775 125.417 C 155.837 125.403,155.679 125.786,155.424 126.270 M112.500 125.900 C 112.500 125.965,111.841 126.624,111.035 127.365 L 109.570 128.711 110.916 127.246 C 112.169 125.883,112.500 125.602,112.500 125.900 M252.696 129.395 C 253.436 131.129,253.443 131.250,252.799 131.250 C 252.420 131.250,251.901 131.458,251.647 131.712 C 250.954 132.406,250.873 132.069,251.080 129.365 C 251.289 126.643,251.522 126.647,252.696 129.395 M108.594 129.416 C 108.594 129.481,107.935 130.140,107.129 130.880 L 105.664 132.227 107.010 130.762 C 108.263 129.398,108.594 129.117,108.594 129.416 M104.688 132.935 C 104.688 133.002,104.116 133.573,103.418 134.204 L 102.148 135.352 103.296 134.082 C 104.365 132.899,104.688 132.633,104.688 132.935 M152.235 134.346 C 151.884 135.276,150.591 136.328,149.799 136.328 C 148.964 136.328,151.737 133.241,152.603 133.206 C 152.638 133.204,152.472 133.718,152.235 134.346 M137.319 135.589 C 136.221 137.509,136.052 137.474,136.880 135.497 C 137.449 134.136,137.918 133.491,138.160 133.733 C 138.237 133.810,137.858 134.645,137.319 135.589 M166.988 136.816 C 166.584 138.227,163.912 143.359,163.582 143.359 C 163.153 143.359,163.149 143.370,164.592 140.192 C 165.312 138.604,166.010 136.997,166.142 136.621 C 166.503 135.593,167.287 135.774,166.988 136.816 M110.938 136.440 C 110.938 136.502,110.015 137.425,108.887 138.491 L 106.836 140.430 108.774 138.379 C 110.576 136.473,110.938 136.149,110.938 136.440 M263.275 139.160 C 263.279 139.321,263.105 139.453,262.891 139.453 C 262.676 139.453,262.503 139.058,262.506 138.574 C 262.512 137.736,263.258 138.304,263.275 139.160 M100.201 141.679 C 97.740 144.539,96.181 145.944,94.336 146.965 C 93.156 147.618,95.660 144.819,99.357 141.352 C 103.323 137.633,103.593 137.737,100.201 141.679 M125.096 141.429 C 124.505 142.934,122.393 145.180,121.969 144.755 C 121.558 144.344,122.799 141.952,123.960 140.918 C 125.597 139.460,125.828 139.564,125.096 141.429 M168.863 141.797 C 168.750 142.229,168.330 142.578,167.923 142.578 C 167.004 142.578,166.986 142.231,167.871 141.559 C 168.832 140.830,169.099 140.894,168.863 141.797 M90.644 142.480 C 89.833 143.870,88.153 145.630,88.686 144.531 C 89.136 143.604,90.601 141.797,90.902 141.797 C 90.980 141.797,90.864 142.104,90.644 142.480 M239.063 143.359 C 239.063 144.219,238.926 144.922,238.759 144.922 C 238.592 144.922,238.523 144.219,238.605 143.359 C 238.687 142.500,238.823 141.797,238.908 141.797 C 238.993 141.797,239.063 142.500,239.063 143.359 M149.219 143.209 C 149.219 143.880,147.014 147.373,146.374 147.715 C 145.345 148.266,145.150 147.907,145.664 146.407 C 146.200 144.839,149.219 142.124,149.219 143.209 M246.689 149.095 C 246.519 150.232,246.287 150.740,246.047 150.501 C 245.808 150.261,245.851 149.458,246.167 148.277 C 246.754 146.084,247.067 146.575,246.689 149.095 M245.387 154.556 C 244.988 155.652,244.983 155.647,244.953 154.121 C 244.930 152.988,245.037 152.694,245.356 153.013 C 245.665 153.321,245.674 153.769,245.387 154.556 M127.148 153.516 C 127.281 153.730,127.028 153.906,126.586 153.906 C 126.143 153.906,125.781 153.730,125.781 153.516 C 125.781 153.301,126.035 153.125,126.344 153.125 C 126.654 153.125,127.016 153.301,127.148 153.516 M259.141 155.922 C 258.765 157.284,258.131 159.102,257.733 159.961 C 257.336 160.820,257.114 161.172,257.241 160.742 C 259.334 153.669,260.774 150.015,259.141 155.922 M94.720 158.907 C 93.327 160.799,91.541 162.952,90.749 163.693 L 89.311 165.039 90.632 163.281 C 92.272 161.101,96.952 155.469,97.124 155.469 C 97.194 155.469,96.112 157.016,94.720 158.907 M216.406 161.133 C 217.104 161.532,217.197 161.695,216.731 161.705 C 215.814 161.724,214.844 161.309,214.844 160.896 C 214.844 160.415,215.261 160.478,216.406 161.133 M193.164 161.302 C 192.734 161.476,191.768 161.727,191.016 161.860 L 189.648 162.103 191.016 161.550 C 191.768 161.246,192.734 160.995,193.164 160.992 L 193.945 160.987 193.164 161.302 M97.023 165.723 C 92.062 172.590,91.268 173.670,90.920 174.023 C 90.116 174.841,92.006 171.550,94.061 168.555 C 95.864 165.928,97.848 163.682,98.373 163.674 C 98.445 163.673,97.837 164.595,97.023 165.723 M90.916 169.043 C 90.580 169.419,89.850 170.588,89.293 171.640 C 88.656 172.845,88.281 173.264,88.281 172.771 C 88.281 172.028,90.783 168.359,91.289 168.359 C 91.420 168.359,91.252 168.667,90.916 169.043 M164.844 170.334 C 164.092 170.487,161.982 170.705,160.156 170.819 L 156.836 171.026 159.707 170.494 C 161.286 170.201,162.756 169.902,162.972 169.829 C 163.189 169.757,164.007 169.779,164.789 169.877 L 166.211 170.056 164.844 170.334 M70.131 172.317 C 69.795 173.041,69.623 173.281,69.748 172.852 C 69.874 172.422,70.088 171.543,70.225 170.898 C 70.368 170.221,70.530 169.996,70.608 170.364 C 70.682 170.715,70.468 171.594,70.131 172.317 M194.305 172.050 C 195.611 172.576,198.855 174.167,201.515 175.585 C 206.108 178.035,211.214 180.075,212.764 180.080 C 213.694 180.083,221.003 182.456,224.105 183.763 C 226.872 184.927,237.414 186.868,239.359 186.571 C 240.540 186.390,245.858 189.410,247.461 191.172 C 248.600 192.424,254.633 197.656,254.937 197.656 C 255.494 197.656,262.598 205.090,263.746 206.874 C 264.940 208.729,268.128 215.018,268.529 216.309 C 268.770 217.081,268.665 217.188,267.666 217.188 C 264.592 217.188,264.627 220.519,267.743 224.428 C 269.366 226.466,270.037 227.718,270.550 229.666 C 270.920 231.074,271.580 232.930,272.015 233.789 C 273.040 235.813,273.115 236.357,272.500 237.305 C 271.781 238.413,271.093 240.649,270.861 242.635 C 270.521 245.541,269.327 249.935,268.224 252.344 C 267.568 253.776,260.653 261.123,258.600 262.570 C 256.676 263.925,249.813 270.023,248.768 271.305 C 246.915 273.580,241.089 275.176,235.059 275.062 C 234.683 275.054,234.375 275.224,234.375 275.438 C 234.375 275.652,234.214 275.728,234.018 275.607 C 233.821 275.485,233.602 275.520,233.529 275.683 C 232.942 277.016,222.250 280.917,212.500 283.356 C 193.654 288.071,193.111 288.242,193.529 289.331 C 193.694 289.761,193.583 289.863,193.137 289.692 C 192.794 289.561,191.782 289.425,190.886 289.391 C 189.411 289.334,189.379 289.313,190.550 289.169 C 191.864 289.007,192.582 288.129,191.933 287.480 C 190.771 286.318,183.448 286.334,155.966 287.558 L 146.113 287.997 143.466 286.624 C 142.011 285.869,140.117 285.033,139.258 284.766 C 138.398 284.499,136.870 283.840,135.862 283.301 C 133.955 282.283,132.813 282.330,132.813 283.428 C 132.813 283.877,132.609 283.990,132.129 283.805 C 128.811 282.531,121.817 280.084,120.888 279.871 C 120.249 279.725,118.609 279.272,117.244 278.865 C 112.211 277.365,110.416 278.784,114.721 280.859 C 118.544 282.702,117.354 282.459,112.888 280.485 C 110.431 279.398,108.222 278.291,107.979 278.024 C 107.737 277.757,106.231 276.122,104.634 274.389 C 98.105 267.309,90.585 253.975,90.328 249.023 C 90.138 245.385,90.079 245.243,88.924 245.681 C 87.177 246.346,86.798 244.265,86.336 231.476 C 86.111 225.262,86.026 219.637,86.147 218.976 C 86.268 218.314,86.096 215.864,85.765 213.530 C 84.752 206.390,85.197 204.713,89.457 199.614 C 94.079 194.080,95.990 192.634,103.906 188.677 C 105.303 187.979,110.137 185.417,114.648 182.984 C 126.206 176.752,136.545 174.242,154.013 173.426 C 157.929 173.243,164.736 172.816,169.141 172.477 C 177.495 171.834,186.718 171.247,190.008 171.150 C 191.253 171.114,192.768 171.431,194.305 172.050 M210.156 171.680 C 210.693 171.987,210.957 172.238,210.742 172.238 C 210.527 172.238,209.912 171.987,209.375 171.680 C 208.838 171.373,208.574 171.121,208.789 171.121 C 209.004 171.121,209.619 171.373,210.156 171.680 M62.323 180.514 C 60.610 186.900,60.227 188.394,59.401 191.909 C 58.957 193.797,58.593 195.730,58.592 196.206 C 58.591 196.681,58.242 197.642,57.817 198.340 C 57.391 199.039,56.848 200.445,56.611 201.465 C 55.996 204.113,53.905 208.659,53.193 208.897 C 52.770 209.038,55.216 196.717,55.851 195.508 C 56.077 195.078,56.694 192.971,57.222 190.825 C 58.044 187.483,62.770 176.312,63.186 176.727 C 63.252 176.794,62.864 178.497,62.323 180.514 M113.229 178.307 C 112.875 178.661,108.594 180.456,108.594 180.251 C 108.594 180.006,112.528 178.134,113.053 178.129 C 113.250 178.127,113.329 178.207,113.229 178.307 M259.375 182.568 C 259.375 182.783,258.848 182.453,258.203 181.836 C 257.559 181.218,257.031 180.653,257.031 180.579 C 257.031 180.506,257.559 180.835,258.203 181.312 C 258.848 181.788,259.375 182.354,259.375 182.568 M289.566 185.548 C 289.378 186.267,289.327 186.271,288.447 185.631 C 287.338 184.826,287.272 184.484,288.184 184.278 C 289.147 184.061,289.798 184.660,289.566 185.548 M263.855 186.719 L 265.321 188.867 263.470 187.055 C 262.358 185.965,261.733 185.059,261.904 184.783 C 262.060 184.530,262.233 184.379,262.289 184.447 C 262.345 184.515,263.050 185.537,263.855 186.719 M252.734 187.671 C 252.734 187.755,252.207 187.624,251.563 187.380 C 250.918 187.137,250.391 186.796,250.391 186.623 C 250.391 186.450,250.918 186.581,251.563 186.914 C 252.207 187.247,252.734 187.588,252.734 187.671 M73.613 191.247 C 72.793 195.376,72.632 195.757,72.255 194.448 C 71.988 193.519,73.696 187.628,74.111 188.044 C 74.175 188.107,73.951 189.549,73.613 191.247 M79.312 194.214 C 78.991 197.581,78.672 199.199,78.246 199.609 C 77.700 200.135,77.660 200.095,77.853 199.219 C 77.972 198.682,78.375 196.177,78.748 193.653 C 79.620 187.765,79.899 188.043,79.312 194.214 M309.637 202.734 C 310.249 202.734,310.564 203.733,310.099 204.198 C 309.844 204.453,309.922 205.087,310.330 206.063 C 311.237 208.235,310.791 208.156,309.512 205.918 C 308.899 204.847,307.453 202.594,306.298 200.911 L 304.197 197.852 306.699 200.293 C 308.075 201.636,309.397 202.734,309.637 202.734 M276.997 209.792 C 277.605 211.031,277.935 212.175,277.765 212.451 C 277.579 212.752,277.047 211.776,276.365 209.886 C 275.081 206.323,274.786 205.275,275.453 206.641 C 275.715 207.178,276.410 208.596,276.997 209.792 M66.752 215.234 C 66.725 216.692,66.666 216.825,66.406 216.016 C 65.933 214.539,65.933 212.159,66.406 212.891 C 66.615 213.213,66.770 214.268,66.752 215.234 M81.784 224.219 L 81.543 227.539 80.990 225.781 C 80.557 224.407,80.498 222.787,80.720 218.359 L 81.003 212.695 81.514 216.797 C 81.815 219.208,81.926 222.267,81.784 224.219 M285.502 218.359 C 285.974 219.038,286.103 219.694,285.924 220.508 L 285.666 221.680 284.976 220.117 C 284.597 219.258,283.860 217.676,283.340 216.602 L 282.394 214.648 283.608 216.016 C 284.276 216.768,285.128 217.822,285.502 218.359 M269.245 220.080 C 269.624 220.368,270.359 221.851,270.877 223.376 L 271.821 226.149 270.327 224.695 C 266.690 221.158,265.830 217.488,269.245 220.080 M307.829 230.038 C 308.918 232.471,309.741 234.530,309.657 234.613 C 309.574 234.697,308.509 232.532,307.290 229.802 C 306.071 227.073,305.248 225.014,305.461 225.227 C 305.674 225.440,306.740 227.605,307.829 230.038 M291.797 228.877 C 291.797 229.326,290.179 231.325,289.978 231.124 C 289.684 230.829,291.131 228.150,291.471 228.360 C 291.650 228.471,291.797 228.703,291.797 228.877 M287.829 239.862 C 286.131 241.975,285.904 241.158,287.571 238.932 C 288.318 237.934,288.920 237.426,288.992 237.731 C 289.060 238.022,288.537 238.981,287.829 239.862 M316.769 238.379 C 316.746 239.443,316.688 239.522,316.406 238.867 C 315.943 237.788,315.943 237.109,316.406 237.109 C 316.621 237.109,316.785 237.681,316.769 238.379 M273.849 241.036 C 273.382 242.574,272.902 243.735,272.783 243.617 C 272.665 243.498,272.950 242.142,273.417 240.604 C 273.884 239.066,274.363 237.905,274.482 238.024 C 274.601 238.143,274.316 239.498,273.849 241.036 M317.132 248.820 C 316.634 249.494,316.160 249.847,316.079 249.604 C 315.927 249.148,317.585 247.142,317.874 247.432 C 317.964 247.521,317.630 248.146,317.132 248.820 M70.220 253.302 C 70.102 254.378,70.027 254.287,69.436 252.344 C 68.258 248.471,68.221 247.697,69.323 249.982 C 69.940 251.262,70.298 252.587,70.220 253.302 M84.736 255.122 C 84.752 255.253,84.348 255.281,83.837 255.183 C 82.940 255.011,82.342 253.131,82.452 250.824 C 82.477 250.302,84.642 254.377,84.736 255.122 M320.719 253.418 C 320.499 253.794,319.415 255.068,318.313 256.250 C 316.210 258.503,316.693 257.701,319.321 254.575 C 320.945 252.643,321.392 252.274,320.719 253.418 M77.050 255.273 C 77.409 256.006,77.378 256.002,76.560 255.215 C 76.008 254.685,75.802 254.188,76.001 253.867 C 76.252 253.461,76.350 253.472,76.491 253.925 C 76.589 254.237,76.840 254.844,77.050 255.273 M75.391 258.553 C 75.928 258.838,76.895 259.700,77.539 260.468 C 78.648 261.788,78.580 261.762,76.270 259.971 C 74.927 258.930,73.828 258.003,73.828 257.913 C 73.828 257.733,73.929 257.774,75.391 258.553 M290.948 260.093 C 290.448 260.702,288.984 261.954,287.695 262.875 C 284.929 264.851,285.170 264.540,288.867 261.361 C 291.973 258.691,292.221 258.540,290.948 260.093 M89.063 263.737 C 89.063 264.259,88.914 264.150,87.286 262.438 L 85.742 260.813 87.402 262.113 C 88.315 262.827,89.063 263.558,89.063 263.737 M89.544 273.138 C 91.249 274.843,89.684 274.175,87.218 272.147 C 81.753 267.649,80.455 266.204,84.727 269.371 C 86.961 271.028,89.129 272.723,89.544 273.138 M287.067 272.651 C 286.227 273.696,285.161 274.451,283.825 274.945 C 279.935 276.385,279.930 276.195,283.789 273.669 C 288.356 270.679,288.749 270.558,287.067 272.651 M257.031 275.721 C 257.031 276.575,255.460 277.305,253.125 277.534 L 250.586 277.784 252.344 276.929 C 253.850 276.197,255.670 275.576,256.738 275.431 C 256.899 275.409,257.031 275.539,257.031 275.721 M301.530 278.270 C 301.005 278.736,297.656 279.979,297.656 279.707 C 297.656 279.346,300.264 278.177,301.139 278.145 C 301.444 278.134,301.619 278.190,301.530 278.270 M248.011 280.635 C 247.808 280.837,239.939 282.432,239.313 282.397 C 238.322 282.342,241.001 281.532,243.750 281.056 C 246.921 280.507,248.272 280.373,248.011 280.635 M132.319 286.363 C 135.808 287.633,138.818 288.672,139.009 288.672 C 139.199 288.672,139.355 289.111,139.355 289.648 C 139.355 291.118,138.752 290.926,131.250 287.070 C 127.490 285.137,124.766 283.668,125.195 283.805 C 125.625 283.943,128.831 285.094,132.319 286.363 M224.219 284.328 C 224.219 284.737,223.492 285.034,217.410 287.104 C 212.673 288.717,210.698 289.036,213.623 287.717 C 214.509 287.318,215.234 286.863,215.234 286.707 C 215.234 286.266,217.276 285.524,220.600 284.756 C 224.320 283.897,224.219 283.909,224.219 284.328 M127.712 292.427 C 127.806 292.521,126.624 292.480,125.084 292.337 C 122.705 292.116,122.247 292.172,122.040 292.711 C 121.628 293.785,120.248 292.776,120.540 291.614 C 120.733 290.843,120.547 290.565,119.469 290.010 C 118.185 289.350,113.672 286.030,113.672 285.746 C 113.672 285.594,127.413 292.132,127.712 292.427 M278.906 287.109 C 278.676 287.539,278.291 287.891,278.051 287.891 C 277.810 287.891,277.931 287.539,278.320 287.109 C 278.709 286.680,279.094 286.328,279.176 286.328 C 279.258 286.328,279.136 286.680,278.906 287.109 M129.688 290.430 C 130.225 290.737,130.488 290.988,130.273 290.988 C 130.059 290.988,129.443 290.737,128.906 290.430 C 128.369 290.123,128.105 289.871,128.320 289.871 C 128.535 289.871,129.150 290.123,129.688 290.430 M134.824 292.770 C 135.974 293.305,136.650 293.736,136.328 293.729 C 135.746 293.715,131.994 291.848,132.481 291.815 C 132.621 291.805,133.675 292.235,134.824 292.770 M223.438 294.746 C 221.396 295.253,219.463 295.656,219.141 295.642 C 218.303 295.605,225.427 293.805,226.367 293.815 C 226.797 293.820,225.479 294.239,223.438 294.746 M133.614 297.492 C 135.107 297.832,136.328 298.290,136.328 298.511 C 136.328 298.731,136.059 298.808,135.730 298.682 C 135.400 298.556,134.038 298.170,132.702 297.824 C 128.550 296.750,129.243 296.498,133.614 297.492 M176.666 299.494 C 176.185 299.586,175.306 299.589,174.712 299.499 C 174.119 299.409,174.512 299.333,175.586 299.330 C 176.660 299.328,177.146 299.401,176.666 299.494 M171.191 299.892 C 170.493 299.979,169.351 299.979,168.652 299.892 C 167.954 299.805,168.525 299.734,169.922 299.734 C 171.318 299.734,171.890 299.805,171.191 299.892 M201.953 303.668 C 201.953 304.298,199.230 304.774,198.652 304.246 C 198.448 304.059,197.975 303.906,197.601 303.906 C 197.227 303.906,196.812 303.730,196.680 303.516 C 196.527 303.269,197.457 303.125,199.196 303.125 C 201.290 303.125,201.953 303.256,201.953 303.668 " stroke="none" fill="#f31414" fill-rule="evenodd"></path><path id="path3" d="M256.934 41.291 C 257.417 41.384,258.208 41.384,258.691 41.291 C 259.175 41.198,258.779 41.122,257.813 41.122 C 256.846 41.122,256.450 41.198,256.934 41.291 M245.020 58.863 C 245.396 58.961,246.011 58.961,246.387 58.863 C 246.763 58.765,246.455 58.684,245.703 58.684 C 244.951 58.684,244.644 58.765,245.020 58.863 M305.859 63.403 C 305.859 63.471,306.431 64.042,307.129 64.673 L 308.398 65.820 307.251 64.551 C 306.182 63.367,305.859 63.102,305.859 63.403 M347.070 78.906 C 347.909 79.766,348.684 80.469,348.791 80.469 C 348.899 80.469,348.300 79.766,347.461 78.906 C 346.622 78.047,345.847 77.344,345.740 77.344 C 345.632 77.344,346.231 78.047,347.070 78.906 M361.427 115.820 C 361.431 116.680,361.511 116.985,361.604 116.499 C 361.698 116.013,361.694 115.310,361.597 114.937 C 361.499 114.563,361.422 114.961,361.427 115.820 M254.883 115.234 L 253.711 115.533 254.762 115.579 C 255.340 115.604,255.922 115.449,256.055 115.234 C 256.187 115.020,256.242 114.865,256.175 114.890 C 256.109 114.915,255.527 115.070,254.883 115.234 M226.862 115.908 C 227.565 115.995,228.619 115.993,229.206 115.904 C 229.793 115.815,229.219 115.744,227.930 115.746 C 226.641 115.748,226.160 115.821,226.862 115.908 M150.879 173.707 C 151.255 173.805,151.870 173.805,152.246 173.707 C 152.622 173.609,152.314 173.528,151.563 173.528 C 150.811 173.528,150.503 173.609,150.879 173.707 M86.028 221.094 C 86.028 221.846,86.109 222.153,86.207 221.777 C 86.305 221.401,86.305 220.786,86.207 220.410 C 86.109 220.034,86.028 220.342,86.028 221.094 M86.419 235.547 C 86.419 236.299,86.499 236.606,86.597 236.230 C 86.696 235.854,86.696 235.239,86.597 234.863 C 86.499 234.487,86.419 234.795,86.419 235.547 M273.473 240.661 C 273.209 241.542,273.065 242.335,273.153 242.423 C 273.240 242.511,273.528 241.862,273.793 240.980 C 274.057 240.098,274.201 239.305,274.113 239.217 C 274.025 239.129,273.737 239.779,273.473 240.661 M90.351 248.828 C 90.351 250.010,90.425 250.493,90.514 249.902 C 90.604 249.312,90.604 248.345,90.514 247.754 C 90.425 247.163,90.351 247.646,90.351 248.828 M321.073 255.762 L 319.727 257.227 321.191 255.880 C 322.555 254.627,322.836 254.297,322.538 254.297 C 322.472 254.297,321.813 254.956,321.073 255.762 M240.923 274.495 C 241.408 274.588,242.112 274.585,242.485 274.487 C 242.858 274.389,242.461 274.313,241.602 274.317 C 240.742 274.322,240.437 274.402,240.923 274.495 M178.619 286.608 C 179.212 286.698,180.091 286.696,180.572 286.603 C 181.052 286.510,180.566 286.437,179.492 286.440 C 178.418 286.443,178.025 286.519,178.619 286.608 M169.824 286.994 C 170.308 287.088,171.099 287.088,171.582 286.994 C 172.065 286.901,171.670 286.825,170.703 286.825 C 169.736 286.825,169.341 286.901,169.824 286.994 M259.282 299.495 C 259.768 299.588,260.471 299.585,260.844 299.487 C 261.218 299.389,260.820 299.313,259.961 299.317 C 259.102 299.322,258.796 299.402,259.282 299.495 " stroke="none" fill="#92200c" fill-rule="evenodd"></path><path id="path4" d="M251.275 115.515 C 251.869 115.604,252.748 115.602,253.228 115.509 C 253.708 115.417,253.223 115.343,252.148 115.346 C 251.074 115.349,250.681 115.425,251.275 115.515 M96.854 143.652 L 95.508 145.117 96.973 143.771 C 98.336 142.518,98.617 142.188,98.319 142.188 C 98.254 142.188,97.594 142.847,96.854 143.652 M86.036 223.633 C 86.040 224.492,86.120 224.798,86.214 224.312 C 86.307 223.826,86.304 223.123,86.206 222.749 C 86.108 222.376,86.032 222.773,86.036 223.633 M266.193 254.785 L 264.648 256.445 266.309 254.901 C 267.853 253.465,268.148 253.125,267.853 253.125 C 267.789 253.125,267.042 253.872,266.193 254.785 M319.531 254.285 C 319.209 254.692,318.359 255.740,317.643 256.614 C 315.692 258.994,316.337 258.528,318.686 255.859 C 319.821 254.570,320.607 253.522,320.433 253.530 C 320.259 253.538,319.854 253.878,319.531 254.285 " stroke="none" fill="#bf0c0c" fill-rule="evenodd"></path></g></svg>